0
SECTION
2
HEADER
9
$ACADVER
1
AC1009
9
$INSUNITS
70
4
9
$MEASUREMENT
70
1
0
ENDSEC
0
SECTION
2
TABLES
0
TABLE
2
LAYER
70
3
0
LAYER
2
0
70
0
62
7
6
CONTINUOUS
0
LAYER
2
DECOUPE
70
0
62
7
6
CONTINUOUS
0
LAYER
2
TEXTE
70
0
62
3
6
CONTINUOUS
0
ENDTAB
0
ENDSEC
0
SECTION
2
ENTITIES
0
LINE
8
DECOUPE
10
0.000000
20
-116.000000
30
0.000000
11
0.000000
21
-123.000000
31
0.000000
0
ARC
8
DECOUPE
10
3.000000
20
-123.000000
30
0.000000
40
3.000000
50
180.000000
51
270.000000
0
LINE
8
DECOUPE
10
3.000000
20
-126.000000
30
0.000000
11
57.000000
21
-126.000000
31
0.000000
0
ARC
8
DECOUPE
10
57.000000
20
-123.000000
30
0.000000
40
3.000000
50
270.000000
51
0.000000
0
LINE
8
DECOUPE
10
60.000000
20
-123.000000
30
0.000000
11
60.000000
21
-109.000000
31
0.000000
0
ARC
8
DECOUPE
10
57.000000
20
-109.000000
30
0.000000
40
3.000000
50
0.000000
51
90.000000
0
LINE
8
DECOUPE
10
57.000000
20
-106.000000
30
0.000000
11
50.153016
21
-106.000000
31
0.000000
0
LINE
8
DECOUPE
10
50.153016
20
-106.000000
30
0.000000
11
50.153016
21
-104.087723
31
0.000000
0
ARC
8
DECOUPE
10
49.653016
20
-104.087723
30
0.000000
40
0.500000
50
0.000000
51
52.000000
0
LINE
8
DECOUPE
10
49.960846
20
-103.693718
30
0.000000
11
44.960846
21
-99.787290
31
0.000000
0
ARC
8
DECOUPE
10
44.653016
20
-100.181295
30
0.000000
40
0.500000
50
52.000000
51
180.000000
0
LINE
8
DECOUPE
10
44.153016
20
-100.181295
30
0.000000
11
44.153016
21
-106.000000
31
0.000000
0
LINE
8
DECOUPE
10
44.153016
20
-106.000000
30
0.000000
11
15.000000
21
-106.000000
31
0.000000
0
ARC
8
DECOUPE
10
15.000000
20
-103.000000
30
0.000000
40
3.000000
50
180.000000
51
270.000000
0
LINE
8
DECOUPE
10
12.000000
20
-103.000000
30
0.000000
11
12.000000
21
-3.000000
31
0.000000
0
ARC
8
DECOUPE
10
9.000000
20
-3.000000
30
0.000000
40
3.000000
50
360.000000
51
90.000000
0
LINE
8
DECOUPE
10
9.000000
20
0.000000
30
0.000000
11
-8.000000
21
0.000000
31
0.000000
0
ARC
8
DECOUPE
10
-8.000000
20
-1.000000
30
0.000000
40
1.000000
50
90.000000
51
180.000000
0
LINE
8
DECOUPE
10
-9.000000
20
-1.000000
30
0.000000
11
-9.000000
21
-8.000000
31
0.000000
0
ARC
8
DECOUPE
10
-8.000000
20
-8.000000
30
0.000000
40
1.000000
50
180.000000
51
270.000000
0
LINE
8
DECOUPE
10
-8.000000
20
-9.000000
30
0.000000
11
-5.000000
21
-9.000000
31
0.000000
0
ARC
8
DECOUPE
10
-5.000000
20
-8.000000
30
0.000000
40
1.000000
50
270.000000
51
0.000000
0
LINE
8
DECOUPE
10
-4.000000
20
-8.000000
30
0.000000
11
-4.000000
21
-6.500000
31
0.000000
0
ARC
8
DECOUPE
10
-3.500000
20
-6.500000
30
0.000000
40
0.500000
50
90.000000
51
180.000000
0
LINE
8
DECOUPE
10
-3.500000
20
-6.000000
30
0.000000
11
0.000000
21
-6.000000
31
0.000000
0
LINE
8
DECOUPE
10
0.000000
20
-6.000000
30
0.000000
11
0.000000
21
-40.000000
31
0.000000
0
LINE
8
DECOUPE
10
0.000000
20
-40.000000
30
0.000000
11
-8.000000
21
-40.000000
31
0.000000
0
ARC
8
DECOUPE
10
-8.000000
20
-41.000000
30
0.000000
40
1.000000
50
90.000000
51
180.000000
0
LINE
8
DECOUPE
10
-9.000000
20
-41.000000
30
0.000000
11
-9.000000
21
-48.000000
31
0.000000
0
ARC
8
DECOUPE
10
-8.000000
20
-48.000000
30
0.000000
40
1.000000
50
180.000000
51
270.000000
0
LINE
8
DECOUPE
10
-8.000000
20
-49.000000
30
0.000000
11
-5.000000
21
-49.000000
31
0.000000
0
ARC
8
DECOUPE
10
-5.000000
20
-48.000000
30
0.000000
40
1.000000
50
270.000000
51
0.000000
0
LINE
8
DECOUPE
10
-4.000000
20
-48.000000
30
0.000000
11
-4.000000
21
-46.500000
31
0.000000
0
ARC
8
DECOUPE
10
-3.500000
20
-46.500000
30
0.000000
40
0.500000
50
90.000000
51
180.000000
0
LINE
8
DECOUPE
10
-3.500000
20
-46.000000
30
0.000000
11
0.000000
21
-46.000000
31
0.000000
0
LINE
8
DECOUPE
10
0.000000
20
-46.000000
30
0.000000
11
0.000000
21
-70.000000
31
0.000000
0
LINE
8
DECOUPE
10
0.000000
20
-70.000000
30
0.000000
11
-8.000000
21
-70.000000
31
0.000000
0
ARC
8
DECOUPE
10
-8.000000
20
-71.000000
30
0.000000
40
1.000000
50
90.000000
51
180.000000
0
LINE
8
DECOUPE
10
-9.000000
20
-71.000000
30
0.000000
11
-9.000000
21
-78.000000
31
0.000000
0
ARC
8
DECOUPE
10
-8.000000
20
-78.000000
30
0.000000
40
1.000000
50
180.000000
51
270.000000
0
LINE
8
DECOUPE
10
-8.000000
20
-79.000000
30
0.000000
11
-5.000000
21
-79.000000
31
0.000000
0
ARC
8
DECOUPE
10
-5.000000
20
-78.000000
30
0.000000
40
1.000000
50
270.000000
51
0.000000
0
LINE
8
DECOUPE
10
-4.000000
20
-78.000000
30
0.000000
11
-4.000000
21
-76.500000
31
0.000000
0
ARC
8
DECOUPE
10
-3.500000
20
-76.500000
30
0.000000
40
0.500000
50
90.000000
51
180.000000
0
LINE
8
DECOUPE
10
-3.500000
20
-76.000000
30
0.000000
11
0.000000
21
-76.000000
31
0.000000
0
LINE
8
DECOUPE
10
0.000000
20
-76.000000
30
0.000000
11
0.000000
21
-110.000000
31
0.000000
0
LINE
8
DECOUPE
10
0.000000
20
-110.000000
30
0.000000
11
-8.000000
21
-110.000000
31
0.000000
0
ARC
8
DECOUPE
10
-8.000000
20
-111.000000
30
0.000000
40
1.000000
50
90.000000
51
180.000000
0
LINE
8
DECOUPE
10
-9.000000
20
-111.000000
30
0.000000
11
-9.000000
21
-118.000000
31
0.000000
0
ARC
8
DECOUPE
10
-8.000000
20
-118.000000
30
0.000000
40
1.000000
50
180.000000
51
270.000000
0
LINE
8
DECOUPE
10
-8.000000
20
-119.000000
30
0.000000
11
-5.000000
21
-119.000000
31
0.000000
0
ARC
8
DECOUPE
10
-5.000000
20
-118.000000
30
0.000000
40
1.000000
50
270.000000
51
0.000000
0
LINE
8
DECOUPE
10
-4.000000
20
-118.000000
30
0.000000
11
-4.000000
21
-116.500000
31
0.000000
0
ARC
8
DECOUPE
10
-3.500000
20
-116.500000
30
0.000000
40
0.500000
50
90.000000
51
180.000000
0
LINE
8
DECOUPE
10
-3.500000
20
-116.000000
30
0.000000
11
0.000000
21
-116.000000
31
0.000000
0
TEXT
8
TEXTE
10
-9.000000
20
-140.000000
30
0.000000
40
8.000000
1
CROCHET  ep8  S355JR  x4
0
TEXT
8
TEXTE
10
-9.000000
20
-152.000000
30
0.000000
40
5.000000
1
brut : tole 8 mm, cert. 2.2
0
TEXT
8
TEXTE
10
-9.000000
20
-161.000000
30
0.000000
40
5.000000
1
ind. B du 05/10/2026  -  tole S355JR reelle prise a 8,00 mm (fentes ou serrages qui recoivent cette piece)
0
TEXT
8
TEXTE
10
-9.000000
20
-170.000000
30
0.000000
40
4.000000
1
calques : DECOUPE = couper ; GRAVURE = marquer sans couper ; TEXTE = ni couper ni marquer
0
ENDSEC
0
EOF
