0
SECTION
2
HEADER
9
$ACADVER
1
AC1009
9
$INSUNITS
70
4
9
$MEASUREMENT
70
1
0
ENDSEC
0
SECTION
2
TABLES
0
TABLE
2
LAYER
70
3
0
LAYER
2
0
70
0
62
7
6
CONTINUOUS
0
LAYER
2
DECOUPE
70
0
62
7
6
CONTINUOUS
0
LAYER
2
TEXTE
70
0
62
3
6
CONTINUOUS
0
ENDTAB
0
ENDSEC
0
SECTION
2
ENTITIES
0
LINE
8
DECOUPE
10
0.000000
20
-97.000000
30
0.000000
11
0.000000
21
-124.000000
31
0.000000
0
ARC
8
DECOUPE
10
3.000000
20
-124.000000
30
0.000000
40
3.000000
50
180.000000
51
270.000000
0
LINE
8
DECOUPE
10
3.000000
20
-127.000000
30
0.000000
11
57.000000
21
-127.000000
31
0.000000
0
ARC
8
DECOUPE
10
57.000000
20
-124.000000
30
0.000000
40
3.000000
50
270.000000
51
0.000000
0
LINE
8
DECOUPE
10
60.000000
20
-124.000000
30
0.000000
11
60.000000
21
-110.000000
31
0.000000
0
ARC
8
DECOUPE
10
57.000000
20
-110.000000
30
0.000000
40
3.000000
50
0.000000
51
90.000000
0
LINE
8
DECOUPE
10
57.000000
20
-107.000000
30
0.000000
11
51.153016
21
-107.000000
31
0.000000
0
LINE
8
DECOUPE
10
51.153016
20
-107.000000
30
0.000000
11
51.153016
21
-105.087723
31
0.000000
0
ARC
8
DECOUPE
10
50.653016
20
-105.087723
30
0.000000
40
0.500000
50
0.000000
51
52.000000
0
LINE
8
DECOUPE
10
50.960846
20
-104.693718
30
0.000000
11
45.960846
21
-100.787290
31
0.000000
0
ARC
8
DECOUPE
10
45.653016
20
-101.181295
30
0.000000
40
0.500000
50
52.000000
51
180.000000
0
LINE
8
DECOUPE
10
45.153016
20
-101.181295
30
0.000000
11
45.153016
21
-107.000000
31
0.000000
0
LINE
8
DECOUPE
10
45.153016
20
-107.000000
30
0.000000
11
15.000000
21
-107.000000
31
0.000000
0
ARC
8
DECOUPE
10
15.000000
20
-104.000000
30
0.000000
40
3.000000
50
180.000000
51
270.000000
0
LINE
8
DECOUPE
10
12.000000
20
-104.000000
30
0.000000
11
12.000000
21
-3.000000
31
0.000000
0
ARC
8
DECOUPE
10
9.000000
20
-3.000000
30
0.000000
40
3.000000
50
360.000000
51
90.000000
0
LINE
8
DECOUPE
10
9.000000
20
0.000000
30
0.000000
11
-8.000000
21
0.000000
31
0.000000
0
ARC
8
DECOUPE
10
-8.000000
20
-1.000000
30
0.000000
40
1.000000
50
90.000000
51
180.000000
0
LINE
8
DECOUPE
10
-9.000000
20
-1.000000
30
0.000000
11
-9.000000
21
-11.000000
31
0.000000
0
ARC
8
DECOUPE
10
-8.000000
20
-11.000000
30
0.000000
40
1.000000
50
180.000000
51
270.000000
0
LINE
8
DECOUPE
10
-8.000000
20
-12.000000
30
0.000000
11
-5.000000
21
-12.000000
31
0.000000
0
ARC
8
DECOUPE
10
-5.000000
20
-11.000000
30
0.000000
40
1.000000
50
270.000000
51
0.000000
0
LINE
8
DECOUPE
10
-4.000000
20
-11.000000
30
0.000000
11
-4.000000
21
-7.500000
31
0.000000
0
ARC
8
DECOUPE
10
-3.500000
20
-7.500000
30
0.000000
40
0.500000
50
90.000000
51
180.000000
0
LINE
8
DECOUPE
10
-3.500000
20
-7.000000
30
0.000000
11
0.000000
21
-7.000000
31
0.000000
0
LINE
8
DECOUPE
10
0.000000
20
-7.000000
30
0.000000
11
0.000000
21
-40.000000
31
0.000000
0
LINE
8
DECOUPE
10
0.000000
20
-40.000000
30
0.000000
11
-8.000000
21
-40.000000
31
0.000000
0
ARC
8
DECOUPE
10
-8.000000
20
-41.000000
30
0.000000
40
1.000000
50
90.000000
51
180.000000
0
LINE
8
DECOUPE
10
-9.000000
20
-41.000000
30
0.000000
11
-9.000000
21
-51.000000
31
0.000000
0
ARC
8
DECOUPE
10
-8.000000
20
-51.000000
30
0.000000
40
1.000000
50
180.000000
51
270.000000
0
LINE
8
DECOUPE
10
-8.000000
20
-52.000000
30
0.000000
11
-5.000000
21
-52.000000
31
0.000000
0
ARC
8
DECOUPE
10
-5.000000
20
-51.000000
30
0.000000
40
1.000000
50
270.000000
51
0.000000
0
LINE
8
DECOUPE
10
-4.000000
20
-51.000000
30
0.000000
11
-4.000000
21
-47.500000
31
0.000000
0
ARC
8
DECOUPE
10
-3.500000
20
-47.500000
30
0.000000
40
0.500000
50
90.000000
51
180.000000
0
LINE
8
DECOUPE
10
-3.500000
20
-47.000000
30
0.000000
11
0.000000
21
-47.000000
31
0.000000
0
LINE
8
DECOUPE
10
0.000000
20
-47.000000
30
0.000000
11
0.000000
21
-90.000000
31
0.000000
0
LINE
8
DECOUPE
10
0.000000
20
-90.000000
30
0.000000
11
-8.000000
21
-90.000000
31
0.000000
0
ARC
8
DECOUPE
10
-8.000000
20
-91.000000
30
0.000000
40
1.000000
50
90.000000
51
180.000000
0
LINE
8
DECOUPE
10
-9.000000
20
-91.000000
30
0.000000
11
-9.000000
21
-101.000000
31
0.000000
0
ARC
8
DECOUPE
10
-8.000000
20
-101.000000
30
0.000000
40
1.000000
50
180.000000
51
270.000000
0
LINE
8
DECOUPE
10
-8.000000
20
-102.000000
30
0.000000
11
-5.000000
21
-102.000000
31
0.000000
0
ARC
8
DECOUPE
10
-5.000000
20
-101.000000
30
0.000000
40
1.000000
50
270.000000
51
0.000000
0
LINE
8
DECOUPE
10
-4.000000
20
-101.000000
30
0.000000
11
-4.000000
21
-97.500000
31
0.000000
0
ARC
8
DECOUPE
10
-3.500000
20
-97.500000
30
0.000000
40
0.500000
50
90.000000
51
180.000000
0
LINE
8
DECOUPE
10
-3.500000
20
-97.000000
30
0.000000
11
0.000000
21
-97.000000
31
0.000000
0
TEXT
8
TEXTE
10
-9.000000
20
-141.000000
30
0.000000
40
8.000000
1
CROCHET  ep8  42CrMo4 +A  x4
0
TEXT
8
TEXTE
10
-9.000000
20
-153.000000
30
0.000000
40
5.000000
1
brut : tole 8 mm, cert. 3.1, Re >= 430
0
TEXT
8
TEXTE
10
-9.000000
20
-162.000000
30
0.000000
40
5.000000
1
ind. A du 02/10/2026  -  fentes et encoches taillees pour une tole reelle de 8,00 mm
0
TEXT
8
TEXTE
10
-9.000000
20
-171.000000
30
0.000000
40
4.000000
1
calques : DECOUPE = couper ; GRAVURE = marquer sans couper ; TEXTE = ni couper ni marquer
0
TEXT
8
TEXTE
10
-9.000000
20
10.000000
30
0.000000
40
10.000000
1
NE PAS DECOUPER AVANT CONFIRMATION DE LA LARGEUR D'ETUVE
0
ENDSEC
0
EOF
