0
SECTION
2
HEADER
9
$ACADVER
1
AC1009
9
$INSUNITS
70
4
9
$MEASUREMENT
70
1
0
ENDSEC
0
SECTION
2
TABLES
0
TABLE
2
LAYER
70
4
0
LAYER
2
0
70
0
62
7
6
CONTINUOUS
0
LAYER
2
DECOUPE
70
0
62
7
6
CONTINUOUS
0
LAYER
2
GRAVURE
70
0
62
1
6
CONTINUOUS
0
LAYER
2
TEXTE
70
0
62
3
6
CONTINUOUS
0
ENDTAB
0
ENDSEC
0
SECTION
2
ENTITIES
0
LINE
8
DECOUPE
10
-480.000000
20
432.619820
30
0.000000
11
-480.000000
21
7.380180
31
0.000000
0
ARC
8
DECOUPE
10
-479.000000
20
7.380180
30
0.000000
40
1.000000
50
180.000000
51
308.000000
0
LINE
8
DECOUPE
10
-478.384339
20
6.592170
30
0.000000
11
-461.703493
21
19.624674
31
0.000000
0
LINE
8
DECOUPE
10
-461.703493
20
19.624674
30
0.000000
11
-461.444969
21
21.730183
31
0.000000
0
LINE
8
DECOUPE
10
-461.444969
20
21.730183
30
0.000000
11
-459.339461
21
21.471659
31
0.000000
0
LINE
8
DECOUPE
10
-459.339461
20
21.471659
30
0.000000
11
-459.597985
21
19.366150
31
0.000000
0
LINE
8
DECOUPE
10
-459.597985
20
19.366150
30
0.000000
11
-456.273413
21
15.110892
31
0.000000
0
LINE
8
DECOUPE
10
-456.273413
20
15.110892
30
0.000000
11
-454.167905
21
14.852368
31
0.000000
0
LINE
8
DECOUPE
10
-454.167905
20
14.852368
30
0.000000
11
-454.426428
21
12.746860
31
0.000000
0
LINE
8
DECOUPE
10
-454.426428
20
12.746860
30
0.000000
11
-456.531937
21
13.005384
31
0.000000
0
LINE
8
DECOUPE
10
-456.531937
20
13.005384
30
0.000000
11
-470.889520
21
1.788011
31
0.000000
0
ARC
8
DECOUPE
10
-470.273858
20
1.000000
30
0.000000
40
1.000000
50
128.000000
51
270.000000
0
LINE
8
DECOUPE
10
-470.273858
20
0.000000
30
0.000000
11
-255.200000
21
0.000000
31
0.000000
0
ARC
8
DECOUPE
10
-255.200000
20
1.000000
30
0.000000
40
1.000000
50
270.000000
51
0.000000
0
LINE
8
DECOUPE
10
-254.200000
20
1.000000
30
0.000000
11
-254.200000
21
6.500000
31
0.000000
0
LINE
8
DECOUPE
10
-254.200000
20
6.500000
30
0.000000
11
-255.700000
21
8.000000
31
0.000000
0
LINE
8
DECOUPE
10
-255.700000
20
8.000000
30
0.000000
11
-254.200000
21
9.500000
31
0.000000
0
LINE
8
DECOUPE
10
-254.200000
20
9.500000
30
0.000000
11
-252.700000
21
8.000000
31
0.000000
0
LINE
8
DECOUPE
10
-252.700000
20
8.000000
30
0.000000
11
-247.300000
21
8.000000
31
0.000000
0
LINE
8
DECOUPE
10
-247.300000
20
8.000000
30
0.000000
11
-245.800000
21
9.500000
31
0.000000
0
LINE
8
DECOUPE
10
-245.800000
20
9.500000
30
0.000000
11
-244.300000
21
8.000000
31
0.000000
0
LINE
8
DECOUPE
10
-244.300000
20
8.000000
30
0.000000
11
-245.800000
21
6.500000
31
0.000000
0
LINE
8
DECOUPE
10
-245.800000
20
6.500000
30
0.000000
11
-245.800000
21
1.000000
31
0.000000
0
ARC
8
DECOUPE
10
-244.800000
20
1.000000
30
0.000000
40
1.000000
50
180.000000
51
270.000000
0
LINE
8
DECOUPE
10
-244.800000
20
0.000000
30
0.000000
11
244.800000
21
0.000000
31
0.000000
0
ARC
8
DECOUPE
10
244.800000
20
1.000000
30
0.000000
40
1.000000
50
270.000000
51
0.000000
0
LINE
8
DECOUPE
10
245.800000
20
1.000000
30
0.000000
11
245.800000
21
6.500000
31
0.000000
0
LINE
8
DECOUPE
10
245.800000
20
6.500000
30
0.000000
11
244.300000
21
8.000000
31
0.000000
0
LINE
8
DECOUPE
10
244.300000
20
8.000000
30
0.000000
11
245.800000
21
9.500000
31
0.000000
0
LINE
8
DECOUPE
10
245.800000
20
9.500000
30
0.000000
11
247.300000
21
8.000000
31
0.000000
0
LINE
8
DECOUPE
10
247.300000
20
8.000000
30
0.000000
11
252.700000
21
8.000000
31
0.000000
0
LINE
8
DECOUPE
10
252.700000
20
8.000000
30
0.000000
11
254.200000
21
9.500000
31
0.000000
0
LINE
8
DECOUPE
10
254.200000
20
9.500000
30
0.000000
11
255.700000
21
8.000000
31
0.000000
0
LINE
8
DECOUPE
10
255.700000
20
8.000000
30
0.000000
11
254.200000
21
6.500000
31
0.000000
0
LINE
8
DECOUPE
10
254.200000
20
6.500000
30
0.000000
11
254.200000
21
1.000000
31
0.000000
0
ARC
8
DECOUPE
10
255.200000
20
1.000000
30
0.000000
40
1.000000
50
180.000000
51
270.000000
0
LINE
8
DECOUPE
10
255.200000
20
0.000000
30
0.000000
11
470.273858
21
0.000000
31
0.000000
0
ARC
8
DECOUPE
10
470.273858
20
1.000000
30
0.000000
40
1.000000
50
270.000000
51
52.000000
0
LINE
8
DECOUPE
10
470.889520
20
1.788011
30
0.000000
11
456.531937
21
13.005384
31
0.000000
0
LINE
8
DECOUPE
10
456.531937
20
13.005384
30
0.000000
11
454.426428
21
12.746860
31
0.000000
0
LINE
8
DECOUPE
10
454.426428
20
12.746860
30
0.000000
11
454.167905
21
14.852368
31
0.000000
0
LINE
8
DECOUPE
10
454.167905
20
14.852368
30
0.000000
11
456.273413
21
15.110892
31
0.000000
0
LINE
8
DECOUPE
10
456.273413
20
15.110892
30
0.000000
11
459.597985
21
19.366150
31
0.000000
0
LINE
8
DECOUPE
10
459.597985
20
19.366150
30
0.000000
11
459.339461
21
21.471659
31
0.000000
0
LINE
8
DECOUPE
10
459.339461
20
21.471659
30
0.000000
11
461.444969
21
21.730183
31
0.000000
0
LINE
8
DECOUPE
10
461.444969
20
21.730183
30
0.000000
11
461.703493
21
19.624674
31
0.000000
0
LINE
8
DECOUPE
10
461.703493
20
19.624674
30
0.000000
11
478.384339
21
6.592170
31
0.000000
0
ARC
8
DECOUPE
10
479.000000
20
7.380180
30
0.000000
40
1.000000
50
232.000000
51
0.000000
0
LINE
8
DECOUPE
10
480.000000
20
7.380180
30
0.000000
11
480.000000
21
432.619820
31
0.000000
0
ARC
8
DECOUPE
10
479.000000
20
432.619820
30
0.000000
40
1.000000
50
0.000000
51
128.000000
0
LINE
8
DECOUPE
10
478.384339
20
433.407830
30
0.000000
11
461.703493
21
420.375326
31
0.000000
0
LINE
8
DECOUPE
10
461.703493
20
420.375326
30
0.000000
11
461.444969
21
418.269817
31
0.000000
0
LINE
8
DECOUPE
10
461.444969
20
418.269817
30
0.000000
11
459.339461
21
418.528341
31
0.000000
0
LINE
8
DECOUPE
10
459.339461
20
418.528341
30
0.000000
11
459.597985
21
420.633850
31
0.000000
0
LINE
8
DECOUPE
10
459.597985
20
420.633850
30
0.000000
11
456.273413
21
424.889108
31
0.000000
0
LINE
8
DECOUPE
10
456.273413
20
424.889108
30
0.000000
11
454.167905
21
425.147632
31
0.000000
0
LINE
8
DECOUPE
10
454.167905
20
425.147632
30
0.000000
11
454.426428
21
427.253140
31
0.000000
0
LINE
8
DECOUPE
10
454.426428
20
427.253140
30
0.000000
11
456.531937
21
426.994616
31
0.000000
0
LINE
8
DECOUPE
10
456.531937
20
426.994616
30
0.000000
11
470.889520
21
438.211989
31
0.000000
0
ARC
8
DECOUPE
10
470.273858
20
439.000000
30
0.000000
40
1.000000
50
308.000000
51
90.000000
0
LINE
8
DECOUPE
10
470.273858
20
440.000000
30
0.000000
11
-470.273858
21
440.000000
31
0.000000
0
ARC
8
DECOUPE
10
-470.273858
20
439.000000
30
0.000000
40
1.000000
50
90.000000
51
232.000000
0
LINE
8
DECOUPE
10
-470.889520
20
438.211989
30
0.000000
11
-456.531937
21
426.994616
31
0.000000
0
LINE
8
DECOUPE
10
-456.531937
20
426.994616
30
0.000000
11
-454.426428
21
427.253140
31
0.000000
0
LINE
8
DECOUPE
10
-454.426428
20
427.253140
30
0.000000
11
-454.167905
21
425.147632
31
0.000000
0
LINE
8
DECOUPE
10
-454.167905
20
425.147632
30
0.000000
11
-456.273413
21
424.889108
31
0.000000
0
LINE
8
DECOUPE
10
-456.273413
20
424.889108
30
0.000000
11
-459.597985
21
420.633850
31
0.000000
0
LINE
8
DECOUPE
10
-459.597985
20
420.633850
30
0.000000
11
-459.339461
21
418.528341
31
0.000000
0
LINE
8
DECOUPE
10
-459.339461
20
418.528341
30
0.000000
11
-461.444969
21
418.269817
31
0.000000
0
LINE
8
DECOUPE
10
-461.444969
20
418.269817
30
0.000000
11
-461.703493
21
420.375326
31
0.000000
0
LINE
8
DECOUPE
10
-461.703493
20
420.375326
30
0.000000
11
-478.384339
21
433.407830
31
0.000000
0
ARC
8
DECOUPE
10
-479.000000
20
432.619820
30
0.000000
40
1.000000
50
52.000000
51
180.000000
0
LINE
8
DECOUPE
10
-435.000000
20
355.693202
30
0.000000
11
-435.000000
21
62.000000
31
0.000000
0
ARC
8
DECOUPE
10
-413.000000
20
62.000000
30
0.000000
40
22.000000
50
180.000000
51
270.000000
0
LINE
8
DECOUPE
10
-413.000000
20
40.000000
30
0.000000
11
-408.282878
21
40.000000
31
0.000000
0
ARC
8
DECOUPE
10
-408.282878
20
50.000000
30
0.000000
40
10.000000
50
270.000000
51
282.006227
0
ARC
8
DECOUPE
10
-375.000000
20
-106.500000
30
0.000000
40
150.000000
50
77.993773
51
102.006227
0
ARC
8
DECOUPE
10
-341.717122
20
50.000000
30
0.000000
40
10.000000
50
257.993773
51
270.000000
0
LINE
8
DECOUPE
10
-341.717122
20
40.000000
30
0.000000
11
341.717122
21
40.000000
31
0.000000
0
ARC
8
DECOUPE
10
341.717122
20
50.000000
30
0.000000
40
10.000000
50
270.000000
51
282.006227
0
ARC
8
DECOUPE
10
375.000000
20
-106.500000
30
0.000000
40
150.000000
50
77.993773
51
102.006227
0
ARC
8
DECOUPE
10
408.282878
20
50.000000
30
0.000000
40
10.000000
50
257.993773
51
270.000000
0
LINE
8
DECOUPE
10
408.282878
20
40.000000
30
0.000000
11
413.000000
21
40.000000
31
0.000000
0
ARC
8
DECOUPE
10
413.000000
20
62.000000
30
0.000000
40
22.000000
50
270.000000
51
0.000000
0
LINE
8
DECOUPE
10
435.000000
20
62.000000
30
0.000000
11
435.000000
21
355.693202
31
0.000000
0
ARC
8
DECOUPE
10
415.000000
20
355.693202
30
0.000000
40
20.000000
50
360.000000
51
107.969140
0
LINE
8
DECOUPE
10
408.829906
20
374.717658
30
0.000000
11
82.287383
21
268.811975
31
0.000000
0
ARC
8
DECOUPE
10
90.000000
20
245.031404
30
0.000000
40
25.000000
50
107.969140
51
180.000000
0
LINE
8
DECOUPE
10
65.000000
20
245.031404
30
0.000000
11
65.000000
21
231.000000
31
0.000000
0
ARC
8
DECOUPE
10
50.000000
20
231.000000
30
0.000000
40
15.000000
50
270.000000
51
0.000000
0
LINE
8
DECOUPE
10
50.000000
20
216.000000
30
0.000000
11
-50.000000
21
216.000000
31
0.000000
0
ARC
8
DECOUPE
10
-50.000000
20
231.000000
30
0.000000
40
15.000000
50
180.000000
51
270.000000
0
LINE
8
DECOUPE
10
-65.000000
20
231.000000
30
0.000000
11
-65.000000
21
245.031404
31
0.000000
0
ARC
8
DECOUPE
10
-90.000000
20
245.031404
30
0.000000
40
25.000000
50
0.000000
51
72.030860
0
LINE
8
DECOUPE
10
-82.287383
20
268.811975
30
0.000000
11
-408.829906
21
374.717658
31
0.000000
0
ARC
8
DECOUPE
10
-415.000000
20
355.693202
30
0.000000
40
20.000000
50
72.030860
51
180.000000
0
ARC
8
DECOUPE
10
-114.977434
20
369.401747
30
0.000000
40
40.598253
50
0.000000
51
180.000000
0
ARC
8
DECOUPE
10
-114.977434
20
369.401747
30
0.000000
40
40.598253
50
180.000000
51
0.000000
0
ARC
8
DECOUPE
10
-192.887848
20
381.720037
30
0.000000
40
28.279963
50
0.000000
51
180.000000
0
ARC
8
DECOUPE
10
-192.887848
20
381.720037
30
0.000000
40
28.279963
50
180.000000
51
0.000000
0
ARC
8
DECOUPE
10
-249.750896
20
390.710562
30
0.000000
40
19.289438
50
0.000000
51
180.000000
0
ARC
8
DECOUPE
10
-249.750896
20
390.710562
30
0.000000
40
19.289438
50
180.000000
51
0.000000
0
ARC
8
DECOUPE
10
-291.252489
20
397.272313
30
0.000000
40
12.727687
50
0.000000
51
180.000000
0
ARC
8
DECOUPE
10
-291.252489
20
397.272313
30
0.000000
40
12.727687
50
180.000000
51
0.000000
0
ARC
8
DECOUPE
10
114.977434
20
369.401747
30
0.000000
40
40.598253
50
0.000000
51
180.000000
0
ARC
8
DECOUPE
10
114.977434
20
369.401747
30
0.000000
40
40.598253
50
180.000000
51
0.000000
0
ARC
8
DECOUPE
10
192.887848
20
381.720037
30
0.000000
40
28.279963
50
0.000000
51
180.000000
0
ARC
8
DECOUPE
10
192.887848
20
381.720037
30
0.000000
40
28.279963
50
180.000000
51
0.000000
0
ARC
8
DECOUPE
10
249.750896
20
390.710562
30
0.000000
40
19.289438
50
0.000000
51
180.000000
0
ARC
8
DECOUPE
10
249.750896
20
390.710562
30
0.000000
40
19.289438
50
180.000000
51
0.000000
0
ARC
8
DECOUPE
10
291.252489
20
397.272313
30
0.000000
40
12.727687
50
0.000000
51
180.000000
0
ARC
8
DECOUPE
10
291.252489
20
397.272313
30
0.000000
40
12.727687
50
180.000000
51
0.000000
0
ARC
8
DECOUPE
10
-285.000000
20
20.000000
30
0.000000
40
10.000000
50
0.000000
51
180.000000
0
ARC
8
DECOUPE
10
-285.000000
20
20.000000
30
0.000000
40
10.000000
50
180.000000
51
0.000000
0
ARC
8
DECOUPE
10
-190.000000
20
20.000000
30
0.000000
40
10.000000
50
0.000000
51
180.000000
0
ARC
8
DECOUPE
10
-190.000000
20
20.000000
30
0.000000
40
10.000000
50
180.000000
51
0.000000
0
ARC
8
DECOUPE
10
-95.000000
20
20.000000
30
0.000000
40
10.000000
50
0.000000
51
180.000000
0
ARC
8
DECOUPE
10
-95.000000
20
20.000000
30
0.000000
40
10.000000
50
180.000000
51
0.000000
0
ARC
8
DECOUPE
10
0.000000
20
20.000000
30
0.000000
40
10.000000
50
0.000000
51
180.000000
0
ARC
8
DECOUPE
10
0.000000
20
20.000000
30
0.000000
40
10.000000
50
180.000000
51
0.000000
0
ARC
8
DECOUPE
10
95.000000
20
20.000000
30
0.000000
40
10.000000
50
0.000000
51
180.000000
0
ARC
8
DECOUPE
10
95.000000
20
20.000000
30
0.000000
40
10.000000
50
180.000000
51
0.000000
0
ARC
8
DECOUPE
10
190.000000
20
20.000000
30
0.000000
40
10.000000
50
0.000000
51
180.000000
0
ARC
8
DECOUPE
10
190.000000
20
20.000000
30
0.000000
40
10.000000
50
180.000000
51
0.000000
0
ARC
8
DECOUPE
10
285.000000
20
20.000000
30
0.000000
40
10.000000
50
0.000000
51
180.000000
0
ARC
8
DECOUPE
10
285.000000
20
20.000000
30
0.000000
40
10.000000
50
180.000000
51
0.000000
0
LINE
8
DECOUPE
10
-51.000000
20
246.800000
30
0.000000
11
-51.000000
21
261.600000
31
0.000000
0
ARC
8
DECOUPE
10
-44.000000
20
261.600000
30
0.000000
40
7.000000
50
0.000000
51
180.000000
0
LINE
8
DECOUPE
10
-37.000000
20
261.600000
30
0.000000
11
-37.000000
21
246.800000
31
0.000000
0
ARC
8
DECOUPE
10
-44.000000
20
246.800000
30
0.000000
40
7.000000
50
180.000000
51
0.000000
0
LINE
8
DECOUPE
10
37.000000
20
246.800000
30
0.000000
11
37.000000
21
261.600000
31
0.000000
0
ARC
8
DECOUPE
10
44.000000
20
261.600000
30
0.000000
40
7.000000
50
0.000000
51
180.000000
0
LINE
8
DECOUPE
10
51.000000
20
261.600000
30
0.000000
11
51.000000
21
246.800000
31
0.000000
0
ARC
8
DECOUPE
10
44.000000
20
246.800000
30
0.000000
40
7.000000
50
180.000000
51
0.000000
0
LINE
8
DECOUPE
10
-22.000000
20
321.711703
30
0.000000
11
-22.000000
21
260.426414
31
0.000000
0
ARC
8
DECOUPE
10
-18.000000
20
260.426414
30
0.000000
40
4.000000
50
180.000000
51
270.000000
0
LINE
8
DECOUPE
10
-18.000000
20
256.426414
30
0.000000
11
18.000000
21
256.426414
31
0.000000
0
ARC
8
DECOUPE
10
18.000000
20
260.426414
30
0.000000
40
4.000000
50
270.000000
51
0.000000
0
LINE
8
DECOUPE
10
22.000000
20
260.426414
30
0.000000
11
22.000000
21
321.711703
31
0.000000
0
ARC
8
DECOUPE
10
18.000000
20
321.711703
30
0.000000
40
4.000000
50
0.000000
51
90.000000
0
LINE
8
DECOUPE
10
18.000000
20
325.711703
30
0.000000
11
-18.000000
21
325.711703
31
0.000000
0
ARC
8
DECOUPE
10
-18.000000
20
321.711703
30
0.000000
40
4.000000
50
90.000000
51
180.000000
0
LINE
8
DECOUPE
10
-26.000000
20
379.911703
30
0.000000
11
-26.000000
21
363.511703
31
0.000000
0
ARC
8
DECOUPE
10
-24.000000
20
363.511703
30
0.000000
40
2.000000
50
180.000000
51
270.000000
0
LINE
8
DECOUPE
10
-24.000000
20
361.511703
30
0.000000
11
24.000000
21
361.511703
31
0.000000
0
ARC
8
DECOUPE
10
24.000000
20
363.511703
30
0.000000
40
2.000000
50
270.000000
51
0.000000
0
LINE
8
DECOUPE
10
26.000000
20
363.511703
30
0.000000
11
26.000000
21
379.911703
31
0.000000
0
ARC
8
DECOUPE
10
24.000000
20
379.911703
30
0.000000
40
2.000000
50
0.000000
51
90.000000
0
LINE
8
DECOUPE
10
24.000000
20
381.911703
30
0.000000
11
-24.000000
21
381.911703
31
0.000000
0
ARC
8
DECOUPE
10
-24.000000
20
379.911703
30
0.000000
40
2.000000
50
90.000000
51
180.000000
0
ARC
8
DECOUPE
10
-457.500000
20
50.000000
30
0.000000
40
5.500000
50
0.000000
51
180.000000
0
ARC
8
DECOUPE
10
-457.500000
20
50.000000
30
0.000000
40
5.500000
50
180.000000
51
0.000000
0
ARC
8
DECOUPE
10
-457.500000
20
390.000000
30
0.000000
40
5.500000
50
0.000000
51
180.000000
0
ARC
8
DECOUPE
10
-457.500000
20
390.000000
30
0.000000
40
5.500000
50
180.000000
51
0.000000
0
ARC
8
DECOUPE
10
-250.000000
20
341.602628
30
0.000000
40
5.500000
50
0.000000
51
180.000000
0
ARC
8
DECOUPE
10
-250.000000
20
341.602628
30
0.000000
40
5.500000
50
180.000000
51
0.000000
0
ARC
8
DECOUPE
10
457.500000
20
50.000000
30
0.000000
40
5.500000
50
0.000000
51
180.000000
0
ARC
8
DECOUPE
10
457.500000
20
50.000000
30
0.000000
40
5.500000
50
180.000000
51
0.000000
0
ARC
8
DECOUPE
10
457.500000
20
390.000000
30
0.000000
40
5.500000
50
0.000000
51
180.000000
0
ARC
8
DECOUPE
10
457.500000
20
390.000000
30
0.000000
40
5.500000
50
180.000000
51
0.000000
0
ARC
8
DECOUPE
10
250.000000
20
341.602628
30
0.000000
40
5.500000
50
0.000000
51
180.000000
0
ARC
8
DECOUPE
10
250.000000
20
341.602628
30
0.000000
40
5.500000
50
180.000000
51
0.000000
0
ARC
8
DECOUPE
10
-52.000000
20
302.711703
30
0.000000
40
5.500000
50
0.000000
51
180.000000
0
ARC
8
DECOUPE
10
-52.000000
20
302.711703
30
0.000000
40
5.500000
50
180.000000
51
0.000000
0
ARC
8
DECOUPE
10
52.000000
20
302.711703
30
0.000000
40
5.500000
50
0.000000
51
180.000000
0
ARC
8
DECOUPE
10
52.000000
20
302.711703
30
0.000000
40
5.500000
50
180.000000
51
0.000000
0
ARC
8
DECOUPE
10
0.000000
20
410.955851
30
0.000000
40
5.500000
50
0.000000
51
180.000000
0
ARC
8
DECOUPE
10
0.000000
20
410.955851
30
0.000000
40
5.500000
50
180.000000
51
0.000000
0
LINE
8
GRAVURE
10
53.500000
20
265.100000
30
0.000000
11
61.500000
21
265.100000
31
0.000000
0
LINE
8
GRAVURE
10
53.500000
20
264.381718
30
0.000000
11
58.000000
21
264.381718
31
0.000000
0
LINE
8
GRAVURE
10
53.500000
20
263.647819
30
0.000000
11
61.500000
21
263.647819
31
0.000000
0
LINE
8
GRAVURE
10
53.500000
20
262.898087
30
0.000000
11
58.000000
21
262.898087
31
0.000000
0
LINE
8
GRAVURE
10
53.500000
20
262.132377
30
0.000000
11
61.500000
21
262.132377
31
0.000000
0
LINE
8
GRAVURE
10
53.500000
20
261.350627
30
0.000000
11
58.000000
21
261.350627
31
0.000000
0
LINE
8
GRAVURE
10
53.500000
20
260.552876
30
0.000000
11
61.500000
21
260.552876
31
0.000000
0
LINE
8
GRAVURE
10
53.500000
20
259.739281
30
0.000000
11
58.000000
21
259.739281
31
0.000000
0
LINE
8
GRAVURE
10
53.500000
20
258.910132
30
0.000000
11
61.500000
21
258.910132
31
0.000000
0
LINE
8
GRAVURE
10
53.500000
20
258.065875
30
0.000000
11
58.000000
21
258.065875
31
0.000000
0
LINE
8
GRAVURE
10
53.500000
20
257.207122
30
0.000000
11
61.500000
21
257.207122
31
0.000000
0
LINE
8
GRAVURE
10
53.500000
20
256.334669
30
0.000000
11
58.000000
21
256.334669
31
0.000000
0
LINE
8
GRAVURE
10
53.500000
20
255.449501
30
0.000000
11
61.500000
21
255.449501
31
0.000000
0
TEXT
8
TEXTE
10
-480.000000
20
-14.000000
30
0.000000
40
8.000000
1
FLANC  ep8  42CrMo4 +A  x2
0
TEXT
8
TEXTE
10
-480.000000
20
-26.000000
30
0.000000
40
5.000000
1
brut : tole 8 mm, cert. 3.1, Re >= 430
0
TEXT
8
TEXTE
10
-480.000000
20
-35.000000
30
0.000000
40
5.000000
1
ind. B du 05/10/2026  -  encoches et mortaise taillees pour la tole S355JR reelle de 8,00 mm (pieds, traverse)
0
TEXT
8
TEXTE
10
-480.000000
20
-44.000000
30
0.000000
40
4.000000
1
calques : DECOUPE = couper ; GRAVURE = marquer sans couper ; TEXTE = ni couper ni marquer
0
ENDSEC
0
EOF
