0
SECTION
2
HEADER
9
$ACADVER
1
AC1009
9
$INSUNITS
70
4
9
$MEASUREMENT
70
1
0
ENDSEC
0
SECTION
2
TABLES
0
TABLE
2
LAYER
70
3
0
LAYER
2
0
70
0
62
7
6
CONTINUOUS
0
LAYER
2
DECOUPE
70
0
62
7
6
CONTINUOUS
0
LAYER
2
TEXTE
70
0
62
3
6
CONTINUOUS
0
ENDTAB
0
ENDSEC
0
SECTION
2
ENTITIES
0
LINE
8
DECOUPE
10
-50.000000
20
44.000000
30
0.000000
11
-50.000000
21
-44.000000
31
0.000000
0
ARC
8
DECOUPE
10
-44.000000
20
-44.000000
30
0.000000
40
6.000000
50
180.000000
51
270.000000
0
LINE
8
DECOUPE
10
-44.000000
20
-50.000000
30
0.000000
11
44.000000
21
-50.000000
31
0.000000
0
ARC
8
DECOUPE
10
44.000000
20
-44.000000
30
0.000000
40
6.000000
50
270.000000
51
0.000000
0
LINE
8
DECOUPE
10
50.000000
20
-44.000000
30
0.000000
11
50.000000
21
44.000000
31
0.000000
0
ARC
8
DECOUPE
10
44.000000
20
44.000000
30
0.000000
40
6.000000
50
0.000000
51
90.000000
0
LINE
8
DECOUPE
10
44.000000
20
50.000000
30
0.000000
11
-44.000000
21
50.000000
31
0.000000
0
ARC
8
DECOUPE
10
-44.000000
20
44.000000
30
0.000000
40
6.000000
50
90.000000
51
180.000000
0
ARC
8
DECOUPE
10
-35.000000
20
0.000000
30
0.000000
40
3.000000
50
0.000000
51
180.000000
0
ARC
8
DECOUPE
10
-35.000000
20
0.000000
30
0.000000
40
3.000000
50
180.000000
51
0.000000
0
ARC
8
DECOUPE
10
35.000000
20
0.000000
30
0.000000
40
3.000000
50
0.000000
51
180.000000
0
ARC
8
DECOUPE
10
35.000000
20
0.000000
30
0.000000
40
3.000000
50
180.000000
51
0.000000
0
TEXT
8
TEXTE
10
-50.000000
20
-64.000000
30
0.000000
40
8.000000
1
PATIN_CHARGE  ep10  S355JR  x1
0
TEXT
8
TEXTE
10
-50.000000
20
-76.000000
30
0.000000
40
5.000000
1
brut : tole 10 mm
0
TEXT
8
TEXTE
10
-50.000000
20
-85.000000
30
0.000000
40
5.000000
1
ind. B du 05/10/2026
0
TEXT
8
TEXTE
10
-50.000000
20
-94.000000
30
0.000000
40
5.000000
1
PROFIL BRUT : trous 6 = avant-trous, percer-aleser 8 H7
0
TEXT
8
TEXTE
10
-50.000000
20
-103.000000
30
0.000000
40
4.000000
1
calques : DECOUPE = couper ; GRAVURE = marquer sans couper ; TEXTE = ni couper ni marquer
0
ENDSEC
0
EOF
