0
SECTION
2
HEADER
9
$ACADVER
1
AC1009
9
$INSUNITS
70
4
9
$MEASUREMENT
70
1
0
ENDSEC
0
SECTION
2
TABLES
0
TABLE
2
LAYER
70
3
0
LAYER
2
0
70
0
62
7
6
CONTINUOUS
0
LAYER
2
DECOUPE
70
0
62
7
6
CONTINUOUS
0
LAYER
2
TEXTE
70
0
62
3
6
CONTINUOUS
0
ENDTAB
0
ENDSEC
0
SECTION
2
ENTITIES
0
LINE
8
DECOUPE
10
-255.000000
20
52.000000
30
0.000000
11
-255.000000
21
2.000000
31
0.000000
0
ARC
8
DECOUPE
10
-253.000000
20
2.000000
30
0.000000
40
2.000000
50
180.000000
51
270.000000
0
LINE
8
DECOUPE
10
-253.000000
20
0.000000
30
0.000000
11
-250.500000
21
0.000000
31
0.000000
0
ARC
8
DECOUPE
10
-250.500000
20
0.500000
30
0.000000
40
0.500000
50
270.000000
51
0.000000
0
LINE
8
DECOUPE
10
-250.000000
20
0.500000
30
0.000000
11
-250.000000
21
6.500000
31
0.000000
0
ARC
8
DECOUPE
10
-249.500000
20
6.500000
30
0.000000
40
0.500000
50
90.000000
51
180.000000
0
LINE
8
DECOUPE
10
-249.500000
20
7.000000
30
0.000000
11
-242.100000
21
7.000000
31
0.000000
0
ARC
8
DECOUPE
10
-242.100000
20
6.500000
30
0.000000
40
0.500000
50
0.000000
51
90.000000
0
LINE
8
DECOUPE
10
-241.600000
20
6.500000
30
0.000000
11
-241.600000
21
0.500000
31
0.000000
0
ARC
8
DECOUPE
10
-241.100000
20
0.500000
30
0.000000
40
0.500000
50
180.000000
51
270.000000
0
LINE
8
DECOUPE
10
-241.100000
20
0.000000
30
0.000000
11
-217.000000
21
0.000000
31
0.000000
0
ARC
8
DECOUPE
10
-217.000000
20
2.000000
30
0.000000
40
2.000000
50
270.000000
51
0.000000
0
LINE
8
DECOUPE
10
-215.000000
20
2.000000
30
0.000000
11
-215.000000
21
6.000000
31
0.000000
0
ARC
8
DECOUPE
10
-213.000000
20
6.000000
30
0.000000
40
2.000000
50
90.000000
51
180.000000
0
LINE
8
DECOUPE
10
-213.000000
20
8.000000
30
0.000000
11
213.000000
21
8.000000
31
0.000000
0
ARC
8
DECOUPE
10
213.000000
20
6.000000
30
0.000000
40
2.000000
50
0.000000
51
90.000000
0
LINE
8
DECOUPE
10
215.000000
20
6.000000
30
0.000000
11
215.000000
21
2.000000
31
0.000000
0
ARC
8
DECOUPE
10
217.000000
20
2.000000
30
0.000000
40
2.000000
50
180.000000
51
270.000000
0
LINE
8
DECOUPE
10
217.000000
20
0.000000
30
0.000000
11
241.100000
21
0.000000
31
0.000000
0
ARC
8
DECOUPE
10
241.100000
20
0.500000
30
0.000000
40
0.500000
50
270.000000
51
0.000000
0
LINE
8
DECOUPE
10
241.600000
20
0.500000
30
0.000000
11
241.600000
21
6.500000
31
0.000000
0
ARC
8
DECOUPE
10
242.100000
20
6.500000
30
0.000000
40
0.500000
50
90.000000
51
180.000000
0
LINE
8
DECOUPE
10
242.100000
20
7.000000
30
0.000000
11
249.500000
21
7.000000
31
0.000000
0
ARC
8
DECOUPE
10
249.500000
20
6.500000
30
0.000000
40
0.500000
50
0.000000
51
90.000000
0
LINE
8
DECOUPE
10
250.000000
20
6.500000
30
0.000000
11
250.000000
21
0.500000
31
0.000000
0
ARC
8
DECOUPE
10
250.500000
20
0.500000
30
0.000000
40
0.500000
50
180.000000
51
270.000000
0
LINE
8
DECOUPE
10
250.500000
20
0.000000
30
0.000000
11
253.000000
21
0.000000
31
0.000000
0
ARC
8
DECOUPE
10
253.000000
20
2.000000
30
0.000000
40
2.000000
50
270.000000
51
0.000000
0
LINE
8
DECOUPE
10
255.000000
20
2.000000
30
0.000000
11
255.000000
21
52.000000
31
0.000000
0
ARC
8
DECOUPE
10
249.000000
20
52.000000
30
0.000000
40
6.000000
50
0.000000
51
90.000000
0
LINE
8
DECOUPE
10
249.000000
20
58.000000
30
0.000000
11
39.200000
21
58.000000
31
0.000000
0
ARC
8
DECOUPE
10
39.200000
20
57.000000
30
0.000000
40
1.000000
50
90.000000
51
180.000000
0
LINE
8
DECOUPE
10
38.200000
20
57.000000
30
0.000000
11
38.200000
21
52.300000
31
0.000000
0
LINE
8
DECOUPE
10
38.200000
20
52.300000
30
0.000000
11
37.900000
21
52.000000
31
0.000000
0
LINE
8
DECOUPE
10
37.900000
20
52.000000
30
0.000000
11
37.900000
21
44.000000
31
0.000000
0
LINE
8
DECOUPE
10
37.900000
20
44.000000
30
0.000000
11
38.200000
21
43.700000
31
0.000000
0
LINE
8
DECOUPE
10
38.200000
20
43.700000
30
0.000000
11
38.200000
21
39.500000
31
0.000000
0
LINE
8
DECOUPE
10
38.200000
20
39.500000
30
0.000000
11
39.700000
21
38.000000
31
0.000000
0
LINE
8
DECOUPE
10
39.700000
20
38.000000
30
0.000000
11
38.200000
21
36.500000
31
0.000000
0
LINE
8
DECOUPE
10
38.200000
20
36.500000
30
0.000000
11
36.700000
21
38.000000
31
0.000000
0
LINE
8
DECOUPE
10
36.700000
20
38.000000
30
0.000000
11
31.300000
21
38.000000
31
0.000000
0
LINE
8
DECOUPE
10
31.300000
20
38.000000
30
0.000000
11
29.800000
21
36.500000
31
0.000000
0
LINE
8
DECOUPE
10
29.800000
20
36.500000
30
0.000000
11
28.300000
21
38.000000
31
0.000000
0
LINE
8
DECOUPE
10
28.300000
20
38.000000
30
0.000000
11
29.800000
21
39.500000
31
0.000000
0
LINE
8
DECOUPE
10
29.800000
20
39.500000
30
0.000000
11
29.800000
21
43.700000
31
0.000000
0
LINE
8
DECOUPE
10
29.800000
20
43.700000
30
0.000000
11
30.100000
21
44.000000
31
0.000000
0
LINE
8
DECOUPE
10
30.100000
20
44.000000
30
0.000000
11
30.100000
21
52.000000
31
0.000000
0
LINE
8
DECOUPE
10
30.100000
20
52.000000
30
0.000000
11
29.800000
21
52.300000
31
0.000000
0
LINE
8
DECOUPE
10
29.800000
20
52.300000
30
0.000000
11
29.800000
21
57.000000
31
0.000000
0
ARC
8
DECOUPE
10
28.800000
20
57.000000
30
0.000000
40
1.000000
50
0.000000
51
90.000000
0
LINE
8
DECOUPE
10
28.800000
20
58.000000
30
0.000000
11
-28.800000
21
58.000000
31
0.000000
0
ARC
8
DECOUPE
10
-28.800000
20
57.000000
30
0.000000
40
1.000000
50
90.000000
51
180.000000
0
LINE
8
DECOUPE
10
-29.800000
20
57.000000
30
0.000000
11
-29.800000
21
52.300000
31
0.000000
0
LINE
8
DECOUPE
10
-29.800000
20
52.300000
30
0.000000
11
-30.100000
21
52.000000
31
0.000000
0
LINE
8
DECOUPE
10
-30.100000
20
52.000000
30
0.000000
11
-30.100000
21
44.000000
31
0.000000
0
LINE
8
DECOUPE
10
-30.100000
20
44.000000
30
0.000000
11
-29.800000
21
43.700000
31
0.000000
0
LINE
8
DECOUPE
10
-29.800000
20
43.700000
30
0.000000
11
-29.800000
21
39.500000
31
0.000000
0
LINE
8
DECOUPE
10
-29.800000
20
39.500000
30
0.000000
11
-28.300000
21
38.000000
31
0.000000
0
LINE
8
DECOUPE
10
-28.300000
20
38.000000
30
0.000000
11
-29.800000
21
36.500000
31
0.000000
0
LINE
8
DECOUPE
10
-29.800000
20
36.500000
30
0.000000
11
-31.300000
21
38.000000
31
0.000000
0
LINE
8
DECOUPE
10
-31.300000
20
38.000000
30
0.000000
11
-36.700000
21
38.000000
31
0.000000
0
LINE
8
DECOUPE
10
-36.700000
20
38.000000
30
0.000000
11
-38.200000
21
36.500000
31
0.000000
0
LINE
8
DECOUPE
10
-38.200000
20
36.500000
30
0.000000
11
-39.700000
21
38.000000
31
0.000000
0
LINE
8
DECOUPE
10
-39.700000
20
38.000000
30
0.000000
11
-38.200000
21
39.500000
31
0.000000
0
LINE
8
DECOUPE
10
-38.200000
20
39.500000
30
0.000000
11
-38.200000
21
43.700000
31
0.000000
0
LINE
8
DECOUPE
10
-38.200000
20
43.700000
30
0.000000
11
-37.900000
21
44.000000
31
0.000000
0
LINE
8
DECOUPE
10
-37.900000
20
44.000000
30
0.000000
11
-37.900000
21
52.000000
31
0.000000
0
LINE
8
DECOUPE
10
-37.900000
20
52.000000
30
0.000000
11
-38.200000
21
52.300000
31
0.000000
0
LINE
8
DECOUPE
10
-38.200000
20
52.300000
30
0.000000
11
-38.200000
21
57.000000
31
0.000000
0
ARC
8
DECOUPE
10
-39.200000
20
57.000000
30
0.000000
40
1.000000
50
0.000000
51
90.000000
0
LINE
8
DECOUPE
10
-39.200000
20
58.000000
30
0.000000
11
-249.000000
21
58.000000
31
0.000000
0
ARC
8
DECOUPE
10
-249.000000
20
52.000000
30
0.000000
40
6.000000
50
90.000000
51
180.000000
0
LINE
8
DECOUPE
10
-19.800000
20
44.000000
30
0.000000
11
-19.800000
21
22.000000
31
0.000000
0
ARC
8
DECOUPE
10
-13.800000
20
22.000000
30
0.000000
40
6.000000
50
180.000000
51
270.000000
0
LINE
8
DECOUPE
10
-13.800000
20
16.000000
30
0.000000
11
13.800000
21
16.000000
31
0.000000
0
ARC
8
DECOUPE
10
13.800000
20
22.000000
30
0.000000
40
6.000000
50
270.000000
51
0.000000
0
LINE
8
DECOUPE
10
19.800000
20
22.000000
30
0.000000
11
19.800000
21
44.000000
31
0.000000
0
ARC
8
DECOUPE
10
13.800000
20
44.000000
30
0.000000
40
6.000000
50
0.000000
51
90.000000
0
LINE
8
DECOUPE
10
13.800000
20
50.000000
30
0.000000
11
-13.800000
21
50.000000
31
0.000000
0
ARC
8
DECOUPE
10
-13.800000
20
44.000000
30
0.000000
40
6.000000
50
90.000000
51
180.000000
0
LINE
8
DECOUPE
10
48.200000
20
44.000000
30
0.000000
11
48.200000
21
22.000000
31
0.000000
0
ARC
8
DECOUPE
10
54.200000
20
22.000000
30
0.000000
40
6.000000
50
180.000000
51
270.000000
0
LINE
8
DECOUPE
10
54.200000
20
16.000000
30
0.000000
11
199.000000
21
16.000000
31
0.000000
0
ARC
8
DECOUPE
10
199.000000
20
22.000000
30
0.000000
40
6.000000
50
270.000000
51
0.000000
0
LINE
8
DECOUPE
10
205.000000
20
22.000000
30
0.000000
11
205.000000
21
44.000000
31
0.000000
0
ARC
8
DECOUPE
10
199.000000
20
44.000000
30
0.000000
40
6.000000
50
0.000000
51
90.000000
0
LINE
8
DECOUPE
10
199.000000
20
50.000000
30
0.000000
11
54.200000
21
50.000000
31
0.000000
0
ARC
8
DECOUPE
10
54.200000
20
44.000000
30
0.000000
40
6.000000
50
90.000000
51
180.000000
0
LINE
8
DECOUPE
10
-205.000000
20
44.000000
30
0.000000
11
-205.000000
21
22.000000
31
0.000000
0
ARC
8
DECOUPE
10
-199.000000
20
22.000000
30
0.000000
40
6.000000
50
180.000000
51
270.000000
0
LINE
8
DECOUPE
10
-199.000000
20
16.000000
30
0.000000
11
-54.200000
21
16.000000
31
0.000000
0
ARC
8
DECOUPE
10
-54.200000
20
22.000000
30
0.000000
40
6.000000
50
270.000000
51
0.000000
0
LINE
8
DECOUPE
10
-48.200000
20
22.000000
30
0.000000
11
-48.200000
21
44.000000
31
0.000000
0
ARC
8
DECOUPE
10
-54.200000
20
44.000000
30
0.000000
40
6.000000
50
0.000000
51
90.000000
0
LINE
8
DECOUPE
10
-54.200000
20
50.000000
30
0.000000
11
-199.000000
21
50.000000
31
0.000000
0
ARC
8
DECOUPE
10
-199.000000
20
44.000000
30
0.000000
40
6.000000
50
90.000000
51
180.000000
0
TEXT
8
TEXTE
10
-255.000000
20
-14.000000
30
0.000000
40
8.000000
1
PIED  ep8  42CrMo4 +A  x4
0
TEXT
8
TEXTE
10
-255.000000
20
-26.000000
30
0.000000
40
5.000000
1
brut : tole 8 mm, cert. 3.1, Re >= 430
0
TEXT
8
TEXTE
10
-255.000000
20
-35.000000
30
0.000000
40
5.000000
1
ind. B du 05/10/2026  -  fentes et encoches taillees pour une tole reelle de 8,00 mm
0
TEXT
8
TEXTE
10
-255.000000
20
-44.000000
30
0.000000
40
4.000000
1
calques : DECOUPE = couper ; GRAVURE = marquer sans couper ; TEXTE = ni couper ni marquer
0
TEXT
8
TEXTE
10
-255.000000
20
68.000000
30
0.000000
40
10.000000
1
NE PAS DECOUPER AVANT CONFIRMATION DE LA LARGEUR D'ETUVE
0
ENDSEC
0
EOF
