0
SECTION
2
HEADER
9
$ACADVER
1
AC1009
9
$INSUNITS
70
4
9
$MEASUREMENT
70
1
0
ENDSEC
0
SECTION
2
TABLES
0
TABLE
2
LAYER
70
3
0
LAYER
2
0
70
0
62
7
6
CONTINUOUS
0
LAYER
2
DECOUPE
70
0
62
7
6
CONTINUOUS
0
LAYER
2
TEXTE
70
0
62
3
6
CONTINUOUS
0
ENDTAB
0
ENDSEC
0
SECTION
2
ENTITIES
0
LINE
8
DECOUPE
10
-259.200000
20
52.000000
30
0.000000
11
-259.200000
21
2.000000
31
0.000000
0
ARC
8
DECOUPE
10
-257.200000
20
2.000000
30
0.000000
40
2.000000
50
180.000000
51
270.000000
0
LINE
8
DECOUPE
10
-257.200000
20
0.000000
30
0.000000
11
-254.700000
21
0.000000
31
0.000000
0
ARC
8
DECOUPE
10
-254.700000
20
0.500000
30
0.000000
40
0.500000
50
270.000000
51
0.000000
0
LINE
8
DECOUPE
10
-254.200000
20
0.500000
30
0.000000
11
-254.200000
21
6.500000
31
0.000000
0
ARC
8
DECOUPE
10
-253.700000
20
6.500000
30
0.000000
40
0.500000
50
90.000000
51
180.000000
0
LINE
8
DECOUPE
10
-253.700000
20
7.000000
30
0.000000
11
-246.300000
21
7.000000
31
0.000000
0
ARC
8
DECOUPE
10
-246.300000
20
6.500000
30
0.000000
40
0.500000
50
0.000000
51
90.000000
0
LINE
8
DECOUPE
10
-245.800000
20
6.500000
30
0.000000
11
-245.800000
21
0.500000
31
0.000000
0
ARC
8
DECOUPE
10
-245.300000
20
0.500000
30
0.000000
40
0.500000
50
180.000000
51
270.000000
0
LINE
8
DECOUPE
10
-245.300000
20
0.000000
30
0.000000
11
-221.200000
21
0.000000
31
0.000000
0
ARC
8
DECOUPE
10
-221.200000
20
2.000000
30
0.000000
40
2.000000
50
270.000000
51
0.000000
0
LINE
8
DECOUPE
10
-219.200000
20
2.000000
30
0.000000
11
-219.200000
21
6.000000
31
0.000000
0
ARC
8
DECOUPE
10
-217.200000
20
6.000000
30
0.000000
40
2.000000
50
90.000000
51
180.000000
0
LINE
8
DECOUPE
10
-217.200000
20
8.000000
30
0.000000
11
217.200000
21
8.000000
31
0.000000
0
ARC
8
DECOUPE
10
217.200000
20
6.000000
30
0.000000
40
2.000000
50
0.000000
51
90.000000
0
LINE
8
DECOUPE
10
219.200000
20
6.000000
30
0.000000
11
219.200000
21
2.000000
31
0.000000
0
ARC
8
DECOUPE
10
221.200000
20
2.000000
30
0.000000
40
2.000000
50
180.000000
51
270.000000
0
LINE
8
DECOUPE
10
221.200000
20
0.000000
30
0.000000
11
245.300000
21
0.000000
31
0.000000
0
ARC
8
DECOUPE
10
245.300000
20
0.500000
30
0.000000
40
0.500000
50
270.000000
51
0.000000
0
LINE
8
DECOUPE
10
245.800000
20
0.500000
30
0.000000
11
245.800000
21
6.500000
31
0.000000
0
ARC
8
DECOUPE
10
246.300000
20
6.500000
30
0.000000
40
0.500000
50
90.000000
51
180.000000
0
LINE
8
DECOUPE
10
246.300000
20
7.000000
30
0.000000
11
253.700000
21
7.000000
31
0.000000
0
ARC
8
DECOUPE
10
253.700000
20
6.500000
30
0.000000
40
0.500000
50
0.000000
51
90.000000
0
LINE
8
DECOUPE
10
254.200000
20
6.500000
30
0.000000
11
254.200000
21
0.500000
31
0.000000
0
ARC
8
DECOUPE
10
254.700000
20
0.500000
30
0.000000
40
0.500000
50
180.000000
51
270.000000
0
LINE
8
DECOUPE
10
254.700000
20
0.000000
30
0.000000
11
257.200000
21
0.000000
31
0.000000
0
ARC
8
DECOUPE
10
257.200000
20
2.000000
30
0.000000
40
2.000000
50
270.000000
51
0.000000
0
LINE
8
DECOUPE
10
259.200000
20
2.000000
30
0.000000
11
259.200000
21
52.000000
31
0.000000
0
ARC
8
DECOUPE
10
253.200000
20
52.000000
30
0.000000
40
6.000000
50
0.000000
51
90.000000
0
LINE
8
DECOUPE
10
253.200000
20
58.000000
30
0.000000
11
39.200000
21
58.000000
31
0.000000
0
ARC
8
DECOUPE
10
39.200000
20
57.000000
30
0.000000
40
1.000000
50
90.000000
51
180.000000
0
LINE
8
DECOUPE
10
38.200000
20
57.000000
30
0.000000
11
38.200000
21
52.300000
31
0.000000
0
LINE
8
DECOUPE
10
38.200000
20
52.300000
30
0.000000
11
37.900000
21
52.000000
31
0.000000
0
LINE
8
DECOUPE
10
37.900000
20
52.000000
30
0.000000
11
37.900000
21
44.000000
31
0.000000
0
LINE
8
DECOUPE
10
37.900000
20
44.000000
30
0.000000
11
38.200000
21
43.700000
31
0.000000
0
LINE
8
DECOUPE
10
38.200000
20
43.700000
30
0.000000
11
38.200000
21
39.500000
31
0.000000
0
LINE
8
DECOUPE
10
38.200000
20
39.500000
30
0.000000
11
39.700000
21
38.000000
31
0.000000
0
LINE
8
DECOUPE
10
39.700000
20
38.000000
30
0.000000
11
38.200000
21
36.500000
31
0.000000
0
LINE
8
DECOUPE
10
38.200000
20
36.500000
30
0.000000
11
36.700000
21
38.000000
31
0.000000
0
LINE
8
DECOUPE
10
36.700000
20
38.000000
30
0.000000
11
31.300000
21
38.000000
31
0.000000
0
LINE
8
DECOUPE
10
31.300000
20
38.000000
30
0.000000
11
29.800000
21
36.500000
31
0.000000
0
LINE
8
DECOUPE
10
29.800000
20
36.500000
30
0.000000
11
28.300000
21
38.000000
31
0.000000
0
LINE
8
DECOUPE
10
28.300000
20
38.000000
30
0.000000
11
29.800000
21
39.500000
31
0.000000
0
LINE
8
DECOUPE
10
29.800000
20
39.500000
30
0.000000
11
29.800000
21
43.700000
31
0.000000
0
LINE
8
DECOUPE
10
29.800000
20
43.700000
30
0.000000
11
30.100000
21
44.000000
31
0.000000
0
LINE
8
DECOUPE
10
30.100000
20
44.000000
30
0.000000
11
30.100000
21
52.000000
31
0.000000
0
LINE
8
DECOUPE
10
30.100000
20
52.000000
30
0.000000
11
29.800000
21
52.300000
31
0.000000
0
LINE
8
DECOUPE
10
29.800000
20
52.300000
30
0.000000
11
29.800000
21
57.000000
31
0.000000
0
ARC
8
DECOUPE
10
28.800000
20
57.000000
30
0.000000
40
1.000000
50
0.000000
51
90.000000
0
LINE
8
DECOUPE
10
28.800000
20
58.000000
30
0.000000
11
-28.800000
21
58.000000
31
0.000000
0
ARC
8
DECOUPE
10
-28.800000
20
57.000000
30
0.000000
40
1.000000
50
90.000000
51
180.000000
0
LINE
8
DECOUPE
10
-29.800000
20
57.000000
30
0.000000
11
-29.800000
21
52.300000
31
0.000000
0
LINE
8
DECOUPE
10
-29.800000
20
52.300000
30
0.000000
11
-30.100000
21
52.000000
31
0.000000
0
LINE
8
DECOUPE
10
-30.100000
20
52.000000
30
0.000000
11
-30.100000
21
44.000000
31
0.000000
0
LINE
8
DECOUPE
10
-30.100000
20
44.000000
30
0.000000
11
-29.800000
21
43.700000
31
0.000000
0
LINE
8
DECOUPE
10
-29.800000
20
43.700000
30
0.000000
11
-29.800000
21
39.500000
31
0.000000
0
LINE
8
DECOUPE
10
-29.800000
20
39.500000
30
0.000000
11
-28.300000
21
38.000000
31
0.000000
0
LINE
8
DECOUPE
10
-28.300000
20
38.000000
30
0.000000
11
-29.800000
21
36.500000
31
0.000000
0
LINE
8
DECOUPE
10
-29.800000
20
36.500000
30
0.000000
11
-31.300000
21
38.000000
31
0.000000
0
LINE
8
DECOUPE
10
-31.300000
20
38.000000
30
0.000000
11
-36.700000
21
38.000000
31
0.000000
0
LINE
8
DECOUPE
10
-36.700000
20
38.000000
30
0.000000
11
-38.200000
21
36.500000
31
0.000000
0
LINE
8
DECOUPE
10
-38.200000
20
36.500000
30
0.000000
11
-39.700000
21
38.000000
31
0.000000
0
LINE
8
DECOUPE
10
-39.700000
20
38.000000
30
0.000000
11
-38.200000
21
39.500000
31
0.000000
0
LINE
8
DECOUPE
10
-38.200000
20
39.500000
30
0.000000
11
-38.200000
21
43.700000
31
0.000000
0
LINE
8
DECOUPE
10
-38.200000
20
43.700000
30
0.000000
11
-37.900000
21
44.000000
31
0.000000
0
LINE
8
DECOUPE
10
-37.900000
20
44.000000
30
0.000000
11
-37.900000
21
52.000000
31
0.000000
0
LINE
8
DECOUPE
10
-37.900000
20
52.000000
30
0.000000
11
-38.200000
21
52.300000
31
0.000000
0
LINE
8
DECOUPE
10
-38.200000
20
52.300000
30
0.000000
11
-38.200000
21
57.000000
31
0.000000
0
ARC
8
DECOUPE
10
-39.200000
20
57.000000
30
0.000000
40
1.000000
50
0.000000
51
90.000000
0
LINE
8
DECOUPE
10
-39.200000
20
58.000000
30
0.000000
11
-253.200000
21
58.000000
31
0.000000
0
ARC
8
DECOUPE
10
-253.200000
20
52.000000
30
0.000000
40
6.000000
50
90.000000
51
180.000000
0
LINE
8
DECOUPE
10
-19.800000
20
44.000000
30
0.000000
11
-19.800000
21
22.000000
31
0.000000
0
ARC
8
DECOUPE
10
-13.800000
20
22.000000
30
0.000000
40
6.000000
50
180.000000
51
270.000000
0
LINE
8
DECOUPE
10
-13.800000
20
16.000000
30
0.000000
11
13.800000
21
16.000000
31
0.000000
0
ARC
8
DECOUPE
10
13.800000
20
22.000000
30
0.000000
40
6.000000
50
270.000000
51
0.000000
0
LINE
8
DECOUPE
10
19.800000
20
22.000000
30
0.000000
11
19.800000
21
44.000000
31
0.000000
0
ARC
8
DECOUPE
10
13.800000
20
44.000000
30
0.000000
40
6.000000
50
0.000000
51
90.000000
0
LINE
8
DECOUPE
10
13.800000
20
50.000000
30
0.000000
11
-13.800000
21
50.000000
31
0.000000
0
ARC
8
DECOUPE
10
-13.800000
20
44.000000
30
0.000000
40
6.000000
50
90.000000
51
180.000000
0
LINE
8
DECOUPE
10
48.200000
20
44.000000
30
0.000000
11
48.200000
21
22.000000
31
0.000000
0
ARC
8
DECOUPE
10
54.200000
20
22.000000
30
0.000000
40
6.000000
50
180.000000
51
270.000000
0
LINE
8
DECOUPE
10
54.200000
20
16.000000
30
0.000000
11
203.200000
21
16.000000
31
0.000000
0
ARC
8
DECOUPE
10
203.200000
20
22.000000
30
0.000000
40
6.000000
50
270.000000
51
0.000000
0
LINE
8
DECOUPE
10
209.200000
20
22.000000
30
0.000000
11
209.200000
21
44.000000
31
0.000000
0
ARC
8
DECOUPE
10
203.200000
20
44.000000
30
0.000000
40
6.000000
50
0.000000
51
90.000000
0
LINE
8
DECOUPE
10
203.200000
20
50.000000
30
0.000000
11
54.200000
21
50.000000
31
0.000000
0
ARC
8
DECOUPE
10
54.200000
20
44.000000
30
0.000000
40
6.000000
50
90.000000
51
180.000000
0
LINE
8
DECOUPE
10
-209.200000
20
44.000000
30
0.000000
11
-209.200000
21
22.000000
31
0.000000
0
ARC
8
DECOUPE
10
-203.200000
20
22.000000
30
0.000000
40
6.000000
50
180.000000
51
270.000000
0
LINE
8
DECOUPE
10
-203.200000
20
16.000000
30
0.000000
11
-54.200000
21
16.000000
31
0.000000
0
ARC
8
DECOUPE
10
-54.200000
20
22.000000
30
0.000000
40
6.000000
50
270.000000
51
0.000000
0
LINE
8
DECOUPE
10
-48.200000
20
22.000000
30
0.000000
11
-48.200000
21
44.000000
31
0.000000
0
ARC
8
DECOUPE
10
-54.200000
20
44.000000
30
0.000000
40
6.000000
50
0.000000
51
90.000000
0
LINE
8
DECOUPE
10
-54.200000
20
50.000000
30
0.000000
11
-203.200000
21
50.000000
31
0.000000
0
ARC
8
DECOUPE
10
-203.200000
20
44.000000
30
0.000000
40
6.000000
50
90.000000
51
180.000000
0
TEXT
8
TEXTE
10
-259.200000
20
-14.000000
30
0.000000
40
8.000000
1
PIED  ep8  S355JR  x4
0
TEXT
8
TEXTE
10
-259.200000
20
-26.000000
30
0.000000
40
5.000000
1
brut : tole 8 mm, cert. 2.2
0
TEXT
8
TEXTE
10
-259.200000
20
-35.000000
30
0.000000
40
5.000000
1
ind. B du 05/10/2026  -  encoches et nodes taillees pour la tole 42CrMo4 reelle de 8,00 mm (flanc), fentes pour la tole S355JR reelle de 8,00 mm (crochet)
0
TEXT
8
TEXTE
10
-259.200000
20
-44.000000
30
0.000000
40
4.000000
1
calques : DECOUPE = couper ; GRAVURE = marquer sans couper ; TEXTE = ni couper ni marquer
0
ENDSEC
0
EOF
