0
SECTION
2
HEADER
9
$ACADVER
1
AC1009
9
$INSUNITS
70
4
9
$MEASUREMENT
70
1
0
ENDSEC
0
SECTION
2
TABLES
0
TABLE
2
LAYER
70
3
0
LAYER
2
0
70
0
62
7
6
CONTINUOUS
0
LAYER
2
DECOUPE
70
0
62
7
6
CONTINUOUS
0
LAYER
2
TEXTE
70
0
62
3
6
CONTINUOUS
0
ENDTAB
0
ENDSEC
0
SECTION
2
ENTITIES
0
LINE
8
DECOUPE
10
-70.000000
20
317.266717
30
0.000000
11
-70.000000
21
290.201370
31
0.000000
0
ARC
8
DECOUPE
10
-62.000000
20
290.201370
30
0.000000
40
8.000000
50
180.000000
51
257.905243
0
LINE
8
DECOUPE
10
-63.676233
20
282.378951
30
0.000000
11
-2.514349
21
269.272833
31
0.000000
0
ARC
8
DECOUPE
10
-0.000000
20
281.006462
30
0.000000
40
12.000000
50
257.905243
51
282.094757
0
LINE
8
DECOUPE
10
2.514349
20
269.272833
30
0.000000
11
63.676233
21
282.378951
31
0.000000
0
ARC
8
DECOUPE
10
62.000000
20
290.201370
30
0.000000
40
8.000000
50
282.094757
51
0.000000
0
LINE
8
DECOUPE
10
70.000000
20
290.201370
30
0.000000
11
70.000000
21
317.266717
31
0.000000
0
ARC
8
DECOUPE
10
62.000000
20
317.266717
30
0.000000
40
8.000000
50
0.000000
51
77.905243
0
LINE
8
DECOUPE
10
63.676233
20
325.089137
30
0.000000
11
2.514349
21
338.195254
31
0.000000
0
ARC
8
DECOUPE
10
0.000000
20
326.461626
30
0.000000
40
12.000000
50
77.905243
51
102.094757
0
LINE
8
DECOUPE
10
-2.514349
20
338.195254
30
0.000000
11
-63.676233
21
325.089137
31
0.000000
0
ARC
8
DECOUPE
10
-62.000000
20
317.266717
30
0.000000
40
8.000000
50
102.094757
51
180.000000
0
ARC
8
DECOUPE
10
0.000000
20
303.734044
30
0.000000
40
9.000000
50
0.000000
51
180.000000
0
ARC
8
DECOUPE
10
0.000000
20
303.734044
30
0.000000
40
9.000000
50
180.000000
51
0.000000
0
ARC
8
DECOUPE
10
-52.000000
20
303.734044
30
0.000000
40
5.500000
50
0.000000
51
180.000000
0
ARC
8
DECOUPE
10
-52.000000
20
303.734044
30
0.000000
40
5.500000
50
180.000000
51
0.000000
0
ARC
8
DECOUPE
10
52.000000
20
303.734044
30
0.000000
40
5.500000
50
0.000000
51
180.000000
0
ARC
8
DECOUPE
10
52.000000
20
303.734044
30
0.000000
40
5.500000
50
180.000000
51
0.000000
0
TEXT
8
TEXTE
10
-70.000000
20
255.006462
30
0.000000
40
8.000000
1
SUPPORT  ep8  42CrMo4 +A  x2
0
TEXT
8
TEXTE
10
-70.000000
20
243.006462
30
0.000000
40
5.000000
1
brut : tole 8 mm, cert. 3.1, Re >= 430
0
TEXT
8
TEXTE
10
-70.000000
20
234.006462
30
0.000000
40
5.000000
1
ind. B du 05/10/2026  -  tole 42CrMo4 reelle prise a 8,00 mm (fentes ou serrages qui recoivent cette piece)
0
TEXT
8
TEXTE
10
-70.000000
20
225.006462
30
0.000000
40
4.000000
1
calques : DECOUPE = couper ; GRAVURE = marquer sans couper ; TEXTE = ni couper ni marquer
0
ENDSEC
0
EOF
