0
SECTION
2
HEADER
9
$ACADVER
1
AC1009
9
$INSUNITS
70
4
9
$MEASUREMENT
70
1
0
ENDSEC
0
SECTION
2
TABLES
0
TABLE
2
LAYER
70
3
0
LAYER
2
0
70
0
62
7
6
CONTINUOUS
0
LAYER
2
DECOUPE
70
0
62
7
6
CONTINUOUS
0
LAYER
2
TEXTE
70
0
62
3
6
CONTINUOUS
0
ENDTAB
0
ENDSEC
0
SECTION
2
ENTITIES
0
LINE
8
DECOUPE
10
9.000000
20
-116.000000
30
0.000000
11
9.000000
21
-123.000000
31
0.000000
0
ARC
8
DECOUPE
10
12.000000
20
-123.000000
30
0.000000
40
3.000000
50
180.000000
51
270.000000
0
LINE
8
DECOUPE
10
12.000000
20
-126.000000
30
0.000000
11
66.000000
21
-126.000000
31
0.000000
0
ARC
8
DECOUPE
10
66.000000
20
-123.000000
30
0.000000
40
3.000000
50
270.000000
51
0.000000
0
LINE
8
DECOUPE
10
69.000000
20
-123.000000
30
0.000000
11
69.000000
21
-109.000000
31
0.000000
0
ARC
8
DECOUPE
10
66.000000
20
-109.000000
30
0.000000
40
3.000000
50
0.000000
51
90.000000
0
LINE
8
DECOUPE
10
66.000000
20
-106.000000
30
0.000000
11
59.153016
21
-106.000000
31
0.000000
0
LINE
8
DECOUPE
10
59.153016
20
-106.000000
30
0.000000
11
59.153016
21
-104.087723
31
0.000000
0
ARC
8
DECOUPE
10
58.653016
20
-104.087723
30
0.000000
40
0.500000
50
0.000000
51
52.000000
0
LINE
8
DECOUPE
10
58.960846
20
-103.693718
30
0.000000
11
53.960846
21
-99.787290
31
0.000000
0
ARC
8
DECOUPE
10
53.653016
20
-100.181295
30
0.000000
40
0.500000
50
52.000000
51
180.000000
0
LINE
8
DECOUPE
10
53.153016
20
-100.181295
30
0.000000
11
53.153016
21
-106.000000
31
0.000000
0
LINE
8
DECOUPE
10
53.153016
20
-106.000000
30
0.000000
11
24.000000
21
-106.000000
31
0.000000
0
ARC
8
DECOUPE
10
24.000000
20
-103.000000
30
0.000000
40
3.000000
50
180.000000
51
270.000000
0
LINE
8
DECOUPE
10
21.000000
20
-103.000000
30
0.000000
11
21.000000
21
-3.000000
31
0.000000
0
ARC
8
DECOUPE
10
18.000000
20
-3.000000
30
0.000000
40
3.000000
50
360.000000
51
90.000000
0
LINE
8
DECOUPE
10
18.000000
20
0.000000
30
0.000000
11
1.000000
21
0.000000
31
0.000000
0
ARC
8
DECOUPE
10
1.000000
20
-1.000000
30
0.000000
40
1.000000
50
90.000000
51
180.000000
0
LINE
8
DECOUPE
10
0.000000
20
-1.000000
30
0.000000
11
0.000000
21
-8.000000
31
0.000000
0
ARC
8
DECOUPE
10
1.000000
20
-8.000000
30
0.000000
40
1.000000
50
180.000000
51
270.000000
0
LINE
8
DECOUPE
10
1.000000
20
-9.000000
30
0.000000
11
4.000000
21
-9.000000
31
0.000000
0
ARC
8
DECOUPE
10
4.000000
20
-8.000000
30
0.000000
40
1.000000
50
270.000000
51
0.000000
0
LINE
8
DECOUPE
10
5.000000
20
-8.000000
30
0.000000
11
5.000000
21
-6.500000
31
0.000000
0
ARC
8
DECOUPE
10
5.500000
20
-6.500000
30
0.000000
40
0.500000
50
90.000000
51
180.000000
0
LINE
8
DECOUPE
10
5.500000
20
-6.000000
30
0.000000
11
9.000000
21
-6.000000
31
0.000000
0
LINE
8
DECOUPE
10
9.000000
20
-6.000000
30
0.000000
11
9.000000
21
-40.000000
31
0.000000
0
LINE
8
DECOUPE
10
9.000000
20
-40.000000
30
0.000000
11
1.000000
21
-40.000000
31
0.000000
0
ARC
8
DECOUPE
10
1.000000
20
-41.000000
30
0.000000
40
1.000000
50
90.000000
51
180.000000
0
LINE
8
DECOUPE
10
0.000000
20
-41.000000
30
0.000000
11
0.000000
21
-48.000000
31
0.000000
0
ARC
8
DECOUPE
10
1.000000
20
-48.000000
30
0.000000
40
1.000000
50
180.000000
51
270.000000
0
LINE
8
DECOUPE
10
1.000000
20
-49.000000
30
0.000000
11
4.000000
21
-49.000000
31
0.000000
0
ARC
8
DECOUPE
10
4.000000
20
-48.000000
30
0.000000
40
1.000000
50
270.000000
51
0.000000
0
LINE
8
DECOUPE
10
5.000000
20
-48.000000
30
0.000000
11
5.000000
21
-46.500000
31
0.000000
0
ARC
8
DECOUPE
10
5.500000
20
-46.500000
30
0.000000
40
0.500000
50
90.000000
51
180.000000
0
LINE
8
DECOUPE
10
5.500000
20
-46.000000
30
0.000000
11
9.000000
21
-46.000000
31
0.000000
0
LINE
8
DECOUPE
10
9.000000
20
-46.000000
30
0.000000
11
9.000000
21
-70.000000
31
0.000000
0
LINE
8
DECOUPE
10
9.000000
20
-70.000000
30
0.000000
11
1.000000
21
-70.000000
31
0.000000
0
ARC
8
DECOUPE
10
1.000000
20
-71.000000
30
0.000000
40
1.000000
50
90.000000
51
180.000000
0
LINE
8
DECOUPE
10
0.000000
20
-71.000000
30
0.000000
11
0.000000
21
-78.000000
31
0.000000
0
ARC
8
DECOUPE
10
1.000000
20
-78.000000
30
0.000000
40
1.000000
50
180.000000
51
270.000000
0
LINE
8
DECOUPE
10
1.000000
20
-79.000000
30
0.000000
11
4.000000
21
-79.000000
31
0.000000
0
ARC
8
DECOUPE
10
4.000000
20
-78.000000
30
0.000000
40
1.000000
50
270.000000
51
0.000000
0
LINE
8
DECOUPE
10
5.000000
20
-78.000000
30
0.000000
11
5.000000
21
-76.500000
31
0.000000
0
ARC
8
DECOUPE
10
5.500000
20
-76.500000
30
0.000000
40
0.500000
50
90.000000
51
180.000000
0
LINE
8
DECOUPE
10
5.500000
20
-76.000000
30
0.000000
11
9.000000
21
-76.000000
31
0.000000
0
LINE
8
DECOUPE
10
9.000000
20
-76.000000
30
0.000000
11
9.000000
21
-110.000000
31
0.000000
0
LINE
8
DECOUPE
10
9.000000
20
-110.000000
30
0.000000
11
1.000000
21
-110.000000
31
0.000000
0
ARC
8
DECOUPE
10
1.000000
20
-111.000000
30
0.000000
40
1.000000
50
90.000000
51
180.000000
0
LINE
8
DECOUPE
10
0.000000
20
-111.000000
30
0.000000
11
0.000000
21
-118.000000
31
0.000000
0
ARC
8
DECOUPE
10
1.000000
20
-118.000000
30
0.000000
40
1.000000
50
180.000000
51
270.000000
0
LINE
8
DECOUPE
10
1.000000
20
-119.000000
30
0.000000
11
4.000000
21
-119.000000
31
0.000000
0
ARC
8
DECOUPE
10
4.000000
20
-118.000000
30
0.000000
40
1.000000
50
270.000000
51
0.000000
0
LINE
8
DECOUPE
10
5.000000
20
-118.000000
30
0.000000
11
5.000000
21
-116.500000
31
0.000000
0
ARC
8
DECOUPE
10
5.500000
20
-116.500000
30
0.000000
40
0.500000
50
90.000000
51
180.000000
0
LINE
8
DECOUPE
10
5.500000
20
-116.000000
30
0.000000
11
9.000000
21
-116.000000
31
0.000000
0
TEXT
8
TEXTE
10
0.000000
20
-138.000000
30
0.000000
40
6.000000
1
crochet 1/4
0
LINE
8
DECOUPE
10
103.000000
20
-116.000000
30
0.000000
11
103.000000
21
-123.000000
31
0.000000
0
ARC
8
DECOUPE
10
106.000000
20
-123.000000
30
0.000000
40
3.000000
50
180.000000
51
270.000000
0
LINE
8
DECOUPE
10
106.000000
20
-126.000000
30
0.000000
11
160.000000
21
-126.000000
31
0.000000
0
ARC
8
DECOUPE
10
160.000000
20
-123.000000
30
0.000000
40
3.000000
50
270.000000
51
0.000000
0
LINE
8
DECOUPE
10
163.000000
20
-123.000000
30
0.000000
11
163.000000
21
-109.000000
31
0.000000
0
ARC
8
DECOUPE
10
160.000000
20
-109.000000
30
0.000000
40
3.000000
50
0.000000
51
90.000000
0
LINE
8
DECOUPE
10
160.000000
20
-106.000000
30
0.000000
11
153.153016
21
-106.000000
31
0.000000
0
LINE
8
DECOUPE
10
153.153016
20
-106.000000
30
0.000000
11
153.153016
21
-104.087723
31
0.000000
0
ARC
8
DECOUPE
10
152.653016
20
-104.087723
30
0.000000
40
0.500000
50
0.000000
51
52.000000
0
LINE
8
DECOUPE
10
152.960846
20
-103.693718
30
0.000000
11
147.960846
21
-99.787290
31
0.000000
0
ARC
8
DECOUPE
10
147.653016
20
-100.181295
30
0.000000
40
0.500000
50
52.000000
51
180.000000
0
LINE
8
DECOUPE
10
147.153016
20
-100.181295
30
0.000000
11
147.153016
21
-106.000000
31
0.000000
0
LINE
8
DECOUPE
10
147.153016
20
-106.000000
30
0.000000
11
118.000000
21
-106.000000
31
0.000000
0
ARC
8
DECOUPE
10
118.000000
20
-103.000000
30
0.000000
40
3.000000
50
180.000000
51
270.000000
0
LINE
8
DECOUPE
10
115.000000
20
-103.000000
30
0.000000
11
115.000000
21
-3.000000
31
0.000000
0
ARC
8
DECOUPE
10
112.000000
20
-3.000000
30
0.000000
40
3.000000
50
360.000000
51
90.000000
0
LINE
8
DECOUPE
10
112.000000
20
0.000000
30
0.000000
11
95.000000
21
0.000000
31
0.000000
0
ARC
8
DECOUPE
10
95.000000
20
-1.000000
30
0.000000
40
1.000000
50
90.000000
51
180.000000
0
LINE
8
DECOUPE
10
94.000000
20
-1.000000
30
0.000000
11
94.000000
21
-8.000000
31
0.000000
0
ARC
8
DECOUPE
10
95.000000
20
-8.000000
30
0.000000
40
1.000000
50
180.000000
51
270.000000
0
LINE
8
DECOUPE
10
95.000000
20
-9.000000
30
0.000000
11
98.000000
21
-9.000000
31
0.000000
0
ARC
8
DECOUPE
10
98.000000
20
-8.000000
30
0.000000
40
1.000000
50
270.000000
51
0.000000
0
LINE
8
DECOUPE
10
99.000000
20
-8.000000
30
0.000000
11
99.000000
21
-6.500000
31
0.000000
0
ARC
8
DECOUPE
10
99.500000
20
-6.500000
30
0.000000
40
0.500000
50
90.000000
51
180.000000
0
LINE
8
DECOUPE
10
99.500000
20
-6.000000
30
0.000000
11
103.000000
21
-6.000000
31
0.000000
0
LINE
8
DECOUPE
10
103.000000
20
-6.000000
30
0.000000
11
103.000000
21
-40.000000
31
0.000000
0
LINE
8
DECOUPE
10
103.000000
20
-40.000000
30
0.000000
11
95.000000
21
-40.000000
31
0.000000
0
ARC
8
DECOUPE
10
95.000000
20
-41.000000
30
0.000000
40
1.000000
50
90.000000
51
180.000000
0
LINE
8
DECOUPE
10
94.000000
20
-41.000000
30
0.000000
11
94.000000
21
-48.000000
31
0.000000
0
ARC
8
DECOUPE
10
95.000000
20
-48.000000
30
0.000000
40
1.000000
50
180.000000
51
270.000000
0
LINE
8
DECOUPE
10
95.000000
20
-49.000000
30
0.000000
11
98.000000
21
-49.000000
31
0.000000
0
ARC
8
DECOUPE
10
98.000000
20
-48.000000
30
0.000000
40
1.000000
50
270.000000
51
0.000000
0
LINE
8
DECOUPE
10
99.000000
20
-48.000000
30
0.000000
11
99.000000
21
-46.500000
31
0.000000
0
ARC
8
DECOUPE
10
99.500000
20
-46.500000
30
0.000000
40
0.500000
50
90.000000
51
180.000000
0
LINE
8
DECOUPE
10
99.500000
20
-46.000000
30
0.000000
11
103.000000
21
-46.000000
31
0.000000
0
LINE
8
DECOUPE
10
103.000000
20
-46.000000
30
0.000000
11
103.000000
21
-70.000000
31
0.000000
0
LINE
8
DECOUPE
10
103.000000
20
-70.000000
30
0.000000
11
95.000000
21
-70.000000
31
0.000000
0
ARC
8
DECOUPE
10
95.000000
20
-71.000000
30
0.000000
40
1.000000
50
90.000000
51
180.000000
0
LINE
8
DECOUPE
10
94.000000
20
-71.000000
30
0.000000
11
94.000000
21
-78.000000
31
0.000000
0
ARC
8
DECOUPE
10
95.000000
20
-78.000000
30
0.000000
40
1.000000
50
180.000000
51
270.000000
0
LINE
8
DECOUPE
10
95.000000
20
-79.000000
30
0.000000
11
98.000000
21
-79.000000
31
0.000000
0
ARC
8
DECOUPE
10
98.000000
20
-78.000000
30
0.000000
40
1.000000
50
270.000000
51
0.000000
0
LINE
8
DECOUPE
10
99.000000
20
-78.000000
30
0.000000
11
99.000000
21
-76.500000
31
0.000000
0
ARC
8
DECOUPE
10
99.500000
20
-76.500000
30
0.000000
40
0.500000
50
90.000000
51
180.000000
0
LINE
8
DECOUPE
10
99.500000
20
-76.000000
30
0.000000
11
103.000000
21
-76.000000
31
0.000000
0
LINE
8
DECOUPE
10
103.000000
20
-76.000000
30
0.000000
11
103.000000
21
-110.000000
31
0.000000
0
LINE
8
DECOUPE
10
103.000000
20
-110.000000
30
0.000000
11
95.000000
21
-110.000000
31
0.000000
0
ARC
8
DECOUPE
10
95.000000
20
-111.000000
30
0.000000
40
1.000000
50
90.000000
51
180.000000
0
LINE
8
DECOUPE
10
94.000000
20
-111.000000
30
0.000000
11
94.000000
21
-118.000000
31
0.000000
0
ARC
8
DECOUPE
10
95.000000
20
-118.000000
30
0.000000
40
1.000000
50
180.000000
51
270.000000
0
LINE
8
DECOUPE
10
95.000000
20
-119.000000
30
0.000000
11
98.000000
21
-119.000000
31
0.000000
0
ARC
8
DECOUPE
10
98.000000
20
-118.000000
30
0.000000
40
1.000000
50
270.000000
51
0.000000
0
LINE
8
DECOUPE
10
99.000000
20
-118.000000
30
0.000000
11
99.000000
21
-116.500000
31
0.000000
0
ARC
8
DECOUPE
10
99.500000
20
-116.500000
30
0.000000
40
0.500000
50
90.000000
51
180.000000
0
LINE
8
DECOUPE
10
99.500000
20
-116.000000
30
0.000000
11
103.000000
21
-116.000000
31
0.000000
0
TEXT
8
TEXTE
10
94.000000
20
-138.000000
30
0.000000
40
6.000000
1
crochet 2/4
0
LINE
8
DECOUPE
10
197.000000
20
-116.000000
30
0.000000
11
197.000000
21
-123.000000
31
0.000000
0
ARC
8
DECOUPE
10
200.000000
20
-123.000000
30
0.000000
40
3.000000
50
180.000000
51
270.000000
0
LINE
8
DECOUPE
10
200.000000
20
-126.000000
30
0.000000
11
254.000000
21
-126.000000
31
0.000000
0
ARC
8
DECOUPE
10
254.000000
20
-123.000000
30
0.000000
40
3.000000
50
270.000000
51
0.000000
0
LINE
8
DECOUPE
10
257.000000
20
-123.000000
30
0.000000
11
257.000000
21
-109.000000
31
0.000000
0
ARC
8
DECOUPE
10
254.000000
20
-109.000000
30
0.000000
40
3.000000
50
0.000000
51
90.000000
0
LINE
8
DECOUPE
10
254.000000
20
-106.000000
30
0.000000
11
247.153016
21
-106.000000
31
0.000000
0
LINE
8
DECOUPE
10
247.153016
20
-106.000000
30
0.000000
11
247.153016
21
-104.087723
31
0.000000
0
ARC
8
DECOUPE
10
246.653016
20
-104.087723
30
0.000000
40
0.500000
50
0.000000
51
52.000000
0
LINE
8
DECOUPE
10
246.960846
20
-103.693718
30
0.000000
11
241.960846
21
-99.787290
31
0.000000
0
ARC
8
DECOUPE
10
241.653016
20
-100.181295
30
0.000000
40
0.500000
50
52.000000
51
180.000000
0
LINE
8
DECOUPE
10
241.153016
20
-100.181295
30
0.000000
11
241.153016
21
-106.000000
31
0.000000
0
LINE
8
DECOUPE
10
241.153016
20
-106.000000
30
0.000000
11
212.000000
21
-106.000000
31
0.000000
0
ARC
8
DECOUPE
10
212.000000
20
-103.000000
30
0.000000
40
3.000000
50
180.000000
51
270.000000
0
LINE
8
DECOUPE
10
209.000000
20
-103.000000
30
0.000000
11
209.000000
21
-3.000000
31
0.000000
0
ARC
8
DECOUPE
10
206.000000
20
-3.000000
30
0.000000
40
3.000000
50
360.000000
51
90.000000
0
LINE
8
DECOUPE
10
206.000000
20
0.000000
30
0.000000
11
189.000000
21
0.000000
31
0.000000
0
ARC
8
DECOUPE
10
189.000000
20
-1.000000
30
0.000000
40
1.000000
50
90.000000
51
180.000000
0
LINE
8
DECOUPE
10
188.000000
20
-1.000000
30
0.000000
11
188.000000
21
-8.000000
31
0.000000
0
ARC
8
DECOUPE
10
189.000000
20
-8.000000
30
0.000000
40
1.000000
50
180.000000
51
270.000000
0
LINE
8
DECOUPE
10
189.000000
20
-9.000000
30
0.000000
11
192.000000
21
-9.000000
31
0.000000
0
ARC
8
DECOUPE
10
192.000000
20
-8.000000
30
0.000000
40
1.000000
50
270.000000
51
0.000000
0
LINE
8
DECOUPE
10
193.000000
20
-8.000000
30
0.000000
11
193.000000
21
-6.500000
31
0.000000
0
ARC
8
DECOUPE
10
193.500000
20
-6.500000
30
0.000000
40
0.500000
50
90.000000
51
180.000000
0
LINE
8
DECOUPE
10
193.500000
20
-6.000000
30
0.000000
11
197.000000
21
-6.000000
31
0.000000
0
LINE
8
DECOUPE
10
197.000000
20
-6.000000
30
0.000000
11
197.000000
21
-40.000000
31
0.000000
0
LINE
8
DECOUPE
10
197.000000
20
-40.000000
30
0.000000
11
189.000000
21
-40.000000
31
0.000000
0
ARC
8
DECOUPE
10
189.000000
20
-41.000000
30
0.000000
40
1.000000
50
90.000000
51
180.000000
0
LINE
8
DECOUPE
10
188.000000
20
-41.000000
30
0.000000
11
188.000000
21
-48.000000
31
0.000000
0
ARC
8
DECOUPE
10
189.000000
20
-48.000000
30
0.000000
40
1.000000
50
180.000000
51
270.000000
0
LINE
8
DECOUPE
10
189.000000
20
-49.000000
30
0.000000
11
192.000000
21
-49.000000
31
0.000000
0
ARC
8
DECOUPE
10
192.000000
20
-48.000000
30
0.000000
40
1.000000
50
270.000000
51
0.000000
0
LINE
8
DECOUPE
10
193.000000
20
-48.000000
30
0.000000
11
193.000000
21
-46.500000
31
0.000000
0
ARC
8
DECOUPE
10
193.500000
20
-46.500000
30
0.000000
40
0.500000
50
90.000000
51
180.000000
0
LINE
8
DECOUPE
10
193.500000
20
-46.000000
30
0.000000
11
197.000000
21
-46.000000
31
0.000000
0
LINE
8
DECOUPE
10
197.000000
20
-46.000000
30
0.000000
11
197.000000
21
-70.000000
31
0.000000
0
LINE
8
DECOUPE
10
197.000000
20
-70.000000
30
0.000000
11
189.000000
21
-70.000000
31
0.000000
0
ARC
8
DECOUPE
10
189.000000
20
-71.000000
30
0.000000
40
1.000000
50
90.000000
51
180.000000
0
LINE
8
DECOUPE
10
188.000000
20
-71.000000
30
0.000000
11
188.000000
21
-78.000000
31
0.000000
0
ARC
8
DECOUPE
10
189.000000
20
-78.000000
30
0.000000
40
1.000000
50
180.000000
51
270.000000
0
LINE
8
DECOUPE
10
189.000000
20
-79.000000
30
0.000000
11
192.000000
21
-79.000000
31
0.000000
0
ARC
8
DECOUPE
10
192.000000
20
-78.000000
30
0.000000
40
1.000000
50
270.000000
51
0.000000
0
LINE
8
DECOUPE
10
193.000000
20
-78.000000
30
0.000000
11
193.000000
21
-76.500000
31
0.000000
0
ARC
8
DECOUPE
10
193.500000
20
-76.500000
30
0.000000
40
0.500000
50
90.000000
51
180.000000
0
LINE
8
DECOUPE
10
193.500000
20
-76.000000
30
0.000000
11
197.000000
21
-76.000000
31
0.000000
0
LINE
8
DECOUPE
10
197.000000
20
-76.000000
30
0.000000
11
197.000000
21
-110.000000
31
0.000000
0
LINE
8
DECOUPE
10
197.000000
20
-110.000000
30
0.000000
11
189.000000
21
-110.000000
31
0.000000
0
ARC
8
DECOUPE
10
189.000000
20
-111.000000
30
0.000000
40
1.000000
50
90.000000
51
180.000000
0
LINE
8
DECOUPE
10
188.000000
20
-111.000000
30
0.000000
11
188.000000
21
-118.000000
31
0.000000
0
ARC
8
DECOUPE
10
189.000000
20
-118.000000
30
0.000000
40
1.000000
50
180.000000
51
270.000000
0
LINE
8
DECOUPE
10
189.000000
20
-119.000000
30
0.000000
11
192.000000
21
-119.000000
31
0.000000
0
ARC
8
DECOUPE
10
192.000000
20
-118.000000
30
0.000000
40
1.000000
50
270.000000
51
0.000000
0
LINE
8
DECOUPE
10
193.000000
20
-118.000000
30
0.000000
11
193.000000
21
-116.500000
31
0.000000
0
ARC
8
DECOUPE
10
193.500000
20
-116.500000
30
0.000000
40
0.500000
50
90.000000
51
180.000000
0
LINE
8
DECOUPE
10
193.500000
20
-116.000000
30
0.000000
11
197.000000
21
-116.000000
31
0.000000
0
TEXT
8
TEXTE
10
188.000000
20
-138.000000
30
0.000000
40
6.000000
1
crochet 3/4
0
LINE
8
DECOUPE
10
291.000000
20
-116.000000
30
0.000000
11
291.000000
21
-123.000000
31
0.000000
0
ARC
8
DECOUPE
10
294.000000
20
-123.000000
30
0.000000
40
3.000000
50
180.000000
51
270.000000
0
LINE
8
DECOUPE
10
294.000000
20
-126.000000
30
0.000000
11
348.000000
21
-126.000000
31
0.000000
0
ARC
8
DECOUPE
10
348.000000
20
-123.000000
30
0.000000
40
3.000000
50
270.000000
51
0.000000
0
LINE
8
DECOUPE
10
351.000000
20
-123.000000
30
0.000000
11
351.000000
21
-109.000000
31
0.000000
0
ARC
8
DECOUPE
10
348.000000
20
-109.000000
30
0.000000
40
3.000000
50
0.000000
51
90.000000
0
LINE
8
DECOUPE
10
348.000000
20
-106.000000
30
0.000000
11
341.153016
21
-106.000000
31
0.000000
0
LINE
8
DECOUPE
10
341.153016
20
-106.000000
30
0.000000
11
341.153016
21
-104.087723
31
0.000000
0
ARC
8
DECOUPE
10
340.653016
20
-104.087723
30
0.000000
40
0.500000
50
0.000000
51
52.000000
0
LINE
8
DECOUPE
10
340.960846
20
-103.693718
30
0.000000
11
335.960846
21
-99.787290
31
0.000000
0
ARC
8
DECOUPE
10
335.653016
20
-100.181295
30
0.000000
40
0.500000
50
52.000000
51
180.000000
0
LINE
8
DECOUPE
10
335.153016
20
-100.181295
30
0.000000
11
335.153016
21
-106.000000
31
0.000000
0
LINE
8
DECOUPE
10
335.153016
20
-106.000000
30
0.000000
11
306.000000
21
-106.000000
31
0.000000
0
ARC
8
DECOUPE
10
306.000000
20
-103.000000
30
0.000000
40
3.000000
50
180.000000
51
270.000000
0
LINE
8
DECOUPE
10
303.000000
20
-103.000000
30
0.000000
11
303.000000
21
-3.000000
31
0.000000
0
ARC
8
DECOUPE
10
300.000000
20
-3.000000
30
0.000000
40
3.000000
50
360.000000
51
90.000000
0
LINE
8
DECOUPE
10
300.000000
20
0.000000
30
0.000000
11
283.000000
21
0.000000
31
0.000000
0
ARC
8
DECOUPE
10
283.000000
20
-1.000000
30
0.000000
40
1.000000
50
90.000000
51
180.000000
0
LINE
8
DECOUPE
10
282.000000
20
-1.000000
30
0.000000
11
282.000000
21
-8.000000
31
0.000000
0
ARC
8
DECOUPE
10
283.000000
20
-8.000000
30
0.000000
40
1.000000
50
180.000000
51
270.000000
0
LINE
8
DECOUPE
10
283.000000
20
-9.000000
30
0.000000
11
286.000000
21
-9.000000
31
0.000000
0
ARC
8
DECOUPE
10
286.000000
20
-8.000000
30
0.000000
40
1.000000
50
270.000000
51
0.000000
0
LINE
8
DECOUPE
10
287.000000
20
-8.000000
30
0.000000
11
287.000000
21
-6.500000
31
0.000000
0
ARC
8
DECOUPE
10
287.500000
20
-6.500000
30
0.000000
40
0.500000
50
90.000000
51
180.000000
0
LINE
8
DECOUPE
10
287.500000
20
-6.000000
30
0.000000
11
291.000000
21
-6.000000
31
0.000000
0
LINE
8
DECOUPE
10
291.000000
20
-6.000000
30
0.000000
11
291.000000
21
-40.000000
31
0.000000
0
LINE
8
DECOUPE
10
291.000000
20
-40.000000
30
0.000000
11
283.000000
21
-40.000000
31
0.000000
0
ARC
8
DECOUPE
10
283.000000
20
-41.000000
30
0.000000
40
1.000000
50
90.000000
51
180.000000
0
LINE
8
DECOUPE
10
282.000000
20
-41.000000
30
0.000000
11
282.000000
21
-48.000000
31
0.000000
0
ARC
8
DECOUPE
10
283.000000
20
-48.000000
30
0.000000
40
1.000000
50
180.000000
51
270.000000
0
LINE
8
DECOUPE
10
283.000000
20
-49.000000
30
0.000000
11
286.000000
21
-49.000000
31
0.000000
0
ARC
8
DECOUPE
10
286.000000
20
-48.000000
30
0.000000
40
1.000000
50
270.000000
51
0.000000
0
LINE
8
DECOUPE
10
287.000000
20
-48.000000
30
0.000000
11
287.000000
21
-46.500000
31
0.000000
0
ARC
8
DECOUPE
10
287.500000
20
-46.500000
30
0.000000
40
0.500000
50
90.000000
51
180.000000
0
LINE
8
DECOUPE
10
287.500000
20
-46.000000
30
0.000000
11
291.000000
21
-46.000000
31
0.000000
0
LINE
8
DECOUPE
10
291.000000
20
-46.000000
30
0.000000
11
291.000000
21
-70.000000
31
0.000000
0
LINE
8
DECOUPE
10
291.000000
20
-70.000000
30
0.000000
11
283.000000
21
-70.000000
31
0.000000
0
ARC
8
DECOUPE
10
283.000000
20
-71.000000
30
0.000000
40
1.000000
50
90.000000
51
180.000000
0
LINE
8
DECOUPE
10
282.000000
20
-71.000000
30
0.000000
11
282.000000
21
-78.000000
31
0.000000
0
ARC
8
DECOUPE
10
283.000000
20
-78.000000
30
0.000000
40
1.000000
50
180.000000
51
270.000000
0
LINE
8
DECOUPE
10
283.000000
20
-79.000000
30
0.000000
11
286.000000
21
-79.000000
31
0.000000
0
ARC
8
DECOUPE
10
286.000000
20
-78.000000
30
0.000000
40
1.000000
50
270.000000
51
0.000000
0
LINE
8
DECOUPE
10
287.000000
20
-78.000000
30
0.000000
11
287.000000
21
-76.500000
31
0.000000
0
ARC
8
DECOUPE
10
287.500000
20
-76.500000
30
0.000000
40
0.500000
50
90.000000
51
180.000000
0
LINE
8
DECOUPE
10
287.500000
20
-76.000000
30
0.000000
11
291.000000
21
-76.000000
31
0.000000
0
LINE
8
DECOUPE
10
291.000000
20
-76.000000
30
0.000000
11
291.000000
21
-110.000000
31
0.000000
0
LINE
8
DECOUPE
10
291.000000
20
-110.000000
30
0.000000
11
283.000000
21
-110.000000
31
0.000000
0
ARC
8
DECOUPE
10
283.000000
20
-111.000000
30
0.000000
40
1.000000
50
90.000000
51
180.000000
0
LINE
8
DECOUPE
10
282.000000
20
-111.000000
30
0.000000
11
282.000000
21
-118.000000
31
0.000000
0
ARC
8
DECOUPE
10
283.000000
20
-118.000000
30
0.000000
40
1.000000
50
180.000000
51
270.000000
0
LINE
8
DECOUPE
10
283.000000
20
-119.000000
30
0.000000
11
286.000000
21
-119.000000
31
0.000000
0
ARC
8
DECOUPE
10
286.000000
20
-118.000000
30
0.000000
40
1.000000
50
270.000000
51
0.000000
0
LINE
8
DECOUPE
10
287.000000
20
-118.000000
30
0.000000
11
287.000000
21
-116.500000
31
0.000000
0
ARC
8
DECOUPE
10
287.500000
20
-116.500000
30
0.000000
40
0.500000
50
90.000000
51
180.000000
0
LINE
8
DECOUPE
10
287.500000
20
-116.000000
30
0.000000
11
291.000000
21
-116.000000
31
0.000000
0
TEXT
8
TEXTE
10
282.000000
20
-138.000000
30
0.000000
40
6.000000
1
crochet 4/4
0
LINE
8
DECOUPE
10
386.200000
20
-88.500000
30
0.000000
11
386.200000
21
-124.000000
31
0.000000
0
ARC
8
DECOUPE
10
388.200000
20
-124.000000
30
0.000000
40
2.000000
50
180.000000
51
270.000000
0
LINE
8
DECOUPE
10
388.200000
20
-126.000000
30
0.000000
11
443.800000
21
-126.000000
31
0.000000
0
ARC
8
DECOUPE
10
443.800000
20
-124.000000
30
0.000000
40
2.000000
50
270.000000
51
0.000000
0
LINE
8
DECOUPE
10
445.800000
20
-124.000000
30
0.000000
11
445.800000
21
-88.500000
31
0.000000
0
LINE
8
DECOUPE
10
445.800000
20
-88.500000
30
0.000000
11
444.300000
21
-87.000000
31
0.000000
0
LINE
8
DECOUPE
10
444.300000
20
-87.000000
30
0.000000
11
445.800000
21
-85.500000
31
0.000000
0
LINE
8
DECOUPE
10
445.800000
20
-85.500000
30
0.000000
11
447.300000
21
-87.000000
31
0.000000
0
LINE
8
DECOUPE
10
447.300000
20
-87.000000
30
0.000000
11
454.000000
21
-87.000000
31
0.000000
0
ARC
8
DECOUPE
10
454.000000
20
-85.000000
30
0.000000
40
2.000000
50
270.000000
51
0.000000
0
LINE
8
DECOUPE
10
456.000000
20
-85.000000
30
0.000000
11
456.000000
21
-69.000000
31
0.000000
0
ARC
8
DECOUPE
10
454.000000
20
-69.000000
30
0.000000
40
2.000000
50
0.000000
51
90.000000
0
LINE
8
DECOUPE
10
454.000000
20
-67.000000
30
0.000000
11
447.300000
21
-67.000000
31
0.000000
0
LINE
8
DECOUPE
10
447.300000
20
-67.000000
30
0.000000
11
445.800000
21
-68.500000
31
0.000000
0
LINE
8
DECOUPE
10
445.800000
20
-68.500000
30
0.000000
11
444.300000
21
-67.000000
31
0.000000
0
LINE
8
DECOUPE
10
444.300000
20
-67.000000
30
0.000000
11
445.800000
21
-65.500000
31
0.000000
0
LINE
8
DECOUPE
10
445.800000
20
-65.500000
30
0.000000
11
445.800000
21
-63.000000
31
0.000000
0
ARC
8
DECOUPE
10
443.800000
20
-63.000000
30
0.000000
40
2.000000
50
0.000000
51
90.000000
0
LINE
8
DECOUPE
10
443.800000
20
-61.000000
30
0.000000
11
388.200000
21
-61.000000
31
0.000000
0
ARC
8
DECOUPE
10
388.200000
20
-63.000000
30
0.000000
40
2.000000
50
90.000000
51
180.000000
0
LINE
8
DECOUPE
10
386.200000
20
-63.000000
30
0.000000
11
386.200000
21
-65.500000
31
0.000000
0
LINE
8
DECOUPE
10
386.200000
20
-65.500000
30
0.000000
11
387.700000
21
-67.000000
31
0.000000
0
LINE
8
DECOUPE
10
387.700000
20
-67.000000
30
0.000000
11
386.200000
21
-68.500000
31
0.000000
0
LINE
8
DECOUPE
10
386.200000
20
-68.500000
30
0.000000
11
384.700000
21
-67.000000
31
0.000000
0
LINE
8
DECOUPE
10
384.700000
20
-67.000000
30
0.000000
11
378.000000
21
-67.000000
31
0.000000
0
ARC
8
DECOUPE
10
378.000000
20
-69.000000
30
0.000000
40
2.000000
50
90.000000
51
180.000000
0
LINE
8
DECOUPE
10
376.000000
20
-69.000000
30
0.000000
11
376.000000
21
-85.000000
31
0.000000
0
ARC
8
DECOUPE
10
378.000000
20
-85.000000
30
0.000000
40
2.000000
50
180.000000
51
270.000000
0
LINE
8
DECOUPE
10
378.000000
20
-87.000000
30
0.000000
11
384.700000
21
-87.000000
31
0.000000
0
LINE
8
DECOUPE
10
384.700000
20
-87.000000
30
0.000000
11
386.200000
21
-85.500000
31
0.000000
0
LINE
8
DECOUPE
10
386.200000
20
-85.500000
30
0.000000
11
387.700000
21
-87.000000
31
0.000000
0
LINE
8
DECOUPE
10
387.700000
20
-87.000000
30
0.000000
11
386.200000
21
-88.500000
31
0.000000
0
ARC
8
DECOUPE
10
416.000000
20
-106.000000
30
0.000000
40
5.500000
50
0.000000
51
180.000000
0
ARC
8
DECOUPE
10
416.000000
20
-106.000000
30
0.000000
40
5.500000
50
180.000000
51
0.000000
0
TEXT
8
TEXTE
10
376.000000
20
-138.000000
30
0.000000
40
6.000000
1
traverse 1/6
0
LINE
8
DECOUPE
10
491.200000
20
-88.500000
30
0.000000
11
491.200000
21
-124.000000
31
0.000000
0
ARC
8
DECOUPE
10
493.200000
20
-124.000000
30
0.000000
40
2.000000
50
180.000000
51
270.000000
0
LINE
8
DECOUPE
10
493.200000
20
-126.000000
30
0.000000
11
548.800000
21
-126.000000
31
0.000000
0
ARC
8
DECOUPE
10
548.800000
20
-124.000000
30
0.000000
40
2.000000
50
270.000000
51
0.000000
0
LINE
8
DECOUPE
10
550.800000
20
-124.000000
30
0.000000
11
550.800000
21
-88.500000
31
0.000000
0
LINE
8
DECOUPE
10
550.800000
20
-88.500000
30
0.000000
11
549.300000
21
-87.000000
31
0.000000
0
LINE
8
DECOUPE
10
549.300000
20
-87.000000
30
0.000000
11
550.800000
21
-85.500000
31
0.000000
0
LINE
8
DECOUPE
10
550.800000
20
-85.500000
30
0.000000
11
552.300000
21
-87.000000
31
0.000000
0
LINE
8
DECOUPE
10
552.300000
20
-87.000000
30
0.000000
11
559.000000
21
-87.000000
31
0.000000
0
ARC
8
DECOUPE
10
559.000000
20
-85.000000
30
0.000000
40
2.000000
50
270.000000
51
0.000000
0
LINE
8
DECOUPE
10
561.000000
20
-85.000000
30
0.000000
11
561.000000
21
-69.000000
31
0.000000
0
ARC
8
DECOUPE
10
559.000000
20
-69.000000
30
0.000000
40
2.000000
50
0.000000
51
90.000000
0
LINE
8
DECOUPE
10
559.000000
20
-67.000000
30
0.000000
11
552.300000
21
-67.000000
31
0.000000
0
LINE
8
DECOUPE
10
552.300000
20
-67.000000
30
0.000000
11
550.800000
21
-68.500000
31
0.000000
0
LINE
8
DECOUPE
10
550.800000
20
-68.500000
30
0.000000
11
549.300000
21
-67.000000
31
0.000000
0
LINE
8
DECOUPE
10
549.300000
20
-67.000000
30
0.000000
11
550.800000
21
-65.500000
31
0.000000
0
LINE
8
DECOUPE
10
550.800000
20
-65.500000
30
0.000000
11
550.800000
21
-63.000000
31
0.000000
0
ARC
8
DECOUPE
10
548.800000
20
-63.000000
30
0.000000
40
2.000000
50
0.000000
51
90.000000
0
LINE
8
DECOUPE
10
548.800000
20
-61.000000
30
0.000000
11
493.200000
21
-61.000000
31
0.000000
0
ARC
8
DECOUPE
10
493.200000
20
-63.000000
30
0.000000
40
2.000000
50
90.000000
51
180.000000
0
LINE
8
DECOUPE
10
491.200000
20
-63.000000
30
0.000000
11
491.200000
21
-65.500000
31
0.000000
0
LINE
8
DECOUPE
10
491.200000
20
-65.500000
30
0.000000
11
492.700000
21
-67.000000
31
0.000000
0
LINE
8
DECOUPE
10
492.700000
20
-67.000000
30
0.000000
11
491.200000
21
-68.500000
31
0.000000
0
LINE
8
DECOUPE
10
491.200000
20
-68.500000
30
0.000000
11
489.700000
21
-67.000000
31
0.000000
0
LINE
8
DECOUPE
10
489.700000
20
-67.000000
30
0.000000
11
483.000000
21
-67.000000
31
0.000000
0
ARC
8
DECOUPE
10
483.000000
20
-69.000000
30
0.000000
40
2.000000
50
90.000000
51
180.000000
0
LINE
8
DECOUPE
10
481.000000
20
-69.000000
30
0.000000
11
481.000000
21
-85.000000
31
0.000000
0
ARC
8
DECOUPE
10
483.000000
20
-85.000000
30
0.000000
40
2.000000
50
180.000000
51
270.000000
0
LINE
8
DECOUPE
10
483.000000
20
-87.000000
30
0.000000
11
489.700000
21
-87.000000
31
0.000000
0
LINE
8
DECOUPE
10
489.700000
20
-87.000000
30
0.000000
11
491.200000
21
-85.500000
31
0.000000
0
LINE
8
DECOUPE
10
491.200000
20
-85.500000
30
0.000000
11
492.700000
21
-87.000000
31
0.000000
0
LINE
8
DECOUPE
10
492.700000
20
-87.000000
30
0.000000
11
491.200000
21
-88.500000
31
0.000000
0
ARC
8
DECOUPE
10
521.000000
20
-106.000000
30
0.000000
40
5.500000
50
0.000000
51
180.000000
0
ARC
8
DECOUPE
10
521.000000
20
-106.000000
30
0.000000
40
5.500000
50
180.000000
51
0.000000
0
TEXT
8
TEXTE
10
481.000000
20
-138.000000
30
0.000000
40
6.000000
1
traverse 2/6
0
LINE
8
DECOUPE
10
596.200000
20
-88.500000
30
0.000000
11
596.200000
21
-124.000000
31
0.000000
0
ARC
8
DECOUPE
10
598.200000
20
-124.000000
30
0.000000
40
2.000000
50
180.000000
51
270.000000
0
LINE
8
DECOUPE
10
598.200000
20
-126.000000
30
0.000000
11
653.800000
21
-126.000000
31
0.000000
0
ARC
8
DECOUPE
10
653.800000
20
-124.000000
30
0.000000
40
2.000000
50
270.000000
51
0.000000
0
LINE
8
DECOUPE
10
655.800000
20
-124.000000
30
0.000000
11
655.800000
21
-88.500000
31
0.000000
0
LINE
8
DECOUPE
10
655.800000
20
-88.500000
30
0.000000
11
654.300000
21
-87.000000
31
0.000000
0
LINE
8
DECOUPE
10
654.300000
20
-87.000000
30
0.000000
11
655.800000
21
-85.500000
31
0.000000
0
LINE
8
DECOUPE
10
655.800000
20
-85.500000
30
0.000000
11
657.300000
21
-87.000000
31
0.000000
0
LINE
8
DECOUPE
10
657.300000
20
-87.000000
30
0.000000
11
664.000000
21
-87.000000
31
0.000000
0
ARC
8
DECOUPE
10
664.000000
20
-85.000000
30
0.000000
40
2.000000
50
270.000000
51
0.000000
0
LINE
8
DECOUPE
10
666.000000
20
-85.000000
30
0.000000
11
666.000000
21
-69.000000
31
0.000000
0
ARC
8
DECOUPE
10
664.000000
20
-69.000000
30
0.000000
40
2.000000
50
0.000000
51
90.000000
0
LINE
8
DECOUPE
10
664.000000
20
-67.000000
30
0.000000
11
657.300000
21
-67.000000
31
0.000000
0
LINE
8
DECOUPE
10
657.300000
20
-67.000000
30
0.000000
11
655.800000
21
-68.500000
31
0.000000
0
LINE
8
DECOUPE
10
655.800000
20
-68.500000
30
0.000000
11
654.300000
21
-67.000000
31
0.000000
0
LINE
8
DECOUPE
10
654.300000
20
-67.000000
30
0.000000
11
655.800000
21
-65.500000
31
0.000000
0
LINE
8
DECOUPE
10
655.800000
20
-65.500000
30
0.000000
11
655.800000
21
-63.000000
31
0.000000
0
ARC
8
DECOUPE
10
653.800000
20
-63.000000
30
0.000000
40
2.000000
50
0.000000
51
90.000000
0
LINE
8
DECOUPE
10
653.800000
20
-61.000000
30
0.000000
11
598.200000
21
-61.000000
31
0.000000
0
ARC
8
DECOUPE
10
598.200000
20
-63.000000
30
0.000000
40
2.000000
50
90.000000
51
180.000000
0
LINE
8
DECOUPE
10
596.200000
20
-63.000000
30
0.000000
11
596.200000
21
-65.500000
31
0.000000
0
LINE
8
DECOUPE
10
596.200000
20
-65.500000
30
0.000000
11
597.700000
21
-67.000000
31
0.000000
0
LINE
8
DECOUPE
10
597.700000
20
-67.000000
30
0.000000
11
596.200000
21
-68.500000
31
0.000000
0
LINE
8
DECOUPE
10
596.200000
20
-68.500000
30
0.000000
11
594.700000
21
-67.000000
31
0.000000
0
LINE
8
DECOUPE
10
594.700000
20
-67.000000
30
0.000000
11
588.000000
21
-67.000000
31
0.000000
0
ARC
8
DECOUPE
10
588.000000
20
-69.000000
30
0.000000
40
2.000000
50
90.000000
51
180.000000
0
LINE
8
DECOUPE
10
586.000000
20
-69.000000
30
0.000000
11
586.000000
21
-85.000000
31
0.000000
0
ARC
8
DECOUPE
10
588.000000
20
-85.000000
30
0.000000
40
2.000000
50
180.000000
51
270.000000
0
LINE
8
DECOUPE
10
588.000000
20
-87.000000
30
0.000000
11
594.700000
21
-87.000000
31
0.000000
0
LINE
8
DECOUPE
10
594.700000
20
-87.000000
30
0.000000
11
596.200000
21
-85.500000
31
0.000000
0
LINE
8
DECOUPE
10
596.200000
20
-85.500000
30
0.000000
11
597.700000
21
-87.000000
31
0.000000
0
LINE
8
DECOUPE
10
597.700000
20
-87.000000
30
0.000000
11
596.200000
21
-88.500000
31
0.000000
0
ARC
8
DECOUPE
10
626.000000
20
-106.000000
30
0.000000
40
5.500000
50
0.000000
51
180.000000
0
ARC
8
DECOUPE
10
626.000000
20
-106.000000
30
0.000000
40
5.500000
50
180.000000
51
0.000000
0
TEXT
8
TEXTE
10
586.000000
20
-138.000000
30
0.000000
40
6.000000
1
traverse 3/6
0
LINE
8
DECOUPE
10
701.200000
20
-88.500000
30
0.000000
11
701.200000
21
-124.000000
31
0.000000
0
ARC
8
DECOUPE
10
703.200000
20
-124.000000
30
0.000000
40
2.000000
50
180.000000
51
270.000000
0
LINE
8
DECOUPE
10
703.200000
20
-126.000000
30
0.000000
11
758.800000
21
-126.000000
31
0.000000
0
ARC
8
DECOUPE
10
758.800000
20
-124.000000
30
0.000000
40
2.000000
50
270.000000
51
0.000000
0
LINE
8
DECOUPE
10
760.800000
20
-124.000000
30
0.000000
11
760.800000
21
-88.500000
31
0.000000
0
LINE
8
DECOUPE
10
760.800000
20
-88.500000
30
0.000000
11
759.300000
21
-87.000000
31
0.000000
0
LINE
8
DECOUPE
10
759.300000
20
-87.000000
30
0.000000
11
760.800000
21
-85.500000
31
0.000000
0
LINE
8
DECOUPE
10
760.800000
20
-85.500000
30
0.000000
11
762.300000
21
-87.000000
31
0.000000
0
LINE
8
DECOUPE
10
762.300000
20
-87.000000
30
0.000000
11
769.000000
21
-87.000000
31
0.000000
0
ARC
8
DECOUPE
10
769.000000
20
-85.000000
30
0.000000
40
2.000000
50
270.000000
51
0.000000
0
LINE
8
DECOUPE
10
771.000000
20
-85.000000
30
0.000000
11
771.000000
21
-69.000000
31
0.000000
0
ARC
8
DECOUPE
10
769.000000
20
-69.000000
30
0.000000
40
2.000000
50
0.000000
51
90.000000
0
LINE
8
DECOUPE
10
769.000000
20
-67.000000
30
0.000000
11
762.300000
21
-67.000000
31
0.000000
0
LINE
8
DECOUPE
10
762.300000
20
-67.000000
30
0.000000
11
760.800000
21
-68.500000
31
0.000000
0
LINE
8
DECOUPE
10
760.800000
20
-68.500000
30
0.000000
11
759.300000
21
-67.000000
31
0.000000
0
LINE
8
DECOUPE
10
759.300000
20
-67.000000
30
0.000000
11
760.800000
21
-65.500000
31
0.000000
0
LINE
8
DECOUPE
10
760.800000
20
-65.500000
30
0.000000
11
760.800000
21
-63.000000
31
0.000000
0
ARC
8
DECOUPE
10
758.800000
20
-63.000000
30
0.000000
40
2.000000
50
0.000000
51
90.000000
0
LINE
8
DECOUPE
10
758.800000
20
-61.000000
30
0.000000
11
703.200000
21
-61.000000
31
0.000000
0
ARC
8
DECOUPE
10
703.200000
20
-63.000000
30
0.000000
40
2.000000
50
90.000000
51
180.000000
0
LINE
8
DECOUPE
10
701.200000
20
-63.000000
30
0.000000
11
701.200000
21
-65.500000
31
0.000000
0
LINE
8
DECOUPE
10
701.200000
20
-65.500000
30
0.000000
11
702.700000
21
-67.000000
31
0.000000
0
LINE
8
DECOUPE
10
702.700000
20
-67.000000
30
0.000000
11
701.200000
21
-68.500000
31
0.000000
0
LINE
8
DECOUPE
10
701.200000
20
-68.500000
30
0.000000
11
699.700000
21
-67.000000
31
0.000000
0
LINE
8
DECOUPE
10
699.700000
20
-67.000000
30
0.000000
11
693.000000
21
-67.000000
31
0.000000
0
ARC
8
DECOUPE
10
693.000000
20
-69.000000
30
0.000000
40
2.000000
50
90.000000
51
180.000000
0
LINE
8
DECOUPE
10
691.000000
20
-69.000000
30
0.000000
11
691.000000
21
-85.000000
31
0.000000
0
ARC
8
DECOUPE
10
693.000000
20
-85.000000
30
0.000000
40
2.000000
50
180.000000
51
270.000000
0
LINE
8
DECOUPE
10
693.000000
20
-87.000000
30
0.000000
11
699.700000
21
-87.000000
31
0.000000
0
LINE
8
DECOUPE
10
699.700000
20
-87.000000
30
0.000000
11
701.200000
21
-85.500000
31
0.000000
0
LINE
8
DECOUPE
10
701.200000
20
-85.500000
30
0.000000
11
702.700000
21
-87.000000
31
0.000000
0
LINE
8
DECOUPE
10
702.700000
20
-87.000000
30
0.000000
11
701.200000
21
-88.500000
31
0.000000
0
ARC
8
DECOUPE
10
731.000000
20
-106.000000
30
0.000000
40
5.500000
50
0.000000
51
180.000000
0
ARC
8
DECOUPE
10
731.000000
20
-106.000000
30
0.000000
40
5.500000
50
180.000000
51
0.000000
0
TEXT
8
TEXTE
10
691.000000
20
-138.000000
30
0.000000
40
6.000000
1
traverse 4/6
0
LINE
8
DECOUPE
10
806.200000
20
-88.500000
30
0.000000
11
806.200000
21
-124.000000
31
0.000000
0
ARC
8
DECOUPE
10
808.200000
20
-124.000000
30
0.000000
40
2.000000
50
180.000000
51
270.000000
0
LINE
8
DECOUPE
10
808.200000
20
-126.000000
30
0.000000
11
863.800000
21
-126.000000
31
0.000000
0
ARC
8
DECOUPE
10
863.800000
20
-124.000000
30
0.000000
40
2.000000
50
270.000000
51
0.000000
0
LINE
8
DECOUPE
10
865.800000
20
-124.000000
30
0.000000
11
865.800000
21
-88.500000
31
0.000000
0
LINE
8
DECOUPE
10
865.800000
20
-88.500000
30
0.000000
11
864.300000
21
-87.000000
31
0.000000
0
LINE
8
DECOUPE
10
864.300000
20
-87.000000
30
0.000000
11
865.800000
21
-85.500000
31
0.000000
0
LINE
8
DECOUPE
10
865.800000
20
-85.500000
30
0.000000
11
867.300000
21
-87.000000
31
0.000000
0
LINE
8
DECOUPE
10
867.300000
20
-87.000000
30
0.000000
11
874.000000
21
-87.000000
31
0.000000
0
ARC
8
DECOUPE
10
874.000000
20
-85.000000
30
0.000000
40
2.000000
50
270.000000
51
0.000000
0
LINE
8
DECOUPE
10
876.000000
20
-85.000000
30
0.000000
11
876.000000
21
-69.000000
31
0.000000
0
ARC
8
DECOUPE
10
874.000000
20
-69.000000
30
0.000000
40
2.000000
50
0.000000
51
90.000000
0
LINE
8
DECOUPE
10
874.000000
20
-67.000000
30
0.000000
11
867.300000
21
-67.000000
31
0.000000
0
LINE
8
DECOUPE
10
867.300000
20
-67.000000
30
0.000000
11
865.800000
21
-68.500000
31
0.000000
0
LINE
8
DECOUPE
10
865.800000
20
-68.500000
30
0.000000
11
864.300000
21
-67.000000
31
0.000000
0
LINE
8
DECOUPE
10
864.300000
20
-67.000000
30
0.000000
11
865.800000
21
-65.500000
31
0.000000
0
LINE
8
DECOUPE
10
865.800000
20
-65.500000
30
0.000000
11
865.800000
21
-63.000000
31
0.000000
0
ARC
8
DECOUPE
10
863.800000
20
-63.000000
30
0.000000
40
2.000000
50
0.000000
51
90.000000
0
LINE
8
DECOUPE
10
863.800000
20
-61.000000
30
0.000000
11
808.200000
21
-61.000000
31
0.000000
0
ARC
8
DECOUPE
10
808.200000
20
-63.000000
30
0.000000
40
2.000000
50
90.000000
51
180.000000
0
LINE
8
DECOUPE
10
806.200000
20
-63.000000
30
0.000000
11
806.200000
21
-65.500000
31
0.000000
0
LINE
8
DECOUPE
10
806.200000
20
-65.500000
30
0.000000
11
807.700000
21
-67.000000
31
0.000000
0
LINE
8
DECOUPE
10
807.700000
20
-67.000000
30
0.000000
11
806.200000
21
-68.500000
31
0.000000
0
LINE
8
DECOUPE
10
806.200000
20
-68.500000
30
0.000000
11
804.700000
21
-67.000000
31
0.000000
0
LINE
8
DECOUPE
10
804.700000
20
-67.000000
30
0.000000
11
798.000000
21
-67.000000
31
0.000000
0
ARC
8
DECOUPE
10
798.000000
20
-69.000000
30
0.000000
40
2.000000
50
90.000000
51
180.000000
0
LINE
8
DECOUPE
10
796.000000
20
-69.000000
30
0.000000
11
796.000000
21
-85.000000
31
0.000000
0
ARC
8
DECOUPE
10
798.000000
20
-85.000000
30
0.000000
40
2.000000
50
180.000000
51
270.000000
0
LINE
8
DECOUPE
10
798.000000
20
-87.000000
30
0.000000
11
804.700000
21
-87.000000
31
0.000000
0
LINE
8
DECOUPE
10
804.700000
20
-87.000000
30
0.000000
11
806.200000
21
-85.500000
31
0.000000
0
LINE
8
DECOUPE
10
806.200000
20
-85.500000
30
0.000000
11
807.700000
21
-87.000000
31
0.000000
0
LINE
8
DECOUPE
10
807.700000
20
-87.000000
30
0.000000
11
806.200000
21
-88.500000
31
0.000000
0
ARC
8
DECOUPE
10
836.000000
20
-106.000000
30
0.000000
40
5.500000
50
0.000000
51
180.000000
0
ARC
8
DECOUPE
10
836.000000
20
-106.000000
30
0.000000
40
5.500000
50
180.000000
51
0.000000
0
TEXT
8
TEXTE
10
796.000000
20
-138.000000
30
0.000000
40
6.000000
1
traverse 5/6
0
LINE
8
DECOUPE
10
911.200000
20
-88.500000
30
0.000000
11
911.200000
21
-124.000000
31
0.000000
0
ARC
8
DECOUPE
10
913.200000
20
-124.000000
30
0.000000
40
2.000000
50
180.000000
51
270.000000
0
LINE
8
DECOUPE
10
913.200000
20
-126.000000
30
0.000000
11
968.800000
21
-126.000000
31
0.000000
0
ARC
8
DECOUPE
10
968.800000
20
-124.000000
30
0.000000
40
2.000000
50
270.000000
51
0.000000
0
LINE
8
DECOUPE
10
970.800000
20
-124.000000
30
0.000000
11
970.800000
21
-88.500000
31
0.000000
0
LINE
8
DECOUPE
10
970.800000
20
-88.500000
30
0.000000
11
969.300000
21
-87.000000
31
0.000000
0
LINE
8
DECOUPE
10
969.300000
20
-87.000000
30
0.000000
11
970.800000
21
-85.500000
31
0.000000
0
LINE
8
DECOUPE
10
970.800000
20
-85.500000
30
0.000000
11
972.300000
21
-87.000000
31
0.000000
0
LINE
8
DECOUPE
10
972.300000
20
-87.000000
30
0.000000
11
979.000000
21
-87.000000
31
0.000000
0
ARC
8
DECOUPE
10
979.000000
20
-85.000000
30
0.000000
40
2.000000
50
270.000000
51
0.000000
0
LINE
8
DECOUPE
10
981.000000
20
-85.000000
30
0.000000
11
981.000000
21
-69.000000
31
0.000000
0
ARC
8
DECOUPE
10
979.000000
20
-69.000000
30
0.000000
40
2.000000
50
0.000000
51
90.000000
0
LINE
8
DECOUPE
10
979.000000
20
-67.000000
30
0.000000
11
972.300000
21
-67.000000
31
0.000000
0
LINE
8
DECOUPE
10
972.300000
20
-67.000000
30
0.000000
11
970.800000
21
-68.500000
31
0.000000
0
LINE
8
DECOUPE
10
970.800000
20
-68.500000
30
0.000000
11
969.300000
21
-67.000000
31
0.000000
0
LINE
8
DECOUPE
10
969.300000
20
-67.000000
30
0.000000
11
970.800000
21
-65.500000
31
0.000000
0
LINE
8
DECOUPE
10
970.800000
20
-65.500000
30
0.000000
11
970.800000
21
-63.000000
31
0.000000
0
ARC
8
DECOUPE
10
968.800000
20
-63.000000
30
0.000000
40
2.000000
50
0.000000
51
90.000000
0
LINE
8
DECOUPE
10
968.800000
20
-61.000000
30
0.000000
11
913.200000
21
-61.000000
31
0.000000
0
ARC
8
DECOUPE
10
913.200000
20
-63.000000
30
0.000000
40
2.000000
50
90.000000
51
180.000000
0
LINE
8
DECOUPE
10
911.200000
20
-63.000000
30
0.000000
11
911.200000
21
-65.500000
31
0.000000
0
LINE
8
DECOUPE
10
911.200000
20
-65.500000
30
0.000000
11
912.700000
21
-67.000000
31
0.000000
0
LINE
8
DECOUPE
10
912.700000
20
-67.000000
30
0.000000
11
911.200000
21
-68.500000
31
0.000000
0
LINE
8
DECOUPE
10
911.200000
20
-68.500000
30
0.000000
11
909.700000
21
-67.000000
31
0.000000
0
LINE
8
DECOUPE
10
909.700000
20
-67.000000
30
0.000000
11
903.000000
21
-67.000000
31
0.000000
0
ARC
8
DECOUPE
10
903.000000
20
-69.000000
30
0.000000
40
2.000000
50
90.000000
51
180.000000
0
LINE
8
DECOUPE
10
901.000000
20
-69.000000
30
0.000000
11
901.000000
21
-85.000000
31
0.000000
0
ARC
8
DECOUPE
10
903.000000
20
-85.000000
30
0.000000
40
2.000000
50
180.000000
51
270.000000
0
LINE
8
DECOUPE
10
903.000000
20
-87.000000
30
0.000000
11
909.700000
21
-87.000000
31
0.000000
0
LINE
8
DECOUPE
10
909.700000
20
-87.000000
30
0.000000
11
911.200000
21
-85.500000
31
0.000000
0
LINE
8
DECOUPE
10
911.200000
20
-85.500000
30
0.000000
11
912.700000
21
-87.000000
31
0.000000
0
LINE
8
DECOUPE
10
912.700000
20
-87.000000
30
0.000000
11
911.200000
21
-88.500000
31
0.000000
0
ARC
8
DECOUPE
10
941.000000
20
-106.000000
30
0.000000
40
5.500000
50
0.000000
51
180.000000
0
ARC
8
DECOUPE
10
941.000000
20
-106.000000
30
0.000000
40
5.500000
50
180.000000
51
0.000000
0
TEXT
8
TEXTE
10
901.000000
20
-138.000000
30
0.000000
40
6.000000
1
traverse 6/6
0
LINE
8
DECOUPE
10
1006.000000
20
-74.000000
30
0.000000
11
1006.000000
21
-124.000000
31
0.000000
0
ARC
8
DECOUPE
10
1008.000000
20
-124.000000
30
0.000000
40
2.000000
50
180.000000
51
270.000000
0
LINE
8
DECOUPE
10
1008.000000
20
-126.000000
30
0.000000
11
1010.500000
21
-126.000000
31
0.000000
0
ARC
8
DECOUPE
10
1010.500000
20
-125.500000
30
0.000000
40
0.500000
50
270.000000
51
0.000000
0
LINE
8
DECOUPE
10
1011.000000
20
-125.500000
30
0.000000
11
1011.000000
21
-119.500000
31
0.000000
0
ARC
8
DECOUPE
10
1011.500000
20
-119.500000
30
0.000000
40
0.500000
50
90.000000
51
180.000000
0
LINE
8
DECOUPE
10
1011.500000
20
-119.000000
30
0.000000
11
1018.900000
21
-119.000000
31
0.000000
0
ARC
8
DECOUPE
10
1018.900000
20
-119.500000
30
0.000000
40
0.500000
50
0.000000
51
90.000000
0
LINE
8
DECOUPE
10
1019.400000
20
-119.500000
30
0.000000
11
1019.400000
21
-125.500000
31
0.000000
0
ARC
8
DECOUPE
10
1019.900000
20
-125.500000
30
0.000000
40
0.500000
50
180.000000
51
270.000000
0
LINE
8
DECOUPE
10
1019.900000
20
-126.000000
30
0.000000
11
1044.000000
21
-126.000000
31
0.000000
0
ARC
8
DECOUPE
10
1044.000000
20
-124.000000
30
0.000000
40
2.000000
50
270.000000
51
0.000000
0
LINE
8
DECOUPE
10
1046.000000
20
-124.000000
30
0.000000
11
1046.000000
21
-120.000000
31
0.000000
0
ARC
8
DECOUPE
10
1048.000000
20
-120.000000
30
0.000000
40
2.000000
50
90.000000
51
180.000000
0
LINE
8
DECOUPE
10
1048.000000
20
-118.000000
30
0.000000
11
1482.400000
21
-118.000000
31
0.000000
0
ARC
8
DECOUPE
10
1482.400000
20
-120.000000
30
0.000000
40
2.000000
50
0.000000
51
90.000000
0
LINE
8
DECOUPE
10
1484.400000
20
-120.000000
30
0.000000
11
1484.400000
21
-124.000000
31
0.000000
0
ARC
8
DECOUPE
10
1486.400000
20
-124.000000
30
0.000000
40
2.000000
50
180.000000
51
270.000000
0
LINE
8
DECOUPE
10
1486.400000
20
-126.000000
30
0.000000
11
1510.500000
21
-126.000000
31
0.000000
0
ARC
8
DECOUPE
10
1510.500000
20
-125.500000
30
0.000000
40
0.500000
50
270.000000
51
0.000000
0
LINE
8
DECOUPE
10
1511.000000
20
-125.500000
30
0.000000
11
1511.000000
21
-119.500000
31
0.000000
0
ARC
8
DECOUPE
10
1511.500000
20
-119.500000
30
0.000000
40
0.500000
50
90.000000
51
180.000000
0
LINE
8
DECOUPE
10
1511.500000
20
-119.000000
30
0.000000
11
1518.900000
21
-119.000000
31
0.000000
0
ARC
8
DECOUPE
10
1518.900000
20
-119.500000
30
0.000000
40
0.500000
50
0.000000
51
90.000000
0
LINE
8
DECOUPE
10
1519.400000
20
-119.500000
30
0.000000
11
1519.400000
21
-125.500000
31
0.000000
0
ARC
8
DECOUPE
10
1519.900000
20
-125.500000
30
0.000000
40
0.500000
50
180.000000
51
270.000000
0
LINE
8
DECOUPE
10
1519.900000
20
-126.000000
30
0.000000
11
1522.400000
21
-126.000000
31
0.000000
0
ARC
8
DECOUPE
10
1522.400000
20
-124.000000
30
0.000000
40
2.000000
50
270.000000
51
0.000000
0
LINE
8
DECOUPE
10
1524.400000
20
-124.000000
30
0.000000
11
1524.400000
21
-74.000000
31
0.000000
0
ARC
8
DECOUPE
10
1518.400000
20
-74.000000
30
0.000000
40
6.000000
50
0.000000
51
90.000000
0
LINE
8
DECOUPE
10
1518.400000
20
-68.000000
30
0.000000
11
1304.400000
21
-68.000000
31
0.000000
0
ARC
8
DECOUPE
10
1304.400000
20
-69.000000
30
0.000000
40
1.000000
50
90.000000
51
180.000000
0
LINE
8
DECOUPE
10
1303.400000
20
-69.000000
30
0.000000
11
1303.400000
21
-73.700000
31
0.000000
0
LINE
8
DECOUPE
10
1303.400000
20
-73.700000
30
0.000000
11
1303.100000
21
-74.000000
31
0.000000
0
LINE
8
DECOUPE
10
1303.100000
20
-74.000000
30
0.000000
11
1303.100000
21
-82.000000
31
0.000000
0
LINE
8
DECOUPE
10
1303.100000
20
-82.000000
30
0.000000
11
1303.400000
21
-82.300000
31
0.000000
0
LINE
8
DECOUPE
10
1303.400000
20
-82.300000
30
0.000000
11
1303.400000
21
-86.500000
31
0.000000
0
LINE
8
DECOUPE
10
1303.400000
20
-86.500000
30
0.000000
11
1304.900000
21
-88.000000
31
0.000000
0
LINE
8
DECOUPE
10
1304.900000
20
-88.000000
30
0.000000
11
1303.400000
21
-89.500000
31
0.000000
0
LINE
8
DECOUPE
10
1303.400000
20
-89.500000
30
0.000000
11
1301.900000
21
-88.000000
31
0.000000
0
LINE
8
DECOUPE
10
1301.900000
20
-88.000000
30
0.000000
11
1296.500000
21
-88.000000
31
0.000000
0
LINE
8
DECOUPE
10
1296.500000
20
-88.000000
30
0.000000
11
1295.000000
21
-89.500000
31
0.000000
0
LINE
8
DECOUPE
10
1295.000000
20
-89.500000
30
0.000000
11
1293.500000
21
-88.000000
31
0.000000
0
LINE
8
DECOUPE
10
1293.500000
20
-88.000000
30
0.000000
11
1295.000000
21
-86.500000
31
0.000000
0
LINE
8
DECOUPE
10
1295.000000
20
-86.500000
30
0.000000
11
1295.000000
21
-82.300000
31
0.000000
0
LINE
8
DECOUPE
10
1295.000000
20
-82.300000
30
0.000000
11
1295.300000
21
-82.000000
31
0.000000
0
LINE
8
DECOUPE
10
1295.300000
20
-82.000000
30
0.000000
11
1295.300000
21
-74.000000
31
0.000000
0
LINE
8
DECOUPE
10
1295.300000
20
-74.000000
30
0.000000
11
1295.000000
21
-73.700000
31
0.000000
0
LINE
8
DECOUPE
10
1295.000000
20
-73.700000
30
0.000000
11
1295.000000
21
-69.000000
31
0.000000
0
ARC
8
DECOUPE
10
1294.000000
20
-69.000000
30
0.000000
40
1.000000
50
0.000000
51
90.000000
0
LINE
8
DECOUPE
10
1294.000000
20
-68.000000
30
0.000000
11
1236.400000
21
-68.000000
31
0.000000
0
ARC
8
DECOUPE
10
1236.400000
20
-69.000000
30
0.000000
40
1.000000
50
90.000000
51
180.000000
0
LINE
8
DECOUPE
10
1235.400000
20
-69.000000
30
0.000000
11
1235.400000
21
-73.700000
31
0.000000
0
LINE
8
DECOUPE
10
1235.400000
20
-73.700000
30
0.000000
11
1235.100000
21
-74.000000
31
0.000000
0
LINE
8
DECOUPE
10
1235.100000
20
-74.000000
30
0.000000
11
1235.100000
21
-82.000000
31
0.000000
0
LINE
8
DECOUPE
10
1235.100000
20
-82.000000
30
0.000000
11
1235.400000
21
-82.300000
31
0.000000
0
LINE
8
DECOUPE
10
1235.400000
20
-82.300000
30
0.000000
11
1235.400000
21
-86.500000
31
0.000000
0
LINE
8
DECOUPE
10
1235.400000
20
-86.500000
30
0.000000
11
1236.900000
21
-88.000000
31
0.000000
0
LINE
8
DECOUPE
10
1236.900000
20
-88.000000
30
0.000000
11
1235.400000
21
-89.500000
31
0.000000
0
LINE
8
DECOUPE
10
1235.400000
20
-89.500000
30
0.000000
11
1233.900000
21
-88.000000
31
0.000000
0
LINE
8
DECOUPE
10
1233.900000
20
-88.000000
30
0.000000
11
1228.500000
21
-88.000000
31
0.000000
0
LINE
8
DECOUPE
10
1228.500000
20
-88.000000
30
0.000000
11
1227.000000
21
-89.500000
31
0.000000
0
LINE
8
DECOUPE
10
1227.000000
20
-89.500000
30
0.000000
11
1225.500000
21
-88.000000
31
0.000000
0
LINE
8
DECOUPE
10
1225.500000
20
-88.000000
30
0.000000
11
1227.000000
21
-86.500000
31
0.000000
0
LINE
8
DECOUPE
10
1227.000000
20
-86.500000
30
0.000000
11
1227.000000
21
-82.300000
31
0.000000
0
LINE
8
DECOUPE
10
1227.000000
20
-82.300000
30
0.000000
11
1227.300000
21
-82.000000
31
0.000000
0
LINE
8
DECOUPE
10
1227.300000
20
-82.000000
30
0.000000
11
1227.300000
21
-74.000000
31
0.000000
0
LINE
8
DECOUPE
10
1227.300000
20
-74.000000
30
0.000000
11
1227.000000
21
-73.700000
31
0.000000
0
LINE
8
DECOUPE
10
1227.000000
20
-73.700000
30
0.000000
11
1227.000000
21
-69.000000
31
0.000000
0
ARC
8
DECOUPE
10
1226.000000
20
-69.000000
30
0.000000
40
1.000000
50
0.000000
51
90.000000
0
LINE
8
DECOUPE
10
1226.000000
20
-68.000000
30
0.000000
11
1012.000000
21
-68.000000
31
0.000000
0
ARC
8
DECOUPE
10
1012.000000
20
-74.000000
30
0.000000
40
6.000000
50
90.000000
51
180.000000
0
LINE
8
DECOUPE
10
1245.400000
20
-82.000000
30
0.000000
11
1245.400000
21
-104.000000
31
0.000000
0
ARC
8
DECOUPE
10
1251.400000
20
-104.000000
30
0.000000
40
6.000000
50
180.000000
51
270.000000
0
LINE
8
DECOUPE
10
1251.400000
20
-110.000000
30
0.000000
11
1279.000000
21
-110.000000
31
0.000000
0
ARC
8
DECOUPE
10
1279.000000
20
-104.000000
30
0.000000
40
6.000000
50
270.000000
51
0.000000
0
LINE
8
DECOUPE
10
1285.000000
20
-104.000000
30
0.000000
11
1285.000000
21
-82.000000
31
0.000000
0
ARC
8
DECOUPE
10
1279.000000
20
-82.000000
30
0.000000
40
6.000000
50
0.000000
51
90.000000
0
LINE
8
DECOUPE
10
1279.000000
20
-76.000000
30
0.000000
11
1251.400000
21
-76.000000
31
0.000000
0
ARC
8
DECOUPE
10
1251.400000
20
-82.000000
30
0.000000
40
6.000000
50
90.000000
51
180.000000
0
LINE
8
DECOUPE
10
1313.400000
20
-82.000000
30
0.000000
11
1313.400000
21
-104.000000
31
0.000000
0
ARC
8
DECOUPE
10
1319.400000
20
-104.000000
30
0.000000
40
6.000000
50
180.000000
51
270.000000
0
LINE
8
DECOUPE
10
1319.400000
20
-110.000000
30
0.000000
11
1468.400000
21
-110.000000
31
0.000000
0
ARC
8
DECOUPE
10
1468.400000
20
-104.000000
30
0.000000
40
6.000000
50
270.000000
51
0.000000
0
LINE
8
DECOUPE
10
1474.400000
20
-104.000000
30
0.000000
11
1474.400000
21
-82.000000
31
0.000000
0
ARC
8
DECOUPE
10
1468.400000
20
-82.000000
30
0.000000
40
6.000000
50
0.000000
51
90.000000
0
LINE
8
DECOUPE
10
1468.400000
20
-76.000000
30
0.000000
11
1319.400000
21
-76.000000
31
0.000000
0
ARC
8
DECOUPE
10
1319.400000
20
-82.000000
30
0.000000
40
6.000000
50
90.000000
51
180.000000
0
LINE
8
DECOUPE
10
1056.000000
20
-82.000000
30
0.000000
11
1056.000000
21
-104.000000
31
0.000000
0
ARC
8
DECOUPE
10
1062.000000
20
-104.000000
30
0.000000
40
6.000000
50
180.000000
51
270.000000
0
LINE
8
DECOUPE
10
1062.000000
20
-110.000000
30
0.000000
11
1211.000000
21
-110.000000
31
0.000000
0
ARC
8
DECOUPE
10
1211.000000
20
-104.000000
30
0.000000
40
6.000000
50
270.000000
51
0.000000
0
LINE
8
DECOUPE
10
1217.000000
20
-104.000000
30
0.000000
11
1217.000000
21
-82.000000
31
0.000000
0
ARC
8
DECOUPE
10
1211.000000
20
-82.000000
30
0.000000
40
6.000000
50
0.000000
51
90.000000
0
LINE
8
DECOUPE
10
1211.000000
20
-76.000000
30
0.000000
11
1062.000000
21
-76.000000
31
0.000000
0
ARC
8
DECOUPE
10
1062.000000
20
-82.000000
30
0.000000
40
6.000000
50
90.000000
51
180.000000
0
TEXT
8
TEXTE
10
1006.000000
20
-138.000000
30
0.000000
40
6.000000
1
pied 1/4
0
LINE
8
DECOUPE
10
1549.400000
20
-74.000000
30
0.000000
11
1549.400000
21
-124.000000
31
0.000000
0
ARC
8
DECOUPE
10
1551.400000
20
-124.000000
30
0.000000
40
2.000000
50
180.000000
51
270.000000
0
LINE
8
DECOUPE
10
1551.400000
20
-126.000000
30
0.000000
11
1553.900000
21
-126.000000
31
0.000000
0
ARC
8
DECOUPE
10
1553.900000
20
-125.500000
30
0.000000
40
0.500000
50
270.000000
51
0.000000
0
LINE
8
DECOUPE
10
1554.400000
20
-125.500000
30
0.000000
11
1554.400000
21
-119.500000
31
0.000000
0
ARC
8
DECOUPE
10
1554.900000
20
-119.500000
30
0.000000
40
0.500000
50
90.000000
51
180.000000
0
LINE
8
DECOUPE
10
1554.900000
20
-119.000000
30
0.000000
11
1562.300000
21
-119.000000
31
0.000000
0
ARC
8
DECOUPE
10
1562.300000
20
-119.500000
30
0.000000
40
0.500000
50
0.000000
51
90.000000
0
LINE
8
DECOUPE
10
1562.800000
20
-119.500000
30
0.000000
11
1562.800000
21
-125.500000
31
0.000000
0
ARC
8
DECOUPE
10
1563.300000
20
-125.500000
30
0.000000
40
0.500000
50
180.000000
51
270.000000
0
LINE
8
DECOUPE
10
1563.300000
20
-126.000000
30
0.000000
11
1587.400000
21
-126.000000
31
0.000000
0
ARC
8
DECOUPE
10
1587.400000
20
-124.000000
30
0.000000
40
2.000000
50
270.000000
51
0.000000
0
LINE
8
DECOUPE
10
1589.400000
20
-124.000000
30
0.000000
11
1589.400000
21
-120.000000
31
0.000000
0
ARC
8
DECOUPE
10
1591.400000
20
-120.000000
30
0.000000
40
2.000000
50
90.000000
51
180.000000
0
LINE
8
DECOUPE
10
1591.400000
20
-118.000000
30
0.000000
11
2025.800000
21
-118.000000
31
0.000000
0
ARC
8
DECOUPE
10
2025.800000
20
-120.000000
30
0.000000
40
2.000000
50
0.000000
51
90.000000
0
LINE
8
DECOUPE
10
2027.800000
20
-120.000000
30
0.000000
11
2027.800000
21
-124.000000
31
0.000000
0
ARC
8
DECOUPE
10
2029.800000
20
-124.000000
30
0.000000
40
2.000000
50
180.000000
51
270.000000
0
LINE
8
DECOUPE
10
2029.800000
20
-126.000000
30
0.000000
11
2053.900000
21
-126.000000
31
0.000000
0
ARC
8
DECOUPE
10
2053.900000
20
-125.500000
30
0.000000
40
0.500000
50
270.000000
51
0.000000
0
LINE
8
DECOUPE
10
2054.400000
20
-125.500000
30
0.000000
11
2054.400000
21
-119.500000
31
0.000000
0
ARC
8
DECOUPE
10
2054.900000
20
-119.500000
30
0.000000
40
0.500000
50
90.000000
51
180.000000
0
LINE
8
DECOUPE
10
2054.900000
20
-119.000000
30
0.000000
11
2062.300000
21
-119.000000
31
0.000000
0
ARC
8
DECOUPE
10
2062.300000
20
-119.500000
30
0.000000
40
0.500000
50
0.000000
51
90.000000
0
LINE
8
DECOUPE
10
2062.800000
20
-119.500000
30
0.000000
11
2062.800000
21
-125.500000
31
0.000000
0
ARC
8
DECOUPE
10
2063.300000
20
-125.500000
30
0.000000
40
0.500000
50
180.000000
51
270.000000
0
LINE
8
DECOUPE
10
2063.300000
20
-126.000000
30
0.000000
11
2065.800000
21
-126.000000
31
0.000000
0
ARC
8
DECOUPE
10
2065.800000
20
-124.000000
30
0.000000
40
2.000000
50
270.000000
51
0.000000
0
LINE
8
DECOUPE
10
2067.800000
20
-124.000000
30
0.000000
11
2067.800000
21
-74.000000
31
0.000000
0
ARC
8
DECOUPE
10
2061.800000
20
-74.000000
30
0.000000
40
6.000000
50
0.000000
51
90.000000
0
LINE
8
DECOUPE
10
2061.800000
20
-68.000000
30
0.000000
11
1847.800000
21
-68.000000
31
0.000000
0
ARC
8
DECOUPE
10
1847.800000
20
-69.000000
30
0.000000
40
1.000000
50
90.000000
51
180.000000
0
LINE
8
DECOUPE
10
1846.800000
20
-69.000000
30
0.000000
11
1846.800000
21
-73.700000
31
0.000000
0
LINE
8
DECOUPE
10
1846.800000
20
-73.700000
30
0.000000
11
1846.500000
21
-74.000000
31
0.000000
0
LINE
8
DECOUPE
10
1846.500000
20
-74.000000
30
0.000000
11
1846.500000
21
-82.000000
31
0.000000
0
LINE
8
DECOUPE
10
1846.500000
20
-82.000000
30
0.000000
11
1846.800000
21
-82.300000
31
0.000000
0
LINE
8
DECOUPE
10
1846.800000
20
-82.300000
30
0.000000
11
1846.800000
21
-86.500000
31
0.000000
0
LINE
8
DECOUPE
10
1846.800000
20
-86.500000
30
0.000000
11
1848.300000
21
-88.000000
31
0.000000
0
LINE
8
DECOUPE
10
1848.300000
20
-88.000000
30
0.000000
11
1846.800000
21
-89.500000
31
0.000000
0
LINE
8
DECOUPE
10
1846.800000
20
-89.500000
30
0.000000
11
1845.300000
21
-88.000000
31
0.000000
0
LINE
8
DECOUPE
10
1845.300000
20
-88.000000
30
0.000000
11
1839.900000
21
-88.000000
31
0.000000
0
LINE
8
DECOUPE
10
1839.900000
20
-88.000000
30
0.000000
11
1838.400000
21
-89.500000
31
0.000000
0
LINE
8
DECOUPE
10
1838.400000
20
-89.500000
30
0.000000
11
1836.900000
21
-88.000000
31
0.000000
0
LINE
8
DECOUPE
10
1836.900000
20
-88.000000
30
0.000000
11
1838.400000
21
-86.500000
31
0.000000
0
LINE
8
DECOUPE
10
1838.400000
20
-86.500000
30
0.000000
11
1838.400000
21
-82.300000
31
0.000000
0
LINE
8
DECOUPE
10
1838.400000
20
-82.300000
30
0.000000
11
1838.700000
21
-82.000000
31
0.000000
0
LINE
8
DECOUPE
10
1838.700000
20
-82.000000
30
0.000000
11
1838.700000
21
-74.000000
31
0.000000
0
LINE
8
DECOUPE
10
1838.700000
20
-74.000000
30
0.000000
11
1838.400000
21
-73.700000
31
0.000000
0
LINE
8
DECOUPE
10
1838.400000
20
-73.700000
30
0.000000
11
1838.400000
21
-69.000000
31
0.000000
0
ARC
8
DECOUPE
10
1837.400000
20
-69.000000
30
0.000000
40
1.000000
50
0.000000
51
90.000000
0
LINE
8
DECOUPE
10
1837.400000
20
-68.000000
30
0.000000
11
1779.800000
21
-68.000000
31
0.000000
0
ARC
8
DECOUPE
10
1779.800000
20
-69.000000
30
0.000000
40
1.000000
50
90.000000
51
180.000000
0
LINE
8
DECOUPE
10
1778.800000
20
-69.000000
30
0.000000
11
1778.800000
21
-73.700000
31
0.000000
0
LINE
8
DECOUPE
10
1778.800000
20
-73.700000
30
0.000000
11
1778.500000
21
-74.000000
31
0.000000
0
LINE
8
DECOUPE
10
1778.500000
20
-74.000000
30
0.000000
11
1778.500000
21
-82.000000
31
0.000000
0
LINE
8
DECOUPE
10
1778.500000
20
-82.000000
30
0.000000
11
1778.800000
21
-82.300000
31
0.000000
0
LINE
8
DECOUPE
10
1778.800000
20
-82.300000
30
0.000000
11
1778.800000
21
-86.500000
31
0.000000
0
LINE
8
DECOUPE
10
1778.800000
20
-86.500000
30
0.000000
11
1780.300000
21
-88.000000
31
0.000000
0
LINE
8
DECOUPE
10
1780.300000
20
-88.000000
30
0.000000
11
1778.800000
21
-89.500000
31
0.000000
0
LINE
8
DECOUPE
10
1778.800000
20
-89.500000
30
0.000000
11
1777.300000
21
-88.000000
31
0.000000
0
LINE
8
DECOUPE
10
1777.300000
20
-88.000000
30
0.000000
11
1771.900000
21
-88.000000
31
0.000000
0
LINE
8
DECOUPE
10
1771.900000
20
-88.000000
30
0.000000
11
1770.400000
21
-89.500000
31
0.000000
0
LINE
8
DECOUPE
10
1770.400000
20
-89.500000
30
0.000000
11
1768.900000
21
-88.000000
31
0.000000
0
LINE
8
DECOUPE
10
1768.900000
20
-88.000000
30
0.000000
11
1770.400000
21
-86.500000
31
0.000000
0
LINE
8
DECOUPE
10
1770.400000
20
-86.500000
30
0.000000
11
1770.400000
21
-82.300000
31
0.000000
0
LINE
8
DECOUPE
10
1770.400000
20
-82.300000
30
0.000000
11
1770.700000
21
-82.000000
31
0.000000
0
LINE
8
DECOUPE
10
1770.700000
20
-82.000000
30
0.000000
11
1770.700000
21
-74.000000
31
0.000000
0
LINE
8
DECOUPE
10
1770.700000
20
-74.000000
30
0.000000
11
1770.400000
21
-73.700000
31
0.000000
0
LINE
8
DECOUPE
10
1770.400000
20
-73.700000
30
0.000000
11
1770.400000
21
-69.000000
31
0.000000
0
ARC
8
DECOUPE
10
1769.400000
20
-69.000000
30
0.000000
40
1.000000
50
0.000000
51
90.000000
0
LINE
8
DECOUPE
10
1769.400000
20
-68.000000
30
0.000000
11
1555.400000
21
-68.000000
31
0.000000
0
ARC
8
DECOUPE
10
1555.400000
20
-74.000000
30
0.000000
40
6.000000
50
90.000000
51
180.000000
0
LINE
8
DECOUPE
10
1788.800000
20
-82.000000
30
0.000000
11
1788.800000
21
-104.000000
31
0.000000
0
ARC
8
DECOUPE
10
1794.800000
20
-104.000000
30
0.000000
40
6.000000
50
180.000000
51
270.000000
0
LINE
8
DECOUPE
10
1794.800000
20
-110.000000
30
0.000000
11
1822.400000
21
-110.000000
31
0.000000
0
ARC
8
DECOUPE
10
1822.400000
20
-104.000000
30
0.000000
40
6.000000
50
270.000000
51
0.000000
0
LINE
8
DECOUPE
10
1828.400000
20
-104.000000
30
0.000000
11
1828.400000
21
-82.000000
31
0.000000
0
ARC
8
DECOUPE
10
1822.400000
20
-82.000000
30
0.000000
40
6.000000
50
0.000000
51
90.000000
0
LINE
8
DECOUPE
10
1822.400000
20
-76.000000
30
0.000000
11
1794.800000
21
-76.000000
31
0.000000
0
ARC
8
DECOUPE
10
1794.800000
20
-82.000000
30
0.000000
40
6.000000
50
90.000000
51
180.000000
0
LINE
8
DECOUPE
10
1856.800000
20
-82.000000
30
0.000000
11
1856.800000
21
-104.000000
31
0.000000
0
ARC
8
DECOUPE
10
1862.800000
20
-104.000000
30
0.000000
40
6.000000
50
180.000000
51
270.000000
0
LINE
8
DECOUPE
10
1862.800000
20
-110.000000
30
0.000000
11
2011.800000
21
-110.000000
31
0.000000
0
ARC
8
DECOUPE
10
2011.800000
20
-104.000000
30
0.000000
40
6.000000
50
270.000000
51
0.000000
0
LINE
8
DECOUPE
10
2017.800000
20
-104.000000
30
0.000000
11
2017.800000
21
-82.000000
31
0.000000
0
ARC
8
DECOUPE
10
2011.800000
20
-82.000000
30
0.000000
40
6.000000
50
0.000000
51
90.000000
0
LINE
8
DECOUPE
10
2011.800000
20
-76.000000
30
0.000000
11
1862.800000
21
-76.000000
31
0.000000
0
ARC
8
DECOUPE
10
1862.800000
20
-82.000000
30
0.000000
40
6.000000
50
90.000000
51
180.000000
0
LINE
8
DECOUPE
10
1599.400000
20
-82.000000
30
0.000000
11
1599.400000
21
-104.000000
31
0.000000
0
ARC
8
DECOUPE
10
1605.400000
20
-104.000000
30
0.000000
40
6.000000
50
180.000000
51
270.000000
0
LINE
8
DECOUPE
10
1605.400000
20
-110.000000
30
0.000000
11
1754.400000
21
-110.000000
31
0.000000
0
ARC
8
DECOUPE
10
1754.400000
20
-104.000000
30
0.000000
40
6.000000
50
270.000000
51
0.000000
0
LINE
8
DECOUPE
10
1760.400000
20
-104.000000
30
0.000000
11
1760.400000
21
-82.000000
31
0.000000
0
ARC
8
DECOUPE
10
1754.400000
20
-82.000000
30
0.000000
40
6.000000
50
0.000000
51
90.000000
0
LINE
8
DECOUPE
10
1754.400000
20
-76.000000
30
0.000000
11
1605.400000
21
-76.000000
31
0.000000
0
ARC
8
DECOUPE
10
1605.400000
20
-82.000000
30
0.000000
40
6.000000
50
90.000000
51
180.000000
0
TEXT
8
TEXTE
10
1549.400000
20
-138.000000
30
0.000000
40
6.000000
1
pied 2/4
0
LINE
8
DECOUPE
10
2092.800000
20
-74.000000
30
0.000000
11
2092.800000
21
-124.000000
31
0.000000
0
ARC
8
DECOUPE
10
2094.800000
20
-124.000000
30
0.000000
40
2.000000
50
180.000000
51
270.000000
0
LINE
8
DECOUPE
10
2094.800000
20
-126.000000
30
0.000000
11
2097.300000
21
-126.000000
31
0.000000
0
ARC
8
DECOUPE
10
2097.300000
20
-125.500000
30
0.000000
40
0.500000
50
270.000000
51
0.000000
0
LINE
8
DECOUPE
10
2097.800000
20
-125.500000
30
0.000000
11
2097.800000
21
-119.500000
31
0.000000
0
ARC
8
DECOUPE
10
2098.300000
20
-119.500000
30
0.000000
40
0.500000
50
90.000000
51
180.000000
0
LINE
8
DECOUPE
10
2098.300000
20
-119.000000
30
0.000000
11
2105.700000
21
-119.000000
31
0.000000
0
ARC
8
DECOUPE
10
2105.700000
20
-119.500000
30
0.000000
40
0.500000
50
0.000000
51
90.000000
0
LINE
8
DECOUPE
10
2106.200000
20
-119.500000
30
0.000000
11
2106.200000
21
-125.500000
31
0.000000
0
ARC
8
DECOUPE
10
2106.700000
20
-125.500000
30
0.000000
40
0.500000
50
180.000000
51
270.000000
0
LINE
8
DECOUPE
10
2106.700000
20
-126.000000
30
0.000000
11
2130.800000
21
-126.000000
31
0.000000
0
ARC
8
DECOUPE
10
2130.800000
20
-124.000000
30
0.000000
40
2.000000
50
270.000000
51
0.000000
0
LINE
8
DECOUPE
10
2132.800000
20
-124.000000
30
0.000000
11
2132.800000
21
-120.000000
31
0.000000
0
ARC
8
DECOUPE
10
2134.800000
20
-120.000000
30
0.000000
40
2.000000
50
90.000000
51
180.000000
0
LINE
8
DECOUPE
10
2134.800000
20
-118.000000
30
0.000000
11
2569.200000
21
-118.000000
31
0.000000
0
ARC
8
DECOUPE
10
2569.200000
20
-120.000000
30
0.000000
40
2.000000
50
0.000000
51
90.000000
0
LINE
8
DECOUPE
10
2571.200000
20
-120.000000
30
0.000000
11
2571.200000
21
-124.000000
31
0.000000
0
ARC
8
DECOUPE
10
2573.200000
20
-124.000000
30
0.000000
40
2.000000
50
180.000000
51
270.000000
0
LINE
8
DECOUPE
10
2573.200000
20
-126.000000
30
0.000000
11
2597.300000
21
-126.000000
31
0.000000
0
ARC
8
DECOUPE
10
2597.300000
20
-125.500000
30
0.000000
40
0.500000
50
270.000000
51
0.000000
0
LINE
8
DECOUPE
10
2597.800000
20
-125.500000
30
0.000000
11
2597.800000
21
-119.500000
31
0.000000
0
ARC
8
DECOUPE
10
2598.300000
20
-119.500000
30
0.000000
40
0.500000
50
90.000000
51
180.000000
0
LINE
8
DECOUPE
10
2598.300000
20
-119.000000
30
0.000000
11
2605.700000
21
-119.000000
31
0.000000
0
ARC
8
DECOUPE
10
2605.700000
20
-119.500000
30
0.000000
40
0.500000
50
0.000000
51
90.000000
0
LINE
8
DECOUPE
10
2606.200000
20
-119.500000
30
0.000000
11
2606.200000
21
-125.500000
31
0.000000
0
ARC
8
DECOUPE
10
2606.700000
20
-125.500000
30
0.000000
40
0.500000
50
180.000000
51
270.000000
0
LINE
8
DECOUPE
10
2606.700000
20
-126.000000
30
0.000000
11
2609.200000
21
-126.000000
31
0.000000
0
ARC
8
DECOUPE
10
2609.200000
20
-124.000000
30
0.000000
40
2.000000
50
270.000000
51
0.000000
0
LINE
8
DECOUPE
10
2611.200000
20
-124.000000
30
0.000000
11
2611.200000
21
-74.000000
31
0.000000
0
ARC
8
DECOUPE
10
2605.200000
20
-74.000000
30
0.000000
40
6.000000
50
0.000000
51
90.000000
0
LINE
8
DECOUPE
10
2605.200000
20
-68.000000
30
0.000000
11
2391.200000
21
-68.000000
31
0.000000
0
ARC
8
DECOUPE
10
2391.200000
20
-69.000000
30
0.000000
40
1.000000
50
90.000000
51
180.000000
0
LINE
8
DECOUPE
10
2390.200000
20
-69.000000
30
0.000000
11
2390.200000
21
-73.700000
31
0.000000
0
LINE
8
DECOUPE
10
2390.200000
20
-73.700000
30
0.000000
11
2389.900000
21
-74.000000
31
0.000000
0
LINE
8
DECOUPE
10
2389.900000
20
-74.000000
30
0.000000
11
2389.900000
21
-82.000000
31
0.000000
0
LINE
8
DECOUPE
10
2389.900000
20
-82.000000
30
0.000000
11
2390.200000
21
-82.300000
31
0.000000
0
LINE
8
DECOUPE
10
2390.200000
20
-82.300000
30
0.000000
11
2390.200000
21
-86.500000
31
0.000000
0
LINE
8
DECOUPE
10
2390.200000
20
-86.500000
30
0.000000
11
2391.700000
21
-88.000000
31
0.000000
0
LINE
8
DECOUPE
10
2391.700000
20
-88.000000
30
0.000000
11
2390.200000
21
-89.500000
31
0.000000
0
LINE
8
DECOUPE
10
2390.200000
20
-89.500000
30
0.000000
11
2388.700000
21
-88.000000
31
0.000000
0
LINE
8
DECOUPE
10
2388.700000
20
-88.000000
30
0.000000
11
2383.300000
21
-88.000000
31
0.000000
0
LINE
8
DECOUPE
10
2383.300000
20
-88.000000
30
0.000000
11
2381.800000
21
-89.500000
31
0.000000
0
LINE
8
DECOUPE
10
2381.800000
20
-89.500000
30
0.000000
11
2380.300000
21
-88.000000
31
0.000000
0
LINE
8
DECOUPE
10
2380.300000
20
-88.000000
30
0.000000
11
2381.800000
21
-86.500000
31
0.000000
0
LINE
8
DECOUPE
10
2381.800000
20
-86.500000
30
0.000000
11
2381.800000
21
-82.300000
31
0.000000
0
LINE
8
DECOUPE
10
2381.800000
20
-82.300000
30
0.000000
11
2382.100000
21
-82.000000
31
0.000000
0
LINE
8
DECOUPE
10
2382.100000
20
-82.000000
30
0.000000
11
2382.100000
21
-74.000000
31
0.000000
0
LINE
8
DECOUPE
10
2382.100000
20
-74.000000
30
0.000000
11
2381.800000
21
-73.700000
31
0.000000
0
LINE
8
DECOUPE
10
2381.800000
20
-73.700000
30
0.000000
11
2381.800000
21
-69.000000
31
0.000000
0
ARC
8
DECOUPE
10
2380.800000
20
-69.000000
30
0.000000
40
1.000000
50
0.000000
51
90.000000
0
LINE
8
DECOUPE
10
2380.800000
20
-68.000000
30
0.000000
11
2323.200000
21
-68.000000
31
0.000000
0
ARC
8
DECOUPE
10
2323.200000
20
-69.000000
30
0.000000
40
1.000000
50
90.000000
51
180.000000
0
LINE
8
DECOUPE
10
2322.200000
20
-69.000000
30
0.000000
11
2322.200000
21
-73.700000
31
0.000000
0
LINE
8
DECOUPE
10
2322.200000
20
-73.700000
30
0.000000
11
2321.900000
21
-74.000000
31
0.000000
0
LINE
8
DECOUPE
10
2321.900000
20
-74.000000
30
0.000000
11
2321.900000
21
-82.000000
31
0.000000
0
LINE
8
DECOUPE
10
2321.900000
20
-82.000000
30
0.000000
11
2322.200000
21
-82.300000
31
0.000000
0
LINE
8
DECOUPE
10
2322.200000
20
-82.300000
30
0.000000
11
2322.200000
21
-86.500000
31
0.000000
0
LINE
8
DECOUPE
10
2322.200000
20
-86.500000
30
0.000000
11
2323.700000
21
-88.000000
31
0.000000
0
LINE
8
DECOUPE
10
2323.700000
20
-88.000000
30
0.000000
11
2322.200000
21
-89.500000
31
0.000000
0
LINE
8
DECOUPE
10
2322.200000
20
-89.500000
30
0.000000
11
2320.700000
21
-88.000000
31
0.000000
0
LINE
8
DECOUPE
10
2320.700000
20
-88.000000
30
0.000000
11
2315.300000
21
-88.000000
31
0.000000
0
LINE
8
DECOUPE
10
2315.300000
20
-88.000000
30
0.000000
11
2313.800000
21
-89.500000
31
0.000000
0
LINE
8
DECOUPE
10
2313.800000
20
-89.500000
30
0.000000
11
2312.300000
21
-88.000000
31
0.000000
0
LINE
8
DECOUPE
10
2312.300000
20
-88.000000
30
0.000000
11
2313.800000
21
-86.500000
31
0.000000
0
LINE
8
DECOUPE
10
2313.800000
20
-86.500000
30
0.000000
11
2313.800000
21
-82.300000
31
0.000000
0
LINE
8
DECOUPE
10
2313.800000
20
-82.300000
30
0.000000
11
2314.100000
21
-82.000000
31
0.000000
0
LINE
8
DECOUPE
10
2314.100000
20
-82.000000
30
0.000000
11
2314.100000
21
-74.000000
31
0.000000
0
LINE
8
DECOUPE
10
2314.100000
20
-74.000000
30
0.000000
11
2313.800000
21
-73.700000
31
0.000000
0
LINE
8
DECOUPE
10
2313.800000
20
-73.700000
30
0.000000
11
2313.800000
21
-69.000000
31
0.000000
0
ARC
8
DECOUPE
10
2312.800000
20
-69.000000
30
0.000000
40
1.000000
50
0.000000
51
90.000000
0
LINE
8
DECOUPE
10
2312.800000
20
-68.000000
30
0.000000
11
2098.800000
21
-68.000000
31
0.000000
0
ARC
8
DECOUPE
10
2098.800000
20
-74.000000
30
0.000000
40
6.000000
50
90.000000
51
180.000000
0
LINE
8
DECOUPE
10
2332.200000
20
-82.000000
30
0.000000
11
2332.200000
21
-104.000000
31
0.000000
0
ARC
8
DECOUPE
10
2338.200000
20
-104.000000
30
0.000000
40
6.000000
50
180.000000
51
270.000000
0
LINE
8
DECOUPE
10
2338.200000
20
-110.000000
30
0.000000
11
2365.800000
21
-110.000000
31
0.000000
0
ARC
8
DECOUPE
10
2365.800000
20
-104.000000
30
0.000000
40
6.000000
50
270.000000
51
0.000000
0
LINE
8
DECOUPE
10
2371.800000
20
-104.000000
30
0.000000
11
2371.800000
21
-82.000000
31
0.000000
0
ARC
8
DECOUPE
10
2365.800000
20
-82.000000
30
0.000000
40
6.000000
50
0.000000
51
90.000000
0
LINE
8
DECOUPE
10
2365.800000
20
-76.000000
30
0.000000
11
2338.200000
21
-76.000000
31
0.000000
0
ARC
8
DECOUPE
10
2338.200000
20
-82.000000
30
0.000000
40
6.000000
50
90.000000
51
180.000000
0
LINE
8
DECOUPE
10
2400.200000
20
-82.000000
30
0.000000
11
2400.200000
21
-104.000000
31
0.000000
0
ARC
8
DECOUPE
10
2406.200000
20
-104.000000
30
0.000000
40
6.000000
50
180.000000
51
270.000000
0
LINE
8
DECOUPE
10
2406.200000
20
-110.000000
30
0.000000
11
2555.200000
21
-110.000000
31
0.000000
0
ARC
8
DECOUPE
10
2555.200000
20
-104.000000
30
0.000000
40
6.000000
50
270.000000
51
0.000000
0
LINE
8
DECOUPE
10
2561.200000
20
-104.000000
30
0.000000
11
2561.200000
21
-82.000000
31
0.000000
0
ARC
8
DECOUPE
10
2555.200000
20
-82.000000
30
0.000000
40
6.000000
50
0.000000
51
90.000000
0
LINE
8
DECOUPE
10
2555.200000
20
-76.000000
30
0.000000
11
2406.200000
21
-76.000000
31
0.000000
0
ARC
8
DECOUPE
10
2406.200000
20
-82.000000
30
0.000000
40
6.000000
50
90.000000
51
180.000000
0
LINE
8
DECOUPE
10
2142.800000
20
-82.000000
30
0.000000
11
2142.800000
21
-104.000000
31
0.000000
0
ARC
8
DECOUPE
10
2148.800000
20
-104.000000
30
0.000000
40
6.000000
50
180.000000
51
270.000000
0
LINE
8
DECOUPE
10
2148.800000
20
-110.000000
30
0.000000
11
2297.800000
21
-110.000000
31
0.000000
0
ARC
8
DECOUPE
10
2297.800000
20
-104.000000
30
0.000000
40
6.000000
50
270.000000
51
0.000000
0
LINE
8
DECOUPE
10
2303.800000
20
-104.000000
30
0.000000
11
2303.800000
21
-82.000000
31
0.000000
0
ARC
8
DECOUPE
10
2297.800000
20
-82.000000
30
0.000000
40
6.000000
50
0.000000
51
90.000000
0
LINE
8
DECOUPE
10
2297.800000
20
-76.000000
30
0.000000
11
2148.800000
21
-76.000000
31
0.000000
0
ARC
8
DECOUPE
10
2148.800000
20
-82.000000
30
0.000000
40
6.000000
50
90.000000
51
180.000000
0
TEXT
8
TEXTE
10
2092.800000
20
-138.000000
30
0.000000
40
6.000000
1
pied 3/4
0
LINE
8
DECOUPE
10
0.000000
20
-172.000000
30
0.000000
11
0.000000
21
-222.000000
31
0.000000
0
ARC
8
DECOUPE
10
2.000000
20
-222.000000
30
0.000000
40
2.000000
50
180.000000
51
270.000000
0
LINE
8
DECOUPE
10
2.000000
20
-224.000000
30
0.000000
11
4.500000
21
-224.000000
31
0.000000
0
ARC
8
DECOUPE
10
4.500000
20
-223.500000
30
0.000000
40
0.500000
50
270.000000
51
0.000000
0
LINE
8
DECOUPE
10
5.000000
20
-223.500000
30
0.000000
11
5.000000
21
-217.500000
31
0.000000
0
ARC
8
DECOUPE
10
5.500000
20
-217.500000
30
0.000000
40
0.500000
50
90.000000
51
180.000000
0
LINE
8
DECOUPE
10
5.500000
20
-217.000000
30
0.000000
11
12.900000
21
-217.000000
31
0.000000
0
ARC
8
DECOUPE
10
12.900000
20
-217.500000
30
0.000000
40
0.500000
50
0.000000
51
90.000000
0
LINE
8
DECOUPE
10
13.400000
20
-217.500000
30
0.000000
11
13.400000
21
-223.500000
31
0.000000
0
ARC
8
DECOUPE
10
13.900000
20
-223.500000
30
0.000000
40
0.500000
50
180.000000
51
270.000000
0
LINE
8
DECOUPE
10
13.900000
20
-224.000000
30
0.000000
11
38.000000
21
-224.000000
31
0.000000
0
ARC
8
DECOUPE
10
38.000000
20
-222.000000
30
0.000000
40
2.000000
50
270.000000
51
0.000000
0
LINE
8
DECOUPE
10
40.000000
20
-222.000000
30
0.000000
11
40.000000
21
-218.000000
31
0.000000
0
ARC
8
DECOUPE
10
42.000000
20
-218.000000
30
0.000000
40
2.000000
50
90.000000
51
180.000000
0
LINE
8
DECOUPE
10
42.000000
20
-216.000000
30
0.000000
11
476.400000
21
-216.000000
31
0.000000
0
ARC
8
DECOUPE
10
476.400000
20
-218.000000
30
0.000000
40
2.000000
50
0.000000
51
90.000000
0
LINE
8
DECOUPE
10
478.400000
20
-218.000000
30
0.000000
11
478.400000
21
-222.000000
31
0.000000
0
ARC
8
DECOUPE
10
480.400000
20
-222.000000
30
0.000000
40
2.000000
50
180.000000
51
270.000000
0
LINE
8
DECOUPE
10
480.400000
20
-224.000000
30
0.000000
11
504.500000
21
-224.000000
31
0.000000
0
ARC
8
DECOUPE
10
504.500000
20
-223.500000
30
0.000000
40
0.500000
50
270.000000
51
0.000000
0
LINE
8
DECOUPE
10
505.000000
20
-223.500000
30
0.000000
11
505.000000
21
-217.500000
31
0.000000
0
ARC
8
DECOUPE
10
505.500000
20
-217.500000
30
0.000000
40
0.500000
50
90.000000
51
180.000000
0
LINE
8
DECOUPE
10
505.500000
20
-217.000000
30
0.000000
11
512.900000
21
-217.000000
31
0.000000
0
ARC
8
DECOUPE
10
512.900000
20
-217.500000
30
0.000000
40
0.500000
50
0.000000
51
90.000000
0
LINE
8
DECOUPE
10
513.400000
20
-217.500000
30
0.000000
11
513.400000
21
-223.500000
31
0.000000
0
ARC
8
DECOUPE
10
513.900000
20
-223.500000
30
0.000000
40
0.500000
50
180.000000
51
270.000000
0
LINE
8
DECOUPE
10
513.900000
20
-224.000000
30
0.000000
11
516.400000
21
-224.000000
31
0.000000
0
ARC
8
DECOUPE
10
516.400000
20
-222.000000
30
0.000000
40
2.000000
50
270.000000
51
0.000000
0
LINE
8
DECOUPE
10
518.400000
20
-222.000000
30
0.000000
11
518.400000
21
-172.000000
31
0.000000
0
ARC
8
DECOUPE
10
512.400000
20
-172.000000
30
0.000000
40
6.000000
50
0.000000
51
90.000000
0
LINE
8
DECOUPE
10
512.400000
20
-166.000000
30
0.000000
11
298.400000
21
-166.000000
31
0.000000
0
ARC
8
DECOUPE
10
298.400000
20
-167.000000
30
0.000000
40
1.000000
50
90.000000
51
180.000000
0
LINE
8
DECOUPE
10
297.400000
20
-167.000000
30
0.000000
11
297.400000
21
-171.700000
31
0.000000
0
LINE
8
DECOUPE
10
297.400000
20
-171.700000
30
0.000000
11
297.100000
21
-172.000000
31
0.000000
0
LINE
8
DECOUPE
10
297.100000
20
-172.000000
30
0.000000
11
297.100000
21
-180.000000
31
0.000000
0
LINE
8
DECOUPE
10
297.100000
20
-180.000000
30
0.000000
11
297.400000
21
-180.300000
31
0.000000
0
LINE
8
DECOUPE
10
297.400000
20
-180.300000
30
0.000000
11
297.400000
21
-184.500000
31
0.000000
0
LINE
8
DECOUPE
10
297.400000
20
-184.500000
30
0.000000
11
298.900000
21
-186.000000
31
0.000000
0
LINE
8
DECOUPE
10
298.900000
20
-186.000000
30
0.000000
11
297.400000
21
-187.500000
31
0.000000
0
LINE
8
DECOUPE
10
297.400000
20
-187.500000
30
0.000000
11
295.900000
21
-186.000000
31
0.000000
0
LINE
8
DECOUPE
10
295.900000
20
-186.000000
30
0.000000
11
290.500000
21
-186.000000
31
0.000000
0
LINE
8
DECOUPE
10
290.500000
20
-186.000000
30
0.000000
11
289.000000
21
-187.500000
31
0.000000
0
LINE
8
DECOUPE
10
289.000000
20
-187.500000
30
0.000000
11
287.500000
21
-186.000000
31
0.000000
0
LINE
8
DECOUPE
10
287.500000
20
-186.000000
30
0.000000
11
289.000000
21
-184.500000
31
0.000000
0
LINE
8
DECOUPE
10
289.000000
20
-184.500000
30
0.000000
11
289.000000
21
-180.300000
31
0.000000
0
LINE
8
DECOUPE
10
289.000000
20
-180.300000
30
0.000000
11
289.300000
21
-180.000000
31
0.000000
0
LINE
8
DECOUPE
10
289.300000
20
-180.000000
30
0.000000
11
289.300000
21
-172.000000
31
0.000000
0
LINE
8
DECOUPE
10
289.300000
20
-172.000000
30
0.000000
11
289.000000
21
-171.700000
31
0.000000
0
LINE
8
DECOUPE
10
289.000000
20
-171.700000
30
0.000000
11
289.000000
21
-167.000000
31
0.000000
0
ARC
8
DECOUPE
10
288.000000
20
-167.000000
30
0.000000
40
1.000000
50
0.000000
51
90.000000
0
LINE
8
DECOUPE
10
288.000000
20
-166.000000
30
0.000000
11
230.400000
21
-166.000000
31
0.000000
0
ARC
8
DECOUPE
10
230.400000
20
-167.000000
30
0.000000
40
1.000000
50
90.000000
51
180.000000
0
LINE
8
DECOUPE
10
229.400000
20
-167.000000
30
0.000000
11
229.400000
21
-171.700000
31
0.000000
0
LINE
8
DECOUPE
10
229.400000
20
-171.700000
30
0.000000
11
229.100000
21
-172.000000
31
0.000000
0
LINE
8
DECOUPE
10
229.100000
20
-172.000000
30
0.000000
11
229.100000
21
-180.000000
31
0.000000
0
LINE
8
DECOUPE
10
229.100000
20
-180.000000
30
0.000000
11
229.400000
21
-180.300000
31
0.000000
0
LINE
8
DECOUPE
10
229.400000
20
-180.300000
30
0.000000
11
229.400000
21
-184.500000
31
0.000000
0
LINE
8
DECOUPE
10
229.400000
20
-184.500000
30
0.000000
11
230.900000
21
-186.000000
31
0.000000
0
LINE
8
DECOUPE
10
230.900000
20
-186.000000
30
0.000000
11
229.400000
21
-187.500000
31
0.000000
0
LINE
8
DECOUPE
10
229.400000
20
-187.500000
30
0.000000
11
227.900000
21
-186.000000
31
0.000000
0
LINE
8
DECOUPE
10
227.900000
20
-186.000000
30
0.000000
11
222.500000
21
-186.000000
31
0.000000
0
LINE
8
DECOUPE
10
222.500000
20
-186.000000
30
0.000000
11
221.000000
21
-187.500000
31
0.000000
0
LINE
8
DECOUPE
10
221.000000
20
-187.500000
30
0.000000
11
219.500000
21
-186.000000
31
0.000000
0
LINE
8
DECOUPE
10
219.500000
20
-186.000000
30
0.000000
11
221.000000
21
-184.500000
31
0.000000
0
LINE
8
DECOUPE
10
221.000000
20
-184.500000
30
0.000000
11
221.000000
21
-180.300000
31
0.000000
0
LINE
8
DECOUPE
10
221.000000
20
-180.300000
30
0.000000
11
221.300000
21
-180.000000
31
0.000000
0
LINE
8
DECOUPE
10
221.300000
20
-180.000000
30
0.000000
11
221.300000
21
-172.000000
31
0.000000
0
LINE
8
DECOUPE
10
221.300000
20
-172.000000
30
0.000000
11
221.000000
21
-171.700000
31
0.000000
0
LINE
8
DECOUPE
10
221.000000
20
-171.700000
30
0.000000
11
221.000000
21
-167.000000
31
0.000000
0
ARC
8
DECOUPE
10
220.000000
20
-167.000000
30
0.000000
40
1.000000
50
0.000000
51
90.000000
0
LINE
8
DECOUPE
10
220.000000
20
-166.000000
30
0.000000
11
6.000000
21
-166.000000
31
0.000000
0
ARC
8
DECOUPE
10
6.000000
20
-172.000000
30
0.000000
40
6.000000
50
90.000000
51
180.000000
0
LINE
8
DECOUPE
10
239.400000
20
-180.000000
30
0.000000
11
239.400000
21
-202.000000
31
0.000000
0
ARC
8
DECOUPE
10
245.400000
20
-202.000000
30
0.000000
40
6.000000
50
180.000000
51
270.000000
0
LINE
8
DECOUPE
10
245.400000
20
-208.000000
30
0.000000
11
273.000000
21
-208.000000
31
0.000000
0
ARC
8
DECOUPE
10
273.000000
20
-202.000000
30
0.000000
40
6.000000
50
270.000000
51
0.000000
0
LINE
8
DECOUPE
10
279.000000
20
-202.000000
30
0.000000
11
279.000000
21
-180.000000
31
0.000000
0
ARC
8
DECOUPE
10
273.000000
20
-180.000000
30
0.000000
40
6.000000
50
0.000000
51
90.000000
0
LINE
8
DECOUPE
10
273.000000
20
-174.000000
30
0.000000
11
245.400000
21
-174.000000
31
0.000000
0
ARC
8
DECOUPE
10
245.400000
20
-180.000000
30
0.000000
40
6.000000
50
90.000000
51
180.000000
0
LINE
8
DECOUPE
10
307.400000
20
-180.000000
30
0.000000
11
307.400000
21
-202.000000
31
0.000000
0
ARC
8
DECOUPE
10
313.400000
20
-202.000000
30
0.000000
40
6.000000
50
180.000000
51
270.000000
0
LINE
8
DECOUPE
10
313.400000
20
-208.000000
30
0.000000
11
462.400000
21
-208.000000
31
0.000000
0
ARC
8
DECOUPE
10
462.400000
20
-202.000000
30
0.000000
40
6.000000
50
270.000000
51
0.000000
0
LINE
8
DECOUPE
10
468.400000
20
-202.000000
30
0.000000
11
468.400000
21
-180.000000
31
0.000000
0
ARC
8
DECOUPE
10
462.400000
20
-180.000000
30
0.000000
40
6.000000
50
0.000000
51
90.000000
0
LINE
8
DECOUPE
10
462.400000
20
-174.000000
30
0.000000
11
313.400000
21
-174.000000
31
0.000000
0
ARC
8
DECOUPE
10
313.400000
20
-180.000000
30
0.000000
40
6.000000
50
90.000000
51
180.000000
0
LINE
8
DECOUPE
10
50.000000
20
-180.000000
30
0.000000
11
50.000000
21
-202.000000
31
0.000000
0
ARC
8
DECOUPE
10
56.000000
20
-202.000000
30
0.000000
40
6.000000
50
180.000000
51
270.000000
0
LINE
8
DECOUPE
10
56.000000
20
-208.000000
30
0.000000
11
205.000000
21
-208.000000
31
0.000000
0
ARC
8
DECOUPE
10
205.000000
20
-202.000000
30
0.000000
40
6.000000
50
270.000000
51
0.000000
0
LINE
8
DECOUPE
10
211.000000
20
-202.000000
30
0.000000
11
211.000000
21
-180.000000
31
0.000000
0
ARC
8
DECOUPE
10
205.000000
20
-180.000000
30
0.000000
40
6.000000
50
0.000000
51
90.000000
0
LINE
8
DECOUPE
10
205.000000
20
-174.000000
30
0.000000
11
56.000000
21
-174.000000
31
0.000000
0
ARC
8
DECOUPE
10
56.000000
20
-180.000000
30
0.000000
40
6.000000
50
90.000000
51
180.000000
0
TEXT
8
TEXTE
10
0.000000
20
-236.000000
30
0.000000
40
6.000000
1
pied 4/4
0
LINE
8
DECOUPE
10
543.400000
20
-170.000000
30
0.000000
11
543.400000
21
-220.000000
31
0.000000
0
ARC
8
DECOUPE
10
547.400000
20
-220.000000
30
0.000000
40
4.000000
50
180.000000
51
270.000000
0
LINE
8
DECOUPE
10
547.400000
20
-224.000000
30
0.000000
11
639.400000
21
-224.000000
31
0.000000
0
ARC
8
DECOUPE
10
639.400000
20
-220.000000
30
0.000000
40
4.000000
50
270.000000
51
0.000000
0
LINE
8
DECOUPE
10
643.400000
20
-220.000000
30
0.000000
11
643.400000
21
-170.000000
31
0.000000
0
ARC
8
DECOUPE
10
639.400000
20
-170.000000
30
0.000000
40
4.000000
50
0.000000
51
90.000000
0
LINE
8
DECOUPE
10
639.400000
20
-166.000000
30
0.000000
11
547.400000
21
-166.000000
31
0.000000
0
ARC
8
DECOUPE
10
547.400000
20
-170.000000
30
0.000000
40
4.000000
50
90.000000
51
180.000000
0
ARC
8
DECOUPE
10
593.400000
20
-195.000000
30
0.000000
40
12.700000
50
0.000000
51
180.000000
0
ARC
8
DECOUPE
10
593.400000
20
-195.000000
30
0.000000
40
12.700000
50
180.000000
51
0.000000
0
ARC
8
DECOUPE
10
558.400000
20
-195.000000
30
0.000000
40
4.150000
50
0.000000
51
180.000000
0
ARC
8
DECOUPE
10
558.400000
20
-195.000000
30
0.000000
40
4.150000
50
180.000000
51
0.000000
0
ARC
8
DECOUPE
10
628.400000
20
-195.000000
30
0.000000
40
4.150000
50
0.000000
51
180.000000
0
ARC
8
DECOUPE
10
628.400000
20
-195.000000
30
0.000000
40
4.150000
50
180.000000
51
0.000000
0
TEXT
8
TEXTE
10
543.400000
20
-236.000000
30
0.000000
40
6.000000
1
poussoir 1/3
0
LINE
8
DECOUPE
10
668.400000
20
-170.000000
30
0.000000
11
668.400000
21
-220.000000
31
0.000000
0
ARC
8
DECOUPE
10
672.400000
20
-220.000000
30
0.000000
40
4.000000
50
180.000000
51
270.000000
0
LINE
8
DECOUPE
10
672.400000
20
-224.000000
30
0.000000
11
764.400000
21
-224.000000
31
0.000000
0
ARC
8
DECOUPE
10
764.400000
20
-220.000000
30
0.000000
40
4.000000
50
270.000000
51
0.000000
0
LINE
8
DECOUPE
10
768.400000
20
-220.000000
30
0.000000
11
768.400000
21
-170.000000
31
0.000000
0
ARC
8
DECOUPE
10
764.400000
20
-170.000000
30
0.000000
40
4.000000
50
0.000000
51
90.000000
0
LINE
8
DECOUPE
10
764.400000
20
-166.000000
30
0.000000
11
672.400000
21
-166.000000
31
0.000000
0
ARC
8
DECOUPE
10
672.400000
20
-170.000000
30
0.000000
40
4.000000
50
90.000000
51
180.000000
0
ARC
8
DECOUPE
10
718.400000
20
-195.000000
30
0.000000
40
12.700000
50
0.000000
51
180.000000
0
ARC
8
DECOUPE
10
718.400000
20
-195.000000
30
0.000000
40
12.700000
50
180.000000
51
0.000000
0
ARC
8
DECOUPE
10
683.400000
20
-195.000000
30
0.000000
40
4.150000
50
0.000000
51
180.000000
0
ARC
8
DECOUPE
10
683.400000
20
-195.000000
30
0.000000
40
4.150000
50
180.000000
51
0.000000
0
ARC
8
DECOUPE
10
753.400000
20
-195.000000
30
0.000000
40
4.150000
50
0.000000
51
180.000000
0
ARC
8
DECOUPE
10
753.400000
20
-195.000000
30
0.000000
40
4.150000
50
180.000000
51
0.000000
0
TEXT
8
TEXTE
10
668.400000
20
-236.000000
30
0.000000
40
6.000000
1
poussoir 2/3
0
LINE
8
DECOUPE
10
793.400000
20
-170.000000
30
0.000000
11
793.400000
21
-220.000000
31
0.000000
0
ARC
8
DECOUPE
10
797.400000
20
-220.000000
30
0.000000
40
4.000000
50
180.000000
51
270.000000
0
LINE
8
DECOUPE
10
797.400000
20
-224.000000
30
0.000000
11
889.400000
21
-224.000000
31
0.000000
0
ARC
8
DECOUPE
10
889.400000
20
-220.000000
30
0.000000
40
4.000000
50
270.000000
51
0.000000
0
LINE
8
DECOUPE
10
893.400000
20
-220.000000
30
0.000000
11
893.400000
21
-170.000000
31
0.000000
0
ARC
8
DECOUPE
10
889.400000
20
-170.000000
30
0.000000
40
4.000000
50
0.000000
51
90.000000
0
LINE
8
DECOUPE
10
889.400000
20
-166.000000
30
0.000000
11
797.400000
21
-166.000000
31
0.000000
0
ARC
8
DECOUPE
10
797.400000
20
-170.000000
30
0.000000
40
4.000000
50
90.000000
51
180.000000
0
ARC
8
DECOUPE
10
843.400000
20
-195.000000
30
0.000000
40
12.700000
50
0.000000
51
180.000000
0
ARC
8
DECOUPE
10
843.400000
20
-195.000000
30
0.000000
40
12.700000
50
180.000000
51
0.000000
0
ARC
8
DECOUPE
10
808.400000
20
-195.000000
30
0.000000
40
4.150000
50
0.000000
51
180.000000
0
ARC
8
DECOUPE
10
808.400000
20
-195.000000
30
0.000000
40
4.150000
50
180.000000
51
0.000000
0
ARC
8
DECOUPE
10
878.400000
20
-195.000000
30
0.000000
40
4.150000
50
0.000000
51
180.000000
0
ARC
8
DECOUPE
10
878.400000
20
-195.000000
30
0.000000
40
4.150000
50
180.000000
51
0.000000
0
TEXT
8
TEXTE
10
793.400000
20
-236.000000
30
0.000000
40
6.000000
1
poussoir 3/3
0
TEXT
8
TEXTE
10
0.000000
20
20.000000
30
0.000000
40
4.000000
1
calques : DECOUPE = couper ; GRAVURE = marquer sans couper ; TEXTE = ni couper ni marquer
0
TEXT
8
TEXTE
10
0.000000
20
29.000000
30
0.000000
40
5.000000
1
rangement en etageres de 3000 mm au plus, pas une imbrication : le decoupeur imbrique sur son format
0
TEXT
8
TEXTE
10
0.000000
20
39.000000
30
0.000000
40
5.000000
1
pied : encoches et nodes taillees pour la tole 42CrMo4 reelle de 8,00 mm (flanc), fentes pour la tole S355JR reelle de 8,00 mm (crochet)
0
TEXT
8
TEXTE
10
0.000000
20
49.000000
30
0.000000
40
5.000000
1
tole S355JR reelle prise a 8,00 mm : mesurer les deux toles livrees, regler EP_TOLE_REELLE_42 (42CrMo4) et EP_TOLE_REELLE_S355 (S355JR) et regenerer les DXF avant decoupe
0
TEXT
8
TEXTE
10
0.000000
20
59.000000
30
0.000000
40
5.000000
1
brut : tole 8 mm, cert. 2.2
0
TEXT
8
TEXTE
10
0.000000
20
69.000000
30
0.000000
40
8.000000
1
TOLE 8 mm  S355JR  -  17 pieces  -  ind. B du 05/10/2026
0
ENDSEC
0
EOF
