0
SECTION
2
HEADER
9
$ACADVER
1
AC1009
9
$INSUNITS
70
4
9
$MEASUREMENT
70
1
0
ENDSEC
0
SECTION
2
TABLES
0
TABLE
2
LAYER
70
3
0
LAYER
2
0
70
0
62
7
6
CONTINUOUS
0
LAYER
2
DECOUPE
70
0
62
7
6
CONTINUOUS
0
LAYER
2
TEXTE
70
0
62
3
6
CONTINUOUS
0
ENDTAB
0
ENDSEC
0
SECTION
2
ENTITIES
0
LINE
8
DECOUPE
10
0.000000
20
-6.000000
30
0.000000
11
0.000000
21
-94.000000
31
0.000000
0
ARC
8
DECOUPE
10
6.000000
20
-94.000000
30
0.000000
40
6.000000
50
180.000000
51
270.000000
0
LINE
8
DECOUPE
10
6.000000
20
-100.000000
30
0.000000
11
94.000000
21
-100.000000
31
0.000000
0
ARC
8
DECOUPE
10
94.000000
20
-94.000000
30
0.000000
40
6.000000
50
270.000000
51
0.000000
0
LINE
8
DECOUPE
10
100.000000
20
-94.000000
30
0.000000
11
100.000000
21
-6.000000
31
0.000000
0
ARC
8
DECOUPE
10
94.000000
20
-6.000000
30
0.000000
40
6.000000
50
0.000000
51
90.000000
0
LINE
8
DECOUPE
10
94.000000
20
0.000000
30
0.000000
11
6.000000
21
0.000000
31
0.000000
0
ARC
8
DECOUPE
10
6.000000
20
-6.000000
30
0.000000
40
6.000000
50
90.000000
51
180.000000
0
ARC
8
DECOUPE
10
15.000000
20
-50.000000
30
0.000000
40
3.000000
50
0.000000
51
180.000000
0
ARC
8
DECOUPE
10
15.000000
20
-50.000000
30
0.000000
40
3.000000
50
180.000000
51
0.000000
0
ARC
8
DECOUPE
10
85.000000
20
-50.000000
30
0.000000
40
3.000000
50
0.000000
51
180.000000
0
ARC
8
DECOUPE
10
85.000000
20
-50.000000
30
0.000000
40
3.000000
50
180.000000
51
0.000000
0
TEXT
8
TEXTE
10
0.000000
20
-112.000000
30
0.000000
40
6.000000
1
patin_charge 1/1
0
LINE
8
DECOUPE
10
125.000000
20
-83.000000
30
0.000000
11
125.000000
21
-97.000000
31
0.000000
0
ARC
8
DECOUPE
10
128.000000
20
-97.000000
30
0.000000
40
3.000000
50
180.000000
51
270.000000
0
LINE
8
DECOUPE
10
128.000000
20
-100.000000
30
0.000000
11
212.000000
21
-100.000000
31
0.000000
0
ARC
8
DECOUPE
10
212.000000
20
-97.000000
30
0.000000
40
3.000000
50
270.000000
51
0.000000
0
LINE
8
DECOUPE
10
215.000000
20
-97.000000
30
0.000000
11
215.000000
21
-83.000000
31
0.000000
0
ARC
8
DECOUPE
10
212.000000
20
-83.000000
30
0.000000
40
3.000000
50
0.000000
51
90.000000
0
LINE
8
DECOUPE
10
212.000000
20
-80.000000
30
0.000000
11
128.000000
21
-80.000000
31
0.000000
0
ARC
8
DECOUPE
10
128.000000
20
-83.000000
30
0.000000
40
3.000000
50
90.000000
51
180.000000
0
TEXT
8
TEXTE
10
125.000000
20
-112.000000
30
0.000000
40
6.000000
1
patin_appui 1/4
0
LINE
8
DECOUPE
10
240.000000
20
-83.000000
30
0.000000
11
240.000000
21
-97.000000
31
0.000000
0
ARC
8
DECOUPE
10
243.000000
20
-97.000000
30
0.000000
40
3.000000
50
180.000000
51
270.000000
0
LINE
8
DECOUPE
10
243.000000
20
-100.000000
30
0.000000
11
327.000000
21
-100.000000
31
0.000000
0
ARC
8
DECOUPE
10
327.000000
20
-97.000000
30
0.000000
40
3.000000
50
270.000000
51
0.000000
0
LINE
8
DECOUPE
10
330.000000
20
-97.000000
30
0.000000
11
330.000000
21
-83.000000
31
0.000000
0
ARC
8
DECOUPE
10
327.000000
20
-83.000000
30
0.000000
40
3.000000
50
0.000000
51
90.000000
0
LINE
8
DECOUPE
10
327.000000
20
-80.000000
30
0.000000
11
243.000000
21
-80.000000
31
0.000000
0
ARC
8
DECOUPE
10
243.000000
20
-83.000000
30
0.000000
40
3.000000
50
90.000000
51
180.000000
0
TEXT
8
TEXTE
10
240.000000
20
-112.000000
30
0.000000
40
6.000000
1
patin_appui 2/4
0
LINE
8
DECOUPE
10
355.000000
20
-83.000000
30
0.000000
11
355.000000
21
-97.000000
31
0.000000
0
ARC
8
DECOUPE
10
358.000000
20
-97.000000
30
0.000000
40
3.000000
50
180.000000
51
270.000000
0
LINE
8
DECOUPE
10
358.000000
20
-100.000000
30
0.000000
11
442.000000
21
-100.000000
31
0.000000
0
ARC
8
DECOUPE
10
442.000000
20
-97.000000
30
0.000000
40
3.000000
50
270.000000
51
0.000000
0
LINE
8
DECOUPE
10
445.000000
20
-97.000000
30
0.000000
11
445.000000
21
-83.000000
31
0.000000
0
ARC
8
DECOUPE
10
442.000000
20
-83.000000
30
0.000000
40
3.000000
50
0.000000
51
90.000000
0
LINE
8
DECOUPE
10
442.000000
20
-80.000000
30
0.000000
11
358.000000
21
-80.000000
31
0.000000
0
ARC
8
DECOUPE
10
358.000000
20
-83.000000
30
0.000000
40
3.000000
50
90.000000
51
180.000000
0
TEXT
8
TEXTE
10
355.000000
20
-112.000000
30
0.000000
40
6.000000
1
patin_appui 3/4
0
LINE
8
DECOUPE
10
470.000000
20
-83.000000
30
0.000000
11
470.000000
21
-97.000000
31
0.000000
0
ARC
8
DECOUPE
10
473.000000
20
-97.000000
30
0.000000
40
3.000000
50
180.000000
51
270.000000
0
LINE
8
DECOUPE
10
473.000000
20
-100.000000
30
0.000000
11
557.000000
21
-100.000000
31
0.000000
0
ARC
8
DECOUPE
10
557.000000
20
-97.000000
30
0.000000
40
3.000000
50
270.000000
51
0.000000
0
LINE
8
DECOUPE
10
560.000000
20
-97.000000
30
0.000000
11
560.000000
21
-83.000000
31
0.000000
0
ARC
8
DECOUPE
10
557.000000
20
-83.000000
30
0.000000
40
3.000000
50
0.000000
51
90.000000
0
LINE
8
DECOUPE
10
557.000000
20
-80.000000
30
0.000000
11
473.000000
21
-80.000000
31
0.000000
0
ARC
8
DECOUPE
10
473.000000
20
-83.000000
30
0.000000
40
3.000000
50
90.000000
51
180.000000
0
TEXT
8
TEXTE
10
470.000000
20
-112.000000
30
0.000000
40
6.000000
1
patin_appui 4/4
0
TEXT
8
TEXTE
10
0.000000
20
20.000000
30
0.000000
40
4.000000
1
calques : DECOUPE = couper ; GRAVURE = marquer sans couper ; TEXTE = ni couper ni marquer
0
TEXT
8
TEXTE
10
0.000000
20
29.000000
30
0.000000
40
5.000000
1
rangement en etageres de 3000 mm au plus, pas une imbrication : le decoupeur imbrique sur son format
0
TEXT
8
TEXTE
10
0.000000
20
39.000000
30
0.000000
40
5.000000
1
brut : tole 10 mm
0
TEXT
8
TEXTE
10
0.000000
20
49.000000
30
0.000000
40
8.000000
1
TOLE 10 mm  S355JR  -  5 pieces  -  ind. B du 05/10/2026
0
ENDSEC
0
EOF
