0
SECTION
2
HEADER
9
$ACADVER
1
AC1009
9
$INSUNITS
70
4
9
$MEASUREMENT
70
1
0
ENDSEC
0
SECTION
2
TABLES
0
TABLE
2
LAYER
70
4
0
LAYER
2
0
70
0
62
7
6
CONTINUOUS
0
LAYER
2
DECOUPE
70
0
62
7
6
CONTINUOUS
0
LAYER
2
GRAVURE
70
0
62
1
6
CONTINUOUS
0
LAYER
2
TEXTE
70
0
62
3
6
CONTINUOUS
0
ENDTAB
0
ENDSEC
0
SECTION
2
ENTITIES
0
LINE
8
DECOUPE
10
0.000000
20
-7.380180
30
0.000000
11
0.000000
21
-432.619820
31
0.000000
0
ARC
8
DECOUPE
10
1.000000
20
-432.619820
30
0.000000
40
1.000000
50
180.000000
51
308.000000
0
LINE
8
DECOUPE
10
1.615661
20
-433.407830
30
0.000000
11
18.296507
21
-420.375326
31
0.000000
0
LINE
8
DECOUPE
10
18.296507
20
-420.375326
30
0.000000
11
18.555031
21
-418.269817
31
0.000000
0
LINE
8
DECOUPE
10
18.555031
20
-418.269817
30
0.000000
11
20.660539
21
-418.528341
31
0.000000
0
LINE
8
DECOUPE
10
20.660539
20
-418.528341
30
0.000000
11
20.402015
21
-420.633850
31
0.000000
0
LINE
8
DECOUPE
10
20.402015
20
-420.633850
30
0.000000
11
23.726587
21
-424.889108
31
0.000000
0
LINE
8
DECOUPE
10
23.726587
20
-424.889108
30
0.000000
11
25.832095
21
-425.147632
31
0.000000
0
LINE
8
DECOUPE
10
25.832095
20
-425.147632
30
0.000000
11
25.573572
21
-427.253140
31
0.000000
0
LINE
8
DECOUPE
10
25.573572
20
-427.253140
30
0.000000
11
23.468063
21
-426.994616
31
0.000000
0
LINE
8
DECOUPE
10
23.468063
20
-426.994616
30
0.000000
11
9.110480
21
-438.211989
31
0.000000
0
ARC
8
DECOUPE
10
9.726142
20
-439.000000
30
0.000000
40
1.000000
50
128.000000
51
270.000000
0
LINE
8
DECOUPE
10
9.726142
20
-440.000000
30
0.000000
11
224.800000
21
-440.000000
31
0.000000
0
ARC
8
DECOUPE
10
224.800000
20
-439.000000
30
0.000000
40
1.000000
50
270.000000
51
0.000000
0
LINE
8
DECOUPE
10
225.800000
20
-439.000000
30
0.000000
11
225.800000
21
-433.500000
31
0.000000
0
LINE
8
DECOUPE
10
225.800000
20
-433.500000
30
0.000000
11
224.300000
21
-432.000000
31
0.000000
0
LINE
8
DECOUPE
10
224.300000
20
-432.000000
30
0.000000
11
225.800000
21
-430.500000
31
0.000000
0
LINE
8
DECOUPE
10
225.800000
20
-430.500000
30
0.000000
11
227.300000
21
-432.000000
31
0.000000
0
LINE
8
DECOUPE
10
227.300000
20
-432.000000
30
0.000000
11
232.700000
21
-432.000000
31
0.000000
0
LINE
8
DECOUPE
10
232.700000
20
-432.000000
30
0.000000
11
234.200000
21
-430.500000
31
0.000000
0
LINE
8
DECOUPE
10
234.200000
20
-430.500000
30
0.000000
11
235.700000
21
-432.000000
31
0.000000
0
LINE
8
DECOUPE
10
235.700000
20
-432.000000
30
0.000000
11
234.200000
21
-433.500000
31
0.000000
0
LINE
8
DECOUPE
10
234.200000
20
-433.500000
30
0.000000
11
234.200000
21
-439.000000
31
0.000000
0
ARC
8
DECOUPE
10
235.200000
20
-439.000000
30
0.000000
40
1.000000
50
180.000000
51
270.000000
0
LINE
8
DECOUPE
10
235.200000
20
-440.000000
30
0.000000
11
724.800000
21
-440.000000
31
0.000000
0
ARC
8
DECOUPE
10
724.800000
20
-439.000000
30
0.000000
40
1.000000
50
270.000000
51
0.000000
0
LINE
8
DECOUPE
10
725.800000
20
-439.000000
30
0.000000
11
725.800000
21
-433.500000
31
0.000000
0
LINE
8
DECOUPE
10
725.800000
20
-433.500000
30
0.000000
11
724.300000
21
-432.000000
31
0.000000
0
LINE
8
DECOUPE
10
724.300000
20
-432.000000
30
0.000000
11
725.800000
21
-430.500000
31
0.000000
0
LINE
8
DECOUPE
10
725.800000
20
-430.500000
30
0.000000
11
727.300000
21
-432.000000
31
0.000000
0
LINE
8
DECOUPE
10
727.300000
20
-432.000000
30
0.000000
11
732.700000
21
-432.000000
31
0.000000
0
LINE
8
DECOUPE
10
732.700000
20
-432.000000
30
0.000000
11
734.200000
21
-430.500000
31
0.000000
0
LINE
8
DECOUPE
10
734.200000
20
-430.500000
30
0.000000
11
735.700000
21
-432.000000
31
0.000000
0
LINE
8
DECOUPE
10
735.700000
20
-432.000000
30
0.000000
11
734.200000
21
-433.500000
31
0.000000
0
LINE
8
DECOUPE
10
734.200000
20
-433.500000
30
0.000000
11
734.200000
21
-439.000000
31
0.000000
0
ARC
8
DECOUPE
10
735.200000
20
-439.000000
30
0.000000
40
1.000000
50
180.000000
51
270.000000
0
LINE
8
DECOUPE
10
735.200000
20
-440.000000
30
0.000000
11
950.273858
21
-440.000000
31
0.000000
0
ARC
8
DECOUPE
10
950.273858
20
-439.000000
30
0.000000
40
1.000000
50
270.000000
51
52.000000
0
LINE
8
DECOUPE
10
950.889520
20
-438.211989
30
0.000000
11
936.531937
21
-426.994616
31
0.000000
0
LINE
8
DECOUPE
10
936.531937
20
-426.994616
30
0.000000
11
934.426428
21
-427.253140
31
0.000000
0
LINE
8
DECOUPE
10
934.426428
20
-427.253140
30
0.000000
11
934.167905
21
-425.147632
31
0.000000
0
LINE
8
DECOUPE
10
934.167905
20
-425.147632
30
0.000000
11
936.273413
21
-424.889108
31
0.000000
0
LINE
8
DECOUPE
10
936.273413
20
-424.889108
30
0.000000
11
939.597985
21
-420.633850
31
0.000000
0
LINE
8
DECOUPE
10
939.597985
20
-420.633850
30
0.000000
11
939.339461
21
-418.528341
31
0.000000
0
LINE
8
DECOUPE
10
939.339461
20
-418.528341
30
0.000000
11
941.444969
21
-418.269817
31
0.000000
0
LINE
8
DECOUPE
10
941.444969
20
-418.269817
30
0.000000
11
941.703493
21
-420.375326
31
0.000000
0
LINE
8
DECOUPE
10
941.703493
20
-420.375326
30
0.000000
11
958.384339
21
-433.407830
31
0.000000
0
ARC
8
DECOUPE
10
959.000000
20
-432.619820
30
0.000000
40
1.000000
50
232.000000
51
0.000000
0
LINE
8
DECOUPE
10
960.000000
20
-432.619820
30
0.000000
11
960.000000
21
-7.380180
31
0.000000
0
ARC
8
DECOUPE
10
959.000000
20
-7.380180
30
0.000000
40
1.000000
50
0.000000
51
128.000000
0
LINE
8
DECOUPE
10
958.384339
20
-6.592170
30
0.000000
11
941.703493
21
-19.624674
31
0.000000
0
LINE
8
DECOUPE
10
941.703493
20
-19.624674
30
0.000000
11
941.444969
21
-21.730183
31
0.000000
0
LINE
8
DECOUPE
10
941.444969
20
-21.730183
30
0.000000
11
939.339461
21
-21.471659
31
0.000000
0
LINE
8
DECOUPE
10
939.339461
20
-21.471659
30
0.000000
11
939.597985
21
-19.366150
31
0.000000
0
LINE
8
DECOUPE
10
939.597985
20
-19.366150
30
0.000000
11
936.273413
21
-15.110892
31
0.000000
0
LINE
8
DECOUPE
10
936.273413
20
-15.110892
30
0.000000
11
934.167905
21
-14.852368
31
0.000000
0
LINE
8
DECOUPE
10
934.167905
20
-14.852368
30
0.000000
11
934.426428
21
-12.746860
31
0.000000
0
LINE
8
DECOUPE
10
934.426428
20
-12.746860
30
0.000000
11
936.531937
21
-13.005384
31
0.000000
0
LINE
8
DECOUPE
10
936.531937
20
-13.005384
30
0.000000
11
950.889520
21
-1.788011
31
0.000000
0
ARC
8
DECOUPE
10
950.273858
20
-1.000000
30
0.000000
40
1.000000
50
308.000000
51
90.000000
0
LINE
8
DECOUPE
10
950.273858
20
0.000000
30
0.000000
11
9.726142
21
0.000000
31
0.000000
0
ARC
8
DECOUPE
10
9.726142
20
-1.000000
30
0.000000
40
1.000000
50
90.000000
51
232.000000
0
LINE
8
DECOUPE
10
9.110480
20
-1.788011
30
0.000000
11
23.468063
21
-13.005384
31
0.000000
0
LINE
8
DECOUPE
10
23.468063
20
-13.005384
30
0.000000
11
25.573572
21
-12.746860
31
0.000000
0
LINE
8
DECOUPE
10
25.573572
20
-12.746860
30
0.000000
11
25.832095
21
-14.852368
31
0.000000
0
LINE
8
DECOUPE
10
25.832095
20
-14.852368
30
0.000000
11
23.726587
21
-15.110892
31
0.000000
0
LINE
8
DECOUPE
10
23.726587
20
-15.110892
30
0.000000
11
20.402015
21
-19.366150
31
0.000000
0
LINE
8
DECOUPE
10
20.402015
20
-19.366150
30
0.000000
11
20.660539
21
-21.471659
31
0.000000
0
LINE
8
DECOUPE
10
20.660539
20
-21.471659
30
0.000000
11
18.555031
21
-21.730183
31
0.000000
0
LINE
8
DECOUPE
10
18.555031
20
-21.730183
30
0.000000
11
18.296507
21
-19.624674
31
0.000000
0
LINE
8
DECOUPE
10
18.296507
20
-19.624674
30
0.000000
11
1.615661
21
-6.592170
31
0.000000
0
ARC
8
DECOUPE
10
1.000000
20
-7.380180
30
0.000000
40
1.000000
50
52.000000
51
180.000000
0
LINE
8
DECOUPE
10
45.000000
20
-84.306798
30
0.000000
11
45.000000
21
-378.000000
31
0.000000
0
ARC
8
DECOUPE
10
67.000000
20
-378.000000
30
0.000000
40
22.000000
50
180.000000
51
270.000000
0
LINE
8
DECOUPE
10
67.000000
20
-400.000000
30
0.000000
11
71.717122
21
-400.000000
31
0.000000
0
ARC
8
DECOUPE
10
71.717122
20
-390.000000
30
0.000000
40
10.000000
50
270.000000
51
282.006227
0
ARC
8
DECOUPE
10
105.000000
20
-546.500000
30
0.000000
40
150.000000
50
77.993773
51
102.006227
0
ARC
8
DECOUPE
10
138.282878
20
-390.000000
30
0.000000
40
10.000000
50
257.993773
51
270.000000
0
LINE
8
DECOUPE
10
138.282878
20
-400.000000
30
0.000000
11
821.717122
21
-400.000000
31
0.000000
0
ARC
8
DECOUPE
10
821.717122
20
-390.000000
30
0.000000
40
10.000000
50
270.000000
51
282.006227
0
ARC
8
DECOUPE
10
855.000000
20
-546.500000
30
0.000000
40
150.000000
50
77.993773
51
102.006227
0
ARC
8
DECOUPE
10
888.282878
20
-390.000000
30
0.000000
40
10.000000
50
257.993773
51
270.000000
0
LINE
8
DECOUPE
10
888.282878
20
-400.000000
30
0.000000
11
893.000000
21
-400.000000
31
0.000000
0
ARC
8
DECOUPE
10
893.000000
20
-378.000000
30
0.000000
40
22.000000
50
270.000000
51
0.000000
0
LINE
8
DECOUPE
10
915.000000
20
-378.000000
30
0.000000
11
915.000000
21
-84.306798
31
0.000000
0
ARC
8
DECOUPE
10
895.000000
20
-84.306798
30
0.000000
40
20.000000
50
360.000000
51
107.969140
0
LINE
8
DECOUPE
10
888.829906
20
-65.282342
30
0.000000
11
562.287383
21
-171.188025
31
0.000000
0
ARC
8
DECOUPE
10
570.000000
20
-194.968596
30
0.000000
40
25.000000
50
107.969140
51
180.000000
0
LINE
8
DECOUPE
10
545.000000
20
-194.968596
30
0.000000
11
545.000000
21
-209.000000
31
0.000000
0
ARC
8
DECOUPE
10
530.000000
20
-209.000000
30
0.000000
40
15.000000
50
270.000000
51
0.000000
0
LINE
8
DECOUPE
10
530.000000
20
-224.000000
30
0.000000
11
430.000000
21
-224.000000
31
0.000000
0
ARC
8
DECOUPE
10
430.000000
20
-209.000000
30
0.000000
40
15.000000
50
180.000000
51
270.000000
0
LINE
8
DECOUPE
10
415.000000
20
-209.000000
30
0.000000
11
415.000000
21
-194.968596
31
0.000000
0
ARC
8
DECOUPE
10
390.000000
20
-194.968596
30
0.000000
40
25.000000
50
0.000000
51
72.030860
0
LINE
8
DECOUPE
10
397.712617
20
-171.188025
30
0.000000
11
71.170094
21
-65.282342
31
0.000000
0
ARC
8
DECOUPE
10
65.000000
20
-84.306798
30
0.000000
40
20.000000
50
72.030860
51
180.000000
0
ARC
8
DECOUPE
10
365.022566
20
-70.598253
30
0.000000
40
40.598253
50
0.000000
51
180.000000
0
ARC
8
DECOUPE
10
365.022566
20
-70.598253
30
0.000000
40
40.598253
50
180.000000
51
0.000000
0
ARC
8
DECOUPE
10
287.112152
20
-58.279963
30
0.000000
40
28.279963
50
0.000000
51
180.000000
0
ARC
8
DECOUPE
10
287.112152
20
-58.279963
30
0.000000
40
28.279963
50
180.000000
51
0.000000
0
ARC
8
DECOUPE
10
230.249104
20
-49.289438
30
0.000000
40
19.289438
50
0.000000
51
180.000000
0
ARC
8
DECOUPE
10
230.249104
20
-49.289438
30
0.000000
40
19.289438
50
180.000000
51
0.000000
0
ARC
8
DECOUPE
10
188.747511
20
-42.727687
30
0.000000
40
12.727687
50
0.000000
51
180.000000
0
ARC
8
DECOUPE
10
188.747511
20
-42.727687
30
0.000000
40
12.727687
50
180.000000
51
0.000000
0
ARC
8
DECOUPE
10
594.977434
20
-70.598253
30
0.000000
40
40.598253
50
0.000000
51
180.000000
0
ARC
8
DECOUPE
10
594.977434
20
-70.598253
30
0.000000
40
40.598253
50
180.000000
51
0.000000
0
ARC
8
DECOUPE
10
672.887848
20
-58.279963
30
0.000000
40
28.279963
50
0.000000
51
180.000000
0
ARC
8
DECOUPE
10
672.887848
20
-58.279963
30
0.000000
40
28.279963
50
180.000000
51
0.000000
0
ARC
8
DECOUPE
10
729.750896
20
-49.289438
30
0.000000
40
19.289438
50
0.000000
51
180.000000
0
ARC
8
DECOUPE
10
729.750896
20
-49.289438
30
0.000000
40
19.289438
50
180.000000
51
0.000000
0
ARC
8
DECOUPE
10
771.252489
20
-42.727687
30
0.000000
40
12.727687
50
0.000000
51
180.000000
0
ARC
8
DECOUPE
10
771.252489
20
-42.727687
30
0.000000
40
12.727687
50
180.000000
51
0.000000
0
ARC
8
DECOUPE
10
195.000000
20
-420.000000
30
0.000000
40
10.000000
50
0.000000
51
180.000000
0
ARC
8
DECOUPE
10
195.000000
20
-420.000000
30
0.000000
40
10.000000
50
180.000000
51
0.000000
0
ARC
8
DECOUPE
10
290.000000
20
-420.000000
30
0.000000
40
10.000000
50
0.000000
51
180.000000
0
ARC
8
DECOUPE
10
290.000000
20
-420.000000
30
0.000000
40
10.000000
50
180.000000
51
0.000000
0
ARC
8
DECOUPE
10
385.000000
20
-420.000000
30
0.000000
40
10.000000
50
0.000000
51
180.000000
0
ARC
8
DECOUPE
10
385.000000
20
-420.000000
30
0.000000
40
10.000000
50
180.000000
51
0.000000
0
ARC
8
DECOUPE
10
480.000000
20
-420.000000
30
0.000000
40
10.000000
50
0.000000
51
180.000000
0
ARC
8
DECOUPE
10
480.000000
20
-420.000000
30
0.000000
40
10.000000
50
180.000000
51
0.000000
0
ARC
8
DECOUPE
10
575.000000
20
-420.000000
30
0.000000
40
10.000000
50
0.000000
51
180.000000
0
ARC
8
DECOUPE
10
575.000000
20
-420.000000
30
0.000000
40
10.000000
50
180.000000
51
0.000000
0
ARC
8
DECOUPE
10
670.000000
20
-420.000000
30
0.000000
40
10.000000
50
0.000000
51
180.000000
0
ARC
8
DECOUPE
10
670.000000
20
-420.000000
30
0.000000
40
10.000000
50
180.000000
51
0.000000
0
ARC
8
DECOUPE
10
765.000000
20
-420.000000
30
0.000000
40
10.000000
50
0.000000
51
180.000000
0
ARC
8
DECOUPE
10
765.000000
20
-420.000000
30
0.000000
40
10.000000
50
180.000000
51
0.000000
0
LINE
8
DECOUPE
10
429.000000
20
-193.200000
30
0.000000
11
429.000000
21
-178.400000
31
0.000000
0
ARC
8
DECOUPE
10
436.000000
20
-178.400000
30
0.000000
40
7.000000
50
0.000000
51
180.000000
0
LINE
8
DECOUPE
10
443.000000
20
-178.400000
30
0.000000
11
443.000000
21
-193.200000
31
0.000000
0
ARC
8
DECOUPE
10
436.000000
20
-193.200000
30
0.000000
40
7.000000
50
180.000000
51
0.000000
0
LINE
8
DECOUPE
10
517.000000
20
-193.200000
30
0.000000
11
517.000000
21
-178.400000
31
0.000000
0
ARC
8
DECOUPE
10
524.000000
20
-178.400000
30
0.000000
40
7.000000
50
0.000000
51
180.000000
0
LINE
8
DECOUPE
10
531.000000
20
-178.400000
30
0.000000
11
531.000000
21
-193.200000
31
0.000000
0
ARC
8
DECOUPE
10
524.000000
20
-193.200000
30
0.000000
40
7.000000
50
180.000000
51
0.000000
0
LINE
8
DECOUPE
10
458.000000
20
-118.288297
30
0.000000
11
458.000000
21
-179.573586
31
0.000000
0
ARC
8
DECOUPE
10
462.000000
20
-179.573586
30
0.000000
40
4.000000
50
180.000000
51
270.000000
0
LINE
8
DECOUPE
10
462.000000
20
-183.573586
30
0.000000
11
498.000000
21
-183.573586
31
0.000000
0
ARC
8
DECOUPE
10
498.000000
20
-179.573586
30
0.000000
40
4.000000
50
270.000000
51
0.000000
0
LINE
8
DECOUPE
10
502.000000
20
-179.573586
30
0.000000
11
502.000000
21
-118.288297
31
0.000000
0
ARC
8
DECOUPE
10
498.000000
20
-118.288297
30
0.000000
40
4.000000
50
0.000000
51
90.000000
0
LINE
8
DECOUPE
10
498.000000
20
-114.288297
30
0.000000
11
462.000000
21
-114.288297
31
0.000000
0
ARC
8
DECOUPE
10
462.000000
20
-118.288297
30
0.000000
40
4.000000
50
90.000000
51
180.000000
0
LINE
8
DECOUPE
10
454.000000
20
-60.088297
30
0.000000
11
454.000000
21
-76.488297
31
0.000000
0
ARC
8
DECOUPE
10
456.000000
20
-76.488297
30
0.000000
40
2.000000
50
180.000000
51
270.000000
0
LINE
8
DECOUPE
10
456.000000
20
-78.488297
30
0.000000
11
504.000000
21
-78.488297
31
0.000000
0
ARC
8
DECOUPE
10
504.000000
20
-76.488297
30
0.000000
40
2.000000
50
270.000000
51
0.000000
0
LINE
8
DECOUPE
10
506.000000
20
-76.488297
30
0.000000
11
506.000000
21
-60.088297
31
0.000000
0
ARC
8
DECOUPE
10
504.000000
20
-60.088297
30
0.000000
40
2.000000
50
0.000000
51
90.000000
0
LINE
8
DECOUPE
10
504.000000
20
-58.088297
30
0.000000
11
456.000000
21
-58.088297
31
0.000000
0
ARC
8
DECOUPE
10
456.000000
20
-60.088297
30
0.000000
40
2.000000
50
90.000000
51
180.000000
0
ARC
8
DECOUPE
10
22.500000
20
-390.000000
30
0.000000
40
5.500000
50
0.000000
51
180.000000
0
ARC
8
DECOUPE
10
22.500000
20
-390.000000
30
0.000000
40
5.500000
50
180.000000
51
0.000000
0
ARC
8
DECOUPE
10
22.500000
20
-50.000000
30
0.000000
40
5.500000
50
0.000000
51
180.000000
0
ARC
8
DECOUPE
10
22.500000
20
-50.000000
30
0.000000
40
5.500000
50
180.000000
51
0.000000
0
ARC
8
DECOUPE
10
230.000000
20
-98.397372
30
0.000000
40
5.500000
50
0.000000
51
180.000000
0
ARC
8
DECOUPE
10
230.000000
20
-98.397372
30
0.000000
40
5.500000
50
180.000000
51
0.000000
0
ARC
8
DECOUPE
10
937.500000
20
-390.000000
30
0.000000
40
5.500000
50
0.000000
51
180.000000
0
ARC
8
DECOUPE
10
937.500000
20
-390.000000
30
0.000000
40
5.500000
50
180.000000
51
0.000000
0
ARC
8
DECOUPE
10
937.500000
20
-50.000000
30
0.000000
40
5.500000
50
0.000000
51
180.000000
0
ARC
8
DECOUPE
10
937.500000
20
-50.000000
30
0.000000
40
5.500000
50
180.000000
51
0.000000
0
ARC
8
DECOUPE
10
730.000000
20
-98.397372
30
0.000000
40
5.500000
50
0.000000
51
180.000000
0
ARC
8
DECOUPE
10
730.000000
20
-98.397372
30
0.000000
40
5.500000
50
180.000000
51
0.000000
0
ARC
8
DECOUPE
10
428.000000
20
-137.288297
30
0.000000
40
5.500000
50
0.000000
51
180.000000
0
ARC
8
DECOUPE
10
428.000000
20
-137.288297
30
0.000000
40
5.500000
50
180.000000
51
0.000000
0
ARC
8
DECOUPE
10
532.000000
20
-137.288297
30
0.000000
40
5.500000
50
0.000000
51
180.000000
0
ARC
8
DECOUPE
10
532.000000
20
-137.288297
30
0.000000
40
5.500000
50
180.000000
51
0.000000
0
ARC
8
DECOUPE
10
480.000000
20
-29.044149
30
0.000000
40
5.500000
50
0.000000
51
180.000000
0
ARC
8
DECOUPE
10
480.000000
20
-29.044149
30
0.000000
40
5.500000
50
180.000000
51
0.000000
0
LINE
8
GRAVURE
10
533.500000
20
-174.900000
30
0.000000
11
541.500000
21
-174.900000
31
0.000000
0
LINE
8
GRAVURE
10
533.500000
20
-175.618282
30
0.000000
11
538.000000
21
-175.618282
31
0.000000
0
LINE
8
GRAVURE
10
533.500000
20
-176.352181
30
0.000000
11
541.500000
21
-176.352181
31
0.000000
0
LINE
8
GRAVURE
10
533.500000
20
-177.101913
30
0.000000
11
538.000000
21
-177.101913
31
0.000000
0
LINE
8
GRAVURE
10
533.500000
20
-177.867623
30
0.000000
11
541.500000
21
-177.867623
31
0.000000
0
LINE
8
GRAVURE
10
533.500000
20
-178.649373
30
0.000000
11
538.000000
21
-178.649373
31
0.000000
0
LINE
8
GRAVURE
10
533.500000
20
-179.447124
30
0.000000
11
541.500000
21
-179.447124
31
0.000000
0
LINE
8
GRAVURE
10
533.500000
20
-180.260719
30
0.000000
11
538.000000
21
-180.260719
31
0.000000
0
LINE
8
GRAVURE
10
533.500000
20
-181.089868
30
0.000000
11
541.500000
21
-181.089868
31
0.000000
0
LINE
8
GRAVURE
10
533.500000
20
-181.934125
30
0.000000
11
538.000000
21
-181.934125
31
0.000000
0
LINE
8
GRAVURE
10
533.500000
20
-182.792878
30
0.000000
11
541.500000
21
-182.792878
31
0.000000
0
LINE
8
GRAVURE
10
533.500000
20
-183.665331
30
0.000000
11
538.000000
21
-183.665331
31
0.000000
0
LINE
8
GRAVURE
10
533.500000
20
-184.550499
30
0.000000
11
541.500000
21
-184.550499
31
0.000000
0
TEXT
8
TEXTE
10
0.000000
20
-452.000000
30
0.000000
40
6.000000
1
flanc 1/2
0
LINE
8
DECOUPE
10
985.000000
20
-7.380180
30
0.000000
11
985.000000
21
-432.619820
31
0.000000
0
ARC
8
DECOUPE
10
986.000000
20
-432.619820
30
0.000000
40
1.000000
50
180.000000
51
308.000000
0
LINE
8
DECOUPE
10
986.615661
20
-433.407830
30
0.000000
11
1003.296507
21
-420.375326
31
0.000000
0
LINE
8
DECOUPE
10
1003.296507
20
-420.375326
30
0.000000
11
1003.555031
21
-418.269817
31
0.000000
0
LINE
8
DECOUPE
10
1003.555031
20
-418.269817
30
0.000000
11
1005.660539
21
-418.528341
31
0.000000
0
LINE
8
DECOUPE
10
1005.660539
20
-418.528341
30
0.000000
11
1005.402015
21
-420.633850
31
0.000000
0
LINE
8
DECOUPE
10
1005.402015
20
-420.633850
30
0.000000
11
1008.726587
21
-424.889108
31
0.000000
0
LINE
8
DECOUPE
10
1008.726587
20
-424.889108
30
0.000000
11
1010.832095
21
-425.147632
31
0.000000
0
LINE
8
DECOUPE
10
1010.832095
20
-425.147632
30
0.000000
11
1010.573572
21
-427.253140
31
0.000000
0
LINE
8
DECOUPE
10
1010.573572
20
-427.253140
30
0.000000
11
1008.468063
21
-426.994616
31
0.000000
0
LINE
8
DECOUPE
10
1008.468063
20
-426.994616
30
0.000000
11
994.110480
21
-438.211989
31
0.000000
0
ARC
8
DECOUPE
10
994.726142
20
-439.000000
30
0.000000
40
1.000000
50
128.000000
51
270.000000
0
LINE
8
DECOUPE
10
994.726142
20
-440.000000
30
0.000000
11
1209.800000
21
-440.000000
31
0.000000
0
ARC
8
DECOUPE
10
1209.800000
20
-439.000000
30
0.000000
40
1.000000
50
270.000000
51
0.000000
0
LINE
8
DECOUPE
10
1210.800000
20
-439.000000
30
0.000000
11
1210.800000
21
-433.500000
31
0.000000
0
LINE
8
DECOUPE
10
1210.800000
20
-433.500000
30
0.000000
11
1209.300000
21
-432.000000
31
0.000000
0
LINE
8
DECOUPE
10
1209.300000
20
-432.000000
30
0.000000
11
1210.800000
21
-430.500000
31
0.000000
0
LINE
8
DECOUPE
10
1210.800000
20
-430.500000
30
0.000000
11
1212.300000
21
-432.000000
31
0.000000
0
LINE
8
DECOUPE
10
1212.300000
20
-432.000000
30
0.000000
11
1217.700000
21
-432.000000
31
0.000000
0
LINE
8
DECOUPE
10
1217.700000
20
-432.000000
30
0.000000
11
1219.200000
21
-430.500000
31
0.000000
0
LINE
8
DECOUPE
10
1219.200000
20
-430.500000
30
0.000000
11
1220.700000
21
-432.000000
31
0.000000
0
LINE
8
DECOUPE
10
1220.700000
20
-432.000000
30
0.000000
11
1219.200000
21
-433.500000
31
0.000000
0
LINE
8
DECOUPE
10
1219.200000
20
-433.500000
30
0.000000
11
1219.200000
21
-439.000000
31
0.000000
0
ARC
8
DECOUPE
10
1220.200000
20
-439.000000
30
0.000000
40
1.000000
50
180.000000
51
270.000000
0
LINE
8
DECOUPE
10
1220.200000
20
-440.000000
30
0.000000
11
1709.800000
21
-440.000000
31
0.000000
0
ARC
8
DECOUPE
10
1709.800000
20
-439.000000
30
0.000000
40
1.000000
50
270.000000
51
0.000000
0
LINE
8
DECOUPE
10
1710.800000
20
-439.000000
30
0.000000
11
1710.800000
21
-433.500000
31
0.000000
0
LINE
8
DECOUPE
10
1710.800000
20
-433.500000
30
0.000000
11
1709.300000
21
-432.000000
31
0.000000
0
LINE
8
DECOUPE
10
1709.300000
20
-432.000000
30
0.000000
11
1710.800000
21
-430.500000
31
0.000000
0
LINE
8
DECOUPE
10
1710.800000
20
-430.500000
30
0.000000
11
1712.300000
21
-432.000000
31
0.000000
0
LINE
8
DECOUPE
10
1712.300000
20
-432.000000
30
0.000000
11
1717.700000
21
-432.000000
31
0.000000
0
LINE
8
DECOUPE
10
1717.700000
20
-432.000000
30
0.000000
11
1719.200000
21
-430.500000
31
0.000000
0
LINE
8
DECOUPE
10
1719.200000
20
-430.500000
30
0.000000
11
1720.700000
21
-432.000000
31
0.000000
0
LINE
8
DECOUPE
10
1720.700000
20
-432.000000
30
0.000000
11
1719.200000
21
-433.500000
31
0.000000
0
LINE
8
DECOUPE
10
1719.200000
20
-433.500000
30
0.000000
11
1719.200000
21
-439.000000
31
0.000000
0
ARC
8
DECOUPE
10
1720.200000
20
-439.000000
30
0.000000
40
1.000000
50
180.000000
51
270.000000
0
LINE
8
DECOUPE
10
1720.200000
20
-440.000000
30
0.000000
11
1935.273858
21
-440.000000
31
0.000000
0
ARC
8
DECOUPE
10
1935.273858
20
-439.000000
30
0.000000
40
1.000000
50
270.000000
51
52.000000
0
LINE
8
DECOUPE
10
1935.889520
20
-438.211989
30
0.000000
11
1921.531937
21
-426.994616
31
0.000000
0
LINE
8
DECOUPE
10
1921.531937
20
-426.994616
30
0.000000
11
1919.426428
21
-427.253140
31
0.000000
0
LINE
8
DECOUPE
10
1919.426428
20
-427.253140
30
0.000000
11
1919.167905
21
-425.147632
31
0.000000
0
LINE
8
DECOUPE
10
1919.167905
20
-425.147632
30
0.000000
11
1921.273413
21
-424.889108
31
0.000000
0
LINE
8
DECOUPE
10
1921.273413
20
-424.889108
30
0.000000
11
1924.597985
21
-420.633850
31
0.000000
0
LINE
8
DECOUPE
10
1924.597985
20
-420.633850
30
0.000000
11
1924.339461
21
-418.528341
31
0.000000
0
LINE
8
DECOUPE
10
1924.339461
20
-418.528341
30
0.000000
11
1926.444969
21
-418.269817
31
0.000000
0
LINE
8
DECOUPE
10
1926.444969
20
-418.269817
30
0.000000
11
1926.703493
21
-420.375326
31
0.000000
0
LINE
8
DECOUPE
10
1926.703493
20
-420.375326
30
0.000000
11
1943.384339
21
-433.407830
31
0.000000
0
ARC
8
DECOUPE
10
1944.000000
20
-432.619820
30
0.000000
40
1.000000
50
232.000000
51
0.000000
0
LINE
8
DECOUPE
10
1945.000000
20
-432.619820
30
0.000000
11
1945.000000
21
-7.380180
31
0.000000
0
ARC
8
DECOUPE
10
1944.000000
20
-7.380180
30
0.000000
40
1.000000
50
0.000000
51
128.000000
0
LINE
8
DECOUPE
10
1943.384339
20
-6.592170
30
0.000000
11
1926.703493
21
-19.624674
31
0.000000
0
LINE
8
DECOUPE
10
1926.703493
20
-19.624674
30
0.000000
11
1926.444969
21
-21.730183
31
0.000000
0
LINE
8
DECOUPE
10
1926.444969
20
-21.730183
30
0.000000
11
1924.339461
21
-21.471659
31
0.000000
0
LINE
8
DECOUPE
10
1924.339461
20
-21.471659
30
0.000000
11
1924.597985
21
-19.366150
31
0.000000
0
LINE
8
DECOUPE
10
1924.597985
20
-19.366150
30
0.000000
11
1921.273413
21
-15.110892
31
0.000000
0
LINE
8
DECOUPE
10
1921.273413
20
-15.110892
30
0.000000
11
1919.167905
21
-14.852368
31
0.000000
0
LINE
8
DECOUPE
10
1919.167905
20
-14.852368
30
0.000000
11
1919.426428
21
-12.746860
31
0.000000
0
LINE
8
DECOUPE
10
1919.426428
20
-12.746860
30
0.000000
11
1921.531937
21
-13.005384
31
0.000000
0
LINE
8
DECOUPE
10
1921.531937
20
-13.005384
30
0.000000
11
1935.889520
21
-1.788011
31
0.000000
0
ARC
8
DECOUPE
10
1935.273858
20
-1.000000
30
0.000000
40
1.000000
50
308.000000
51
90.000000
0
LINE
8
DECOUPE
10
1935.273858
20
0.000000
30
0.000000
11
994.726142
21
0.000000
31
0.000000
0
ARC
8
DECOUPE
10
994.726142
20
-1.000000
30
0.000000
40
1.000000
50
90.000000
51
232.000000
0
LINE
8
DECOUPE
10
994.110480
20
-1.788011
30
0.000000
11
1008.468063
21
-13.005384
31
0.000000
0
LINE
8
DECOUPE
10
1008.468063
20
-13.005384
30
0.000000
11
1010.573572
21
-12.746860
31
0.000000
0
LINE
8
DECOUPE
10
1010.573572
20
-12.746860
30
0.000000
11
1010.832095
21
-14.852368
31
0.000000
0
LINE
8
DECOUPE
10
1010.832095
20
-14.852368
30
0.000000
11
1008.726587
21
-15.110892
31
0.000000
0
LINE
8
DECOUPE
10
1008.726587
20
-15.110892
30
0.000000
11
1005.402015
21
-19.366150
31
0.000000
0
LINE
8
DECOUPE
10
1005.402015
20
-19.366150
30
0.000000
11
1005.660539
21
-21.471659
31
0.000000
0
LINE
8
DECOUPE
10
1005.660539
20
-21.471659
30
0.000000
11
1003.555031
21
-21.730183
31
0.000000
0
LINE
8
DECOUPE
10
1003.555031
20
-21.730183
30
0.000000
11
1003.296507
21
-19.624674
31
0.000000
0
LINE
8
DECOUPE
10
1003.296507
20
-19.624674
30
0.000000
11
986.615661
21
-6.592170
31
0.000000
0
ARC
8
DECOUPE
10
986.000000
20
-7.380180
30
0.000000
40
1.000000
50
52.000000
51
180.000000
0
LINE
8
DECOUPE
10
1030.000000
20
-84.306798
30
0.000000
11
1030.000000
21
-378.000000
31
0.000000
0
ARC
8
DECOUPE
10
1052.000000
20
-378.000000
30
0.000000
40
22.000000
50
180.000000
51
270.000000
0
LINE
8
DECOUPE
10
1052.000000
20
-400.000000
30
0.000000
11
1056.717122
21
-400.000000
31
0.000000
0
ARC
8
DECOUPE
10
1056.717122
20
-390.000000
30
0.000000
40
10.000000
50
270.000000
51
282.006227
0
ARC
8
DECOUPE
10
1090.000000
20
-546.500000
30
0.000000
40
150.000000
50
77.993773
51
102.006227
0
ARC
8
DECOUPE
10
1123.282878
20
-390.000000
30
0.000000
40
10.000000
50
257.993773
51
270.000000
0
LINE
8
DECOUPE
10
1123.282878
20
-400.000000
30
0.000000
11
1806.717122
21
-400.000000
31
0.000000
0
ARC
8
DECOUPE
10
1806.717122
20
-390.000000
30
0.000000
40
10.000000
50
270.000000
51
282.006227
0
ARC
8
DECOUPE
10
1840.000000
20
-546.500000
30
0.000000
40
150.000000
50
77.993773
51
102.006227
0
ARC
8
DECOUPE
10
1873.282878
20
-390.000000
30
0.000000
40
10.000000
50
257.993773
51
270.000000
0
LINE
8
DECOUPE
10
1873.282878
20
-400.000000
30
0.000000
11
1878.000000
21
-400.000000
31
0.000000
0
ARC
8
DECOUPE
10
1878.000000
20
-378.000000
30
0.000000
40
22.000000
50
270.000000
51
0.000000
0
LINE
8
DECOUPE
10
1900.000000
20
-378.000000
30
0.000000
11
1900.000000
21
-84.306798
31
0.000000
0
ARC
8
DECOUPE
10
1880.000000
20
-84.306798
30
0.000000
40
20.000000
50
360.000000
51
107.969140
0
LINE
8
DECOUPE
10
1873.829906
20
-65.282342
30
0.000000
11
1547.287383
21
-171.188025
31
0.000000
0
ARC
8
DECOUPE
10
1555.000000
20
-194.968596
30
0.000000
40
25.000000
50
107.969140
51
180.000000
0
LINE
8
DECOUPE
10
1530.000000
20
-194.968596
30
0.000000
11
1530.000000
21
-209.000000
31
0.000000
0
ARC
8
DECOUPE
10
1515.000000
20
-209.000000
30
0.000000
40
15.000000
50
270.000000
51
0.000000
0
LINE
8
DECOUPE
10
1515.000000
20
-224.000000
30
0.000000
11
1415.000000
21
-224.000000
31
0.000000
0
ARC
8
DECOUPE
10
1415.000000
20
-209.000000
30
0.000000
40
15.000000
50
180.000000
51
270.000000
0
LINE
8
DECOUPE
10
1400.000000
20
-209.000000
30
0.000000
11
1400.000000
21
-194.968596
31
0.000000
0
ARC
8
DECOUPE
10
1375.000000
20
-194.968596
30
0.000000
40
25.000000
50
0.000000
51
72.030860
0
LINE
8
DECOUPE
10
1382.712617
20
-171.188025
30
0.000000
11
1056.170094
21
-65.282342
31
0.000000
0
ARC
8
DECOUPE
10
1050.000000
20
-84.306798
30
0.000000
40
20.000000
50
72.030860
51
180.000000
0
ARC
8
DECOUPE
10
1350.022566
20
-70.598253
30
0.000000
40
40.598253
50
0.000000
51
180.000000
0
ARC
8
DECOUPE
10
1350.022566
20
-70.598253
30
0.000000
40
40.598253
50
180.000000
51
0.000000
0
ARC
8
DECOUPE
10
1272.112152
20
-58.279963
30
0.000000
40
28.279963
50
0.000000
51
180.000000
0
ARC
8
DECOUPE
10
1272.112152
20
-58.279963
30
0.000000
40
28.279963
50
180.000000
51
0.000000
0
ARC
8
DECOUPE
10
1215.249104
20
-49.289438
30
0.000000
40
19.289438
50
0.000000
51
180.000000
0
ARC
8
DECOUPE
10
1215.249104
20
-49.289438
30
0.000000
40
19.289438
50
180.000000
51
0.000000
0
ARC
8
DECOUPE
10
1173.747511
20
-42.727687
30
0.000000
40
12.727687
50
0.000000
51
180.000000
0
ARC
8
DECOUPE
10
1173.747511
20
-42.727687
30
0.000000
40
12.727687
50
180.000000
51
0.000000
0
ARC
8
DECOUPE
10
1579.977434
20
-70.598253
30
0.000000
40
40.598253
50
0.000000
51
180.000000
0
ARC
8
DECOUPE
10
1579.977434
20
-70.598253
30
0.000000
40
40.598253
50
180.000000
51
0.000000
0
ARC
8
DECOUPE
10
1657.887848
20
-58.279963
30
0.000000
40
28.279963
50
0.000000
51
180.000000
0
ARC
8
DECOUPE
10
1657.887848
20
-58.279963
30
0.000000
40
28.279963
50
180.000000
51
0.000000
0
ARC
8
DECOUPE
10
1714.750896
20
-49.289438
30
0.000000
40
19.289438
50
0.000000
51
180.000000
0
ARC
8
DECOUPE
10
1714.750896
20
-49.289438
30
0.000000
40
19.289438
50
180.000000
51
0.000000
0
ARC
8
DECOUPE
10
1756.252489
20
-42.727687
30
0.000000
40
12.727687
50
0.000000
51
180.000000
0
ARC
8
DECOUPE
10
1756.252489
20
-42.727687
30
0.000000
40
12.727687
50
180.000000
51
0.000000
0
ARC
8
DECOUPE
10
1180.000000
20
-420.000000
30
0.000000
40
10.000000
50
0.000000
51
180.000000
0
ARC
8
DECOUPE
10
1180.000000
20
-420.000000
30
0.000000
40
10.000000
50
180.000000
51
0.000000
0
ARC
8
DECOUPE
10
1275.000000
20
-420.000000
30
0.000000
40
10.000000
50
0.000000
51
180.000000
0
ARC
8
DECOUPE
10
1275.000000
20
-420.000000
30
0.000000
40
10.000000
50
180.000000
51
0.000000
0
ARC
8
DECOUPE
10
1370.000000
20
-420.000000
30
0.000000
40
10.000000
50
0.000000
51
180.000000
0
ARC
8
DECOUPE
10
1370.000000
20
-420.000000
30
0.000000
40
10.000000
50
180.000000
51
0.000000
0
ARC
8
DECOUPE
10
1465.000000
20
-420.000000
30
0.000000
40
10.000000
50
0.000000
51
180.000000
0
ARC
8
DECOUPE
10
1465.000000
20
-420.000000
30
0.000000
40
10.000000
50
180.000000
51
0.000000
0
ARC
8
DECOUPE
10
1560.000000
20
-420.000000
30
0.000000
40
10.000000
50
0.000000
51
180.000000
0
ARC
8
DECOUPE
10
1560.000000
20
-420.000000
30
0.000000
40
10.000000
50
180.000000
51
0.000000
0
ARC
8
DECOUPE
10
1655.000000
20
-420.000000
30
0.000000
40
10.000000
50
0.000000
51
180.000000
0
ARC
8
DECOUPE
10
1655.000000
20
-420.000000
30
0.000000
40
10.000000
50
180.000000
51
0.000000
0
ARC
8
DECOUPE
10
1750.000000
20
-420.000000
30
0.000000
40
10.000000
50
0.000000
51
180.000000
0
ARC
8
DECOUPE
10
1750.000000
20
-420.000000
30
0.000000
40
10.000000
50
180.000000
51
0.000000
0
LINE
8
DECOUPE
10
1414.000000
20
-193.200000
30
0.000000
11
1414.000000
21
-178.400000
31
0.000000
0
ARC
8
DECOUPE
10
1421.000000
20
-178.400000
30
0.000000
40
7.000000
50
0.000000
51
180.000000
0
LINE
8
DECOUPE
10
1428.000000
20
-178.400000
30
0.000000
11
1428.000000
21
-193.200000
31
0.000000
0
ARC
8
DECOUPE
10
1421.000000
20
-193.200000
30
0.000000
40
7.000000
50
180.000000
51
0.000000
0
LINE
8
DECOUPE
10
1502.000000
20
-193.200000
30
0.000000
11
1502.000000
21
-178.400000
31
0.000000
0
ARC
8
DECOUPE
10
1509.000000
20
-178.400000
30
0.000000
40
7.000000
50
0.000000
51
180.000000
0
LINE
8
DECOUPE
10
1516.000000
20
-178.400000
30
0.000000
11
1516.000000
21
-193.200000
31
0.000000
0
ARC
8
DECOUPE
10
1509.000000
20
-193.200000
30
0.000000
40
7.000000
50
180.000000
51
0.000000
0
LINE
8
DECOUPE
10
1443.000000
20
-118.288297
30
0.000000
11
1443.000000
21
-179.573586
31
0.000000
0
ARC
8
DECOUPE
10
1447.000000
20
-179.573586
30
0.000000
40
4.000000
50
180.000000
51
270.000000
0
LINE
8
DECOUPE
10
1447.000000
20
-183.573586
30
0.000000
11
1483.000000
21
-183.573586
31
0.000000
0
ARC
8
DECOUPE
10
1483.000000
20
-179.573586
30
0.000000
40
4.000000
50
270.000000
51
0.000000
0
LINE
8
DECOUPE
10
1487.000000
20
-179.573586
30
0.000000
11
1487.000000
21
-118.288297
31
0.000000
0
ARC
8
DECOUPE
10
1483.000000
20
-118.288297
30
0.000000
40
4.000000
50
0.000000
51
90.000000
0
LINE
8
DECOUPE
10
1483.000000
20
-114.288297
30
0.000000
11
1447.000000
21
-114.288297
31
0.000000
0
ARC
8
DECOUPE
10
1447.000000
20
-118.288297
30
0.000000
40
4.000000
50
90.000000
51
180.000000
0
LINE
8
DECOUPE
10
1439.000000
20
-60.088297
30
0.000000
11
1439.000000
21
-76.488297
31
0.000000
0
ARC
8
DECOUPE
10
1441.000000
20
-76.488297
30
0.000000
40
2.000000
50
180.000000
51
270.000000
0
LINE
8
DECOUPE
10
1441.000000
20
-78.488297
30
0.000000
11
1489.000000
21
-78.488297
31
0.000000
0
ARC
8
DECOUPE
10
1489.000000
20
-76.488297
30
0.000000
40
2.000000
50
270.000000
51
0.000000
0
LINE
8
DECOUPE
10
1491.000000
20
-76.488297
30
0.000000
11
1491.000000
21
-60.088297
31
0.000000
0
ARC
8
DECOUPE
10
1489.000000
20
-60.088297
30
0.000000
40
2.000000
50
0.000000
51
90.000000
0
LINE
8
DECOUPE
10
1489.000000
20
-58.088297
30
0.000000
11
1441.000000
21
-58.088297
31
0.000000
0
ARC
8
DECOUPE
10
1441.000000
20
-60.088297
30
0.000000
40
2.000000
50
90.000000
51
180.000000
0
ARC
8
DECOUPE
10
1007.500000
20
-390.000000
30
0.000000
40
5.500000
50
0.000000
51
180.000000
0
ARC
8
DECOUPE
10
1007.500000
20
-390.000000
30
0.000000
40
5.500000
50
180.000000
51
0.000000
0
ARC
8
DECOUPE
10
1007.500000
20
-50.000000
30
0.000000
40
5.500000
50
0.000000
51
180.000000
0
ARC
8
DECOUPE
10
1007.500000
20
-50.000000
30
0.000000
40
5.500000
50
180.000000
51
0.000000
0
ARC
8
DECOUPE
10
1215.000000
20
-98.397372
30
0.000000
40
5.500000
50
0.000000
51
180.000000
0
ARC
8
DECOUPE
10
1215.000000
20
-98.397372
30
0.000000
40
5.500000
50
180.000000
51
0.000000
0
ARC
8
DECOUPE
10
1922.500000
20
-390.000000
30
0.000000
40
5.500000
50
0.000000
51
180.000000
0
ARC
8
DECOUPE
10
1922.500000
20
-390.000000
30
0.000000
40
5.500000
50
180.000000
51
0.000000
0
ARC
8
DECOUPE
10
1922.500000
20
-50.000000
30
0.000000
40
5.500000
50
0.000000
51
180.000000
0
ARC
8
DECOUPE
10
1922.500000
20
-50.000000
30
0.000000
40
5.500000
50
180.000000
51
0.000000
0
ARC
8
DECOUPE
10
1715.000000
20
-98.397372
30
0.000000
40
5.500000
50
0.000000
51
180.000000
0
ARC
8
DECOUPE
10
1715.000000
20
-98.397372
30
0.000000
40
5.500000
50
180.000000
51
0.000000
0
ARC
8
DECOUPE
10
1413.000000
20
-137.288297
30
0.000000
40
5.500000
50
0.000000
51
180.000000
0
ARC
8
DECOUPE
10
1413.000000
20
-137.288297
30
0.000000
40
5.500000
50
180.000000
51
0.000000
0
ARC
8
DECOUPE
10
1517.000000
20
-137.288297
30
0.000000
40
5.500000
50
0.000000
51
180.000000
0
ARC
8
DECOUPE
10
1517.000000
20
-137.288297
30
0.000000
40
5.500000
50
180.000000
51
0.000000
0
ARC
8
DECOUPE
10
1465.000000
20
-29.044149
30
0.000000
40
5.500000
50
0.000000
51
180.000000
0
ARC
8
DECOUPE
10
1465.000000
20
-29.044149
30
0.000000
40
5.500000
50
180.000000
51
0.000000
0
LINE
8
GRAVURE
10
1518.500000
20
-174.900000
30
0.000000
11
1526.500000
21
-174.900000
31
0.000000
0
LINE
8
GRAVURE
10
1518.500000
20
-175.618282
30
0.000000
11
1523.000000
21
-175.618282
31
0.000000
0
LINE
8
GRAVURE
10
1518.500000
20
-176.352181
30
0.000000
11
1526.500000
21
-176.352181
31
0.000000
0
LINE
8
GRAVURE
10
1518.500000
20
-177.101913
30
0.000000
11
1523.000000
21
-177.101913
31
0.000000
0
LINE
8
GRAVURE
10
1518.500000
20
-177.867623
30
0.000000
11
1526.500000
21
-177.867623
31
0.000000
0
LINE
8
GRAVURE
10
1518.500000
20
-178.649373
30
0.000000
11
1523.000000
21
-178.649373
31
0.000000
0
LINE
8
GRAVURE
10
1518.500000
20
-179.447124
30
0.000000
11
1526.500000
21
-179.447124
31
0.000000
0
LINE
8
GRAVURE
10
1518.500000
20
-180.260719
30
0.000000
11
1523.000000
21
-180.260719
31
0.000000
0
LINE
8
GRAVURE
10
1518.500000
20
-181.089868
30
0.000000
11
1526.500000
21
-181.089868
31
0.000000
0
LINE
8
GRAVURE
10
1518.500000
20
-181.934125
30
0.000000
11
1523.000000
21
-181.934125
31
0.000000
0
LINE
8
GRAVURE
10
1518.500000
20
-182.792878
30
0.000000
11
1526.500000
21
-182.792878
31
0.000000
0
LINE
8
GRAVURE
10
1518.500000
20
-183.665331
30
0.000000
11
1523.000000
21
-183.665331
31
0.000000
0
LINE
8
GRAVURE
10
1518.500000
20
-184.550499
30
0.000000
11
1526.500000
21
-184.550499
31
0.000000
0
TEXT
8
TEXTE
10
985.000000
20
-452.000000
30
0.000000
40
6.000000
1
flanc 2/2
0
LINE
8
DECOUPE
10
1979.000000
20
-430.000000
30
0.000000
11
1979.000000
21
-437.000000
31
0.000000
0
ARC
8
DECOUPE
10
1982.000000
20
-437.000000
30
0.000000
40
3.000000
50
180.000000
51
270.000000
0
LINE
8
DECOUPE
10
1982.000000
20
-440.000000
30
0.000000
11
2036.000000
21
-440.000000
31
0.000000
0
ARC
8
DECOUPE
10
2036.000000
20
-437.000000
30
0.000000
40
3.000000
50
270.000000
51
0.000000
0
LINE
8
DECOUPE
10
2039.000000
20
-437.000000
30
0.000000
11
2039.000000
21
-423.000000
31
0.000000
0
ARC
8
DECOUPE
10
2036.000000
20
-423.000000
30
0.000000
40
3.000000
50
0.000000
51
90.000000
0
LINE
8
DECOUPE
10
2036.000000
20
-420.000000
30
0.000000
11
2029.153016
21
-420.000000
31
0.000000
0
LINE
8
DECOUPE
10
2029.153016
20
-420.000000
30
0.000000
11
2029.153016
21
-418.087723
31
0.000000
0
ARC
8
DECOUPE
10
2028.653016
20
-418.087723
30
0.000000
40
0.500000
50
0.000000
51
52.000000
0
LINE
8
DECOUPE
10
2028.960846
20
-417.693718
30
0.000000
11
2023.960846
21
-413.787290
31
0.000000
0
ARC
8
DECOUPE
10
2023.653016
20
-414.181295
30
0.000000
40
0.500000
50
52.000000
51
180.000000
0
LINE
8
DECOUPE
10
2023.153016
20
-414.181295
30
0.000000
11
2023.153016
21
-420.000000
31
0.000000
0
LINE
8
DECOUPE
10
2023.153016
20
-420.000000
30
0.000000
11
1994.000000
21
-420.000000
31
0.000000
0
ARC
8
DECOUPE
10
1994.000000
20
-417.000000
30
0.000000
40
3.000000
50
180.000000
51
270.000000
0
LINE
8
DECOUPE
10
1991.000000
20
-417.000000
30
0.000000
11
1991.000000
21
-317.000000
31
0.000000
0
ARC
8
DECOUPE
10
1988.000000
20
-317.000000
30
0.000000
40
3.000000
50
360.000000
51
90.000000
0
LINE
8
DECOUPE
10
1988.000000
20
-314.000000
30
0.000000
11
1971.000000
21
-314.000000
31
0.000000
0
ARC
8
DECOUPE
10
1971.000000
20
-315.000000
30
0.000000
40
1.000000
50
90.000000
51
180.000000
0
LINE
8
DECOUPE
10
1970.000000
20
-315.000000
30
0.000000
11
1970.000000
21
-322.000000
31
0.000000
0
ARC
8
DECOUPE
10
1971.000000
20
-322.000000
30
0.000000
40
1.000000
50
180.000000
51
270.000000
0
LINE
8
DECOUPE
10
1971.000000
20
-323.000000
30
0.000000
11
1974.000000
21
-323.000000
31
0.000000
0
ARC
8
DECOUPE
10
1974.000000
20
-322.000000
30
0.000000
40
1.000000
50
270.000000
51
0.000000
0
LINE
8
DECOUPE
10
1975.000000
20
-322.000000
30
0.000000
11
1975.000000
21
-320.500000
31
0.000000
0
ARC
8
DECOUPE
10
1975.500000
20
-320.500000
30
0.000000
40
0.500000
50
90.000000
51
180.000000
0
LINE
8
DECOUPE
10
1975.500000
20
-320.000000
30
0.000000
11
1979.000000
21
-320.000000
31
0.000000
0
LINE
8
DECOUPE
10
1979.000000
20
-320.000000
30
0.000000
11
1979.000000
21
-354.000000
31
0.000000
0
LINE
8
DECOUPE
10
1979.000000
20
-354.000000
30
0.000000
11
1971.000000
21
-354.000000
31
0.000000
0
ARC
8
DECOUPE
10
1971.000000
20
-355.000000
30
0.000000
40
1.000000
50
90.000000
51
180.000000
0
LINE
8
DECOUPE
10
1970.000000
20
-355.000000
30
0.000000
11
1970.000000
21
-362.000000
31
0.000000
0
ARC
8
DECOUPE
10
1971.000000
20
-362.000000
30
0.000000
40
1.000000
50
180.000000
51
270.000000
0
LINE
8
DECOUPE
10
1971.000000
20
-363.000000
30
0.000000
11
1974.000000
21
-363.000000
31
0.000000
0
ARC
8
DECOUPE
10
1974.000000
20
-362.000000
30
0.000000
40
1.000000
50
270.000000
51
0.000000
0
LINE
8
DECOUPE
10
1975.000000
20
-362.000000
30
0.000000
11
1975.000000
21
-360.500000
31
0.000000
0
ARC
8
DECOUPE
10
1975.500000
20
-360.500000
30
0.000000
40
0.500000
50
90.000000
51
180.000000
0
LINE
8
DECOUPE
10
1975.500000
20
-360.000000
30
0.000000
11
1979.000000
21
-360.000000
31
0.000000
0
LINE
8
DECOUPE
10
1979.000000
20
-360.000000
30
0.000000
11
1979.000000
21
-384.000000
31
0.000000
0
LINE
8
DECOUPE
10
1979.000000
20
-384.000000
30
0.000000
11
1971.000000
21
-384.000000
31
0.000000
0
ARC
8
DECOUPE
10
1971.000000
20
-385.000000
30
0.000000
40
1.000000
50
90.000000
51
180.000000
0
LINE
8
DECOUPE
10
1970.000000
20
-385.000000
30
0.000000
11
1970.000000
21
-392.000000
31
0.000000
0
ARC
8
DECOUPE
10
1971.000000
20
-392.000000
30
0.000000
40
1.000000
50
180.000000
51
270.000000
0
LINE
8
DECOUPE
10
1971.000000
20
-393.000000
30
0.000000
11
1974.000000
21
-393.000000
31
0.000000
0
ARC
8
DECOUPE
10
1974.000000
20
-392.000000
30
0.000000
40
1.000000
50
270.000000
51
0.000000
0
LINE
8
DECOUPE
10
1975.000000
20
-392.000000
30
0.000000
11
1975.000000
21
-390.500000
31
0.000000
0
ARC
8
DECOUPE
10
1975.500000
20
-390.500000
30
0.000000
40
0.500000
50
90.000000
51
180.000000
0
LINE
8
DECOUPE
10
1975.500000
20
-390.000000
30
0.000000
11
1979.000000
21
-390.000000
31
0.000000
0
LINE
8
DECOUPE
10
1979.000000
20
-390.000000
30
0.000000
11
1979.000000
21
-424.000000
31
0.000000
0
LINE
8
DECOUPE
10
1979.000000
20
-424.000000
30
0.000000
11
1971.000000
21
-424.000000
31
0.000000
0
ARC
8
DECOUPE
10
1971.000000
20
-425.000000
30
0.000000
40
1.000000
50
90.000000
51
180.000000
0
LINE
8
DECOUPE
10
1970.000000
20
-425.000000
30
0.000000
11
1970.000000
21
-432.000000
31
0.000000
0
ARC
8
DECOUPE
10
1971.000000
20
-432.000000
30
0.000000
40
1.000000
50
180.000000
51
270.000000
0
LINE
8
DECOUPE
10
1971.000000
20
-433.000000
30
0.000000
11
1974.000000
21
-433.000000
31
0.000000
0
ARC
8
DECOUPE
10
1974.000000
20
-432.000000
30
0.000000
40
1.000000
50
270.000000
51
0.000000
0
LINE
8
DECOUPE
10
1975.000000
20
-432.000000
30
0.000000
11
1975.000000
21
-430.500000
31
0.000000
0
ARC
8
DECOUPE
10
1975.500000
20
-430.500000
30
0.000000
40
0.500000
50
90.000000
51
180.000000
0
LINE
8
DECOUPE
10
1975.500000
20
-430.000000
30
0.000000
11
1979.000000
21
-430.000000
31
0.000000
0
TEXT
8
TEXTE
10
1970.000000
20
-452.000000
30
0.000000
40
6.000000
1
crochet 1/4
0
LINE
8
DECOUPE
10
2073.000000
20
-430.000000
30
0.000000
11
2073.000000
21
-437.000000
31
0.000000
0
ARC
8
DECOUPE
10
2076.000000
20
-437.000000
30
0.000000
40
3.000000
50
180.000000
51
270.000000
0
LINE
8
DECOUPE
10
2076.000000
20
-440.000000
30
0.000000
11
2130.000000
21
-440.000000
31
0.000000
0
ARC
8
DECOUPE
10
2130.000000
20
-437.000000
30
0.000000
40
3.000000
50
270.000000
51
0.000000
0
LINE
8
DECOUPE
10
2133.000000
20
-437.000000
30
0.000000
11
2133.000000
21
-423.000000
31
0.000000
0
ARC
8
DECOUPE
10
2130.000000
20
-423.000000
30
0.000000
40
3.000000
50
0.000000
51
90.000000
0
LINE
8
DECOUPE
10
2130.000000
20
-420.000000
30
0.000000
11
2123.153016
21
-420.000000
31
0.000000
0
LINE
8
DECOUPE
10
2123.153016
20
-420.000000
30
0.000000
11
2123.153016
21
-418.087723
31
0.000000
0
ARC
8
DECOUPE
10
2122.653016
20
-418.087723
30
0.000000
40
0.500000
50
0.000000
51
52.000000
0
LINE
8
DECOUPE
10
2122.960846
20
-417.693718
30
0.000000
11
2117.960846
21
-413.787290
31
0.000000
0
ARC
8
DECOUPE
10
2117.653016
20
-414.181295
30
0.000000
40
0.500000
50
52.000000
51
180.000000
0
LINE
8
DECOUPE
10
2117.153016
20
-414.181295
30
0.000000
11
2117.153016
21
-420.000000
31
0.000000
0
LINE
8
DECOUPE
10
2117.153016
20
-420.000000
30
0.000000
11
2088.000000
21
-420.000000
31
0.000000
0
ARC
8
DECOUPE
10
2088.000000
20
-417.000000
30
0.000000
40
3.000000
50
180.000000
51
270.000000
0
LINE
8
DECOUPE
10
2085.000000
20
-417.000000
30
0.000000
11
2085.000000
21
-317.000000
31
0.000000
0
ARC
8
DECOUPE
10
2082.000000
20
-317.000000
30
0.000000
40
3.000000
50
360.000000
51
90.000000
0
LINE
8
DECOUPE
10
2082.000000
20
-314.000000
30
0.000000
11
2065.000000
21
-314.000000
31
0.000000
0
ARC
8
DECOUPE
10
2065.000000
20
-315.000000
30
0.000000
40
1.000000
50
90.000000
51
180.000000
0
LINE
8
DECOUPE
10
2064.000000
20
-315.000000
30
0.000000
11
2064.000000
21
-322.000000
31
0.000000
0
ARC
8
DECOUPE
10
2065.000000
20
-322.000000
30
0.000000
40
1.000000
50
180.000000
51
270.000000
0
LINE
8
DECOUPE
10
2065.000000
20
-323.000000
30
0.000000
11
2068.000000
21
-323.000000
31
0.000000
0
ARC
8
DECOUPE
10
2068.000000
20
-322.000000
30
0.000000
40
1.000000
50
270.000000
51
0.000000
0
LINE
8
DECOUPE
10
2069.000000
20
-322.000000
30
0.000000
11
2069.000000
21
-320.500000
31
0.000000
0
ARC
8
DECOUPE
10
2069.500000
20
-320.500000
30
0.000000
40
0.500000
50
90.000000
51
180.000000
0
LINE
8
DECOUPE
10
2069.500000
20
-320.000000
30
0.000000
11
2073.000000
21
-320.000000
31
0.000000
0
LINE
8
DECOUPE
10
2073.000000
20
-320.000000
30
0.000000
11
2073.000000
21
-354.000000
31
0.000000
0
LINE
8
DECOUPE
10
2073.000000
20
-354.000000
30
0.000000
11
2065.000000
21
-354.000000
31
0.000000
0
ARC
8
DECOUPE
10
2065.000000
20
-355.000000
30
0.000000
40
1.000000
50
90.000000
51
180.000000
0
LINE
8
DECOUPE
10
2064.000000
20
-355.000000
30
0.000000
11
2064.000000
21
-362.000000
31
0.000000
0
ARC
8
DECOUPE
10
2065.000000
20
-362.000000
30
0.000000
40
1.000000
50
180.000000
51
270.000000
0
LINE
8
DECOUPE
10
2065.000000
20
-363.000000
30
0.000000
11
2068.000000
21
-363.000000
31
0.000000
0
ARC
8
DECOUPE
10
2068.000000
20
-362.000000
30
0.000000
40
1.000000
50
270.000000
51
0.000000
0
LINE
8
DECOUPE
10
2069.000000
20
-362.000000
30
0.000000
11
2069.000000
21
-360.500000
31
0.000000
0
ARC
8
DECOUPE
10
2069.500000
20
-360.500000
30
0.000000
40
0.500000
50
90.000000
51
180.000000
0
LINE
8
DECOUPE
10
2069.500000
20
-360.000000
30
0.000000
11
2073.000000
21
-360.000000
31
0.000000
0
LINE
8
DECOUPE
10
2073.000000
20
-360.000000
30
0.000000
11
2073.000000
21
-384.000000
31
0.000000
0
LINE
8
DECOUPE
10
2073.000000
20
-384.000000
30
0.000000
11
2065.000000
21
-384.000000
31
0.000000
0
ARC
8
DECOUPE
10
2065.000000
20
-385.000000
30
0.000000
40
1.000000
50
90.000000
51
180.000000
0
LINE
8
DECOUPE
10
2064.000000
20
-385.000000
30
0.000000
11
2064.000000
21
-392.000000
31
0.000000
0
ARC
8
DECOUPE
10
2065.000000
20
-392.000000
30
0.000000
40
1.000000
50
180.000000
51
270.000000
0
LINE
8
DECOUPE
10
2065.000000
20
-393.000000
30
0.000000
11
2068.000000
21
-393.000000
31
0.000000
0
ARC
8
DECOUPE
10
2068.000000
20
-392.000000
30
0.000000
40
1.000000
50
270.000000
51
0.000000
0
LINE
8
DECOUPE
10
2069.000000
20
-392.000000
30
0.000000
11
2069.000000
21
-390.500000
31
0.000000
0
ARC
8
DECOUPE
10
2069.500000
20
-390.500000
30
0.000000
40
0.500000
50
90.000000
51
180.000000
0
LINE
8
DECOUPE
10
2069.500000
20
-390.000000
30
0.000000
11
2073.000000
21
-390.000000
31
0.000000
0
LINE
8
DECOUPE
10
2073.000000
20
-390.000000
30
0.000000
11
2073.000000
21
-424.000000
31
0.000000
0
LINE
8
DECOUPE
10
2073.000000
20
-424.000000
30
0.000000
11
2065.000000
21
-424.000000
31
0.000000
0
ARC
8
DECOUPE
10
2065.000000
20
-425.000000
30
0.000000
40
1.000000
50
90.000000
51
180.000000
0
LINE
8
DECOUPE
10
2064.000000
20
-425.000000
30
0.000000
11
2064.000000
21
-432.000000
31
0.000000
0
ARC
8
DECOUPE
10
2065.000000
20
-432.000000
30
0.000000
40
1.000000
50
180.000000
51
270.000000
0
LINE
8
DECOUPE
10
2065.000000
20
-433.000000
30
0.000000
11
2068.000000
21
-433.000000
31
0.000000
0
ARC
8
DECOUPE
10
2068.000000
20
-432.000000
30
0.000000
40
1.000000
50
270.000000
51
0.000000
0
LINE
8
DECOUPE
10
2069.000000
20
-432.000000
30
0.000000
11
2069.000000
21
-430.500000
31
0.000000
0
ARC
8
DECOUPE
10
2069.500000
20
-430.500000
30
0.000000
40
0.500000
50
90.000000
51
180.000000
0
LINE
8
DECOUPE
10
2069.500000
20
-430.000000
30
0.000000
11
2073.000000
21
-430.000000
31
0.000000
0
TEXT
8
TEXTE
10
2064.000000
20
-452.000000
30
0.000000
40
6.000000
1
crochet 2/4
0
LINE
8
DECOUPE
10
2167.000000
20
-430.000000
30
0.000000
11
2167.000000
21
-437.000000
31
0.000000
0
ARC
8
DECOUPE
10
2170.000000
20
-437.000000
30
0.000000
40
3.000000
50
180.000000
51
270.000000
0
LINE
8
DECOUPE
10
2170.000000
20
-440.000000
30
0.000000
11
2224.000000
21
-440.000000
31
0.000000
0
ARC
8
DECOUPE
10
2224.000000
20
-437.000000
30
0.000000
40
3.000000
50
270.000000
51
0.000000
0
LINE
8
DECOUPE
10
2227.000000
20
-437.000000
30
0.000000
11
2227.000000
21
-423.000000
31
0.000000
0
ARC
8
DECOUPE
10
2224.000000
20
-423.000000
30
0.000000
40
3.000000
50
0.000000
51
90.000000
0
LINE
8
DECOUPE
10
2224.000000
20
-420.000000
30
0.000000
11
2217.153016
21
-420.000000
31
0.000000
0
LINE
8
DECOUPE
10
2217.153016
20
-420.000000
30
0.000000
11
2217.153016
21
-418.087723
31
0.000000
0
ARC
8
DECOUPE
10
2216.653016
20
-418.087723
30
0.000000
40
0.500000
50
0.000000
51
52.000000
0
LINE
8
DECOUPE
10
2216.960846
20
-417.693718
30
0.000000
11
2211.960846
21
-413.787290
31
0.000000
0
ARC
8
DECOUPE
10
2211.653016
20
-414.181295
30
0.000000
40
0.500000
50
52.000000
51
180.000000
0
LINE
8
DECOUPE
10
2211.153016
20
-414.181295
30
0.000000
11
2211.153016
21
-420.000000
31
0.000000
0
LINE
8
DECOUPE
10
2211.153016
20
-420.000000
30
0.000000
11
2182.000000
21
-420.000000
31
0.000000
0
ARC
8
DECOUPE
10
2182.000000
20
-417.000000
30
0.000000
40
3.000000
50
180.000000
51
270.000000
0
LINE
8
DECOUPE
10
2179.000000
20
-417.000000
30
0.000000
11
2179.000000
21
-317.000000
31
0.000000
0
ARC
8
DECOUPE
10
2176.000000
20
-317.000000
30
0.000000
40
3.000000
50
360.000000
51
90.000000
0
LINE
8
DECOUPE
10
2176.000000
20
-314.000000
30
0.000000
11
2159.000000
21
-314.000000
31
0.000000
0
ARC
8
DECOUPE
10
2159.000000
20
-315.000000
30
0.000000
40
1.000000
50
90.000000
51
180.000000
0
LINE
8
DECOUPE
10
2158.000000
20
-315.000000
30
0.000000
11
2158.000000
21
-322.000000
31
0.000000
0
ARC
8
DECOUPE
10
2159.000000
20
-322.000000
30
0.000000
40
1.000000
50
180.000000
51
270.000000
0
LINE
8
DECOUPE
10
2159.000000
20
-323.000000
30
0.000000
11
2162.000000
21
-323.000000
31
0.000000
0
ARC
8
DECOUPE
10
2162.000000
20
-322.000000
30
0.000000
40
1.000000
50
270.000000
51
0.000000
0
LINE
8
DECOUPE
10
2163.000000
20
-322.000000
30
0.000000
11
2163.000000
21
-320.500000
31
0.000000
0
ARC
8
DECOUPE
10
2163.500000
20
-320.500000
30
0.000000
40
0.500000
50
90.000000
51
180.000000
0
LINE
8
DECOUPE
10
2163.500000
20
-320.000000
30
0.000000
11
2167.000000
21
-320.000000
31
0.000000
0
LINE
8
DECOUPE
10
2167.000000
20
-320.000000
30
0.000000
11
2167.000000
21
-354.000000
31
0.000000
0
LINE
8
DECOUPE
10
2167.000000
20
-354.000000
30
0.000000
11
2159.000000
21
-354.000000
31
0.000000
0
ARC
8
DECOUPE
10
2159.000000
20
-355.000000
30
0.000000
40
1.000000
50
90.000000
51
180.000000
0
LINE
8
DECOUPE
10
2158.000000
20
-355.000000
30
0.000000
11
2158.000000
21
-362.000000
31
0.000000
0
ARC
8
DECOUPE
10
2159.000000
20
-362.000000
30
0.000000
40
1.000000
50
180.000000
51
270.000000
0
LINE
8
DECOUPE
10
2159.000000
20
-363.000000
30
0.000000
11
2162.000000
21
-363.000000
31
0.000000
0
ARC
8
DECOUPE
10
2162.000000
20
-362.000000
30
0.000000
40
1.000000
50
270.000000
51
0.000000
0
LINE
8
DECOUPE
10
2163.000000
20
-362.000000
30
0.000000
11
2163.000000
21
-360.500000
31
0.000000
0
ARC
8
DECOUPE
10
2163.500000
20
-360.500000
30
0.000000
40
0.500000
50
90.000000
51
180.000000
0
LINE
8
DECOUPE
10
2163.500000
20
-360.000000
30
0.000000
11
2167.000000
21
-360.000000
31
0.000000
0
LINE
8
DECOUPE
10
2167.000000
20
-360.000000
30
0.000000
11
2167.000000
21
-384.000000
31
0.000000
0
LINE
8
DECOUPE
10
2167.000000
20
-384.000000
30
0.000000
11
2159.000000
21
-384.000000
31
0.000000
0
ARC
8
DECOUPE
10
2159.000000
20
-385.000000
30
0.000000
40
1.000000
50
90.000000
51
180.000000
0
LINE
8
DECOUPE
10
2158.000000
20
-385.000000
30
0.000000
11
2158.000000
21
-392.000000
31
0.000000
0
ARC
8
DECOUPE
10
2159.000000
20
-392.000000
30
0.000000
40
1.000000
50
180.000000
51
270.000000
0
LINE
8
DECOUPE
10
2159.000000
20
-393.000000
30
0.000000
11
2162.000000
21
-393.000000
31
0.000000
0
ARC
8
DECOUPE
10
2162.000000
20
-392.000000
30
0.000000
40
1.000000
50
270.000000
51
0.000000
0
LINE
8
DECOUPE
10
2163.000000
20
-392.000000
30
0.000000
11
2163.000000
21
-390.500000
31
0.000000
0
ARC
8
DECOUPE
10
2163.500000
20
-390.500000
30
0.000000
40
0.500000
50
90.000000
51
180.000000
0
LINE
8
DECOUPE
10
2163.500000
20
-390.000000
30
0.000000
11
2167.000000
21
-390.000000
31
0.000000
0
LINE
8
DECOUPE
10
2167.000000
20
-390.000000
30
0.000000
11
2167.000000
21
-424.000000
31
0.000000
0
LINE
8
DECOUPE
10
2167.000000
20
-424.000000
30
0.000000
11
2159.000000
21
-424.000000
31
0.000000
0
ARC
8
DECOUPE
10
2159.000000
20
-425.000000
30
0.000000
40
1.000000
50
90.000000
51
180.000000
0
LINE
8
DECOUPE
10
2158.000000
20
-425.000000
30
0.000000
11
2158.000000
21
-432.000000
31
0.000000
0
ARC
8
DECOUPE
10
2159.000000
20
-432.000000
30
0.000000
40
1.000000
50
180.000000
51
270.000000
0
LINE
8
DECOUPE
10
2159.000000
20
-433.000000
30
0.000000
11
2162.000000
21
-433.000000
31
0.000000
0
ARC
8
DECOUPE
10
2162.000000
20
-432.000000
30
0.000000
40
1.000000
50
270.000000
51
0.000000
0
LINE
8
DECOUPE
10
2163.000000
20
-432.000000
30
0.000000
11
2163.000000
21
-430.500000
31
0.000000
0
ARC
8
DECOUPE
10
2163.500000
20
-430.500000
30
0.000000
40
0.500000
50
90.000000
51
180.000000
0
LINE
8
DECOUPE
10
2163.500000
20
-430.000000
30
0.000000
11
2167.000000
21
-430.000000
31
0.000000
0
TEXT
8
TEXTE
10
2158.000000
20
-452.000000
30
0.000000
40
6.000000
1
crochet 3/4
0
LINE
8
DECOUPE
10
2261.000000
20
-430.000000
30
0.000000
11
2261.000000
21
-437.000000
31
0.000000
0
ARC
8
DECOUPE
10
2264.000000
20
-437.000000
30
0.000000
40
3.000000
50
180.000000
51
270.000000
0
LINE
8
DECOUPE
10
2264.000000
20
-440.000000
30
0.000000
11
2318.000000
21
-440.000000
31
0.000000
0
ARC
8
DECOUPE
10
2318.000000
20
-437.000000
30
0.000000
40
3.000000
50
270.000000
51
0.000000
0
LINE
8
DECOUPE
10
2321.000000
20
-437.000000
30
0.000000
11
2321.000000
21
-423.000000
31
0.000000
0
ARC
8
DECOUPE
10
2318.000000
20
-423.000000
30
0.000000
40
3.000000
50
0.000000
51
90.000000
0
LINE
8
DECOUPE
10
2318.000000
20
-420.000000
30
0.000000
11
2311.153016
21
-420.000000
31
0.000000
0
LINE
8
DECOUPE
10
2311.153016
20
-420.000000
30
0.000000
11
2311.153016
21
-418.087723
31
0.000000
0
ARC
8
DECOUPE
10
2310.653016
20
-418.087723
30
0.000000
40
0.500000
50
0.000000
51
52.000000
0
LINE
8
DECOUPE
10
2310.960846
20
-417.693718
30
0.000000
11
2305.960846
21
-413.787290
31
0.000000
0
ARC
8
DECOUPE
10
2305.653016
20
-414.181295
30
0.000000
40
0.500000
50
52.000000
51
180.000000
0
LINE
8
DECOUPE
10
2305.153016
20
-414.181295
30
0.000000
11
2305.153016
21
-420.000000
31
0.000000
0
LINE
8
DECOUPE
10
2305.153016
20
-420.000000
30
0.000000
11
2276.000000
21
-420.000000
31
0.000000
0
ARC
8
DECOUPE
10
2276.000000
20
-417.000000
30
0.000000
40
3.000000
50
180.000000
51
270.000000
0
LINE
8
DECOUPE
10
2273.000000
20
-417.000000
30
0.000000
11
2273.000000
21
-317.000000
31
0.000000
0
ARC
8
DECOUPE
10
2270.000000
20
-317.000000
30
0.000000
40
3.000000
50
360.000000
51
90.000000
0
LINE
8
DECOUPE
10
2270.000000
20
-314.000000
30
0.000000
11
2253.000000
21
-314.000000
31
0.000000
0
ARC
8
DECOUPE
10
2253.000000
20
-315.000000
30
0.000000
40
1.000000
50
90.000000
51
180.000000
0
LINE
8
DECOUPE
10
2252.000000
20
-315.000000
30
0.000000
11
2252.000000
21
-322.000000
31
0.000000
0
ARC
8
DECOUPE
10
2253.000000
20
-322.000000
30
0.000000
40
1.000000
50
180.000000
51
270.000000
0
LINE
8
DECOUPE
10
2253.000000
20
-323.000000
30
0.000000
11
2256.000000
21
-323.000000
31
0.000000
0
ARC
8
DECOUPE
10
2256.000000
20
-322.000000
30
0.000000
40
1.000000
50
270.000000
51
0.000000
0
LINE
8
DECOUPE
10
2257.000000
20
-322.000000
30
0.000000
11
2257.000000
21
-320.500000
31
0.000000
0
ARC
8
DECOUPE
10
2257.500000
20
-320.500000
30
0.000000
40
0.500000
50
90.000000
51
180.000000
0
LINE
8
DECOUPE
10
2257.500000
20
-320.000000
30
0.000000
11
2261.000000
21
-320.000000
31
0.000000
0
LINE
8
DECOUPE
10
2261.000000
20
-320.000000
30
0.000000
11
2261.000000
21
-354.000000
31
0.000000
0
LINE
8
DECOUPE
10
2261.000000
20
-354.000000
30
0.000000
11
2253.000000
21
-354.000000
31
0.000000
0
ARC
8
DECOUPE
10
2253.000000
20
-355.000000
30
0.000000
40
1.000000
50
90.000000
51
180.000000
0
LINE
8
DECOUPE
10
2252.000000
20
-355.000000
30
0.000000
11
2252.000000
21
-362.000000
31
0.000000
0
ARC
8
DECOUPE
10
2253.000000
20
-362.000000
30
0.000000
40
1.000000
50
180.000000
51
270.000000
0
LINE
8
DECOUPE
10
2253.000000
20
-363.000000
30
0.000000
11
2256.000000
21
-363.000000
31
0.000000
0
ARC
8
DECOUPE
10
2256.000000
20
-362.000000
30
0.000000
40
1.000000
50
270.000000
51
0.000000
0
LINE
8
DECOUPE
10
2257.000000
20
-362.000000
30
0.000000
11
2257.000000
21
-360.500000
31
0.000000
0
ARC
8
DECOUPE
10
2257.500000
20
-360.500000
30
0.000000
40
0.500000
50
90.000000
51
180.000000
0
LINE
8
DECOUPE
10
2257.500000
20
-360.000000
30
0.000000
11
2261.000000
21
-360.000000
31
0.000000
0
LINE
8
DECOUPE
10
2261.000000
20
-360.000000
30
0.000000
11
2261.000000
21
-384.000000
31
0.000000
0
LINE
8
DECOUPE
10
2261.000000
20
-384.000000
30
0.000000
11
2253.000000
21
-384.000000
31
0.000000
0
ARC
8
DECOUPE
10
2253.000000
20
-385.000000
30
0.000000
40
1.000000
50
90.000000
51
180.000000
0
LINE
8
DECOUPE
10
2252.000000
20
-385.000000
30
0.000000
11
2252.000000
21
-392.000000
31
0.000000
0
ARC
8
DECOUPE
10
2253.000000
20
-392.000000
30
0.000000
40
1.000000
50
180.000000
51
270.000000
0
LINE
8
DECOUPE
10
2253.000000
20
-393.000000
30
0.000000
11
2256.000000
21
-393.000000
31
0.000000
0
ARC
8
DECOUPE
10
2256.000000
20
-392.000000
30
0.000000
40
1.000000
50
270.000000
51
0.000000
0
LINE
8
DECOUPE
10
2257.000000
20
-392.000000
30
0.000000
11
2257.000000
21
-390.500000
31
0.000000
0
ARC
8
DECOUPE
10
2257.500000
20
-390.500000
30
0.000000
40
0.500000
50
90.000000
51
180.000000
0
LINE
8
DECOUPE
10
2257.500000
20
-390.000000
30
0.000000
11
2261.000000
21
-390.000000
31
0.000000
0
LINE
8
DECOUPE
10
2261.000000
20
-390.000000
30
0.000000
11
2261.000000
21
-424.000000
31
0.000000
0
LINE
8
DECOUPE
10
2261.000000
20
-424.000000
30
0.000000
11
2253.000000
21
-424.000000
31
0.000000
0
ARC
8
DECOUPE
10
2253.000000
20
-425.000000
30
0.000000
40
1.000000
50
90.000000
51
180.000000
0
LINE
8
DECOUPE
10
2252.000000
20
-425.000000
30
0.000000
11
2252.000000
21
-432.000000
31
0.000000
0
ARC
8
DECOUPE
10
2253.000000
20
-432.000000
30
0.000000
40
1.000000
50
180.000000
51
270.000000
0
LINE
8
DECOUPE
10
2253.000000
20
-433.000000
30
0.000000
11
2256.000000
21
-433.000000
31
0.000000
0
ARC
8
DECOUPE
10
2256.000000
20
-432.000000
30
0.000000
40
1.000000
50
270.000000
51
0.000000
0
LINE
8
DECOUPE
10
2257.000000
20
-432.000000
30
0.000000
11
2257.000000
21
-430.500000
31
0.000000
0
ARC
8
DECOUPE
10
2257.500000
20
-430.500000
30
0.000000
40
0.500000
50
90.000000
51
180.000000
0
LINE
8
DECOUPE
10
2257.500000
20
-430.000000
30
0.000000
11
2261.000000
21
-430.000000
31
0.000000
0
TEXT
8
TEXTE
10
2252.000000
20
-452.000000
30
0.000000
40
6.000000
1
crochet 4/4
0
LINE
8
DECOUPE
10
2346.000000
20
-391.739744
30
0.000000
11
2346.000000
21
-418.805092
31
0.000000
0
ARC
8
DECOUPE
10
2354.000000
20
-418.805092
30
0.000000
40
8.000000
50
180.000000
51
257.905243
0
LINE
8
DECOUPE
10
2352.323767
20
-426.627511
30
0.000000
11
2413.485651
21
-439.733629
31
0.000000
0
ARC
8
DECOUPE
10
2416.000000
20
-428.000000
30
0.000000
40
12.000000
50
257.905243
51
282.094757
0
LINE
8
DECOUPE
10
2418.514349
20
-439.733629
30
0.000000
11
2479.676233
21
-426.627511
31
0.000000
0
ARC
8
DECOUPE
10
2478.000000
20
-418.805092
30
0.000000
40
8.000000
50
282.094757
51
0.000000
0
LINE
8
DECOUPE
10
2486.000000
20
-418.805092
30
0.000000
11
2486.000000
21
-391.739744
31
0.000000
0
ARC
8
DECOUPE
10
2478.000000
20
-391.739744
30
0.000000
40
8.000000
50
0.000000
51
77.905243
0
LINE
8
DECOUPE
10
2479.676233
20
-383.917325
30
0.000000
11
2418.514349
21
-370.811207
31
0.000000
0
ARC
8
DECOUPE
10
2416.000000
20
-382.544836
30
0.000000
40
12.000000
50
77.905243
51
102.094757
0
LINE
8
DECOUPE
10
2413.485651
20
-370.811207
30
0.000000
11
2352.323767
21
-383.917325
31
0.000000
0
ARC
8
DECOUPE
10
2354.000000
20
-391.739744
30
0.000000
40
8.000000
50
102.094757
51
180.000000
0
ARC
8
DECOUPE
10
2416.000000
20
-405.272418
30
0.000000
40
9.000000
50
0.000000
51
180.000000
0
ARC
8
DECOUPE
10
2416.000000
20
-405.272418
30
0.000000
40
9.000000
50
180.000000
51
0.000000
0
ARC
8
DECOUPE
10
2364.000000
20
-405.272418
30
0.000000
40
5.500000
50
0.000000
51
180.000000
0
ARC
8
DECOUPE
10
2364.000000
20
-405.272418
30
0.000000
40
5.500000
50
180.000000
51
0.000000
0
ARC
8
DECOUPE
10
2468.000000
20
-405.272418
30
0.000000
40
5.500000
50
0.000000
51
180.000000
0
ARC
8
DECOUPE
10
2468.000000
20
-405.272418
30
0.000000
40
5.500000
50
180.000000
51
0.000000
0
TEXT
8
TEXTE
10
2346.000000
20
-452.000000
30
0.000000
40
6.000000
1
support 1/2
0
LINE
8
DECOUPE
10
2511.000000
20
-391.739744
30
0.000000
11
2511.000000
21
-418.805092
31
0.000000
0
ARC
8
DECOUPE
10
2519.000000
20
-418.805092
30
0.000000
40
8.000000
50
180.000000
51
257.905243
0
LINE
8
DECOUPE
10
2517.323767
20
-426.627511
30
0.000000
11
2578.485651
21
-439.733629
31
0.000000
0
ARC
8
DECOUPE
10
2581.000000
20
-428.000000
30
0.000000
40
12.000000
50
257.905243
51
282.094757
0
LINE
8
DECOUPE
10
2583.514349
20
-439.733629
30
0.000000
11
2644.676233
21
-426.627511
31
0.000000
0
ARC
8
DECOUPE
10
2643.000000
20
-418.805092
30
0.000000
40
8.000000
50
282.094757
51
0.000000
0
LINE
8
DECOUPE
10
2651.000000
20
-418.805092
30
0.000000
11
2651.000000
21
-391.739744
31
0.000000
0
ARC
8
DECOUPE
10
2643.000000
20
-391.739744
30
0.000000
40
8.000000
50
0.000000
51
77.905243
0
LINE
8
DECOUPE
10
2644.676233
20
-383.917325
30
0.000000
11
2583.514349
21
-370.811207
31
0.000000
0
ARC
8
DECOUPE
10
2581.000000
20
-382.544836
30
0.000000
40
12.000000
50
77.905243
51
102.094757
0
LINE
8
DECOUPE
10
2578.485651
20
-370.811207
30
0.000000
11
2517.323767
21
-383.917325
31
0.000000
0
ARC
8
DECOUPE
10
2519.000000
20
-391.739744
30
0.000000
40
8.000000
50
102.094757
51
180.000000
0
ARC
8
DECOUPE
10
2581.000000
20
-405.272418
30
0.000000
40
9.000000
50
0.000000
51
180.000000
0
ARC
8
DECOUPE
10
2581.000000
20
-405.272418
30
0.000000
40
9.000000
50
180.000000
51
0.000000
0
ARC
8
DECOUPE
10
2529.000000
20
-405.272418
30
0.000000
40
5.500000
50
0.000000
51
180.000000
0
ARC
8
DECOUPE
10
2529.000000
20
-405.272418
30
0.000000
40
5.500000
50
180.000000
51
0.000000
0
ARC
8
DECOUPE
10
2633.000000
20
-405.272418
30
0.000000
40
5.500000
50
0.000000
51
180.000000
0
ARC
8
DECOUPE
10
2633.000000
20
-405.272418
30
0.000000
40
5.500000
50
180.000000
51
0.000000
0
TEXT
8
TEXTE
10
2511.000000
20
-452.000000
30
0.000000
40
6.000000
1
support 2/2
0
LINE
8
DECOUPE
10
2686.200000
20
-402.500000
30
0.000000
11
2686.200000
21
-438.000000
31
0.000000
0
ARC
8
DECOUPE
10
2688.200000
20
-438.000000
30
0.000000
40
2.000000
50
180.000000
51
270.000000
0
LINE
8
DECOUPE
10
2688.200000
20
-440.000000
30
0.000000
11
2743.800000
21
-440.000000
31
0.000000
0
ARC
8
DECOUPE
10
2743.800000
20
-438.000000
30
0.000000
40
2.000000
50
270.000000
51
0.000000
0
LINE
8
DECOUPE
10
2745.800000
20
-438.000000
30
0.000000
11
2745.800000
21
-402.500000
31
0.000000
0
LINE
8
DECOUPE
10
2745.800000
20
-402.500000
30
0.000000
11
2744.300000
21
-401.000000
31
0.000000
0
LINE
8
DECOUPE
10
2744.300000
20
-401.000000
30
0.000000
11
2745.800000
21
-399.500000
31
0.000000
0
LINE
8
DECOUPE
10
2745.800000
20
-399.500000
30
0.000000
11
2747.300000
21
-401.000000
31
0.000000
0
LINE
8
DECOUPE
10
2747.300000
20
-401.000000
30
0.000000
11
2754.000000
21
-401.000000
31
0.000000
0
ARC
8
DECOUPE
10
2754.000000
20
-399.000000
30
0.000000
40
2.000000
50
270.000000
51
0.000000
0
LINE
8
DECOUPE
10
2756.000000
20
-399.000000
30
0.000000
11
2756.000000
21
-383.000000
31
0.000000
0
ARC
8
DECOUPE
10
2754.000000
20
-383.000000
30
0.000000
40
2.000000
50
0.000000
51
90.000000
0
LINE
8
DECOUPE
10
2754.000000
20
-381.000000
30
0.000000
11
2747.300000
21
-381.000000
31
0.000000
0
LINE
8
DECOUPE
10
2747.300000
20
-381.000000
30
0.000000
11
2745.800000
21
-382.500000
31
0.000000
0
LINE
8
DECOUPE
10
2745.800000
20
-382.500000
30
0.000000
11
2744.300000
21
-381.000000
31
0.000000
0
LINE
8
DECOUPE
10
2744.300000
20
-381.000000
30
0.000000
11
2745.800000
21
-379.500000
31
0.000000
0
LINE
8
DECOUPE
10
2745.800000
20
-379.500000
30
0.000000
11
2745.800000
21
-377.000000
31
0.000000
0
ARC
8
DECOUPE
10
2743.800000
20
-377.000000
30
0.000000
40
2.000000
50
0.000000
51
90.000000
0
LINE
8
DECOUPE
10
2743.800000
20
-375.000000
30
0.000000
11
2688.200000
21
-375.000000
31
0.000000
0
ARC
8
DECOUPE
10
2688.200000
20
-377.000000
30
0.000000
40
2.000000
50
90.000000
51
180.000000
0
LINE
8
DECOUPE
10
2686.200000
20
-377.000000
30
0.000000
11
2686.200000
21
-379.500000
31
0.000000
0
LINE
8
DECOUPE
10
2686.200000
20
-379.500000
30
0.000000
11
2687.700000
21
-381.000000
31
0.000000
0
LINE
8
DECOUPE
10
2687.700000
20
-381.000000
30
0.000000
11
2686.200000
21
-382.500000
31
0.000000
0
LINE
8
DECOUPE
10
2686.200000
20
-382.500000
30
0.000000
11
2684.700000
21
-381.000000
31
0.000000
0
LINE
8
DECOUPE
10
2684.700000
20
-381.000000
30
0.000000
11
2678.000000
21
-381.000000
31
0.000000
0
ARC
8
DECOUPE
10
2678.000000
20
-383.000000
30
0.000000
40
2.000000
50
90.000000
51
180.000000
0
LINE
8
DECOUPE
10
2676.000000
20
-383.000000
30
0.000000
11
2676.000000
21
-399.000000
31
0.000000
0
ARC
8
DECOUPE
10
2678.000000
20
-399.000000
30
0.000000
40
2.000000
50
180.000000
51
270.000000
0
LINE
8
DECOUPE
10
2678.000000
20
-401.000000
30
0.000000
11
2684.700000
21
-401.000000
31
0.000000
0
LINE
8
DECOUPE
10
2684.700000
20
-401.000000
30
0.000000
11
2686.200000
21
-399.500000
31
0.000000
0
LINE
8
DECOUPE
10
2686.200000
20
-399.500000
30
0.000000
11
2687.700000
21
-401.000000
31
0.000000
0
LINE
8
DECOUPE
10
2687.700000
20
-401.000000
30
0.000000
11
2686.200000
21
-402.500000
31
0.000000
0
ARC
8
DECOUPE
10
2716.000000
20
-420.000000
30
0.000000
40
5.500000
50
0.000000
51
180.000000
0
ARC
8
DECOUPE
10
2716.000000
20
-420.000000
30
0.000000
40
5.500000
50
180.000000
51
0.000000
0
TEXT
8
TEXTE
10
2676.000000
20
-452.000000
30
0.000000
40
6.000000
1
traverse 1/6
0
LINE
8
DECOUPE
10
2791.200000
20
-402.500000
30
0.000000
11
2791.200000
21
-438.000000
31
0.000000
0
ARC
8
DECOUPE
10
2793.200000
20
-438.000000
30
0.000000
40
2.000000
50
180.000000
51
270.000000
0
LINE
8
DECOUPE
10
2793.200000
20
-440.000000
30
0.000000
11
2848.800000
21
-440.000000
31
0.000000
0
ARC
8
DECOUPE
10
2848.800000
20
-438.000000
30
0.000000
40
2.000000
50
270.000000
51
0.000000
0
LINE
8
DECOUPE
10
2850.800000
20
-438.000000
30
0.000000
11
2850.800000
21
-402.500000
31
0.000000
0
LINE
8
DECOUPE
10
2850.800000
20
-402.500000
30
0.000000
11
2849.300000
21
-401.000000
31
0.000000
0
LINE
8
DECOUPE
10
2849.300000
20
-401.000000
30
0.000000
11
2850.800000
21
-399.500000
31
0.000000
0
LINE
8
DECOUPE
10
2850.800000
20
-399.500000
30
0.000000
11
2852.300000
21
-401.000000
31
0.000000
0
LINE
8
DECOUPE
10
2852.300000
20
-401.000000
30
0.000000
11
2859.000000
21
-401.000000
31
0.000000
0
ARC
8
DECOUPE
10
2859.000000
20
-399.000000
30
0.000000
40
2.000000
50
270.000000
51
0.000000
0
LINE
8
DECOUPE
10
2861.000000
20
-399.000000
30
0.000000
11
2861.000000
21
-383.000000
31
0.000000
0
ARC
8
DECOUPE
10
2859.000000
20
-383.000000
30
0.000000
40
2.000000
50
0.000000
51
90.000000
0
LINE
8
DECOUPE
10
2859.000000
20
-381.000000
30
0.000000
11
2852.300000
21
-381.000000
31
0.000000
0
LINE
8
DECOUPE
10
2852.300000
20
-381.000000
30
0.000000
11
2850.800000
21
-382.500000
31
0.000000
0
LINE
8
DECOUPE
10
2850.800000
20
-382.500000
30
0.000000
11
2849.300000
21
-381.000000
31
0.000000
0
LINE
8
DECOUPE
10
2849.300000
20
-381.000000
30
0.000000
11
2850.800000
21
-379.500000
31
0.000000
0
LINE
8
DECOUPE
10
2850.800000
20
-379.500000
30
0.000000
11
2850.800000
21
-377.000000
31
0.000000
0
ARC
8
DECOUPE
10
2848.800000
20
-377.000000
30
0.000000
40
2.000000
50
0.000000
51
90.000000
0
LINE
8
DECOUPE
10
2848.800000
20
-375.000000
30
0.000000
11
2793.200000
21
-375.000000
31
0.000000
0
ARC
8
DECOUPE
10
2793.200000
20
-377.000000
30
0.000000
40
2.000000
50
90.000000
51
180.000000
0
LINE
8
DECOUPE
10
2791.200000
20
-377.000000
30
0.000000
11
2791.200000
21
-379.500000
31
0.000000
0
LINE
8
DECOUPE
10
2791.200000
20
-379.500000
30
0.000000
11
2792.700000
21
-381.000000
31
0.000000
0
LINE
8
DECOUPE
10
2792.700000
20
-381.000000
30
0.000000
11
2791.200000
21
-382.500000
31
0.000000
0
LINE
8
DECOUPE
10
2791.200000
20
-382.500000
30
0.000000
11
2789.700000
21
-381.000000
31
0.000000
0
LINE
8
DECOUPE
10
2789.700000
20
-381.000000
30
0.000000
11
2783.000000
21
-381.000000
31
0.000000
0
ARC
8
DECOUPE
10
2783.000000
20
-383.000000
30
0.000000
40
2.000000
50
90.000000
51
180.000000
0
LINE
8
DECOUPE
10
2781.000000
20
-383.000000
30
0.000000
11
2781.000000
21
-399.000000
31
0.000000
0
ARC
8
DECOUPE
10
2783.000000
20
-399.000000
30
0.000000
40
2.000000
50
180.000000
51
270.000000
0
LINE
8
DECOUPE
10
2783.000000
20
-401.000000
30
0.000000
11
2789.700000
21
-401.000000
31
0.000000
0
LINE
8
DECOUPE
10
2789.700000
20
-401.000000
30
0.000000
11
2791.200000
21
-399.500000
31
0.000000
0
LINE
8
DECOUPE
10
2791.200000
20
-399.500000
30
0.000000
11
2792.700000
21
-401.000000
31
0.000000
0
LINE
8
DECOUPE
10
2792.700000
20
-401.000000
30
0.000000
11
2791.200000
21
-402.500000
31
0.000000
0
ARC
8
DECOUPE
10
2821.000000
20
-420.000000
30
0.000000
40
5.500000
50
0.000000
51
180.000000
0
ARC
8
DECOUPE
10
2821.000000
20
-420.000000
30
0.000000
40
5.500000
50
180.000000
51
0.000000
0
TEXT
8
TEXTE
10
2781.000000
20
-452.000000
30
0.000000
40
6.000000
1
traverse 2/6
0
LINE
8
DECOUPE
10
2896.200000
20
-402.500000
30
0.000000
11
2896.200000
21
-438.000000
31
0.000000
0
ARC
8
DECOUPE
10
2898.200000
20
-438.000000
30
0.000000
40
2.000000
50
180.000000
51
270.000000
0
LINE
8
DECOUPE
10
2898.200000
20
-440.000000
30
0.000000
11
2953.800000
21
-440.000000
31
0.000000
0
ARC
8
DECOUPE
10
2953.800000
20
-438.000000
30
0.000000
40
2.000000
50
270.000000
51
0.000000
0
LINE
8
DECOUPE
10
2955.800000
20
-438.000000
30
0.000000
11
2955.800000
21
-402.500000
31
0.000000
0
LINE
8
DECOUPE
10
2955.800000
20
-402.500000
30
0.000000
11
2954.300000
21
-401.000000
31
0.000000
0
LINE
8
DECOUPE
10
2954.300000
20
-401.000000
30
0.000000
11
2955.800000
21
-399.500000
31
0.000000
0
LINE
8
DECOUPE
10
2955.800000
20
-399.500000
30
0.000000
11
2957.300000
21
-401.000000
31
0.000000
0
LINE
8
DECOUPE
10
2957.300000
20
-401.000000
30
0.000000
11
2964.000000
21
-401.000000
31
0.000000
0
ARC
8
DECOUPE
10
2964.000000
20
-399.000000
30
0.000000
40
2.000000
50
270.000000
51
0.000000
0
LINE
8
DECOUPE
10
2966.000000
20
-399.000000
30
0.000000
11
2966.000000
21
-383.000000
31
0.000000
0
ARC
8
DECOUPE
10
2964.000000
20
-383.000000
30
0.000000
40
2.000000
50
0.000000
51
90.000000
0
LINE
8
DECOUPE
10
2964.000000
20
-381.000000
30
0.000000
11
2957.300000
21
-381.000000
31
0.000000
0
LINE
8
DECOUPE
10
2957.300000
20
-381.000000
30
0.000000
11
2955.800000
21
-382.500000
31
0.000000
0
LINE
8
DECOUPE
10
2955.800000
20
-382.500000
30
0.000000
11
2954.300000
21
-381.000000
31
0.000000
0
LINE
8
DECOUPE
10
2954.300000
20
-381.000000
30
0.000000
11
2955.800000
21
-379.500000
31
0.000000
0
LINE
8
DECOUPE
10
2955.800000
20
-379.500000
30
0.000000
11
2955.800000
21
-377.000000
31
0.000000
0
ARC
8
DECOUPE
10
2953.800000
20
-377.000000
30
0.000000
40
2.000000
50
0.000000
51
90.000000
0
LINE
8
DECOUPE
10
2953.800000
20
-375.000000
30
0.000000
11
2898.200000
21
-375.000000
31
0.000000
0
ARC
8
DECOUPE
10
2898.200000
20
-377.000000
30
0.000000
40
2.000000
50
90.000000
51
180.000000
0
LINE
8
DECOUPE
10
2896.200000
20
-377.000000
30
0.000000
11
2896.200000
21
-379.500000
31
0.000000
0
LINE
8
DECOUPE
10
2896.200000
20
-379.500000
30
0.000000
11
2897.700000
21
-381.000000
31
0.000000
0
LINE
8
DECOUPE
10
2897.700000
20
-381.000000
30
0.000000
11
2896.200000
21
-382.500000
31
0.000000
0
LINE
8
DECOUPE
10
2896.200000
20
-382.500000
30
0.000000
11
2894.700000
21
-381.000000
31
0.000000
0
LINE
8
DECOUPE
10
2894.700000
20
-381.000000
30
0.000000
11
2888.000000
21
-381.000000
31
0.000000
0
ARC
8
DECOUPE
10
2888.000000
20
-383.000000
30
0.000000
40
2.000000
50
90.000000
51
180.000000
0
LINE
8
DECOUPE
10
2886.000000
20
-383.000000
30
0.000000
11
2886.000000
21
-399.000000
31
0.000000
0
ARC
8
DECOUPE
10
2888.000000
20
-399.000000
30
0.000000
40
2.000000
50
180.000000
51
270.000000
0
LINE
8
DECOUPE
10
2888.000000
20
-401.000000
30
0.000000
11
2894.700000
21
-401.000000
31
0.000000
0
LINE
8
DECOUPE
10
2894.700000
20
-401.000000
30
0.000000
11
2896.200000
21
-399.500000
31
0.000000
0
LINE
8
DECOUPE
10
2896.200000
20
-399.500000
30
0.000000
11
2897.700000
21
-401.000000
31
0.000000
0
LINE
8
DECOUPE
10
2897.700000
20
-401.000000
30
0.000000
11
2896.200000
21
-402.500000
31
0.000000
0
ARC
8
DECOUPE
10
2926.000000
20
-420.000000
30
0.000000
40
5.500000
50
0.000000
51
180.000000
0
ARC
8
DECOUPE
10
2926.000000
20
-420.000000
30
0.000000
40
5.500000
50
180.000000
51
0.000000
0
TEXT
8
TEXTE
10
2886.000000
20
-452.000000
30
0.000000
40
6.000000
1
traverse 3/6
0
LINE
8
DECOUPE
10
10.200000
20
-507.500000
30
0.000000
11
10.200000
21
-543.000000
31
0.000000
0
ARC
8
DECOUPE
10
12.200000
20
-543.000000
30
0.000000
40
2.000000
50
180.000000
51
270.000000
0
LINE
8
DECOUPE
10
12.200000
20
-545.000000
30
0.000000
11
67.800000
21
-545.000000
31
0.000000
0
ARC
8
DECOUPE
10
67.800000
20
-543.000000
30
0.000000
40
2.000000
50
270.000000
51
0.000000
0
LINE
8
DECOUPE
10
69.800000
20
-543.000000
30
0.000000
11
69.800000
21
-507.500000
31
0.000000
0
LINE
8
DECOUPE
10
69.800000
20
-507.500000
30
0.000000
11
68.300000
21
-506.000000
31
0.000000
0
LINE
8
DECOUPE
10
68.300000
20
-506.000000
30
0.000000
11
69.800000
21
-504.500000
31
0.000000
0
LINE
8
DECOUPE
10
69.800000
20
-504.500000
30
0.000000
11
71.300000
21
-506.000000
31
0.000000
0
LINE
8
DECOUPE
10
71.300000
20
-506.000000
30
0.000000
11
78.000000
21
-506.000000
31
0.000000
0
ARC
8
DECOUPE
10
78.000000
20
-504.000000
30
0.000000
40
2.000000
50
270.000000
51
0.000000
0
LINE
8
DECOUPE
10
80.000000
20
-504.000000
30
0.000000
11
80.000000
21
-488.000000
31
0.000000
0
ARC
8
DECOUPE
10
78.000000
20
-488.000000
30
0.000000
40
2.000000
50
0.000000
51
90.000000
0
LINE
8
DECOUPE
10
78.000000
20
-486.000000
30
0.000000
11
71.300000
21
-486.000000
31
0.000000
0
LINE
8
DECOUPE
10
71.300000
20
-486.000000
30
0.000000
11
69.800000
21
-487.500000
31
0.000000
0
LINE
8
DECOUPE
10
69.800000
20
-487.500000
30
0.000000
11
68.300000
21
-486.000000
31
0.000000
0
LINE
8
DECOUPE
10
68.300000
20
-486.000000
30
0.000000
11
69.800000
21
-484.500000
31
0.000000
0
LINE
8
DECOUPE
10
69.800000
20
-484.500000
30
0.000000
11
69.800000
21
-482.000000
31
0.000000
0
ARC
8
DECOUPE
10
67.800000
20
-482.000000
30
0.000000
40
2.000000
50
0.000000
51
90.000000
0
LINE
8
DECOUPE
10
67.800000
20
-480.000000
30
0.000000
11
12.200000
21
-480.000000
31
0.000000
0
ARC
8
DECOUPE
10
12.200000
20
-482.000000
30
0.000000
40
2.000000
50
90.000000
51
180.000000
0
LINE
8
DECOUPE
10
10.200000
20
-482.000000
30
0.000000
11
10.200000
21
-484.500000
31
0.000000
0
LINE
8
DECOUPE
10
10.200000
20
-484.500000
30
0.000000
11
11.700000
21
-486.000000
31
0.000000
0
LINE
8
DECOUPE
10
11.700000
20
-486.000000
30
0.000000
11
10.200000
21
-487.500000
31
0.000000
0
LINE
8
DECOUPE
10
10.200000
20
-487.500000
30
0.000000
11
8.700000
21
-486.000000
31
0.000000
0
LINE
8
DECOUPE
10
8.700000
20
-486.000000
30
0.000000
11
2.000000
21
-486.000000
31
0.000000
0
ARC
8
DECOUPE
10
2.000000
20
-488.000000
30
0.000000
40
2.000000
50
90.000000
51
180.000000
0
LINE
8
DECOUPE
10
0.000000
20
-488.000000
30
0.000000
11
0.000000
21
-504.000000
31
0.000000
0
ARC
8
DECOUPE
10
2.000000
20
-504.000000
30
0.000000
40
2.000000
50
180.000000
51
270.000000
0
LINE
8
DECOUPE
10
2.000000
20
-506.000000
30
0.000000
11
8.700000
21
-506.000000
31
0.000000
0
LINE
8
DECOUPE
10
8.700000
20
-506.000000
30
0.000000
11
10.200000
21
-504.500000
31
0.000000
0
LINE
8
DECOUPE
10
10.200000
20
-504.500000
30
0.000000
11
11.700000
21
-506.000000
31
0.000000
0
LINE
8
DECOUPE
10
11.700000
20
-506.000000
30
0.000000
11
10.200000
21
-507.500000
31
0.000000
0
ARC
8
DECOUPE
10
40.000000
20
-525.000000
30
0.000000
40
5.500000
50
0.000000
51
180.000000
0
ARC
8
DECOUPE
10
40.000000
20
-525.000000
30
0.000000
40
5.500000
50
180.000000
51
0.000000
0
TEXT
8
TEXTE
10
0.000000
20
-557.000000
30
0.000000
40
6.000000
1
traverse 4/6
0
LINE
8
DECOUPE
10
115.200000
20
-507.500000
30
0.000000
11
115.200000
21
-543.000000
31
0.000000
0
ARC
8
DECOUPE
10
117.200000
20
-543.000000
30
0.000000
40
2.000000
50
180.000000
51
270.000000
0
LINE
8
DECOUPE
10
117.200000
20
-545.000000
30
0.000000
11
172.800000
21
-545.000000
31
0.000000
0
ARC
8
DECOUPE
10
172.800000
20
-543.000000
30
0.000000
40
2.000000
50
270.000000
51
0.000000
0
LINE
8
DECOUPE
10
174.800000
20
-543.000000
30
0.000000
11
174.800000
21
-507.500000
31
0.000000
0
LINE
8
DECOUPE
10
174.800000
20
-507.500000
30
0.000000
11
173.300000
21
-506.000000
31
0.000000
0
LINE
8
DECOUPE
10
173.300000
20
-506.000000
30
0.000000
11
174.800000
21
-504.500000
31
0.000000
0
LINE
8
DECOUPE
10
174.800000
20
-504.500000
30
0.000000
11
176.300000
21
-506.000000
31
0.000000
0
LINE
8
DECOUPE
10
176.300000
20
-506.000000
30
0.000000
11
183.000000
21
-506.000000
31
0.000000
0
ARC
8
DECOUPE
10
183.000000
20
-504.000000
30
0.000000
40
2.000000
50
270.000000
51
0.000000
0
LINE
8
DECOUPE
10
185.000000
20
-504.000000
30
0.000000
11
185.000000
21
-488.000000
31
0.000000
0
ARC
8
DECOUPE
10
183.000000
20
-488.000000
30
0.000000
40
2.000000
50
0.000000
51
90.000000
0
LINE
8
DECOUPE
10
183.000000
20
-486.000000
30
0.000000
11
176.300000
21
-486.000000
31
0.000000
0
LINE
8
DECOUPE
10
176.300000
20
-486.000000
30
0.000000
11
174.800000
21
-487.500000
31
0.000000
0
LINE
8
DECOUPE
10
174.800000
20
-487.500000
30
0.000000
11
173.300000
21
-486.000000
31
0.000000
0
LINE
8
DECOUPE
10
173.300000
20
-486.000000
30
0.000000
11
174.800000
21
-484.500000
31
0.000000
0
LINE
8
DECOUPE
10
174.800000
20
-484.500000
30
0.000000
11
174.800000
21
-482.000000
31
0.000000
0
ARC
8
DECOUPE
10
172.800000
20
-482.000000
30
0.000000
40
2.000000
50
0.000000
51
90.000000
0
LINE
8
DECOUPE
10
172.800000
20
-480.000000
30
0.000000
11
117.200000
21
-480.000000
31
0.000000
0
ARC
8
DECOUPE
10
117.200000
20
-482.000000
30
0.000000
40
2.000000
50
90.000000
51
180.000000
0
LINE
8
DECOUPE
10
115.200000
20
-482.000000
30
0.000000
11
115.200000
21
-484.500000
31
0.000000
0
LINE
8
DECOUPE
10
115.200000
20
-484.500000
30
0.000000
11
116.700000
21
-486.000000
31
0.000000
0
LINE
8
DECOUPE
10
116.700000
20
-486.000000
30
0.000000
11
115.200000
21
-487.500000
31
0.000000
0
LINE
8
DECOUPE
10
115.200000
20
-487.500000
30
0.000000
11
113.700000
21
-486.000000
31
0.000000
0
LINE
8
DECOUPE
10
113.700000
20
-486.000000
30
0.000000
11
107.000000
21
-486.000000
31
0.000000
0
ARC
8
DECOUPE
10
107.000000
20
-488.000000
30
0.000000
40
2.000000
50
90.000000
51
180.000000
0
LINE
8
DECOUPE
10
105.000000
20
-488.000000
30
0.000000
11
105.000000
21
-504.000000
31
0.000000
0
ARC
8
DECOUPE
10
107.000000
20
-504.000000
30
0.000000
40
2.000000
50
180.000000
51
270.000000
0
LINE
8
DECOUPE
10
107.000000
20
-506.000000
30
0.000000
11
113.700000
21
-506.000000
31
0.000000
0
LINE
8
DECOUPE
10
113.700000
20
-506.000000
30
0.000000
11
115.200000
21
-504.500000
31
0.000000
0
LINE
8
DECOUPE
10
115.200000
20
-504.500000
30
0.000000
11
116.700000
21
-506.000000
31
0.000000
0
LINE
8
DECOUPE
10
116.700000
20
-506.000000
30
0.000000
11
115.200000
21
-507.500000
31
0.000000
0
ARC
8
DECOUPE
10
145.000000
20
-525.000000
30
0.000000
40
5.500000
50
0.000000
51
180.000000
0
ARC
8
DECOUPE
10
145.000000
20
-525.000000
30
0.000000
40
5.500000
50
180.000000
51
0.000000
0
TEXT
8
TEXTE
10
105.000000
20
-557.000000
30
0.000000
40
6.000000
1
traverse 5/6
0
LINE
8
DECOUPE
10
220.200000
20
-507.500000
30
0.000000
11
220.200000
21
-543.000000
31
0.000000
0
ARC
8
DECOUPE
10
222.200000
20
-543.000000
30
0.000000
40
2.000000
50
180.000000
51
270.000000
0
LINE
8
DECOUPE
10
222.200000
20
-545.000000
30
0.000000
11
277.800000
21
-545.000000
31
0.000000
0
ARC
8
DECOUPE
10
277.800000
20
-543.000000
30
0.000000
40
2.000000
50
270.000000
51
0.000000
0
LINE
8
DECOUPE
10
279.800000
20
-543.000000
30
0.000000
11
279.800000
21
-507.500000
31
0.000000
0
LINE
8
DECOUPE
10
279.800000
20
-507.500000
30
0.000000
11
278.300000
21
-506.000000
31
0.000000
0
LINE
8
DECOUPE
10
278.300000
20
-506.000000
30
0.000000
11
279.800000
21
-504.500000
31
0.000000
0
LINE
8
DECOUPE
10
279.800000
20
-504.500000
30
0.000000
11
281.300000
21
-506.000000
31
0.000000
0
LINE
8
DECOUPE
10
281.300000
20
-506.000000
30
0.000000
11
288.000000
21
-506.000000
31
0.000000
0
ARC
8
DECOUPE
10
288.000000
20
-504.000000
30
0.000000
40
2.000000
50
270.000000
51
0.000000
0
LINE
8
DECOUPE
10
290.000000
20
-504.000000
30
0.000000
11
290.000000
21
-488.000000
31
0.000000
0
ARC
8
DECOUPE
10
288.000000
20
-488.000000
30
0.000000
40
2.000000
50
0.000000
51
90.000000
0
LINE
8
DECOUPE
10
288.000000
20
-486.000000
30
0.000000
11
281.300000
21
-486.000000
31
0.000000
0
LINE
8
DECOUPE
10
281.300000
20
-486.000000
30
0.000000
11
279.800000
21
-487.500000
31
0.000000
0
LINE
8
DECOUPE
10
279.800000
20
-487.500000
30
0.000000
11
278.300000
21
-486.000000
31
0.000000
0
LINE
8
DECOUPE
10
278.300000
20
-486.000000
30
0.000000
11
279.800000
21
-484.500000
31
0.000000
0
LINE
8
DECOUPE
10
279.800000
20
-484.500000
30
0.000000
11
279.800000
21
-482.000000
31
0.000000
0
ARC
8
DECOUPE
10
277.800000
20
-482.000000
30
0.000000
40
2.000000
50
0.000000
51
90.000000
0
LINE
8
DECOUPE
10
277.800000
20
-480.000000
30
0.000000
11
222.200000
21
-480.000000
31
0.000000
0
ARC
8
DECOUPE
10
222.200000
20
-482.000000
30
0.000000
40
2.000000
50
90.000000
51
180.000000
0
LINE
8
DECOUPE
10
220.200000
20
-482.000000
30
0.000000
11
220.200000
21
-484.500000
31
0.000000
0
LINE
8
DECOUPE
10
220.200000
20
-484.500000
30
0.000000
11
221.700000
21
-486.000000
31
0.000000
0
LINE
8
DECOUPE
10
221.700000
20
-486.000000
30
0.000000
11
220.200000
21
-487.500000
31
0.000000
0
LINE
8
DECOUPE
10
220.200000
20
-487.500000
30
0.000000
11
218.700000
21
-486.000000
31
0.000000
0
LINE
8
DECOUPE
10
218.700000
20
-486.000000
30
0.000000
11
212.000000
21
-486.000000
31
0.000000
0
ARC
8
DECOUPE
10
212.000000
20
-488.000000
30
0.000000
40
2.000000
50
90.000000
51
180.000000
0
LINE
8
DECOUPE
10
210.000000
20
-488.000000
30
0.000000
11
210.000000
21
-504.000000
31
0.000000
0
ARC
8
DECOUPE
10
212.000000
20
-504.000000
30
0.000000
40
2.000000
50
180.000000
51
270.000000
0
LINE
8
DECOUPE
10
212.000000
20
-506.000000
30
0.000000
11
218.700000
21
-506.000000
31
0.000000
0
LINE
8
DECOUPE
10
218.700000
20
-506.000000
30
0.000000
11
220.200000
21
-504.500000
31
0.000000
0
LINE
8
DECOUPE
10
220.200000
20
-504.500000
30
0.000000
11
221.700000
21
-506.000000
31
0.000000
0
LINE
8
DECOUPE
10
221.700000
20
-506.000000
30
0.000000
11
220.200000
21
-507.500000
31
0.000000
0
ARC
8
DECOUPE
10
250.000000
20
-525.000000
30
0.000000
40
5.500000
50
0.000000
51
180.000000
0
ARC
8
DECOUPE
10
250.000000
20
-525.000000
30
0.000000
40
5.500000
50
180.000000
51
0.000000
0
TEXT
8
TEXTE
10
210.000000
20
-557.000000
30
0.000000
40
6.000000
1
traverse 6/6
0
LINE
8
DECOUPE
10
315.000000
20
-493.000000
30
0.000000
11
315.000000
21
-543.000000
31
0.000000
0
ARC
8
DECOUPE
10
317.000000
20
-543.000000
30
0.000000
40
2.000000
50
180.000000
51
270.000000
0
LINE
8
DECOUPE
10
317.000000
20
-545.000000
30
0.000000
11
319.500000
21
-545.000000
31
0.000000
0
ARC
8
DECOUPE
10
319.500000
20
-544.500000
30
0.000000
40
0.500000
50
270.000000
51
0.000000
0
LINE
8
DECOUPE
10
320.000000
20
-544.500000
30
0.000000
11
320.000000
21
-538.500000
31
0.000000
0
ARC
8
DECOUPE
10
320.500000
20
-538.500000
30
0.000000
40
0.500000
50
90.000000
51
180.000000
0
LINE
8
DECOUPE
10
320.500000
20
-538.000000
30
0.000000
11
327.900000
21
-538.000000
31
0.000000
0
ARC
8
DECOUPE
10
327.900000
20
-538.500000
30
0.000000
40
0.500000
50
0.000000
51
90.000000
0
LINE
8
DECOUPE
10
328.400000
20
-538.500000
30
0.000000
11
328.400000
21
-544.500000
31
0.000000
0
ARC
8
DECOUPE
10
328.900000
20
-544.500000
30
0.000000
40
0.500000
50
180.000000
51
270.000000
0
LINE
8
DECOUPE
10
328.900000
20
-545.000000
30
0.000000
11
353.000000
21
-545.000000
31
0.000000
0
ARC
8
DECOUPE
10
353.000000
20
-543.000000
30
0.000000
40
2.000000
50
270.000000
51
0.000000
0
LINE
8
DECOUPE
10
355.000000
20
-543.000000
30
0.000000
11
355.000000
21
-539.000000
31
0.000000
0
ARC
8
DECOUPE
10
357.000000
20
-539.000000
30
0.000000
40
2.000000
50
90.000000
51
180.000000
0
LINE
8
DECOUPE
10
357.000000
20
-537.000000
30
0.000000
11
791.400000
21
-537.000000
31
0.000000
0
ARC
8
DECOUPE
10
791.400000
20
-539.000000
30
0.000000
40
2.000000
50
0.000000
51
90.000000
0
LINE
8
DECOUPE
10
793.400000
20
-539.000000
30
0.000000
11
793.400000
21
-543.000000
31
0.000000
0
ARC
8
DECOUPE
10
795.400000
20
-543.000000
30
0.000000
40
2.000000
50
180.000000
51
270.000000
0
LINE
8
DECOUPE
10
795.400000
20
-545.000000
30
0.000000
11
819.500000
21
-545.000000
31
0.000000
0
ARC
8
DECOUPE
10
819.500000
20
-544.500000
30
0.000000
40
0.500000
50
270.000000
51
0.000000
0
LINE
8
DECOUPE
10
820.000000
20
-544.500000
30
0.000000
11
820.000000
21
-538.500000
31
0.000000
0
ARC
8
DECOUPE
10
820.500000
20
-538.500000
30
0.000000
40
0.500000
50
90.000000
51
180.000000
0
LINE
8
DECOUPE
10
820.500000
20
-538.000000
30
0.000000
11
827.900000
21
-538.000000
31
0.000000
0
ARC
8
DECOUPE
10
827.900000
20
-538.500000
30
0.000000
40
0.500000
50
0.000000
51
90.000000
0
LINE
8
DECOUPE
10
828.400000
20
-538.500000
30
0.000000
11
828.400000
21
-544.500000
31
0.000000
0
ARC
8
DECOUPE
10
828.900000
20
-544.500000
30
0.000000
40
0.500000
50
180.000000
51
270.000000
0
LINE
8
DECOUPE
10
828.900000
20
-545.000000
30
0.000000
11
831.400000
21
-545.000000
31
0.000000
0
ARC
8
DECOUPE
10
831.400000
20
-543.000000
30
0.000000
40
2.000000
50
270.000000
51
0.000000
0
LINE
8
DECOUPE
10
833.400000
20
-543.000000
30
0.000000
11
833.400000
21
-493.000000
31
0.000000
0
ARC
8
DECOUPE
10
827.400000
20
-493.000000
30
0.000000
40
6.000000
50
0.000000
51
90.000000
0
LINE
8
DECOUPE
10
827.400000
20
-487.000000
30
0.000000
11
613.400000
21
-487.000000
31
0.000000
0
ARC
8
DECOUPE
10
613.400000
20
-488.000000
30
0.000000
40
1.000000
50
90.000000
51
180.000000
0
LINE
8
DECOUPE
10
612.400000
20
-488.000000
30
0.000000
11
612.400000
21
-492.700000
31
0.000000
0
LINE
8
DECOUPE
10
612.400000
20
-492.700000
30
0.000000
11
612.100000
21
-493.000000
31
0.000000
0
LINE
8
DECOUPE
10
612.100000
20
-493.000000
30
0.000000
11
612.100000
21
-501.000000
31
0.000000
0
LINE
8
DECOUPE
10
612.100000
20
-501.000000
30
0.000000
11
612.400000
21
-501.300000
31
0.000000
0
LINE
8
DECOUPE
10
612.400000
20
-501.300000
30
0.000000
11
612.400000
21
-505.500000
31
0.000000
0
LINE
8
DECOUPE
10
612.400000
20
-505.500000
30
0.000000
11
613.900000
21
-507.000000
31
0.000000
0
LINE
8
DECOUPE
10
613.900000
20
-507.000000
30
0.000000
11
612.400000
21
-508.500000
31
0.000000
0
LINE
8
DECOUPE
10
612.400000
20
-508.500000
30
0.000000
11
610.900000
21
-507.000000
31
0.000000
0
LINE
8
DECOUPE
10
610.900000
20
-507.000000
30
0.000000
11
605.500000
21
-507.000000
31
0.000000
0
LINE
8
DECOUPE
10
605.500000
20
-507.000000
30
0.000000
11
604.000000
21
-508.500000
31
0.000000
0
LINE
8
DECOUPE
10
604.000000
20
-508.500000
30
0.000000
11
602.500000
21
-507.000000
31
0.000000
0
LINE
8
DECOUPE
10
602.500000
20
-507.000000
30
0.000000
11
604.000000
21
-505.500000
31
0.000000
0
LINE
8
DECOUPE
10
604.000000
20
-505.500000
30
0.000000
11
604.000000
21
-501.300000
31
0.000000
0
LINE
8
DECOUPE
10
604.000000
20
-501.300000
30
0.000000
11
604.300000
21
-501.000000
31
0.000000
0
LINE
8
DECOUPE
10
604.300000
20
-501.000000
30
0.000000
11
604.300000
21
-493.000000
31
0.000000
0
LINE
8
DECOUPE
10
604.300000
20
-493.000000
30
0.000000
11
604.000000
21
-492.700000
31
0.000000
0
LINE
8
DECOUPE
10
604.000000
20
-492.700000
30
0.000000
11
604.000000
21
-488.000000
31
0.000000
0
ARC
8
DECOUPE
10
603.000000
20
-488.000000
30
0.000000
40
1.000000
50
0.000000
51
90.000000
0
LINE
8
DECOUPE
10
603.000000
20
-487.000000
30
0.000000
11
545.400000
21
-487.000000
31
0.000000
0
ARC
8
DECOUPE
10
545.400000
20
-488.000000
30
0.000000
40
1.000000
50
90.000000
51
180.000000
0
LINE
8
DECOUPE
10
544.400000
20
-488.000000
30
0.000000
11
544.400000
21
-492.700000
31
0.000000
0
LINE
8
DECOUPE
10
544.400000
20
-492.700000
30
0.000000
11
544.100000
21
-493.000000
31
0.000000
0
LINE
8
DECOUPE
10
544.100000
20
-493.000000
30
0.000000
11
544.100000
21
-501.000000
31
0.000000
0
LINE
8
DECOUPE
10
544.100000
20
-501.000000
30
0.000000
11
544.400000
21
-501.300000
31
0.000000
0
LINE
8
DECOUPE
10
544.400000
20
-501.300000
30
0.000000
11
544.400000
21
-505.500000
31
0.000000
0
LINE
8
DECOUPE
10
544.400000
20
-505.500000
30
0.000000
11
545.900000
21
-507.000000
31
0.000000
0
LINE
8
DECOUPE
10
545.900000
20
-507.000000
30
0.000000
11
544.400000
21
-508.500000
31
0.000000
0
LINE
8
DECOUPE
10
544.400000
20
-508.500000
30
0.000000
11
542.900000
21
-507.000000
31
0.000000
0
LINE
8
DECOUPE
10
542.900000
20
-507.000000
30
0.000000
11
537.500000
21
-507.000000
31
0.000000
0
LINE
8
DECOUPE
10
537.500000
20
-507.000000
30
0.000000
11
536.000000
21
-508.500000
31
0.000000
0
LINE
8
DECOUPE
10
536.000000
20
-508.500000
30
0.000000
11
534.500000
21
-507.000000
31
0.000000
0
LINE
8
DECOUPE
10
534.500000
20
-507.000000
30
0.000000
11
536.000000
21
-505.500000
31
0.000000
0
LINE
8
DECOUPE
10
536.000000
20
-505.500000
30
0.000000
11
536.000000
21
-501.300000
31
0.000000
0
LINE
8
DECOUPE
10
536.000000
20
-501.300000
30
0.000000
11
536.300000
21
-501.000000
31
0.000000
0
LINE
8
DECOUPE
10
536.300000
20
-501.000000
30
0.000000
11
536.300000
21
-493.000000
31
0.000000
0
LINE
8
DECOUPE
10
536.300000
20
-493.000000
30
0.000000
11
536.000000
21
-492.700000
31
0.000000
0
LINE
8
DECOUPE
10
536.000000
20
-492.700000
30
0.000000
11
536.000000
21
-488.000000
31
0.000000
0
ARC
8
DECOUPE
10
535.000000
20
-488.000000
30
0.000000
40
1.000000
50
0.000000
51
90.000000
0
LINE
8
DECOUPE
10
535.000000
20
-487.000000
30
0.000000
11
321.000000
21
-487.000000
31
0.000000
0
ARC
8
DECOUPE
10
321.000000
20
-493.000000
30
0.000000
40
6.000000
50
90.000000
51
180.000000
0
LINE
8
DECOUPE
10
554.400000
20
-501.000000
30
0.000000
11
554.400000
21
-523.000000
31
0.000000
0
ARC
8
DECOUPE
10
560.400000
20
-523.000000
30
0.000000
40
6.000000
50
180.000000
51
270.000000
0
LINE
8
DECOUPE
10
560.400000
20
-529.000000
30
0.000000
11
588.000000
21
-529.000000
31
0.000000
0
ARC
8
DECOUPE
10
588.000000
20
-523.000000
30
0.000000
40
6.000000
50
270.000000
51
0.000000
0
LINE
8
DECOUPE
10
594.000000
20
-523.000000
30
0.000000
11
594.000000
21
-501.000000
31
0.000000
0
ARC
8
DECOUPE
10
588.000000
20
-501.000000
30
0.000000
40
6.000000
50
0.000000
51
90.000000
0
LINE
8
DECOUPE
10
588.000000
20
-495.000000
30
0.000000
11
560.400000
21
-495.000000
31
0.000000
0
ARC
8
DECOUPE
10
560.400000
20
-501.000000
30
0.000000
40
6.000000
50
90.000000
51
180.000000
0
LINE
8
DECOUPE
10
622.400000
20
-501.000000
30
0.000000
11
622.400000
21
-523.000000
31
0.000000
0
ARC
8
DECOUPE
10
628.400000
20
-523.000000
30
0.000000
40
6.000000
50
180.000000
51
270.000000
0
LINE
8
DECOUPE
10
628.400000
20
-529.000000
30
0.000000
11
777.400000
21
-529.000000
31
0.000000
0
ARC
8
DECOUPE
10
777.400000
20
-523.000000
30
0.000000
40
6.000000
50
270.000000
51
0.000000
0
LINE
8
DECOUPE
10
783.400000
20
-523.000000
30
0.000000
11
783.400000
21
-501.000000
31
0.000000
0
ARC
8
DECOUPE
10
777.400000
20
-501.000000
30
0.000000
40
6.000000
50
0.000000
51
90.000000
0
LINE
8
DECOUPE
10
777.400000
20
-495.000000
30
0.000000
11
628.400000
21
-495.000000
31
0.000000
0
ARC
8
DECOUPE
10
628.400000
20
-501.000000
30
0.000000
40
6.000000
50
90.000000
51
180.000000
0
LINE
8
DECOUPE
10
365.000000
20
-501.000000
30
0.000000
11
365.000000
21
-523.000000
31
0.000000
0
ARC
8
DECOUPE
10
371.000000
20
-523.000000
30
0.000000
40
6.000000
50
180.000000
51
270.000000
0
LINE
8
DECOUPE
10
371.000000
20
-529.000000
30
0.000000
11
520.000000
21
-529.000000
31
0.000000
0
ARC
8
DECOUPE
10
520.000000
20
-523.000000
30
0.000000
40
6.000000
50
270.000000
51
0.000000
0
LINE
8
DECOUPE
10
526.000000
20
-523.000000
30
0.000000
11
526.000000
21
-501.000000
31
0.000000
0
ARC
8
DECOUPE
10
520.000000
20
-501.000000
30
0.000000
40
6.000000
50
0.000000
51
90.000000
0
LINE
8
DECOUPE
10
520.000000
20
-495.000000
30
0.000000
11
371.000000
21
-495.000000
31
0.000000
0
ARC
8
DECOUPE
10
371.000000
20
-501.000000
30
0.000000
40
6.000000
50
90.000000
51
180.000000
0
TEXT
8
TEXTE
10
315.000000
20
-557.000000
30
0.000000
40
6.000000
1
pied 1/4
0
LINE
8
DECOUPE
10
858.400000
20
-493.000000
30
0.000000
11
858.400000
21
-543.000000
31
0.000000
0
ARC
8
DECOUPE
10
860.400000
20
-543.000000
30
0.000000
40
2.000000
50
180.000000
51
270.000000
0
LINE
8
DECOUPE
10
860.400000
20
-545.000000
30
0.000000
11
862.900000
21
-545.000000
31
0.000000
0
ARC
8
DECOUPE
10
862.900000
20
-544.500000
30
0.000000
40
0.500000
50
270.000000
51
0.000000
0
LINE
8
DECOUPE
10
863.400000
20
-544.500000
30
0.000000
11
863.400000
21
-538.500000
31
0.000000
0
ARC
8
DECOUPE
10
863.900000
20
-538.500000
30
0.000000
40
0.500000
50
90.000000
51
180.000000
0
LINE
8
DECOUPE
10
863.900000
20
-538.000000
30
0.000000
11
871.300000
21
-538.000000
31
0.000000
0
ARC
8
DECOUPE
10
871.300000
20
-538.500000
30
0.000000
40
0.500000
50
0.000000
51
90.000000
0
LINE
8
DECOUPE
10
871.800000
20
-538.500000
30
0.000000
11
871.800000
21
-544.500000
31
0.000000
0
ARC
8
DECOUPE
10
872.300000
20
-544.500000
30
0.000000
40
0.500000
50
180.000000
51
270.000000
0
LINE
8
DECOUPE
10
872.300000
20
-545.000000
30
0.000000
11
896.400000
21
-545.000000
31
0.000000
0
ARC
8
DECOUPE
10
896.400000
20
-543.000000
30
0.000000
40
2.000000
50
270.000000
51
0.000000
0
LINE
8
DECOUPE
10
898.400000
20
-543.000000
30
0.000000
11
898.400000
21
-539.000000
31
0.000000
0
ARC
8
DECOUPE
10
900.400000
20
-539.000000
30
0.000000
40
2.000000
50
90.000000
51
180.000000
0
LINE
8
DECOUPE
10
900.400000
20
-537.000000
30
0.000000
11
1334.800000
21
-537.000000
31
0.000000
0
ARC
8
DECOUPE
10
1334.800000
20
-539.000000
30
0.000000
40
2.000000
50
0.000000
51
90.000000
0
LINE
8
DECOUPE
10
1336.800000
20
-539.000000
30
0.000000
11
1336.800000
21
-543.000000
31
0.000000
0
ARC
8
DECOUPE
10
1338.800000
20
-543.000000
30
0.000000
40
2.000000
50
180.000000
51
270.000000
0
LINE
8
DECOUPE
10
1338.800000
20
-545.000000
30
0.000000
11
1362.900000
21
-545.000000
31
0.000000
0
ARC
8
DECOUPE
10
1362.900000
20
-544.500000
30
0.000000
40
0.500000
50
270.000000
51
0.000000
0
LINE
8
DECOUPE
10
1363.400000
20
-544.500000
30
0.000000
11
1363.400000
21
-538.500000
31
0.000000
0
ARC
8
DECOUPE
10
1363.900000
20
-538.500000
30
0.000000
40
0.500000
50
90.000000
51
180.000000
0
LINE
8
DECOUPE
10
1363.900000
20
-538.000000
30
0.000000
11
1371.300000
21
-538.000000
31
0.000000
0
ARC
8
DECOUPE
10
1371.300000
20
-538.500000
30
0.000000
40
0.500000
50
0.000000
51
90.000000
0
LINE
8
DECOUPE
10
1371.800000
20
-538.500000
30
0.000000
11
1371.800000
21
-544.500000
31
0.000000
0
ARC
8
DECOUPE
10
1372.300000
20
-544.500000
30
0.000000
40
0.500000
50
180.000000
51
270.000000
0
LINE
8
DECOUPE
10
1372.300000
20
-545.000000
30
0.000000
11
1374.800000
21
-545.000000
31
0.000000
0
ARC
8
DECOUPE
10
1374.800000
20
-543.000000
30
0.000000
40
2.000000
50
270.000000
51
0.000000
0
LINE
8
DECOUPE
10
1376.800000
20
-543.000000
30
0.000000
11
1376.800000
21
-493.000000
31
0.000000
0
ARC
8
DECOUPE
10
1370.800000
20
-493.000000
30
0.000000
40
6.000000
50
0.000000
51
90.000000
0
LINE
8
DECOUPE
10
1370.800000
20
-487.000000
30
0.000000
11
1156.800000
21
-487.000000
31
0.000000
0
ARC
8
DECOUPE
10
1156.800000
20
-488.000000
30
0.000000
40
1.000000
50
90.000000
51
180.000000
0
LINE
8
DECOUPE
10
1155.800000
20
-488.000000
30
0.000000
11
1155.800000
21
-492.700000
31
0.000000
0
LINE
8
DECOUPE
10
1155.800000
20
-492.700000
30
0.000000
11
1155.500000
21
-493.000000
31
0.000000
0
LINE
8
DECOUPE
10
1155.500000
20
-493.000000
30
0.000000
11
1155.500000
21
-501.000000
31
0.000000
0
LINE
8
DECOUPE
10
1155.500000
20
-501.000000
30
0.000000
11
1155.800000
21
-501.300000
31
0.000000
0
LINE
8
DECOUPE
10
1155.800000
20
-501.300000
30
0.000000
11
1155.800000
21
-505.500000
31
0.000000
0
LINE
8
DECOUPE
10
1155.800000
20
-505.500000
30
0.000000
11
1157.300000
21
-507.000000
31
0.000000
0
LINE
8
DECOUPE
10
1157.300000
20
-507.000000
30
0.000000
11
1155.800000
21
-508.500000
31
0.000000
0
LINE
8
DECOUPE
10
1155.800000
20
-508.500000
30
0.000000
11
1154.300000
21
-507.000000
31
0.000000
0
LINE
8
DECOUPE
10
1154.300000
20
-507.000000
30
0.000000
11
1148.900000
21
-507.000000
31
0.000000
0
LINE
8
DECOUPE
10
1148.900000
20
-507.000000
30
0.000000
11
1147.400000
21
-508.500000
31
0.000000
0
LINE
8
DECOUPE
10
1147.400000
20
-508.500000
30
0.000000
11
1145.900000
21
-507.000000
31
0.000000
0
LINE
8
DECOUPE
10
1145.900000
20
-507.000000
30
0.000000
11
1147.400000
21
-505.500000
31
0.000000
0
LINE
8
DECOUPE
10
1147.400000
20
-505.500000
30
0.000000
11
1147.400000
21
-501.300000
31
0.000000
0
LINE
8
DECOUPE
10
1147.400000
20
-501.300000
30
0.000000
11
1147.700000
21
-501.000000
31
0.000000
0
LINE
8
DECOUPE
10
1147.700000
20
-501.000000
30
0.000000
11
1147.700000
21
-493.000000
31
0.000000
0
LINE
8
DECOUPE
10
1147.700000
20
-493.000000
30
0.000000
11
1147.400000
21
-492.700000
31
0.000000
0
LINE
8
DECOUPE
10
1147.400000
20
-492.700000
30
0.000000
11
1147.400000
21
-488.000000
31
0.000000
0
ARC
8
DECOUPE
10
1146.400000
20
-488.000000
30
0.000000
40
1.000000
50
0.000000
51
90.000000
0
LINE
8
DECOUPE
10
1146.400000
20
-487.000000
30
0.000000
11
1088.800000
21
-487.000000
31
0.000000
0
ARC
8
DECOUPE
10
1088.800000
20
-488.000000
30
0.000000
40
1.000000
50
90.000000
51
180.000000
0
LINE
8
DECOUPE
10
1087.800000
20
-488.000000
30
0.000000
11
1087.800000
21
-492.700000
31
0.000000
0
LINE
8
DECOUPE
10
1087.800000
20
-492.700000
30
0.000000
11
1087.500000
21
-493.000000
31
0.000000
0
LINE
8
DECOUPE
10
1087.500000
20
-493.000000
30
0.000000
11
1087.500000
21
-501.000000
31
0.000000
0
LINE
8
DECOUPE
10
1087.500000
20
-501.000000
30
0.000000
11
1087.800000
21
-501.300000
31
0.000000
0
LINE
8
DECOUPE
10
1087.800000
20
-501.300000
30
0.000000
11
1087.800000
21
-505.500000
31
0.000000
0
LINE
8
DECOUPE
10
1087.800000
20
-505.500000
30
0.000000
11
1089.300000
21
-507.000000
31
0.000000
0
LINE
8
DECOUPE
10
1089.300000
20
-507.000000
30
0.000000
11
1087.800000
21
-508.500000
31
0.000000
0
LINE
8
DECOUPE
10
1087.800000
20
-508.500000
30
0.000000
11
1086.300000
21
-507.000000
31
0.000000
0
LINE
8
DECOUPE
10
1086.300000
20
-507.000000
30
0.000000
11
1080.900000
21
-507.000000
31
0.000000
0
LINE
8
DECOUPE
10
1080.900000
20
-507.000000
30
0.000000
11
1079.400000
21
-508.500000
31
0.000000
0
LINE
8
DECOUPE
10
1079.400000
20
-508.500000
30
0.000000
11
1077.900000
21
-507.000000
31
0.000000
0
LINE
8
DECOUPE
10
1077.900000
20
-507.000000
30
0.000000
11
1079.400000
21
-505.500000
31
0.000000
0
LINE
8
DECOUPE
10
1079.400000
20
-505.500000
30
0.000000
11
1079.400000
21
-501.300000
31
0.000000
0
LINE
8
DECOUPE
10
1079.400000
20
-501.300000
30
0.000000
11
1079.700000
21
-501.000000
31
0.000000
0
LINE
8
DECOUPE
10
1079.700000
20
-501.000000
30
0.000000
11
1079.700000
21
-493.000000
31
0.000000
0
LINE
8
DECOUPE
10
1079.700000
20
-493.000000
30
0.000000
11
1079.400000
21
-492.700000
31
0.000000
0
LINE
8
DECOUPE
10
1079.400000
20
-492.700000
30
0.000000
11
1079.400000
21
-488.000000
31
0.000000
0
ARC
8
DECOUPE
10
1078.400000
20
-488.000000
30
0.000000
40
1.000000
50
0.000000
51
90.000000
0
LINE
8
DECOUPE
10
1078.400000
20
-487.000000
30
0.000000
11
864.400000
21
-487.000000
31
0.000000
0
ARC
8
DECOUPE
10
864.400000
20
-493.000000
30
0.000000
40
6.000000
50
90.000000
51
180.000000
0
LINE
8
DECOUPE
10
1097.800000
20
-501.000000
30
0.000000
11
1097.800000
21
-523.000000
31
0.000000
0
ARC
8
DECOUPE
10
1103.800000
20
-523.000000
30
0.000000
40
6.000000
50
180.000000
51
270.000000
0
LINE
8
DECOUPE
10
1103.800000
20
-529.000000
30
0.000000
11
1131.400000
21
-529.000000
31
0.000000
0
ARC
8
DECOUPE
10
1131.400000
20
-523.000000
30
0.000000
40
6.000000
50
270.000000
51
0.000000
0
LINE
8
DECOUPE
10
1137.400000
20
-523.000000
30
0.000000
11
1137.400000
21
-501.000000
31
0.000000
0
ARC
8
DECOUPE
10
1131.400000
20
-501.000000
30
0.000000
40
6.000000
50
0.000000
51
90.000000
0
LINE
8
DECOUPE
10
1131.400000
20
-495.000000
30
0.000000
11
1103.800000
21
-495.000000
31
0.000000
0
ARC
8
DECOUPE
10
1103.800000
20
-501.000000
30
0.000000
40
6.000000
50
90.000000
51
180.000000
0
LINE
8
DECOUPE
10
1165.800000
20
-501.000000
30
0.000000
11
1165.800000
21
-523.000000
31
0.000000
0
ARC
8
DECOUPE
10
1171.800000
20
-523.000000
30
0.000000
40
6.000000
50
180.000000
51
270.000000
0
LINE
8
DECOUPE
10
1171.800000
20
-529.000000
30
0.000000
11
1320.800000
21
-529.000000
31
0.000000
0
ARC
8
DECOUPE
10
1320.800000
20
-523.000000
30
0.000000
40
6.000000
50
270.000000
51
0.000000
0
LINE
8
DECOUPE
10
1326.800000
20
-523.000000
30
0.000000
11
1326.800000
21
-501.000000
31
0.000000
0
ARC
8
DECOUPE
10
1320.800000
20
-501.000000
30
0.000000
40
6.000000
50
0.000000
51
90.000000
0
LINE
8
DECOUPE
10
1320.800000
20
-495.000000
30
0.000000
11
1171.800000
21
-495.000000
31
0.000000
0
ARC
8
DECOUPE
10
1171.800000
20
-501.000000
30
0.000000
40
6.000000
50
90.000000
51
180.000000
0
LINE
8
DECOUPE
10
908.400000
20
-501.000000
30
0.000000
11
908.400000
21
-523.000000
31
0.000000
0
ARC
8
DECOUPE
10
914.400000
20
-523.000000
30
0.000000
40
6.000000
50
180.000000
51
270.000000
0
LINE
8
DECOUPE
10
914.400000
20
-529.000000
30
0.000000
11
1063.400000
21
-529.000000
31
0.000000
0
ARC
8
DECOUPE
10
1063.400000
20
-523.000000
30
0.000000
40
6.000000
50
270.000000
51
0.000000
0
LINE
8
DECOUPE
10
1069.400000
20
-523.000000
30
0.000000
11
1069.400000
21
-501.000000
31
0.000000
0
ARC
8
DECOUPE
10
1063.400000
20
-501.000000
30
0.000000
40
6.000000
50
0.000000
51
90.000000
0
LINE
8
DECOUPE
10
1063.400000
20
-495.000000
30
0.000000
11
914.400000
21
-495.000000
31
0.000000
0
ARC
8
DECOUPE
10
914.400000
20
-501.000000
30
0.000000
40
6.000000
50
90.000000
51
180.000000
0
TEXT
8
TEXTE
10
858.400000
20
-557.000000
30
0.000000
40
6.000000
1
pied 2/4
0
LINE
8
DECOUPE
10
1401.800000
20
-493.000000
30
0.000000
11
1401.800000
21
-543.000000
31
0.000000
0
ARC
8
DECOUPE
10
1403.800000
20
-543.000000
30
0.000000
40
2.000000
50
180.000000
51
270.000000
0
LINE
8
DECOUPE
10
1403.800000
20
-545.000000
30
0.000000
11
1406.300000
21
-545.000000
31
0.000000
0
ARC
8
DECOUPE
10
1406.300000
20
-544.500000
30
0.000000
40
0.500000
50
270.000000
51
0.000000
0
LINE
8
DECOUPE
10
1406.800000
20
-544.500000
30
0.000000
11
1406.800000
21
-538.500000
31
0.000000
0
ARC
8
DECOUPE
10
1407.300000
20
-538.500000
30
0.000000
40
0.500000
50
90.000000
51
180.000000
0
LINE
8
DECOUPE
10
1407.300000
20
-538.000000
30
0.000000
11
1414.700000
21
-538.000000
31
0.000000
0
ARC
8
DECOUPE
10
1414.700000
20
-538.500000
30
0.000000
40
0.500000
50
0.000000
51
90.000000
0
LINE
8
DECOUPE
10
1415.200000
20
-538.500000
30
0.000000
11
1415.200000
21
-544.500000
31
0.000000
0
ARC
8
DECOUPE
10
1415.700000
20
-544.500000
30
0.000000
40
0.500000
50
180.000000
51
270.000000
0
LINE
8
DECOUPE
10
1415.700000
20
-545.000000
30
0.000000
11
1439.800000
21
-545.000000
31
0.000000
0
ARC
8
DECOUPE
10
1439.800000
20
-543.000000
30
0.000000
40
2.000000
50
270.000000
51
0.000000
0
LINE
8
DECOUPE
10
1441.800000
20
-543.000000
30
0.000000
11
1441.800000
21
-539.000000
31
0.000000
0
ARC
8
DECOUPE
10
1443.800000
20
-539.000000
30
0.000000
40
2.000000
50
90.000000
51
180.000000
0
LINE
8
DECOUPE
10
1443.800000
20
-537.000000
30
0.000000
11
1878.200000
21
-537.000000
31
0.000000
0
ARC
8
DECOUPE
10
1878.200000
20
-539.000000
30
0.000000
40
2.000000
50
0.000000
51
90.000000
0
LINE
8
DECOUPE
10
1880.200000
20
-539.000000
30
0.000000
11
1880.200000
21
-543.000000
31
0.000000
0
ARC
8
DECOUPE
10
1882.200000
20
-543.000000
30
0.000000
40
2.000000
50
180.000000
51
270.000000
0
LINE
8
DECOUPE
10
1882.200000
20
-545.000000
30
0.000000
11
1906.300000
21
-545.000000
31
0.000000
0
ARC
8
DECOUPE
10
1906.300000
20
-544.500000
30
0.000000
40
0.500000
50
270.000000
51
0.000000
0
LINE
8
DECOUPE
10
1906.800000
20
-544.500000
30
0.000000
11
1906.800000
21
-538.500000
31
0.000000
0
ARC
8
DECOUPE
10
1907.300000
20
-538.500000
30
0.000000
40
0.500000
50
90.000000
51
180.000000
0
LINE
8
DECOUPE
10
1907.300000
20
-538.000000
30
0.000000
11
1914.700000
21
-538.000000
31
0.000000
0
ARC
8
DECOUPE
10
1914.700000
20
-538.500000
30
0.000000
40
0.500000
50
0.000000
51
90.000000
0
LINE
8
DECOUPE
10
1915.200000
20
-538.500000
30
0.000000
11
1915.200000
21
-544.500000
31
0.000000
0
ARC
8
DECOUPE
10
1915.700000
20
-544.500000
30
0.000000
40
0.500000
50
180.000000
51
270.000000
0
LINE
8
DECOUPE
10
1915.700000
20
-545.000000
30
0.000000
11
1918.200000
21
-545.000000
31
0.000000
0
ARC
8
DECOUPE
10
1918.200000
20
-543.000000
30
0.000000
40
2.000000
50
270.000000
51
0.000000
0
LINE
8
DECOUPE
10
1920.200000
20
-543.000000
30
0.000000
11
1920.200000
21
-493.000000
31
0.000000
0
ARC
8
DECOUPE
10
1914.200000
20
-493.000000
30
0.000000
40
6.000000
50
0.000000
51
90.000000
0
LINE
8
DECOUPE
10
1914.200000
20
-487.000000
30
0.000000
11
1700.200000
21
-487.000000
31
0.000000
0
ARC
8
DECOUPE
10
1700.200000
20
-488.000000
30
0.000000
40
1.000000
50
90.000000
51
180.000000
0
LINE
8
DECOUPE
10
1699.200000
20
-488.000000
30
0.000000
11
1699.200000
21
-492.700000
31
0.000000
0
LINE
8
DECOUPE
10
1699.200000
20
-492.700000
30
0.000000
11
1698.900000
21
-493.000000
31
0.000000
0
LINE
8
DECOUPE
10
1698.900000
20
-493.000000
30
0.000000
11
1698.900000
21
-501.000000
31
0.000000
0
LINE
8
DECOUPE
10
1698.900000
20
-501.000000
30
0.000000
11
1699.200000
21
-501.300000
31
0.000000
0
LINE
8
DECOUPE
10
1699.200000
20
-501.300000
30
0.000000
11
1699.200000
21
-505.500000
31
0.000000
0
LINE
8
DECOUPE
10
1699.200000
20
-505.500000
30
0.000000
11
1700.700000
21
-507.000000
31
0.000000
0
LINE
8
DECOUPE
10
1700.700000
20
-507.000000
30
0.000000
11
1699.200000
21
-508.500000
31
0.000000
0
LINE
8
DECOUPE
10
1699.200000
20
-508.500000
30
0.000000
11
1697.700000
21
-507.000000
31
0.000000
0
LINE
8
DECOUPE
10
1697.700000
20
-507.000000
30
0.000000
11
1692.300000
21
-507.000000
31
0.000000
0
LINE
8
DECOUPE
10
1692.300000
20
-507.000000
30
0.000000
11
1690.800000
21
-508.500000
31
0.000000
0
LINE
8
DECOUPE
10
1690.800000
20
-508.500000
30
0.000000
11
1689.300000
21
-507.000000
31
0.000000
0
LINE
8
DECOUPE
10
1689.300000
20
-507.000000
30
0.000000
11
1690.800000
21
-505.500000
31
0.000000
0
LINE
8
DECOUPE
10
1690.800000
20
-505.500000
30
0.000000
11
1690.800000
21
-501.300000
31
0.000000
0
LINE
8
DECOUPE
10
1690.800000
20
-501.300000
30
0.000000
11
1691.100000
21
-501.000000
31
0.000000
0
LINE
8
DECOUPE
10
1691.100000
20
-501.000000
30
0.000000
11
1691.100000
21
-493.000000
31
0.000000
0
LINE
8
DECOUPE
10
1691.100000
20
-493.000000
30
0.000000
11
1690.800000
21
-492.700000
31
0.000000
0
LINE
8
DECOUPE
10
1690.800000
20
-492.700000
30
0.000000
11
1690.800000
21
-488.000000
31
0.000000
0
ARC
8
DECOUPE
10
1689.800000
20
-488.000000
30
0.000000
40
1.000000
50
0.000000
51
90.000000
0
LINE
8
DECOUPE
10
1689.800000
20
-487.000000
30
0.000000
11
1632.200000
21
-487.000000
31
0.000000
0
ARC
8
DECOUPE
10
1632.200000
20
-488.000000
30
0.000000
40
1.000000
50
90.000000
51
180.000000
0
LINE
8
DECOUPE
10
1631.200000
20
-488.000000
30
0.000000
11
1631.200000
21
-492.700000
31
0.000000
0
LINE
8
DECOUPE
10
1631.200000
20
-492.700000
30
0.000000
11
1630.900000
21
-493.000000
31
0.000000
0
LINE
8
DECOUPE
10
1630.900000
20
-493.000000
30
0.000000
11
1630.900000
21
-501.000000
31
0.000000
0
LINE
8
DECOUPE
10
1630.900000
20
-501.000000
30
0.000000
11
1631.200000
21
-501.300000
31
0.000000
0
LINE
8
DECOUPE
10
1631.200000
20
-501.300000
30
0.000000
11
1631.200000
21
-505.500000
31
0.000000
0
LINE
8
DECOUPE
10
1631.200000
20
-505.500000
30
0.000000
11
1632.700000
21
-507.000000
31
0.000000
0
LINE
8
DECOUPE
10
1632.700000
20
-507.000000
30
0.000000
11
1631.200000
21
-508.500000
31
0.000000
0
LINE
8
DECOUPE
10
1631.200000
20
-508.500000
30
0.000000
11
1629.700000
21
-507.000000
31
0.000000
0
LINE
8
DECOUPE
10
1629.700000
20
-507.000000
30
0.000000
11
1624.300000
21
-507.000000
31
0.000000
0
LINE
8
DECOUPE
10
1624.300000
20
-507.000000
30
0.000000
11
1622.800000
21
-508.500000
31
0.000000
0
LINE
8
DECOUPE
10
1622.800000
20
-508.500000
30
0.000000
11
1621.300000
21
-507.000000
31
0.000000
0
LINE
8
DECOUPE
10
1621.300000
20
-507.000000
30
0.000000
11
1622.800000
21
-505.500000
31
0.000000
0
LINE
8
DECOUPE
10
1622.800000
20
-505.500000
30
0.000000
11
1622.800000
21
-501.300000
31
0.000000
0
LINE
8
DECOUPE
10
1622.800000
20
-501.300000
30
0.000000
11
1623.100000
21
-501.000000
31
0.000000
0
LINE
8
DECOUPE
10
1623.100000
20
-501.000000
30
0.000000
11
1623.100000
21
-493.000000
31
0.000000
0
LINE
8
DECOUPE
10
1623.100000
20
-493.000000
30
0.000000
11
1622.800000
21
-492.700000
31
0.000000
0
LINE
8
DECOUPE
10
1622.800000
20
-492.700000
30
0.000000
11
1622.800000
21
-488.000000
31
0.000000
0
ARC
8
DECOUPE
10
1621.800000
20
-488.000000
30
0.000000
40
1.000000
50
0.000000
51
90.000000
0
LINE
8
DECOUPE
10
1621.800000
20
-487.000000
30
0.000000
11
1407.800000
21
-487.000000
31
0.000000
0
ARC
8
DECOUPE
10
1407.800000
20
-493.000000
30
0.000000
40
6.000000
50
90.000000
51
180.000000
0
LINE
8
DECOUPE
10
1641.200000
20
-501.000000
30
0.000000
11
1641.200000
21
-523.000000
31
0.000000
0
ARC
8
DECOUPE
10
1647.200000
20
-523.000000
30
0.000000
40
6.000000
50
180.000000
51
270.000000
0
LINE
8
DECOUPE
10
1647.200000
20
-529.000000
30
0.000000
11
1674.800000
21
-529.000000
31
0.000000
0
ARC
8
DECOUPE
10
1674.800000
20
-523.000000
30
0.000000
40
6.000000
50
270.000000
51
0.000000
0
LINE
8
DECOUPE
10
1680.800000
20
-523.000000
30
0.000000
11
1680.800000
21
-501.000000
31
0.000000
0
ARC
8
DECOUPE
10
1674.800000
20
-501.000000
30
0.000000
40
6.000000
50
0.000000
51
90.000000
0
LINE
8
DECOUPE
10
1674.800000
20
-495.000000
30
0.000000
11
1647.200000
21
-495.000000
31
0.000000
0
ARC
8
DECOUPE
10
1647.200000
20
-501.000000
30
0.000000
40
6.000000
50
90.000000
51
180.000000
0
LINE
8
DECOUPE
10
1709.200000
20
-501.000000
30
0.000000
11
1709.200000
21
-523.000000
31
0.000000
0
ARC
8
DECOUPE
10
1715.200000
20
-523.000000
30
0.000000
40
6.000000
50
180.000000
51
270.000000
0
LINE
8
DECOUPE
10
1715.200000
20
-529.000000
30
0.000000
11
1864.200000
21
-529.000000
31
0.000000
0
ARC
8
DECOUPE
10
1864.200000
20
-523.000000
30
0.000000
40
6.000000
50
270.000000
51
0.000000
0
LINE
8
DECOUPE
10
1870.200000
20
-523.000000
30
0.000000
11
1870.200000
21
-501.000000
31
0.000000
0
ARC
8
DECOUPE
10
1864.200000
20
-501.000000
30
0.000000
40
6.000000
50
0.000000
51
90.000000
0
LINE
8
DECOUPE
10
1864.200000
20
-495.000000
30
0.000000
11
1715.200000
21
-495.000000
31
0.000000
0
ARC
8
DECOUPE
10
1715.200000
20
-501.000000
30
0.000000
40
6.000000
50
90.000000
51
180.000000
0
LINE
8
DECOUPE
10
1451.800000
20
-501.000000
30
0.000000
11
1451.800000
21
-523.000000
31
0.000000
0
ARC
8
DECOUPE
10
1457.800000
20
-523.000000
30
0.000000
40
6.000000
50
180.000000
51
270.000000
0
LINE
8
DECOUPE
10
1457.800000
20
-529.000000
30
0.000000
11
1606.800000
21
-529.000000
31
0.000000
0
ARC
8
DECOUPE
10
1606.800000
20
-523.000000
30
0.000000
40
6.000000
50
270.000000
51
0.000000
0
LINE
8
DECOUPE
10
1612.800000
20
-523.000000
30
0.000000
11
1612.800000
21
-501.000000
31
0.000000
0
ARC
8
DECOUPE
10
1606.800000
20
-501.000000
30
0.000000
40
6.000000
50
0.000000
51
90.000000
0
LINE
8
DECOUPE
10
1606.800000
20
-495.000000
30
0.000000
11
1457.800000
21
-495.000000
31
0.000000
0
ARC
8
DECOUPE
10
1457.800000
20
-501.000000
30
0.000000
40
6.000000
50
90.000000
51
180.000000
0
TEXT
8
TEXTE
10
1401.800000
20
-557.000000
30
0.000000
40
6.000000
1
pied 3/4
0
LINE
8
DECOUPE
10
1945.200000
20
-493.000000
30
0.000000
11
1945.200000
21
-543.000000
31
0.000000
0
ARC
8
DECOUPE
10
1947.200000
20
-543.000000
30
0.000000
40
2.000000
50
180.000000
51
270.000000
0
LINE
8
DECOUPE
10
1947.200000
20
-545.000000
30
0.000000
11
1949.700000
21
-545.000000
31
0.000000
0
ARC
8
DECOUPE
10
1949.700000
20
-544.500000
30
0.000000
40
0.500000
50
270.000000
51
0.000000
0
LINE
8
DECOUPE
10
1950.200000
20
-544.500000
30
0.000000
11
1950.200000
21
-538.500000
31
0.000000
0
ARC
8
DECOUPE
10
1950.700000
20
-538.500000
30
0.000000
40
0.500000
50
90.000000
51
180.000000
0
LINE
8
DECOUPE
10
1950.700000
20
-538.000000
30
0.000000
11
1958.100000
21
-538.000000
31
0.000000
0
ARC
8
DECOUPE
10
1958.100000
20
-538.500000
30
0.000000
40
0.500000
50
0.000000
51
90.000000
0
LINE
8
DECOUPE
10
1958.600000
20
-538.500000
30
0.000000
11
1958.600000
21
-544.500000
31
0.000000
0
ARC
8
DECOUPE
10
1959.100000
20
-544.500000
30
0.000000
40
0.500000
50
180.000000
51
270.000000
0
LINE
8
DECOUPE
10
1959.100000
20
-545.000000
30
0.000000
11
1983.200000
21
-545.000000
31
0.000000
0
ARC
8
DECOUPE
10
1983.200000
20
-543.000000
30
0.000000
40
2.000000
50
270.000000
51
0.000000
0
LINE
8
DECOUPE
10
1985.200000
20
-543.000000
30
0.000000
11
1985.200000
21
-539.000000
31
0.000000
0
ARC
8
DECOUPE
10
1987.200000
20
-539.000000
30
0.000000
40
2.000000
50
90.000000
51
180.000000
0
LINE
8
DECOUPE
10
1987.200000
20
-537.000000
30
0.000000
11
2421.600000
21
-537.000000
31
0.000000
0
ARC
8
DECOUPE
10
2421.600000
20
-539.000000
30
0.000000
40
2.000000
50
0.000000
51
90.000000
0
LINE
8
DECOUPE
10
2423.600000
20
-539.000000
30
0.000000
11
2423.600000
21
-543.000000
31
0.000000
0
ARC
8
DECOUPE
10
2425.600000
20
-543.000000
30
0.000000
40
2.000000
50
180.000000
51
270.000000
0
LINE
8
DECOUPE
10
2425.600000
20
-545.000000
30
0.000000
11
2449.700000
21
-545.000000
31
0.000000
0
ARC
8
DECOUPE
10
2449.700000
20
-544.500000
30
0.000000
40
0.500000
50
270.000000
51
0.000000
0
LINE
8
DECOUPE
10
2450.200000
20
-544.500000
30
0.000000
11
2450.200000
21
-538.500000
31
0.000000
0
ARC
8
DECOUPE
10
2450.700000
20
-538.500000
30
0.000000
40
0.500000
50
90.000000
51
180.000000
0
LINE
8
DECOUPE
10
2450.700000
20
-538.000000
30
0.000000
11
2458.100000
21
-538.000000
31
0.000000
0
ARC
8
DECOUPE
10
2458.100000
20
-538.500000
30
0.000000
40
0.500000
50
0.000000
51
90.000000
0
LINE
8
DECOUPE
10
2458.600000
20
-538.500000
30
0.000000
11
2458.600000
21
-544.500000
31
0.000000
0
ARC
8
DECOUPE
10
2459.100000
20
-544.500000
30
0.000000
40
0.500000
50
180.000000
51
270.000000
0
LINE
8
DECOUPE
10
2459.100000
20
-545.000000
30
0.000000
11
2461.600000
21
-545.000000
31
0.000000
0
ARC
8
DECOUPE
10
2461.600000
20
-543.000000
30
0.000000
40
2.000000
50
270.000000
51
0.000000
0
LINE
8
DECOUPE
10
2463.600000
20
-543.000000
30
0.000000
11
2463.600000
21
-493.000000
31
0.000000
0
ARC
8
DECOUPE
10
2457.600000
20
-493.000000
30
0.000000
40
6.000000
50
0.000000
51
90.000000
0
LINE
8
DECOUPE
10
2457.600000
20
-487.000000
30
0.000000
11
2243.600000
21
-487.000000
31
0.000000
0
ARC
8
DECOUPE
10
2243.600000
20
-488.000000
30
0.000000
40
1.000000
50
90.000000
51
180.000000
0
LINE
8
DECOUPE
10
2242.600000
20
-488.000000
30
0.000000
11
2242.600000
21
-492.700000
31
0.000000
0
LINE
8
DECOUPE
10
2242.600000
20
-492.700000
30
0.000000
11
2242.300000
21
-493.000000
31
0.000000
0
LINE
8
DECOUPE
10
2242.300000
20
-493.000000
30
0.000000
11
2242.300000
21
-501.000000
31
0.000000
0
LINE
8
DECOUPE
10
2242.300000
20
-501.000000
30
0.000000
11
2242.600000
21
-501.300000
31
0.000000
0
LINE
8
DECOUPE
10
2242.600000
20
-501.300000
30
0.000000
11
2242.600000
21
-505.500000
31
0.000000
0
LINE
8
DECOUPE
10
2242.600000
20
-505.500000
30
0.000000
11
2244.100000
21
-507.000000
31
0.000000
0
LINE
8
DECOUPE
10
2244.100000
20
-507.000000
30
0.000000
11
2242.600000
21
-508.500000
31
0.000000
0
LINE
8
DECOUPE
10
2242.600000
20
-508.500000
30
0.000000
11
2241.100000
21
-507.000000
31
0.000000
0
LINE
8
DECOUPE
10
2241.100000
20
-507.000000
30
0.000000
11
2235.700000
21
-507.000000
31
0.000000
0
LINE
8
DECOUPE
10
2235.700000
20
-507.000000
30
0.000000
11
2234.200000
21
-508.500000
31
0.000000
0
LINE
8
DECOUPE
10
2234.200000
20
-508.500000
30
0.000000
11
2232.700000
21
-507.000000
31
0.000000
0
LINE
8
DECOUPE
10
2232.700000
20
-507.000000
30
0.000000
11
2234.200000
21
-505.500000
31
0.000000
0
LINE
8
DECOUPE
10
2234.200000
20
-505.500000
30
0.000000
11
2234.200000
21
-501.300000
31
0.000000
0
LINE
8
DECOUPE
10
2234.200000
20
-501.300000
30
0.000000
11
2234.500000
21
-501.000000
31
0.000000
0
LINE
8
DECOUPE
10
2234.500000
20
-501.000000
30
0.000000
11
2234.500000
21
-493.000000
31
0.000000
0
LINE
8
DECOUPE
10
2234.500000
20
-493.000000
30
0.000000
11
2234.200000
21
-492.700000
31
0.000000
0
LINE
8
DECOUPE
10
2234.200000
20
-492.700000
30
0.000000
11
2234.200000
21
-488.000000
31
0.000000
0
ARC
8
DECOUPE
10
2233.200000
20
-488.000000
30
0.000000
40
1.000000
50
0.000000
51
90.000000
0
LINE
8
DECOUPE
10
2233.200000
20
-487.000000
30
0.000000
11
2175.600000
21
-487.000000
31
0.000000
0
ARC
8
DECOUPE
10
2175.600000
20
-488.000000
30
0.000000
40
1.000000
50
90.000000
51
180.000000
0
LINE
8
DECOUPE
10
2174.600000
20
-488.000000
30
0.000000
11
2174.600000
21
-492.700000
31
0.000000
0
LINE
8
DECOUPE
10
2174.600000
20
-492.700000
30
0.000000
11
2174.300000
21
-493.000000
31
0.000000
0
LINE
8
DECOUPE
10
2174.300000
20
-493.000000
30
0.000000
11
2174.300000
21
-501.000000
31
0.000000
0
LINE
8
DECOUPE
10
2174.300000
20
-501.000000
30
0.000000
11
2174.600000
21
-501.300000
31
0.000000
0
LINE
8
DECOUPE
10
2174.600000
20
-501.300000
30
0.000000
11
2174.600000
21
-505.500000
31
0.000000
0
LINE
8
DECOUPE
10
2174.600000
20
-505.500000
30
0.000000
11
2176.100000
21
-507.000000
31
0.000000
0
LINE
8
DECOUPE
10
2176.100000
20
-507.000000
30
0.000000
11
2174.600000
21
-508.500000
31
0.000000
0
LINE
8
DECOUPE
10
2174.600000
20
-508.500000
30
0.000000
11
2173.100000
21
-507.000000
31
0.000000
0
LINE
8
DECOUPE
10
2173.100000
20
-507.000000
30
0.000000
11
2167.700000
21
-507.000000
31
0.000000
0
LINE
8
DECOUPE
10
2167.700000
20
-507.000000
30
0.000000
11
2166.200000
21
-508.500000
31
0.000000
0
LINE
8
DECOUPE
10
2166.200000
20
-508.500000
30
0.000000
11
2164.700000
21
-507.000000
31
0.000000
0
LINE
8
DECOUPE
10
2164.700000
20
-507.000000
30
0.000000
11
2166.200000
21
-505.500000
31
0.000000
0
LINE
8
DECOUPE
10
2166.200000
20
-505.500000
30
0.000000
11
2166.200000
21
-501.300000
31
0.000000
0
LINE
8
DECOUPE
10
2166.200000
20
-501.300000
30
0.000000
11
2166.500000
21
-501.000000
31
0.000000
0
LINE
8
DECOUPE
10
2166.500000
20
-501.000000
30
0.000000
11
2166.500000
21
-493.000000
31
0.000000
0
LINE
8
DECOUPE
10
2166.500000
20
-493.000000
30
0.000000
11
2166.200000
21
-492.700000
31
0.000000
0
LINE
8
DECOUPE
10
2166.200000
20
-492.700000
30
0.000000
11
2166.200000
21
-488.000000
31
0.000000
0
ARC
8
DECOUPE
10
2165.200000
20
-488.000000
30
0.000000
40
1.000000
50
0.000000
51
90.000000
0
LINE
8
DECOUPE
10
2165.200000
20
-487.000000
30
0.000000
11
1951.200000
21
-487.000000
31
0.000000
0
ARC
8
DECOUPE
10
1951.200000
20
-493.000000
30
0.000000
40
6.000000
50
90.000000
51
180.000000
0
LINE
8
DECOUPE
10
2184.600000
20
-501.000000
30
0.000000
11
2184.600000
21
-523.000000
31
0.000000
0
ARC
8
DECOUPE
10
2190.600000
20
-523.000000
30
0.000000
40
6.000000
50
180.000000
51
270.000000
0
LINE
8
DECOUPE
10
2190.600000
20
-529.000000
30
0.000000
11
2218.200000
21
-529.000000
31
0.000000
0
ARC
8
DECOUPE
10
2218.200000
20
-523.000000
30
0.000000
40
6.000000
50
270.000000
51
0.000000
0
LINE
8
DECOUPE
10
2224.200000
20
-523.000000
30
0.000000
11
2224.200000
21
-501.000000
31
0.000000
0
ARC
8
DECOUPE
10
2218.200000
20
-501.000000
30
0.000000
40
6.000000
50
0.000000
51
90.000000
0
LINE
8
DECOUPE
10
2218.200000
20
-495.000000
30
0.000000
11
2190.600000
21
-495.000000
31
0.000000
0
ARC
8
DECOUPE
10
2190.600000
20
-501.000000
30
0.000000
40
6.000000
50
90.000000
51
180.000000
0
LINE
8
DECOUPE
10
2252.600000
20
-501.000000
30
0.000000
11
2252.600000
21
-523.000000
31
0.000000
0
ARC
8
DECOUPE
10
2258.600000
20
-523.000000
30
0.000000
40
6.000000
50
180.000000
51
270.000000
0
LINE
8
DECOUPE
10
2258.600000
20
-529.000000
30
0.000000
11
2407.600000
21
-529.000000
31
0.000000
0
ARC
8
DECOUPE
10
2407.600000
20
-523.000000
30
0.000000
40
6.000000
50
270.000000
51
0.000000
0
LINE
8
DECOUPE
10
2413.600000
20
-523.000000
30
0.000000
11
2413.600000
21
-501.000000
31
0.000000
0
ARC
8
DECOUPE
10
2407.600000
20
-501.000000
30
0.000000
40
6.000000
50
0.000000
51
90.000000
0
LINE
8
DECOUPE
10
2407.600000
20
-495.000000
30
0.000000
11
2258.600000
21
-495.000000
31
0.000000
0
ARC
8
DECOUPE
10
2258.600000
20
-501.000000
30
0.000000
40
6.000000
50
90.000000
51
180.000000
0
LINE
8
DECOUPE
10
1995.200000
20
-501.000000
30
0.000000
11
1995.200000
21
-523.000000
31
0.000000
0
ARC
8
DECOUPE
10
2001.200000
20
-523.000000
30
0.000000
40
6.000000
50
180.000000
51
270.000000
0
LINE
8
DECOUPE
10
2001.200000
20
-529.000000
30
0.000000
11
2150.200000
21
-529.000000
31
0.000000
0
ARC
8
DECOUPE
10
2150.200000
20
-523.000000
30
0.000000
40
6.000000
50
270.000000
51
0.000000
0
LINE
8
DECOUPE
10
2156.200000
20
-523.000000
30
0.000000
11
2156.200000
21
-501.000000
31
0.000000
0
ARC
8
DECOUPE
10
2150.200000
20
-501.000000
30
0.000000
40
6.000000
50
0.000000
51
90.000000
0
LINE
8
DECOUPE
10
2150.200000
20
-495.000000
30
0.000000
11
2001.200000
21
-495.000000
31
0.000000
0
ARC
8
DECOUPE
10
2001.200000
20
-501.000000
30
0.000000
40
6.000000
50
90.000000
51
180.000000
0
TEXT
8
TEXTE
10
1945.200000
20
-557.000000
30
0.000000
40
6.000000
1
pied 4/4
0
LINE
8
DECOUPE
10
2488.600000
20
-491.000000
30
0.000000
11
2488.600000
21
-541.000000
31
0.000000
0
ARC
8
DECOUPE
10
2492.600000
20
-541.000000
30
0.000000
40
4.000000
50
180.000000
51
270.000000
0
LINE
8
DECOUPE
10
2492.600000
20
-545.000000
30
0.000000
11
2584.600000
21
-545.000000
31
0.000000
0
ARC
8
DECOUPE
10
2584.600000
20
-541.000000
30
0.000000
40
4.000000
50
270.000000
51
0.000000
0
LINE
8
DECOUPE
10
2588.600000
20
-541.000000
30
0.000000
11
2588.600000
21
-491.000000
31
0.000000
0
ARC
8
DECOUPE
10
2584.600000
20
-491.000000
30
0.000000
40
4.000000
50
0.000000
51
90.000000
0
LINE
8
DECOUPE
10
2584.600000
20
-487.000000
30
0.000000
11
2492.600000
21
-487.000000
31
0.000000
0
ARC
8
DECOUPE
10
2492.600000
20
-491.000000
30
0.000000
40
4.000000
50
90.000000
51
180.000000
0
ARC
8
DECOUPE
10
2538.600000
20
-516.000000
30
0.000000
40
12.700000
50
0.000000
51
180.000000
0
ARC
8
DECOUPE
10
2538.600000
20
-516.000000
30
0.000000
40
12.700000
50
180.000000
51
0.000000
0
ARC
8
DECOUPE
10
2503.600000
20
-516.000000
30
0.000000
40
4.150000
50
0.000000
51
180.000000
0
ARC
8
DECOUPE
10
2503.600000
20
-516.000000
30
0.000000
40
4.150000
50
180.000000
51
0.000000
0
ARC
8
DECOUPE
10
2573.600000
20
-516.000000
30
0.000000
40
4.150000
50
0.000000
51
180.000000
0
ARC
8
DECOUPE
10
2573.600000
20
-516.000000
30
0.000000
40
4.150000
50
180.000000
51
0.000000
0
TEXT
8
TEXTE
10
2488.600000
20
-557.000000
30
0.000000
40
6.000000
1
poussoir 1/3
0
LINE
8
DECOUPE
10
2613.600000
20
-491.000000
30
0.000000
11
2613.600000
21
-541.000000
31
0.000000
0
ARC
8
DECOUPE
10
2617.600000
20
-541.000000
30
0.000000
40
4.000000
50
180.000000
51
270.000000
0
LINE
8
DECOUPE
10
2617.600000
20
-545.000000
30
0.000000
11
2709.600000
21
-545.000000
31
0.000000
0
ARC
8
DECOUPE
10
2709.600000
20
-541.000000
30
0.000000
40
4.000000
50
270.000000
51
0.000000
0
LINE
8
DECOUPE
10
2713.600000
20
-541.000000
30
0.000000
11
2713.600000
21
-491.000000
31
0.000000
0
ARC
8
DECOUPE
10
2709.600000
20
-491.000000
30
0.000000
40
4.000000
50
0.000000
51
90.000000
0
LINE
8
DECOUPE
10
2709.600000
20
-487.000000
30
0.000000
11
2617.600000
21
-487.000000
31
0.000000
0
ARC
8
DECOUPE
10
2617.600000
20
-491.000000
30
0.000000
40
4.000000
50
90.000000
51
180.000000
0
ARC
8
DECOUPE
10
2663.600000
20
-516.000000
30
0.000000
40
12.700000
50
0.000000
51
180.000000
0
ARC
8
DECOUPE
10
2663.600000
20
-516.000000
30
0.000000
40
12.700000
50
180.000000
51
0.000000
0
ARC
8
DECOUPE
10
2628.600000
20
-516.000000
30
0.000000
40
4.150000
50
0.000000
51
180.000000
0
ARC
8
DECOUPE
10
2628.600000
20
-516.000000
30
0.000000
40
4.150000
50
180.000000
51
0.000000
0
ARC
8
DECOUPE
10
2698.600000
20
-516.000000
30
0.000000
40
4.150000
50
0.000000
51
180.000000
0
ARC
8
DECOUPE
10
2698.600000
20
-516.000000
30
0.000000
40
4.150000
50
180.000000
51
0.000000
0
TEXT
8
TEXTE
10
2613.600000
20
-557.000000
30
0.000000
40
6.000000
1
poussoir 2/3
0
LINE
8
DECOUPE
10
2738.600000
20
-491.000000
30
0.000000
11
2738.600000
21
-541.000000
31
0.000000
0
ARC
8
DECOUPE
10
2742.600000
20
-541.000000
30
0.000000
40
4.000000
50
180.000000
51
270.000000
0
LINE
8
DECOUPE
10
2742.600000
20
-545.000000
30
0.000000
11
2834.600000
21
-545.000000
31
0.000000
0
ARC
8
DECOUPE
10
2834.600000
20
-541.000000
30
0.000000
40
4.000000
50
270.000000
51
0.000000
0
LINE
8
DECOUPE
10
2838.600000
20
-541.000000
30
0.000000
11
2838.600000
21
-491.000000
31
0.000000
0
ARC
8
DECOUPE
10
2834.600000
20
-491.000000
30
0.000000
40
4.000000
50
0.000000
51
90.000000
0
LINE
8
DECOUPE
10
2834.600000
20
-487.000000
30
0.000000
11
2742.600000
21
-487.000000
31
0.000000
0
ARC
8
DECOUPE
10
2742.600000
20
-491.000000
30
0.000000
40
4.000000
50
90.000000
51
180.000000
0
ARC
8
DECOUPE
10
2788.600000
20
-516.000000
30
0.000000
40
12.700000
50
0.000000
51
180.000000
0
ARC
8
DECOUPE
10
2788.600000
20
-516.000000
30
0.000000
40
12.700000
50
180.000000
51
0.000000
0
ARC
8
DECOUPE
10
2753.600000
20
-516.000000
30
0.000000
40
4.150000
50
0.000000
51
180.000000
0
ARC
8
DECOUPE
10
2753.600000
20
-516.000000
30
0.000000
40
4.150000
50
180.000000
51
0.000000
0
ARC
8
DECOUPE
10
2823.600000
20
-516.000000
30
0.000000
40
4.150000
50
0.000000
51
180.000000
0
ARC
8
DECOUPE
10
2823.600000
20
-516.000000
30
0.000000
40
4.150000
50
180.000000
51
0.000000
0
TEXT
8
TEXTE
10
2738.600000
20
-557.000000
30
0.000000
40
6.000000
1
poussoir 3/3
0
TEXT
8
TEXTE
10
0.000000
20
20.000000
30
0.000000
40
4.000000
1
calques : DECOUPE = couper ; GRAVURE = marquer sans couper ; TEXTE = ni couper ni marquer
0
TEXT
8
TEXTE
10
0.000000
20
29.000000
30
0.000000
40
5.000000
1
rangement en etageres de 3000 mm au plus, pas une imbrication : le decoupeur imbrique sur son format
0
TEXT
8
TEXTE
10
0.000000
20
39.000000
30
0.000000
40
5.000000
1
fentes et encoches taillees pour une tole reelle de 8,00 mm : mesurer la tole livree, regler EP_TOLE_REELLE et regenerer les DXF avant decoupe
0
TEXT
8
TEXTE
10
0.000000
20
49.000000
30
0.000000
40
5.000000
1
brut : tole 8 mm, cert. 3.1, Re >= 430
0
TEXT
8
TEXTE
10
0.000000
20
59.000000
30
0.000000
40
8.000000
1
TOLE 8 mm  42CrMo4 +A  -  21 pieces  -  ind. B du 05/10/2026
0
ENDSEC
0
EOF
