0
SECTION
2
HEADER
9
$ACADVER
1
AC1009
9
$INSUNITS
70
4
9
$MEASUREMENT
70
1
0
ENDSEC
0
SECTION
2
TABLES
0
TABLE
2
LAYER
70
3
0
LAYER
2
0
70
0
62
7
6
CONTINUOUS
0
LAYER
2
DECOUPE
70
0
62
7
6
CONTINUOUS
0
LAYER
2
TEXTE
70
0
62
3
6
CONTINUOUS
0
ENDTAB
0
ENDSEC
0
SECTION
2
ENTITIES
0
LINE
8
DECOUPE
10
9.000000
20
-96.000000
30
0.000000
11
9.000000
21
-123.000000
31
0.000000
0
ARC
8
DECOUPE
10
12.000000
20
-123.000000
30
0.000000
40
3.000000
50
180.000000
51
270.000000
0
LINE
8
DECOUPE
10
12.000000
20
-126.000000
30
0.000000
11
66.000000
21
-126.000000
31
0.000000
0
ARC
8
DECOUPE
10
66.000000
20
-123.000000
30
0.000000
40
3.000000
50
270.000000
51
0.000000
0
LINE
8
DECOUPE
10
69.000000
20
-123.000000
30
0.000000
11
69.000000
21
-109.000000
31
0.000000
0
ARC
8
DECOUPE
10
66.000000
20
-109.000000
30
0.000000
40
3.000000
50
0.000000
51
90.000000
0
LINE
8
DECOUPE
10
66.000000
20
-106.000000
30
0.000000
11
60.153016
21
-106.000000
31
0.000000
0
LINE
8
DECOUPE
10
60.153016
20
-106.000000
30
0.000000
11
60.153016
21
-104.087723
31
0.000000
0
ARC
8
DECOUPE
10
59.653016
20
-104.087723
30
0.000000
40
0.500000
50
0.000000
51
52.000000
0
LINE
8
DECOUPE
10
59.960846
20
-103.693718
30
0.000000
11
54.960846
21
-99.787290
31
0.000000
0
ARC
8
DECOUPE
10
54.653016
20
-100.181295
30
0.000000
40
0.500000
50
52.000000
51
180.000000
0
LINE
8
DECOUPE
10
54.153016
20
-100.181295
30
0.000000
11
54.153016
21
-106.000000
31
0.000000
0
LINE
8
DECOUPE
10
54.153016
20
-106.000000
30
0.000000
11
24.000000
21
-106.000000
31
0.000000
0
ARC
8
DECOUPE
10
24.000000
20
-103.000000
30
0.000000
40
3.000000
50
180.000000
51
270.000000
0
LINE
8
DECOUPE
10
21.000000
20
-103.000000
30
0.000000
11
21.000000
21
-3.000000
31
0.000000
0
ARC
8
DECOUPE
10
18.000000
20
-3.000000
30
0.000000
40
3.000000
50
360.000000
51
90.000000
0
LINE
8
DECOUPE
10
18.000000
20
0.000000
30
0.000000
11
1.000000
21
0.000000
31
0.000000
0
ARC
8
DECOUPE
10
1.000000
20
-1.000000
30
0.000000
40
1.000000
50
90.000000
51
180.000000
0
LINE
8
DECOUPE
10
0.000000
20
-1.000000
30
0.000000
11
0.000000
21
-8.000000
31
0.000000
0
ARC
8
DECOUPE
10
1.000000
20
-8.000000
30
0.000000
40
1.000000
50
180.000000
51
270.000000
0
LINE
8
DECOUPE
10
1.000000
20
-9.000000
30
0.000000
11
4.000000
21
-9.000000
31
0.000000
0
ARC
8
DECOUPE
10
4.000000
20
-8.000000
30
0.000000
40
1.000000
50
270.000000
51
0.000000
0
LINE
8
DECOUPE
10
5.000000
20
-8.000000
30
0.000000
11
5.000000
21
-6.500000
31
0.000000
0
ARC
8
DECOUPE
10
5.500000
20
-6.500000
30
0.000000
40
0.500000
50
90.000000
51
180.000000
0
LINE
8
DECOUPE
10
5.500000
20
-6.000000
30
0.000000
11
9.000000
21
-6.000000
31
0.000000
0
LINE
8
DECOUPE
10
9.000000
20
-6.000000
30
0.000000
11
9.000000
21
-40.000000
31
0.000000
0
LINE
8
DECOUPE
10
9.000000
20
-40.000000
30
0.000000
11
1.000000
21
-40.000000
31
0.000000
0
ARC
8
DECOUPE
10
1.000000
20
-41.000000
30
0.000000
40
1.000000
50
90.000000
51
180.000000
0
LINE
8
DECOUPE
10
0.000000
20
-41.000000
30
0.000000
11
0.000000
21
-48.000000
31
0.000000
0
ARC
8
DECOUPE
10
1.000000
20
-48.000000
30
0.000000
40
1.000000
50
180.000000
51
270.000000
0
LINE
8
DECOUPE
10
1.000000
20
-49.000000
30
0.000000
11
4.000000
21
-49.000000
31
0.000000
0
ARC
8
DECOUPE
10
4.000000
20
-48.000000
30
0.000000
40
1.000000
50
270.000000
51
0.000000
0
LINE
8
DECOUPE
10
5.000000
20
-48.000000
30
0.000000
11
5.000000
21
-46.500000
31
0.000000
0
ARC
8
DECOUPE
10
5.500000
20
-46.500000
30
0.000000
40
0.500000
50
90.000000
51
180.000000
0
LINE
8
DECOUPE
10
5.500000
20
-46.000000
30
0.000000
11
9.000000
21
-46.000000
31
0.000000
0
LINE
8
DECOUPE
10
9.000000
20
-46.000000
30
0.000000
11
9.000000
21
-90.000000
31
0.000000
0
LINE
8
DECOUPE
10
9.000000
20
-90.000000
30
0.000000
11
1.000000
21
-90.000000
31
0.000000
0
ARC
8
DECOUPE
10
1.000000
20
-91.000000
30
0.000000
40
1.000000
50
90.000000
51
180.000000
0
LINE
8
DECOUPE
10
0.000000
20
-91.000000
30
0.000000
11
0.000000
21
-98.000000
31
0.000000
0
ARC
8
DECOUPE
10
1.000000
20
-98.000000
30
0.000000
40
1.000000
50
180.000000
51
270.000000
0
LINE
8
DECOUPE
10
1.000000
20
-99.000000
30
0.000000
11
4.000000
21
-99.000000
31
0.000000
0
ARC
8
DECOUPE
10
4.000000
20
-98.000000
30
0.000000
40
1.000000
50
270.000000
51
0.000000
0
LINE
8
DECOUPE
10
5.000000
20
-98.000000
30
0.000000
11
5.000000
21
-96.500000
31
0.000000
0
ARC
8
DECOUPE
10
5.500000
20
-96.500000
30
0.000000
40
0.500000
50
90.000000
51
180.000000
0
LINE
8
DECOUPE
10
5.500000
20
-96.000000
30
0.000000
11
9.000000
21
-96.000000
31
0.000000
0
TEXT
8
TEXTE
10
0.000000
20
-138.000000
30
0.000000
40
6.000000
1
crochet 1/4
0
LINE
8
DECOUPE
10
103.000000
20
-96.000000
30
0.000000
11
103.000000
21
-123.000000
31
0.000000
0
ARC
8
DECOUPE
10
106.000000
20
-123.000000
30
0.000000
40
3.000000
50
180.000000
51
270.000000
0
LINE
8
DECOUPE
10
106.000000
20
-126.000000
30
0.000000
11
160.000000
21
-126.000000
31
0.000000
0
ARC
8
DECOUPE
10
160.000000
20
-123.000000
30
0.000000
40
3.000000
50
270.000000
51
0.000000
0
LINE
8
DECOUPE
10
163.000000
20
-123.000000
30
0.000000
11
163.000000
21
-109.000000
31
0.000000
0
ARC
8
DECOUPE
10
160.000000
20
-109.000000
30
0.000000
40
3.000000
50
0.000000
51
90.000000
0
LINE
8
DECOUPE
10
160.000000
20
-106.000000
30
0.000000
11
154.153016
21
-106.000000
31
0.000000
0
LINE
8
DECOUPE
10
154.153016
20
-106.000000
30
0.000000
11
154.153016
21
-104.087723
31
0.000000
0
ARC
8
DECOUPE
10
153.653016
20
-104.087723
30
0.000000
40
0.500000
50
0.000000
51
52.000000
0
LINE
8
DECOUPE
10
153.960846
20
-103.693718
30
0.000000
11
148.960846
21
-99.787290
31
0.000000
0
ARC
8
DECOUPE
10
148.653016
20
-100.181295
30
0.000000
40
0.500000
50
52.000000
51
180.000000
0
LINE
8
DECOUPE
10
148.153016
20
-100.181295
30
0.000000
11
148.153016
21
-106.000000
31
0.000000
0
LINE
8
DECOUPE
10
148.153016
20
-106.000000
30
0.000000
11
118.000000
21
-106.000000
31
0.000000
0
ARC
8
DECOUPE
10
118.000000
20
-103.000000
30
0.000000
40
3.000000
50
180.000000
51
270.000000
0
LINE
8
DECOUPE
10
115.000000
20
-103.000000
30
0.000000
11
115.000000
21
-3.000000
31
0.000000
0
ARC
8
DECOUPE
10
112.000000
20
-3.000000
30
0.000000
40
3.000000
50
360.000000
51
90.000000
0
LINE
8
DECOUPE
10
112.000000
20
0.000000
30
0.000000
11
95.000000
21
0.000000
31
0.000000
0
ARC
8
DECOUPE
10
95.000000
20
-1.000000
30
0.000000
40
1.000000
50
90.000000
51
180.000000
0
LINE
8
DECOUPE
10
94.000000
20
-1.000000
30
0.000000
11
94.000000
21
-8.000000
31
0.000000
0
ARC
8
DECOUPE
10
95.000000
20
-8.000000
30
0.000000
40
1.000000
50
180.000000
51
270.000000
0
LINE
8
DECOUPE
10
95.000000
20
-9.000000
30
0.000000
11
98.000000
21
-9.000000
31
0.000000
0
ARC
8
DECOUPE
10
98.000000
20
-8.000000
30
0.000000
40
1.000000
50
270.000000
51
0.000000
0
LINE
8
DECOUPE
10
99.000000
20
-8.000000
30
0.000000
11
99.000000
21
-6.500000
31
0.000000
0
ARC
8
DECOUPE
10
99.500000
20
-6.500000
30
0.000000
40
0.500000
50
90.000000
51
180.000000
0
LINE
8
DECOUPE
10
99.500000
20
-6.000000
30
0.000000
11
103.000000
21
-6.000000
31
0.000000
0
LINE
8
DECOUPE
10
103.000000
20
-6.000000
30
0.000000
11
103.000000
21
-40.000000
31
0.000000
0
LINE
8
DECOUPE
10
103.000000
20
-40.000000
30
0.000000
11
95.000000
21
-40.000000
31
0.000000
0
ARC
8
DECOUPE
10
95.000000
20
-41.000000
30
0.000000
40
1.000000
50
90.000000
51
180.000000
0
LINE
8
DECOUPE
10
94.000000
20
-41.000000
30
0.000000
11
94.000000
21
-48.000000
31
0.000000
0
ARC
8
DECOUPE
10
95.000000
20
-48.000000
30
0.000000
40
1.000000
50
180.000000
51
270.000000
0
LINE
8
DECOUPE
10
95.000000
20
-49.000000
30
0.000000
11
98.000000
21
-49.000000
31
0.000000
0
ARC
8
DECOUPE
10
98.000000
20
-48.000000
30
0.000000
40
1.000000
50
270.000000
51
0.000000
0
LINE
8
DECOUPE
10
99.000000
20
-48.000000
30
0.000000
11
99.000000
21
-46.500000
31
0.000000
0
ARC
8
DECOUPE
10
99.500000
20
-46.500000
30
0.000000
40
0.500000
50
90.000000
51
180.000000
0
LINE
8
DECOUPE
10
99.500000
20
-46.000000
30
0.000000
11
103.000000
21
-46.000000
31
0.000000
0
LINE
8
DECOUPE
10
103.000000
20
-46.000000
30
0.000000
11
103.000000
21
-90.000000
31
0.000000
0
LINE
8
DECOUPE
10
103.000000
20
-90.000000
30
0.000000
11
95.000000
21
-90.000000
31
0.000000
0
ARC
8
DECOUPE
10
95.000000
20
-91.000000
30
0.000000
40
1.000000
50
90.000000
51
180.000000
0
LINE
8
DECOUPE
10
94.000000
20
-91.000000
30
0.000000
11
94.000000
21
-98.000000
31
0.000000
0
ARC
8
DECOUPE
10
95.000000
20
-98.000000
30
0.000000
40
1.000000
50
180.000000
51
270.000000
0
LINE
8
DECOUPE
10
95.000000
20
-99.000000
30
0.000000
11
98.000000
21
-99.000000
31
0.000000
0
ARC
8
DECOUPE
10
98.000000
20
-98.000000
30
0.000000
40
1.000000
50
270.000000
51
0.000000
0
LINE
8
DECOUPE
10
99.000000
20
-98.000000
30
0.000000
11
99.000000
21
-96.500000
31
0.000000
0
ARC
8
DECOUPE
10
99.500000
20
-96.500000
30
0.000000
40
0.500000
50
90.000000
51
180.000000
0
LINE
8
DECOUPE
10
99.500000
20
-96.000000
30
0.000000
11
103.000000
21
-96.000000
31
0.000000
0
TEXT
8
TEXTE
10
94.000000
20
-138.000000
30
0.000000
40
6.000000
1
crochet 2/4
0
LINE
8
DECOUPE
10
197.000000
20
-96.000000
30
0.000000
11
197.000000
21
-123.000000
31
0.000000
0
ARC
8
DECOUPE
10
200.000000
20
-123.000000
30
0.000000
40
3.000000
50
180.000000
51
270.000000
0
LINE
8
DECOUPE
10
200.000000
20
-126.000000
30
0.000000
11
254.000000
21
-126.000000
31
0.000000
0
ARC
8
DECOUPE
10
254.000000
20
-123.000000
30
0.000000
40
3.000000
50
270.000000
51
0.000000
0
LINE
8
DECOUPE
10
257.000000
20
-123.000000
30
0.000000
11
257.000000
21
-109.000000
31
0.000000
0
ARC
8
DECOUPE
10
254.000000
20
-109.000000
30
0.000000
40
3.000000
50
0.000000
51
90.000000
0
LINE
8
DECOUPE
10
254.000000
20
-106.000000
30
0.000000
11
248.153016
21
-106.000000
31
0.000000
0
LINE
8
DECOUPE
10
248.153016
20
-106.000000
30
0.000000
11
248.153016
21
-104.087723
31
0.000000
0
ARC
8
DECOUPE
10
247.653016
20
-104.087723
30
0.000000
40
0.500000
50
0.000000
51
52.000000
0
LINE
8
DECOUPE
10
247.960846
20
-103.693718
30
0.000000
11
242.960846
21
-99.787290
31
0.000000
0
ARC
8
DECOUPE
10
242.653016
20
-100.181295
30
0.000000
40
0.500000
50
52.000000
51
180.000000
0
LINE
8
DECOUPE
10
242.153016
20
-100.181295
30
0.000000
11
242.153016
21
-106.000000
31
0.000000
0
LINE
8
DECOUPE
10
242.153016
20
-106.000000
30
0.000000
11
212.000000
21
-106.000000
31
0.000000
0
ARC
8
DECOUPE
10
212.000000
20
-103.000000
30
0.000000
40
3.000000
50
180.000000
51
270.000000
0
LINE
8
DECOUPE
10
209.000000
20
-103.000000
30
0.000000
11
209.000000
21
-3.000000
31
0.000000
0
ARC
8
DECOUPE
10
206.000000
20
-3.000000
30
0.000000
40
3.000000
50
360.000000
51
90.000000
0
LINE
8
DECOUPE
10
206.000000
20
0.000000
30
0.000000
11
189.000000
21
0.000000
31
0.000000
0
ARC
8
DECOUPE
10
189.000000
20
-1.000000
30
0.000000
40
1.000000
50
90.000000
51
180.000000
0
LINE
8
DECOUPE
10
188.000000
20
-1.000000
30
0.000000
11
188.000000
21
-8.000000
31
0.000000
0
ARC
8
DECOUPE
10
189.000000
20
-8.000000
30
0.000000
40
1.000000
50
180.000000
51
270.000000
0
LINE
8
DECOUPE
10
189.000000
20
-9.000000
30
0.000000
11
192.000000
21
-9.000000
31
0.000000
0
ARC
8
DECOUPE
10
192.000000
20
-8.000000
30
0.000000
40
1.000000
50
270.000000
51
0.000000
0
LINE
8
DECOUPE
10
193.000000
20
-8.000000
30
0.000000
11
193.000000
21
-6.500000
31
0.000000
0
ARC
8
DECOUPE
10
193.500000
20
-6.500000
30
0.000000
40
0.500000
50
90.000000
51
180.000000
0
LINE
8
DECOUPE
10
193.500000
20
-6.000000
30
0.000000
11
197.000000
21
-6.000000
31
0.000000
0
LINE
8
DECOUPE
10
197.000000
20
-6.000000
30
0.000000
11
197.000000
21
-40.000000
31
0.000000
0
LINE
8
DECOUPE
10
197.000000
20
-40.000000
30
0.000000
11
189.000000
21
-40.000000
31
0.000000
0
ARC
8
DECOUPE
10
189.000000
20
-41.000000
30
0.000000
40
1.000000
50
90.000000
51
180.000000
0
LINE
8
DECOUPE
10
188.000000
20
-41.000000
30
0.000000
11
188.000000
21
-48.000000
31
0.000000
0
ARC
8
DECOUPE
10
189.000000
20
-48.000000
30
0.000000
40
1.000000
50
180.000000
51
270.000000
0
LINE
8
DECOUPE
10
189.000000
20
-49.000000
30
0.000000
11
192.000000
21
-49.000000
31
0.000000
0
ARC
8
DECOUPE
10
192.000000
20
-48.000000
30
0.000000
40
1.000000
50
270.000000
51
0.000000
0
LINE
8
DECOUPE
10
193.000000
20
-48.000000
30
0.000000
11
193.000000
21
-46.500000
31
0.000000
0
ARC
8
DECOUPE
10
193.500000
20
-46.500000
30
0.000000
40
0.500000
50
90.000000
51
180.000000
0
LINE
8
DECOUPE
10
193.500000
20
-46.000000
30
0.000000
11
197.000000
21
-46.000000
31
0.000000
0
LINE
8
DECOUPE
10
197.000000
20
-46.000000
30
0.000000
11
197.000000
21
-90.000000
31
0.000000
0
LINE
8
DECOUPE
10
197.000000
20
-90.000000
30
0.000000
11
189.000000
21
-90.000000
31
0.000000
0
ARC
8
DECOUPE
10
189.000000
20
-91.000000
30
0.000000
40
1.000000
50
90.000000
51
180.000000
0
LINE
8
DECOUPE
10
188.000000
20
-91.000000
30
0.000000
11
188.000000
21
-98.000000
31
0.000000
0
ARC
8
DECOUPE
10
189.000000
20
-98.000000
30
0.000000
40
1.000000
50
180.000000
51
270.000000
0
LINE
8
DECOUPE
10
189.000000
20
-99.000000
30
0.000000
11
192.000000
21
-99.000000
31
0.000000
0
ARC
8
DECOUPE
10
192.000000
20
-98.000000
30
0.000000
40
1.000000
50
270.000000
51
0.000000
0
LINE
8
DECOUPE
10
193.000000
20
-98.000000
30
0.000000
11
193.000000
21
-96.500000
31
0.000000
0
ARC
8
DECOUPE
10
193.500000
20
-96.500000
30
0.000000
40
0.500000
50
90.000000
51
180.000000
0
LINE
8
DECOUPE
10
193.500000
20
-96.000000
30
0.000000
11
197.000000
21
-96.000000
31
0.000000
0
TEXT
8
TEXTE
10
188.000000
20
-138.000000
30
0.000000
40
6.000000
1
crochet 3/4
0
LINE
8
DECOUPE
10
291.000000
20
-96.000000
30
0.000000
11
291.000000
21
-123.000000
31
0.000000
0
ARC
8
DECOUPE
10
294.000000
20
-123.000000
30
0.000000
40
3.000000
50
180.000000
51
270.000000
0
LINE
8
DECOUPE
10
294.000000
20
-126.000000
30
0.000000
11
348.000000
21
-126.000000
31
0.000000
0
ARC
8
DECOUPE
10
348.000000
20
-123.000000
30
0.000000
40
3.000000
50
270.000000
51
0.000000
0
LINE
8
DECOUPE
10
351.000000
20
-123.000000
30
0.000000
11
351.000000
21
-109.000000
31
0.000000
0
ARC
8
DECOUPE
10
348.000000
20
-109.000000
30
0.000000
40
3.000000
50
0.000000
51
90.000000
0
LINE
8
DECOUPE
10
348.000000
20
-106.000000
30
0.000000
11
342.153016
21
-106.000000
31
0.000000
0
LINE
8
DECOUPE
10
342.153016
20
-106.000000
30
0.000000
11
342.153016
21
-104.087723
31
0.000000
0
ARC
8
DECOUPE
10
341.653016
20
-104.087723
30
0.000000
40
0.500000
50
0.000000
51
52.000000
0
LINE
8
DECOUPE
10
341.960846
20
-103.693718
30
0.000000
11
336.960846
21
-99.787290
31
0.000000
0
ARC
8
DECOUPE
10
336.653016
20
-100.181295
30
0.000000
40
0.500000
50
52.000000
51
180.000000
0
LINE
8
DECOUPE
10
336.153016
20
-100.181295
30
0.000000
11
336.153016
21
-106.000000
31
0.000000
0
LINE
8
DECOUPE
10
336.153016
20
-106.000000
30
0.000000
11
306.000000
21
-106.000000
31
0.000000
0
ARC
8
DECOUPE
10
306.000000
20
-103.000000
30
0.000000
40
3.000000
50
180.000000
51
270.000000
0
LINE
8
DECOUPE
10
303.000000
20
-103.000000
30
0.000000
11
303.000000
21
-3.000000
31
0.000000
0
ARC
8
DECOUPE
10
300.000000
20
-3.000000
30
0.000000
40
3.000000
50
360.000000
51
90.000000
0
LINE
8
DECOUPE
10
300.000000
20
0.000000
30
0.000000
11
283.000000
21
0.000000
31
0.000000
0
ARC
8
DECOUPE
10
283.000000
20
-1.000000
30
0.000000
40
1.000000
50
90.000000
51
180.000000
0
LINE
8
DECOUPE
10
282.000000
20
-1.000000
30
0.000000
11
282.000000
21
-8.000000
31
0.000000
0
ARC
8
DECOUPE
10
283.000000
20
-8.000000
30
0.000000
40
1.000000
50
180.000000
51
270.000000
0
LINE
8
DECOUPE
10
283.000000
20
-9.000000
30
0.000000
11
286.000000
21
-9.000000
31
0.000000
0
ARC
8
DECOUPE
10
286.000000
20
-8.000000
30
0.000000
40
1.000000
50
270.000000
51
0.000000
0
LINE
8
DECOUPE
10
287.000000
20
-8.000000
30
0.000000
11
287.000000
21
-6.500000
31
0.000000
0
ARC
8
DECOUPE
10
287.500000
20
-6.500000
30
0.000000
40
0.500000
50
90.000000
51
180.000000
0
LINE
8
DECOUPE
10
287.500000
20
-6.000000
30
0.000000
11
291.000000
21
-6.000000
31
0.000000
0
LINE
8
DECOUPE
10
291.000000
20
-6.000000
30
0.000000
11
291.000000
21
-40.000000
31
0.000000
0
LINE
8
DECOUPE
10
291.000000
20
-40.000000
30
0.000000
11
283.000000
21
-40.000000
31
0.000000
0
ARC
8
DECOUPE
10
283.000000
20
-41.000000
30
0.000000
40
1.000000
50
90.000000
51
180.000000
0
LINE
8
DECOUPE
10
282.000000
20
-41.000000
30
0.000000
11
282.000000
21
-48.000000
31
0.000000
0
ARC
8
DECOUPE
10
283.000000
20
-48.000000
30
0.000000
40
1.000000
50
180.000000
51
270.000000
0
LINE
8
DECOUPE
10
283.000000
20
-49.000000
30
0.000000
11
286.000000
21
-49.000000
31
0.000000
0
ARC
8
DECOUPE
10
286.000000
20
-48.000000
30
0.000000
40
1.000000
50
270.000000
51
0.000000
0
LINE
8
DECOUPE
10
287.000000
20
-48.000000
30
0.000000
11
287.000000
21
-46.500000
31
0.000000
0
ARC
8
DECOUPE
10
287.500000
20
-46.500000
30
0.000000
40
0.500000
50
90.000000
51
180.000000
0
LINE
8
DECOUPE
10
287.500000
20
-46.000000
30
0.000000
11
291.000000
21
-46.000000
31
0.000000
0
LINE
8
DECOUPE
10
291.000000
20
-46.000000
30
0.000000
11
291.000000
21
-90.000000
31
0.000000
0
LINE
8
DECOUPE
10
291.000000
20
-90.000000
30
0.000000
11
283.000000
21
-90.000000
31
0.000000
0
ARC
8
DECOUPE
10
283.000000
20
-91.000000
30
0.000000
40
1.000000
50
90.000000
51
180.000000
0
LINE
8
DECOUPE
10
282.000000
20
-91.000000
30
0.000000
11
282.000000
21
-98.000000
31
0.000000
0
ARC
8
DECOUPE
10
283.000000
20
-98.000000
30
0.000000
40
1.000000
50
180.000000
51
270.000000
0
LINE
8
DECOUPE
10
283.000000
20
-99.000000
30
0.000000
11
286.000000
21
-99.000000
31
0.000000
0
ARC
8
DECOUPE
10
286.000000
20
-98.000000
30
0.000000
40
1.000000
50
270.000000
51
0.000000
0
LINE
8
DECOUPE
10
287.000000
20
-98.000000
30
0.000000
11
287.000000
21
-96.500000
31
0.000000
0
ARC
8
DECOUPE
10
287.500000
20
-96.500000
30
0.000000
40
0.500000
50
90.000000
51
180.000000
0
LINE
8
DECOUPE
10
287.500000
20
-96.000000
30
0.000000
11
291.000000
21
-96.000000
31
0.000000
0
TEXT
8
TEXTE
10
282.000000
20
-138.000000
30
0.000000
40
6.000000
1
crochet 4/4
0
LINE
8
DECOUPE
10
376.000000
20
-74.000000
30
0.000000
11
376.000000
21
-124.000000
31
0.000000
0
ARC
8
DECOUPE
10
378.000000
20
-124.000000
30
0.000000
40
2.000000
50
180.000000
51
270.000000
0
LINE
8
DECOUPE
10
378.000000
20
-126.000000
30
0.000000
11
380.500000
21
-126.000000
31
0.000000
0
ARC
8
DECOUPE
10
380.500000
20
-125.500000
30
0.000000
40
0.500000
50
270.000000
51
0.000000
0
LINE
8
DECOUPE
10
381.000000
20
-125.500000
30
0.000000
11
381.000000
21
-119.500000
31
0.000000
0
ARC
8
DECOUPE
10
381.500000
20
-119.500000
30
0.000000
40
0.500000
50
90.000000
51
180.000000
0
LINE
8
DECOUPE
10
381.500000
20
-119.000000
30
0.000000
11
388.900000
21
-119.000000
31
0.000000
0
ARC
8
DECOUPE
10
388.900000
20
-119.500000
30
0.000000
40
0.500000
50
0.000000
51
90.000000
0
LINE
8
DECOUPE
10
389.400000
20
-119.500000
30
0.000000
11
389.400000
21
-125.500000
31
0.000000
0
ARC
8
DECOUPE
10
389.900000
20
-125.500000
30
0.000000
40
0.500000
50
180.000000
51
270.000000
0
LINE
8
DECOUPE
10
389.900000
20
-126.000000
30
0.000000
11
414.000000
21
-126.000000
31
0.000000
0
ARC
8
DECOUPE
10
414.000000
20
-124.000000
30
0.000000
40
2.000000
50
270.000000
51
0.000000
0
LINE
8
DECOUPE
10
416.000000
20
-124.000000
30
0.000000
11
416.000000
21
-120.000000
31
0.000000
0
ARC
8
DECOUPE
10
418.000000
20
-120.000000
30
0.000000
40
2.000000
50
90.000000
51
180.000000
0
LINE
8
DECOUPE
10
418.000000
20
-118.000000
30
0.000000
11
844.000000
21
-118.000000
31
0.000000
0
ARC
8
DECOUPE
10
844.000000
20
-120.000000
30
0.000000
40
2.000000
50
0.000000
51
90.000000
0
LINE
8
DECOUPE
10
846.000000
20
-120.000000
30
0.000000
11
846.000000
21
-124.000000
31
0.000000
0
ARC
8
DECOUPE
10
848.000000
20
-124.000000
30
0.000000
40
2.000000
50
180.000000
51
270.000000
0
LINE
8
DECOUPE
10
848.000000
20
-126.000000
30
0.000000
11
872.100000
21
-126.000000
31
0.000000
0
ARC
8
DECOUPE
10
872.100000
20
-125.500000
30
0.000000
40
0.500000
50
270.000000
51
0.000000
0
LINE
8
DECOUPE
10
872.600000
20
-125.500000
30
0.000000
11
872.600000
21
-119.500000
31
0.000000
0
ARC
8
DECOUPE
10
873.100000
20
-119.500000
30
0.000000
40
0.500000
50
90.000000
51
180.000000
0
LINE
8
DECOUPE
10
873.100000
20
-119.000000
30
0.000000
11
880.500000
21
-119.000000
31
0.000000
0
ARC
8
DECOUPE
10
880.500000
20
-119.500000
30
0.000000
40
0.500000
50
0.000000
51
90.000000
0
LINE
8
DECOUPE
10
881.000000
20
-119.500000
30
0.000000
11
881.000000
21
-125.500000
31
0.000000
0
ARC
8
DECOUPE
10
881.500000
20
-125.500000
30
0.000000
40
0.500000
50
180.000000
51
270.000000
0
LINE
8
DECOUPE
10
881.500000
20
-126.000000
30
0.000000
11
884.000000
21
-126.000000
31
0.000000
0
ARC
8
DECOUPE
10
884.000000
20
-124.000000
30
0.000000
40
2.000000
50
270.000000
51
0.000000
0
LINE
8
DECOUPE
10
886.000000
20
-124.000000
30
0.000000
11
886.000000
21
-74.000000
31
0.000000
0
ARC
8
DECOUPE
10
880.000000
20
-74.000000
30
0.000000
40
6.000000
50
0.000000
51
90.000000
0
LINE
8
DECOUPE
10
880.000000
20
-68.000000
30
0.000000
11
670.200000
21
-68.000000
31
0.000000
0
ARC
8
DECOUPE
10
670.200000
20
-69.000000
30
0.000000
40
1.000000
50
90.000000
51
180.000000
0
LINE
8
DECOUPE
10
669.200000
20
-69.000000
30
0.000000
11
669.200000
21
-73.700000
31
0.000000
0
LINE
8
DECOUPE
10
669.200000
20
-73.700000
30
0.000000
11
668.900000
21
-74.000000
31
0.000000
0
LINE
8
DECOUPE
10
668.900000
20
-74.000000
30
0.000000
11
668.900000
21
-82.000000
31
0.000000
0
LINE
8
DECOUPE
10
668.900000
20
-82.000000
30
0.000000
11
669.200000
21
-82.300000
31
0.000000
0
LINE
8
DECOUPE
10
669.200000
20
-82.300000
30
0.000000
11
669.200000
21
-86.500000
31
0.000000
0
LINE
8
DECOUPE
10
669.200000
20
-86.500000
30
0.000000
11
670.700000
21
-88.000000
31
0.000000
0
LINE
8
DECOUPE
10
670.700000
20
-88.000000
30
0.000000
11
669.200000
21
-89.500000
31
0.000000
0
LINE
8
DECOUPE
10
669.200000
20
-89.500000
30
0.000000
11
667.700000
21
-88.000000
31
0.000000
0
LINE
8
DECOUPE
10
667.700000
20
-88.000000
30
0.000000
11
662.300000
21
-88.000000
31
0.000000
0
LINE
8
DECOUPE
10
662.300000
20
-88.000000
30
0.000000
11
660.800000
21
-89.500000
31
0.000000
0
LINE
8
DECOUPE
10
660.800000
20
-89.500000
30
0.000000
11
659.300000
21
-88.000000
31
0.000000
0
LINE
8
DECOUPE
10
659.300000
20
-88.000000
30
0.000000
11
660.800000
21
-86.500000
31
0.000000
0
LINE
8
DECOUPE
10
660.800000
20
-86.500000
30
0.000000
11
660.800000
21
-82.300000
31
0.000000
0
LINE
8
DECOUPE
10
660.800000
20
-82.300000
30
0.000000
11
661.100000
21
-82.000000
31
0.000000
0
LINE
8
DECOUPE
10
661.100000
20
-82.000000
30
0.000000
11
661.100000
21
-74.000000
31
0.000000
0
LINE
8
DECOUPE
10
661.100000
20
-74.000000
30
0.000000
11
660.800000
21
-73.700000
31
0.000000
0
LINE
8
DECOUPE
10
660.800000
20
-73.700000
30
0.000000
11
660.800000
21
-69.000000
31
0.000000
0
ARC
8
DECOUPE
10
659.800000
20
-69.000000
30
0.000000
40
1.000000
50
0.000000
51
90.000000
0
LINE
8
DECOUPE
10
659.800000
20
-68.000000
30
0.000000
11
602.200000
21
-68.000000
31
0.000000
0
ARC
8
DECOUPE
10
602.200000
20
-69.000000
30
0.000000
40
1.000000
50
90.000000
51
180.000000
0
LINE
8
DECOUPE
10
601.200000
20
-69.000000
30
0.000000
11
601.200000
21
-73.700000
31
0.000000
0
LINE
8
DECOUPE
10
601.200000
20
-73.700000
30
0.000000
11
600.900000
21
-74.000000
31
0.000000
0
LINE
8
DECOUPE
10
600.900000
20
-74.000000
30
0.000000
11
600.900000
21
-82.000000
31
0.000000
0
LINE
8
DECOUPE
10
600.900000
20
-82.000000
30
0.000000
11
601.200000
21
-82.300000
31
0.000000
0
LINE
8
DECOUPE
10
601.200000
20
-82.300000
30
0.000000
11
601.200000
21
-86.500000
31
0.000000
0
LINE
8
DECOUPE
10
601.200000
20
-86.500000
30
0.000000
11
602.700000
21
-88.000000
31
0.000000
0
LINE
8
DECOUPE
10
602.700000
20
-88.000000
30
0.000000
11
601.200000
21
-89.500000
31
0.000000
0
LINE
8
DECOUPE
10
601.200000
20
-89.500000
30
0.000000
11
599.700000
21
-88.000000
31
0.000000
0
LINE
8
DECOUPE
10
599.700000
20
-88.000000
30
0.000000
11
594.300000
21
-88.000000
31
0.000000
0
LINE
8
DECOUPE
10
594.300000
20
-88.000000
30
0.000000
11
592.800000
21
-89.500000
31
0.000000
0
LINE
8
DECOUPE
10
592.800000
20
-89.500000
30
0.000000
11
591.300000
21
-88.000000
31
0.000000
0
LINE
8
DECOUPE
10
591.300000
20
-88.000000
30
0.000000
11
592.800000
21
-86.500000
31
0.000000
0
LINE
8
DECOUPE
10
592.800000
20
-86.500000
30
0.000000
11
592.800000
21
-82.300000
31
0.000000
0
LINE
8
DECOUPE
10
592.800000
20
-82.300000
30
0.000000
11
593.100000
21
-82.000000
31
0.000000
0
LINE
8
DECOUPE
10
593.100000
20
-82.000000
30
0.000000
11
593.100000
21
-74.000000
31
0.000000
0
LINE
8
DECOUPE
10
593.100000
20
-74.000000
30
0.000000
11
592.800000
21
-73.700000
31
0.000000
0
LINE
8
DECOUPE
10
592.800000
20
-73.700000
30
0.000000
11
592.800000
21
-69.000000
31
0.000000
0
ARC
8
DECOUPE
10
591.800000
20
-69.000000
30
0.000000
40
1.000000
50
0.000000
51
90.000000
0
LINE
8
DECOUPE
10
591.800000
20
-68.000000
30
0.000000
11
382.000000
21
-68.000000
31
0.000000
0
ARC
8
DECOUPE
10
382.000000
20
-74.000000
30
0.000000
40
6.000000
50
90.000000
51
180.000000
0
LINE
8
DECOUPE
10
611.200000
20
-82.000000
30
0.000000
11
611.200000
21
-104.000000
31
0.000000
0
ARC
8
DECOUPE
10
617.200000
20
-104.000000
30
0.000000
40
6.000000
50
180.000000
51
270.000000
0
LINE
8
DECOUPE
10
617.200000
20
-110.000000
30
0.000000
11
644.800000
21
-110.000000
31
0.000000
0
ARC
8
DECOUPE
10
644.800000
20
-104.000000
30
0.000000
40
6.000000
50
270.000000
51
0.000000
0
LINE
8
DECOUPE
10
650.800000
20
-104.000000
30
0.000000
11
650.800000
21
-82.000000
31
0.000000
0
ARC
8
DECOUPE
10
644.800000
20
-82.000000
30
0.000000
40
6.000000
50
0.000000
51
90.000000
0
LINE
8
DECOUPE
10
644.800000
20
-76.000000
30
0.000000
11
617.200000
21
-76.000000
31
0.000000
0
ARC
8
DECOUPE
10
617.200000
20
-82.000000
30
0.000000
40
6.000000
50
90.000000
51
180.000000
0
LINE
8
DECOUPE
10
679.200000
20
-82.000000
30
0.000000
11
679.200000
21
-104.000000
31
0.000000
0
ARC
8
DECOUPE
10
685.200000
20
-104.000000
30
0.000000
40
6.000000
50
180.000000
51
270.000000
0
LINE
8
DECOUPE
10
685.200000
20
-110.000000
30
0.000000
11
830.000000
21
-110.000000
31
0.000000
0
ARC
8
DECOUPE
10
830.000000
20
-104.000000
30
0.000000
40
6.000000
50
270.000000
51
0.000000
0
LINE
8
DECOUPE
10
836.000000
20
-104.000000
30
0.000000
11
836.000000
21
-82.000000
31
0.000000
0
ARC
8
DECOUPE
10
830.000000
20
-82.000000
30
0.000000
40
6.000000
50
0.000000
51
90.000000
0
LINE
8
DECOUPE
10
830.000000
20
-76.000000
30
0.000000
11
685.200000
21
-76.000000
31
0.000000
0
ARC
8
DECOUPE
10
685.200000
20
-82.000000
30
0.000000
40
6.000000
50
90.000000
51
180.000000
0
LINE
8
DECOUPE
10
426.000000
20
-82.000000
30
0.000000
11
426.000000
21
-104.000000
31
0.000000
0
ARC
8
DECOUPE
10
432.000000
20
-104.000000
30
0.000000
40
6.000000
50
180.000000
51
270.000000
0
LINE
8
DECOUPE
10
432.000000
20
-110.000000
30
0.000000
11
576.800000
21
-110.000000
31
0.000000
0
ARC
8
DECOUPE
10
576.800000
20
-104.000000
30
0.000000
40
6.000000
50
270.000000
51
0.000000
0
LINE
8
DECOUPE
10
582.800000
20
-104.000000
30
0.000000
11
582.800000
21
-82.000000
31
0.000000
0
ARC
8
DECOUPE
10
576.800000
20
-82.000000
30
0.000000
40
6.000000
50
0.000000
51
90.000000
0
LINE
8
DECOUPE
10
576.800000
20
-76.000000
30
0.000000
11
432.000000
21
-76.000000
31
0.000000
0
ARC
8
DECOUPE
10
432.000000
20
-82.000000
30
0.000000
40
6.000000
50
90.000000
51
180.000000
0
TEXT
8
TEXTE
10
376.000000
20
-138.000000
30
0.000000
40
6.000000
1
pied 1/4
0
LINE
8
DECOUPE
10
911.000000
20
-74.000000
30
0.000000
11
911.000000
21
-124.000000
31
0.000000
0
ARC
8
DECOUPE
10
913.000000
20
-124.000000
30
0.000000
40
2.000000
50
180.000000
51
270.000000
0
LINE
8
DECOUPE
10
913.000000
20
-126.000000
30
0.000000
11
915.500000
21
-126.000000
31
0.000000
0
ARC
8
DECOUPE
10
915.500000
20
-125.500000
30
0.000000
40
0.500000
50
270.000000
51
0.000000
0
LINE
8
DECOUPE
10
916.000000
20
-125.500000
30
0.000000
11
916.000000
21
-119.500000
31
0.000000
0
ARC
8
DECOUPE
10
916.500000
20
-119.500000
30
0.000000
40
0.500000
50
90.000000
51
180.000000
0
LINE
8
DECOUPE
10
916.500000
20
-119.000000
30
0.000000
11
923.900000
21
-119.000000
31
0.000000
0
ARC
8
DECOUPE
10
923.900000
20
-119.500000
30
0.000000
40
0.500000
50
0.000000
51
90.000000
0
LINE
8
DECOUPE
10
924.400000
20
-119.500000
30
0.000000
11
924.400000
21
-125.500000
31
0.000000
0
ARC
8
DECOUPE
10
924.900000
20
-125.500000
30
0.000000
40
0.500000
50
180.000000
51
270.000000
0
LINE
8
DECOUPE
10
924.900000
20
-126.000000
30
0.000000
11
949.000000
21
-126.000000
31
0.000000
0
ARC
8
DECOUPE
10
949.000000
20
-124.000000
30
0.000000
40
2.000000
50
270.000000
51
0.000000
0
LINE
8
DECOUPE
10
951.000000
20
-124.000000
30
0.000000
11
951.000000
21
-120.000000
31
0.000000
0
ARC
8
DECOUPE
10
953.000000
20
-120.000000
30
0.000000
40
2.000000
50
90.000000
51
180.000000
0
LINE
8
DECOUPE
10
953.000000
20
-118.000000
30
0.000000
11
1379.000000
21
-118.000000
31
0.000000
0
ARC
8
DECOUPE
10
1379.000000
20
-120.000000
30
0.000000
40
2.000000
50
0.000000
51
90.000000
0
LINE
8
DECOUPE
10
1381.000000
20
-120.000000
30
0.000000
11
1381.000000
21
-124.000000
31
0.000000
0
ARC
8
DECOUPE
10
1383.000000
20
-124.000000
30
0.000000
40
2.000000
50
180.000000
51
270.000000
0
LINE
8
DECOUPE
10
1383.000000
20
-126.000000
30
0.000000
11
1407.100000
21
-126.000000
31
0.000000
0
ARC
8
DECOUPE
10
1407.100000
20
-125.500000
30
0.000000
40
0.500000
50
270.000000
51
0.000000
0
LINE
8
DECOUPE
10
1407.600000
20
-125.500000
30
0.000000
11
1407.600000
21
-119.500000
31
0.000000
0
ARC
8
DECOUPE
10
1408.100000
20
-119.500000
30
0.000000
40
0.500000
50
90.000000
51
180.000000
0
LINE
8
DECOUPE
10
1408.100000
20
-119.000000
30
0.000000
11
1415.500000
21
-119.000000
31
0.000000
0
ARC
8
DECOUPE
10
1415.500000
20
-119.500000
30
0.000000
40
0.500000
50
0.000000
51
90.000000
0
LINE
8
DECOUPE
10
1416.000000
20
-119.500000
30
0.000000
11
1416.000000
21
-125.500000
31
0.000000
0
ARC
8
DECOUPE
10
1416.500000
20
-125.500000
30
0.000000
40
0.500000
50
180.000000
51
270.000000
0
LINE
8
DECOUPE
10
1416.500000
20
-126.000000
30
0.000000
11
1419.000000
21
-126.000000
31
0.000000
0
ARC
8
DECOUPE
10
1419.000000
20
-124.000000
30
0.000000
40
2.000000
50
270.000000
51
0.000000
0
LINE
8
DECOUPE
10
1421.000000
20
-124.000000
30
0.000000
11
1421.000000
21
-74.000000
31
0.000000
0
ARC
8
DECOUPE
10
1415.000000
20
-74.000000
30
0.000000
40
6.000000
50
0.000000
51
90.000000
0
LINE
8
DECOUPE
10
1415.000000
20
-68.000000
30
0.000000
11
1205.200000
21
-68.000000
31
0.000000
0
ARC
8
DECOUPE
10
1205.200000
20
-69.000000
30
0.000000
40
1.000000
50
90.000000
51
180.000000
0
LINE
8
DECOUPE
10
1204.200000
20
-69.000000
30
0.000000
11
1204.200000
21
-73.700000
31
0.000000
0
LINE
8
DECOUPE
10
1204.200000
20
-73.700000
30
0.000000
11
1203.900000
21
-74.000000
31
0.000000
0
LINE
8
DECOUPE
10
1203.900000
20
-74.000000
30
0.000000
11
1203.900000
21
-82.000000
31
0.000000
0
LINE
8
DECOUPE
10
1203.900000
20
-82.000000
30
0.000000
11
1204.200000
21
-82.300000
31
0.000000
0
LINE
8
DECOUPE
10
1204.200000
20
-82.300000
30
0.000000
11
1204.200000
21
-86.500000
31
0.000000
0
LINE
8
DECOUPE
10
1204.200000
20
-86.500000
30
0.000000
11
1205.700000
21
-88.000000
31
0.000000
0
LINE
8
DECOUPE
10
1205.700000
20
-88.000000
30
0.000000
11
1204.200000
21
-89.500000
31
0.000000
0
LINE
8
DECOUPE
10
1204.200000
20
-89.500000
30
0.000000
11
1202.700000
21
-88.000000
31
0.000000
0
LINE
8
DECOUPE
10
1202.700000
20
-88.000000
30
0.000000
11
1197.300000
21
-88.000000
31
0.000000
0
LINE
8
DECOUPE
10
1197.300000
20
-88.000000
30
0.000000
11
1195.800000
21
-89.500000
31
0.000000
0
LINE
8
DECOUPE
10
1195.800000
20
-89.500000
30
0.000000
11
1194.300000
21
-88.000000
31
0.000000
0
LINE
8
DECOUPE
10
1194.300000
20
-88.000000
30
0.000000
11
1195.800000
21
-86.500000
31
0.000000
0
LINE
8
DECOUPE
10
1195.800000
20
-86.500000
30
0.000000
11
1195.800000
21
-82.300000
31
0.000000
0
LINE
8
DECOUPE
10
1195.800000
20
-82.300000
30
0.000000
11
1196.100000
21
-82.000000
31
0.000000
0
LINE
8
DECOUPE
10
1196.100000
20
-82.000000
30
0.000000
11
1196.100000
21
-74.000000
31
0.000000
0
LINE
8
DECOUPE
10
1196.100000
20
-74.000000
30
0.000000
11
1195.800000
21
-73.700000
31
0.000000
0
LINE
8
DECOUPE
10
1195.800000
20
-73.700000
30
0.000000
11
1195.800000
21
-69.000000
31
0.000000
0
ARC
8
DECOUPE
10
1194.800000
20
-69.000000
30
0.000000
40
1.000000
50
0.000000
51
90.000000
0
LINE
8
DECOUPE
10
1194.800000
20
-68.000000
30
0.000000
11
1137.200000
21
-68.000000
31
0.000000
0
ARC
8
DECOUPE
10
1137.200000
20
-69.000000
30
0.000000
40
1.000000
50
90.000000
51
180.000000
0
LINE
8
DECOUPE
10
1136.200000
20
-69.000000
30
0.000000
11
1136.200000
21
-73.700000
31
0.000000
0
LINE
8
DECOUPE
10
1136.200000
20
-73.700000
30
0.000000
11
1135.900000
21
-74.000000
31
0.000000
0
LINE
8
DECOUPE
10
1135.900000
20
-74.000000
30
0.000000
11
1135.900000
21
-82.000000
31
0.000000
0
LINE
8
DECOUPE
10
1135.900000
20
-82.000000
30
0.000000
11
1136.200000
21
-82.300000
31
0.000000
0
LINE
8
DECOUPE
10
1136.200000
20
-82.300000
30
0.000000
11
1136.200000
21
-86.500000
31
0.000000
0
LINE
8
DECOUPE
10
1136.200000
20
-86.500000
30
0.000000
11
1137.700000
21
-88.000000
31
0.000000
0
LINE
8
DECOUPE
10
1137.700000
20
-88.000000
30
0.000000
11
1136.200000
21
-89.500000
31
0.000000
0
LINE
8
DECOUPE
10
1136.200000
20
-89.500000
30
0.000000
11
1134.700000
21
-88.000000
31
0.000000
0
LINE
8
DECOUPE
10
1134.700000
20
-88.000000
30
0.000000
11
1129.300000
21
-88.000000
31
0.000000
0
LINE
8
DECOUPE
10
1129.300000
20
-88.000000
30
0.000000
11
1127.800000
21
-89.500000
31
0.000000
0
LINE
8
DECOUPE
10
1127.800000
20
-89.500000
30
0.000000
11
1126.300000
21
-88.000000
31
0.000000
0
LINE
8
DECOUPE
10
1126.300000
20
-88.000000
30
0.000000
11
1127.800000
21
-86.500000
31
0.000000
0
LINE
8
DECOUPE
10
1127.800000
20
-86.500000
30
0.000000
11
1127.800000
21
-82.300000
31
0.000000
0
LINE
8
DECOUPE
10
1127.800000
20
-82.300000
30
0.000000
11
1128.100000
21
-82.000000
31
0.000000
0
LINE
8
DECOUPE
10
1128.100000
20
-82.000000
30
0.000000
11
1128.100000
21
-74.000000
31
0.000000
0
LINE
8
DECOUPE
10
1128.100000
20
-74.000000
30
0.000000
11
1127.800000
21
-73.700000
31
0.000000
0
LINE
8
DECOUPE
10
1127.800000
20
-73.700000
30
0.000000
11
1127.800000
21
-69.000000
31
0.000000
0
ARC
8
DECOUPE
10
1126.800000
20
-69.000000
30
0.000000
40
1.000000
50
0.000000
51
90.000000
0
LINE
8
DECOUPE
10
1126.800000
20
-68.000000
30
0.000000
11
917.000000
21
-68.000000
31
0.000000
0
ARC
8
DECOUPE
10
917.000000
20
-74.000000
30
0.000000
40
6.000000
50
90.000000
51
180.000000
0
LINE
8
DECOUPE
10
1146.200000
20
-82.000000
30
0.000000
11
1146.200000
21
-104.000000
31
0.000000
0
ARC
8
DECOUPE
10
1152.200000
20
-104.000000
30
0.000000
40
6.000000
50
180.000000
51
270.000000
0
LINE
8
DECOUPE
10
1152.200000
20
-110.000000
30
0.000000
11
1179.800000
21
-110.000000
31
0.000000
0
ARC
8
DECOUPE
10
1179.800000
20
-104.000000
30
0.000000
40
6.000000
50
270.000000
51
0.000000
0
LINE
8
DECOUPE
10
1185.800000
20
-104.000000
30
0.000000
11
1185.800000
21
-82.000000
31
0.000000
0
ARC
8
DECOUPE
10
1179.800000
20
-82.000000
30
0.000000
40
6.000000
50
0.000000
51
90.000000
0
LINE
8
DECOUPE
10
1179.800000
20
-76.000000
30
0.000000
11
1152.200000
21
-76.000000
31
0.000000
0
ARC
8
DECOUPE
10
1152.200000
20
-82.000000
30
0.000000
40
6.000000
50
90.000000
51
180.000000
0
LINE
8
DECOUPE
10
1214.200000
20
-82.000000
30
0.000000
11
1214.200000
21
-104.000000
31
0.000000
0
ARC
8
DECOUPE
10
1220.200000
20
-104.000000
30
0.000000
40
6.000000
50
180.000000
51
270.000000
0
LINE
8
DECOUPE
10
1220.200000
20
-110.000000
30
0.000000
11
1365.000000
21
-110.000000
31
0.000000
0
ARC
8
DECOUPE
10
1365.000000
20
-104.000000
30
0.000000
40
6.000000
50
270.000000
51
0.000000
0
LINE
8
DECOUPE
10
1371.000000
20
-104.000000
30
0.000000
11
1371.000000
21
-82.000000
31
0.000000
0
ARC
8
DECOUPE
10
1365.000000
20
-82.000000
30
0.000000
40
6.000000
50
0.000000
51
90.000000
0
LINE
8
DECOUPE
10
1365.000000
20
-76.000000
30
0.000000
11
1220.200000
21
-76.000000
31
0.000000
0
ARC
8
DECOUPE
10
1220.200000
20
-82.000000
30
0.000000
40
6.000000
50
90.000000
51
180.000000
0
LINE
8
DECOUPE
10
961.000000
20
-82.000000
30
0.000000
11
961.000000
21
-104.000000
31
0.000000
0
ARC
8
DECOUPE
10
967.000000
20
-104.000000
30
0.000000
40
6.000000
50
180.000000
51
270.000000
0
LINE
8
DECOUPE
10
967.000000
20
-110.000000
30
0.000000
11
1111.800000
21
-110.000000
31
0.000000
0
ARC
8
DECOUPE
10
1111.800000
20
-104.000000
30
0.000000
40
6.000000
50
270.000000
51
0.000000
0
LINE
8
DECOUPE
10
1117.800000
20
-104.000000
30
0.000000
11
1117.800000
21
-82.000000
31
0.000000
0
ARC
8
DECOUPE
10
1111.800000
20
-82.000000
30
0.000000
40
6.000000
50
0.000000
51
90.000000
0
LINE
8
DECOUPE
10
1111.800000
20
-76.000000
30
0.000000
11
967.000000
21
-76.000000
31
0.000000
0
ARC
8
DECOUPE
10
967.000000
20
-82.000000
30
0.000000
40
6.000000
50
90.000000
51
180.000000
0
TEXT
8
TEXTE
10
911.000000
20
-138.000000
30
0.000000
40
6.000000
1
pied 2/4
0
LINE
8
DECOUPE
10
1446.000000
20
-74.000000
30
0.000000
11
1446.000000
21
-124.000000
31
0.000000
0
ARC
8
DECOUPE
10
1448.000000
20
-124.000000
30
0.000000
40
2.000000
50
180.000000
51
270.000000
0
LINE
8
DECOUPE
10
1448.000000
20
-126.000000
30
0.000000
11
1450.500000
21
-126.000000
31
0.000000
0
ARC
8
DECOUPE
10
1450.500000
20
-125.500000
30
0.000000
40
0.500000
50
270.000000
51
0.000000
0
LINE
8
DECOUPE
10
1451.000000
20
-125.500000
30
0.000000
11
1451.000000
21
-119.500000
31
0.000000
0
ARC
8
DECOUPE
10
1451.500000
20
-119.500000
30
0.000000
40
0.500000
50
90.000000
51
180.000000
0
LINE
8
DECOUPE
10
1451.500000
20
-119.000000
30
0.000000
11
1458.900000
21
-119.000000
31
0.000000
0
ARC
8
DECOUPE
10
1458.900000
20
-119.500000
30
0.000000
40
0.500000
50
0.000000
51
90.000000
0
LINE
8
DECOUPE
10
1459.400000
20
-119.500000
30
0.000000
11
1459.400000
21
-125.500000
31
0.000000
0
ARC
8
DECOUPE
10
1459.900000
20
-125.500000
30
0.000000
40
0.500000
50
180.000000
51
270.000000
0
LINE
8
DECOUPE
10
1459.900000
20
-126.000000
30
0.000000
11
1484.000000
21
-126.000000
31
0.000000
0
ARC
8
DECOUPE
10
1484.000000
20
-124.000000
30
0.000000
40
2.000000
50
270.000000
51
0.000000
0
LINE
8
DECOUPE
10
1486.000000
20
-124.000000
30
0.000000
11
1486.000000
21
-120.000000
31
0.000000
0
ARC
8
DECOUPE
10
1488.000000
20
-120.000000
30
0.000000
40
2.000000
50
90.000000
51
180.000000
0
LINE
8
DECOUPE
10
1488.000000
20
-118.000000
30
0.000000
11
1914.000000
21
-118.000000
31
0.000000
0
ARC
8
DECOUPE
10
1914.000000
20
-120.000000
30
0.000000
40
2.000000
50
0.000000
51
90.000000
0
LINE
8
DECOUPE
10
1916.000000
20
-120.000000
30
0.000000
11
1916.000000
21
-124.000000
31
0.000000
0
ARC
8
DECOUPE
10
1918.000000
20
-124.000000
30
0.000000
40
2.000000
50
180.000000
51
270.000000
0
LINE
8
DECOUPE
10
1918.000000
20
-126.000000
30
0.000000
11
1942.100000
21
-126.000000
31
0.000000
0
ARC
8
DECOUPE
10
1942.100000
20
-125.500000
30
0.000000
40
0.500000
50
270.000000
51
0.000000
0
LINE
8
DECOUPE
10
1942.600000
20
-125.500000
30
0.000000
11
1942.600000
21
-119.500000
31
0.000000
0
ARC
8
DECOUPE
10
1943.100000
20
-119.500000
30
0.000000
40
0.500000
50
90.000000
51
180.000000
0
LINE
8
DECOUPE
10
1943.100000
20
-119.000000
30
0.000000
11
1950.500000
21
-119.000000
31
0.000000
0
ARC
8
DECOUPE
10
1950.500000
20
-119.500000
30
0.000000
40
0.500000
50
0.000000
51
90.000000
0
LINE
8
DECOUPE
10
1951.000000
20
-119.500000
30
0.000000
11
1951.000000
21
-125.500000
31
0.000000
0
ARC
8
DECOUPE
10
1951.500000
20
-125.500000
30
0.000000
40
0.500000
50
180.000000
51
270.000000
0
LINE
8
DECOUPE
10
1951.500000
20
-126.000000
30
0.000000
11
1954.000000
21
-126.000000
31
0.000000
0
ARC
8
DECOUPE
10
1954.000000
20
-124.000000
30
0.000000
40
2.000000
50
270.000000
51
0.000000
0
LINE
8
DECOUPE
10
1956.000000
20
-124.000000
30
0.000000
11
1956.000000
21
-74.000000
31
0.000000
0
ARC
8
DECOUPE
10
1950.000000
20
-74.000000
30
0.000000
40
6.000000
50
0.000000
51
90.000000
0
LINE
8
DECOUPE
10
1950.000000
20
-68.000000
30
0.000000
11
1740.200000
21
-68.000000
31
0.000000
0
ARC
8
DECOUPE
10
1740.200000
20
-69.000000
30
0.000000
40
1.000000
50
90.000000
51
180.000000
0
LINE
8
DECOUPE
10
1739.200000
20
-69.000000
30
0.000000
11
1739.200000
21
-73.700000
31
0.000000
0
LINE
8
DECOUPE
10
1739.200000
20
-73.700000
30
0.000000
11
1738.900000
21
-74.000000
31
0.000000
0
LINE
8
DECOUPE
10
1738.900000
20
-74.000000
30
0.000000
11
1738.900000
21
-82.000000
31
0.000000
0
LINE
8
DECOUPE
10
1738.900000
20
-82.000000
30
0.000000
11
1739.200000
21
-82.300000
31
0.000000
0
LINE
8
DECOUPE
10
1739.200000
20
-82.300000
30
0.000000
11
1739.200000
21
-86.500000
31
0.000000
0
LINE
8
DECOUPE
10
1739.200000
20
-86.500000
30
0.000000
11
1740.700000
21
-88.000000
31
0.000000
0
LINE
8
DECOUPE
10
1740.700000
20
-88.000000
30
0.000000
11
1739.200000
21
-89.500000
31
0.000000
0
LINE
8
DECOUPE
10
1739.200000
20
-89.500000
30
0.000000
11
1737.700000
21
-88.000000
31
0.000000
0
LINE
8
DECOUPE
10
1737.700000
20
-88.000000
30
0.000000
11
1732.300000
21
-88.000000
31
0.000000
0
LINE
8
DECOUPE
10
1732.300000
20
-88.000000
30
0.000000
11
1730.800000
21
-89.500000
31
0.000000
0
LINE
8
DECOUPE
10
1730.800000
20
-89.500000
30
0.000000
11
1729.300000
21
-88.000000
31
0.000000
0
LINE
8
DECOUPE
10
1729.300000
20
-88.000000
30
0.000000
11
1730.800000
21
-86.500000
31
0.000000
0
LINE
8
DECOUPE
10
1730.800000
20
-86.500000
30
0.000000
11
1730.800000
21
-82.300000
31
0.000000
0
LINE
8
DECOUPE
10
1730.800000
20
-82.300000
30
0.000000
11
1731.100000
21
-82.000000
31
0.000000
0
LINE
8
DECOUPE
10
1731.100000
20
-82.000000
30
0.000000
11
1731.100000
21
-74.000000
31
0.000000
0
LINE
8
DECOUPE
10
1731.100000
20
-74.000000
30
0.000000
11
1730.800000
21
-73.700000
31
0.000000
0
LINE
8
DECOUPE
10
1730.800000
20
-73.700000
30
0.000000
11
1730.800000
21
-69.000000
31
0.000000
0
ARC
8
DECOUPE
10
1729.800000
20
-69.000000
30
0.000000
40
1.000000
50
0.000000
51
90.000000
0
LINE
8
DECOUPE
10
1729.800000
20
-68.000000
30
0.000000
11
1672.200000
21
-68.000000
31
0.000000
0
ARC
8
DECOUPE
10
1672.200000
20
-69.000000
30
0.000000
40
1.000000
50
90.000000
51
180.000000
0
LINE
8
DECOUPE
10
1671.200000
20
-69.000000
30
0.000000
11
1671.200000
21
-73.700000
31
0.000000
0
LINE
8
DECOUPE
10
1671.200000
20
-73.700000
30
0.000000
11
1670.900000
21
-74.000000
31
0.000000
0
LINE
8
DECOUPE
10
1670.900000
20
-74.000000
30
0.000000
11
1670.900000
21
-82.000000
31
0.000000
0
LINE
8
DECOUPE
10
1670.900000
20
-82.000000
30
0.000000
11
1671.200000
21
-82.300000
31
0.000000
0
LINE
8
DECOUPE
10
1671.200000
20
-82.300000
30
0.000000
11
1671.200000
21
-86.500000
31
0.000000
0
LINE
8
DECOUPE
10
1671.200000
20
-86.500000
30
0.000000
11
1672.700000
21
-88.000000
31
0.000000
0
LINE
8
DECOUPE
10
1672.700000
20
-88.000000
30
0.000000
11
1671.200000
21
-89.500000
31
0.000000
0
LINE
8
DECOUPE
10
1671.200000
20
-89.500000
30
0.000000
11
1669.700000
21
-88.000000
31
0.000000
0
LINE
8
DECOUPE
10
1669.700000
20
-88.000000
30
0.000000
11
1664.300000
21
-88.000000
31
0.000000
0
LINE
8
DECOUPE
10
1664.300000
20
-88.000000
30
0.000000
11
1662.800000
21
-89.500000
31
0.000000
0
LINE
8
DECOUPE
10
1662.800000
20
-89.500000
30
0.000000
11
1661.300000
21
-88.000000
31
0.000000
0
LINE
8
DECOUPE
10
1661.300000
20
-88.000000
30
0.000000
11
1662.800000
21
-86.500000
31
0.000000
0
LINE
8
DECOUPE
10
1662.800000
20
-86.500000
30
0.000000
11
1662.800000
21
-82.300000
31
0.000000
0
LINE
8
DECOUPE
10
1662.800000
20
-82.300000
30
0.000000
11
1663.100000
21
-82.000000
31
0.000000
0
LINE
8
DECOUPE
10
1663.100000
20
-82.000000
30
0.000000
11
1663.100000
21
-74.000000
31
0.000000
0
LINE
8
DECOUPE
10
1663.100000
20
-74.000000
30
0.000000
11
1662.800000
21
-73.700000
31
0.000000
0
LINE
8
DECOUPE
10
1662.800000
20
-73.700000
30
0.000000
11
1662.800000
21
-69.000000
31
0.000000
0
ARC
8
DECOUPE
10
1661.800000
20
-69.000000
30
0.000000
40
1.000000
50
0.000000
51
90.000000
0
LINE
8
DECOUPE
10
1661.800000
20
-68.000000
30
0.000000
11
1452.000000
21
-68.000000
31
0.000000
0
ARC
8
DECOUPE
10
1452.000000
20
-74.000000
30
0.000000
40
6.000000
50
90.000000
51
180.000000
0
LINE
8
DECOUPE
10
1681.200000
20
-82.000000
30
0.000000
11
1681.200000
21
-104.000000
31
0.000000
0
ARC
8
DECOUPE
10
1687.200000
20
-104.000000
30
0.000000
40
6.000000
50
180.000000
51
270.000000
0
LINE
8
DECOUPE
10
1687.200000
20
-110.000000
30
0.000000
11
1714.800000
21
-110.000000
31
0.000000
0
ARC
8
DECOUPE
10
1714.800000
20
-104.000000
30
0.000000
40
6.000000
50
270.000000
51
0.000000
0
LINE
8
DECOUPE
10
1720.800000
20
-104.000000
30
0.000000
11
1720.800000
21
-82.000000
31
0.000000
0
ARC
8
DECOUPE
10
1714.800000
20
-82.000000
30
0.000000
40
6.000000
50
0.000000
51
90.000000
0
LINE
8
DECOUPE
10
1714.800000
20
-76.000000
30
0.000000
11
1687.200000
21
-76.000000
31
0.000000
0
ARC
8
DECOUPE
10
1687.200000
20
-82.000000
30
0.000000
40
6.000000
50
90.000000
51
180.000000
0
LINE
8
DECOUPE
10
1749.200000
20
-82.000000
30
0.000000
11
1749.200000
21
-104.000000
31
0.000000
0
ARC
8
DECOUPE
10
1755.200000
20
-104.000000
30
0.000000
40
6.000000
50
180.000000
51
270.000000
0
LINE
8
DECOUPE
10
1755.200000
20
-110.000000
30
0.000000
11
1900.000000
21
-110.000000
31
0.000000
0
ARC
8
DECOUPE
10
1900.000000
20
-104.000000
30
0.000000
40
6.000000
50
270.000000
51
0.000000
0
LINE
8
DECOUPE
10
1906.000000
20
-104.000000
30
0.000000
11
1906.000000
21
-82.000000
31
0.000000
0
ARC
8
DECOUPE
10
1900.000000
20
-82.000000
30
0.000000
40
6.000000
50
0.000000
51
90.000000
0
LINE
8
DECOUPE
10
1900.000000
20
-76.000000
30
0.000000
11
1755.200000
21
-76.000000
31
0.000000
0
ARC
8
DECOUPE
10
1755.200000
20
-82.000000
30
0.000000
40
6.000000
50
90.000000
51
180.000000
0
LINE
8
DECOUPE
10
1496.000000
20
-82.000000
30
0.000000
11
1496.000000
21
-104.000000
31
0.000000
0
ARC
8
DECOUPE
10
1502.000000
20
-104.000000
30
0.000000
40
6.000000
50
180.000000
51
270.000000
0
LINE
8
DECOUPE
10
1502.000000
20
-110.000000
30
0.000000
11
1646.800000
21
-110.000000
31
0.000000
0
ARC
8
DECOUPE
10
1646.800000
20
-104.000000
30
0.000000
40
6.000000
50
270.000000
51
0.000000
0
LINE
8
DECOUPE
10
1652.800000
20
-104.000000
30
0.000000
11
1652.800000
21
-82.000000
31
0.000000
0
ARC
8
DECOUPE
10
1646.800000
20
-82.000000
30
0.000000
40
6.000000
50
0.000000
51
90.000000
0
LINE
8
DECOUPE
10
1646.800000
20
-76.000000
30
0.000000
11
1502.000000
21
-76.000000
31
0.000000
0
ARC
8
DECOUPE
10
1502.000000
20
-82.000000
30
0.000000
40
6.000000
50
90.000000
51
180.000000
0
TEXT
8
TEXTE
10
1446.000000
20
-138.000000
30
0.000000
40
6.000000
1
pied 3/4
0
LINE
8
DECOUPE
10
1981.000000
20
-74.000000
30
0.000000
11
1981.000000
21
-124.000000
31
0.000000
0
ARC
8
DECOUPE
10
1983.000000
20
-124.000000
30
0.000000
40
2.000000
50
180.000000
51
270.000000
0
LINE
8
DECOUPE
10
1983.000000
20
-126.000000
30
0.000000
11
1985.500000
21
-126.000000
31
0.000000
0
ARC
8
DECOUPE
10
1985.500000
20
-125.500000
30
0.000000
40
0.500000
50
270.000000
51
0.000000
0
LINE
8
DECOUPE
10
1986.000000
20
-125.500000
30
0.000000
11
1986.000000
21
-119.500000
31
0.000000
0
ARC
8
DECOUPE
10
1986.500000
20
-119.500000
30
0.000000
40
0.500000
50
90.000000
51
180.000000
0
LINE
8
DECOUPE
10
1986.500000
20
-119.000000
30
0.000000
11
1993.900000
21
-119.000000
31
0.000000
0
ARC
8
DECOUPE
10
1993.900000
20
-119.500000
30
0.000000
40
0.500000
50
0.000000
51
90.000000
0
LINE
8
DECOUPE
10
1994.400000
20
-119.500000
30
0.000000
11
1994.400000
21
-125.500000
31
0.000000
0
ARC
8
DECOUPE
10
1994.900000
20
-125.500000
30
0.000000
40
0.500000
50
180.000000
51
270.000000
0
LINE
8
DECOUPE
10
1994.900000
20
-126.000000
30
0.000000
11
2019.000000
21
-126.000000
31
0.000000
0
ARC
8
DECOUPE
10
2019.000000
20
-124.000000
30
0.000000
40
2.000000
50
270.000000
51
0.000000
0
LINE
8
DECOUPE
10
2021.000000
20
-124.000000
30
0.000000
11
2021.000000
21
-120.000000
31
0.000000
0
ARC
8
DECOUPE
10
2023.000000
20
-120.000000
30
0.000000
40
2.000000
50
90.000000
51
180.000000
0
LINE
8
DECOUPE
10
2023.000000
20
-118.000000
30
0.000000
11
2449.000000
21
-118.000000
31
0.000000
0
ARC
8
DECOUPE
10
2449.000000
20
-120.000000
30
0.000000
40
2.000000
50
0.000000
51
90.000000
0
LINE
8
DECOUPE
10
2451.000000
20
-120.000000
30
0.000000
11
2451.000000
21
-124.000000
31
0.000000
0
ARC
8
DECOUPE
10
2453.000000
20
-124.000000
30
0.000000
40
2.000000
50
180.000000
51
270.000000
0
LINE
8
DECOUPE
10
2453.000000
20
-126.000000
30
0.000000
11
2477.100000
21
-126.000000
31
0.000000
0
ARC
8
DECOUPE
10
2477.100000
20
-125.500000
30
0.000000
40
0.500000
50
270.000000
51
0.000000
0
LINE
8
DECOUPE
10
2477.600000
20
-125.500000
30
0.000000
11
2477.600000
21
-119.500000
31
0.000000
0
ARC
8
DECOUPE
10
2478.100000
20
-119.500000
30
0.000000
40
0.500000
50
90.000000
51
180.000000
0
LINE
8
DECOUPE
10
2478.100000
20
-119.000000
30
0.000000
11
2485.500000
21
-119.000000
31
0.000000
0
ARC
8
DECOUPE
10
2485.500000
20
-119.500000
30
0.000000
40
0.500000
50
0.000000
51
90.000000
0
LINE
8
DECOUPE
10
2486.000000
20
-119.500000
30
0.000000
11
2486.000000
21
-125.500000
31
0.000000
0
ARC
8
DECOUPE
10
2486.500000
20
-125.500000
30
0.000000
40
0.500000
50
180.000000
51
270.000000
0
LINE
8
DECOUPE
10
2486.500000
20
-126.000000
30
0.000000
11
2489.000000
21
-126.000000
31
0.000000
0
ARC
8
DECOUPE
10
2489.000000
20
-124.000000
30
0.000000
40
2.000000
50
270.000000
51
0.000000
0
LINE
8
DECOUPE
10
2491.000000
20
-124.000000
30
0.000000
11
2491.000000
21
-74.000000
31
0.000000
0
ARC
8
DECOUPE
10
2485.000000
20
-74.000000
30
0.000000
40
6.000000
50
0.000000
51
90.000000
0
LINE
8
DECOUPE
10
2485.000000
20
-68.000000
30
0.000000
11
2275.200000
21
-68.000000
31
0.000000
0
ARC
8
DECOUPE
10
2275.200000
20
-69.000000
30
0.000000
40
1.000000
50
90.000000
51
180.000000
0
LINE
8
DECOUPE
10
2274.200000
20
-69.000000
30
0.000000
11
2274.200000
21
-73.700000
31
0.000000
0
LINE
8
DECOUPE
10
2274.200000
20
-73.700000
30
0.000000
11
2273.900000
21
-74.000000
31
0.000000
0
LINE
8
DECOUPE
10
2273.900000
20
-74.000000
30
0.000000
11
2273.900000
21
-82.000000
31
0.000000
0
LINE
8
DECOUPE
10
2273.900000
20
-82.000000
30
0.000000
11
2274.200000
21
-82.300000
31
0.000000
0
LINE
8
DECOUPE
10
2274.200000
20
-82.300000
30
0.000000
11
2274.200000
21
-86.500000
31
0.000000
0
LINE
8
DECOUPE
10
2274.200000
20
-86.500000
30
0.000000
11
2275.700000
21
-88.000000
31
0.000000
0
LINE
8
DECOUPE
10
2275.700000
20
-88.000000
30
0.000000
11
2274.200000
21
-89.500000
31
0.000000
0
LINE
8
DECOUPE
10
2274.200000
20
-89.500000
30
0.000000
11
2272.700000
21
-88.000000
31
0.000000
0
LINE
8
DECOUPE
10
2272.700000
20
-88.000000
30
0.000000
11
2267.300000
21
-88.000000
31
0.000000
0
LINE
8
DECOUPE
10
2267.300000
20
-88.000000
30
0.000000
11
2265.800000
21
-89.500000
31
0.000000
0
LINE
8
DECOUPE
10
2265.800000
20
-89.500000
30
0.000000
11
2264.300000
21
-88.000000
31
0.000000
0
LINE
8
DECOUPE
10
2264.300000
20
-88.000000
30
0.000000
11
2265.800000
21
-86.500000
31
0.000000
0
LINE
8
DECOUPE
10
2265.800000
20
-86.500000
30
0.000000
11
2265.800000
21
-82.300000
31
0.000000
0
LINE
8
DECOUPE
10
2265.800000
20
-82.300000
30
0.000000
11
2266.100000
21
-82.000000
31
0.000000
0
LINE
8
DECOUPE
10
2266.100000
20
-82.000000
30
0.000000
11
2266.100000
21
-74.000000
31
0.000000
0
LINE
8
DECOUPE
10
2266.100000
20
-74.000000
30
0.000000
11
2265.800000
21
-73.700000
31
0.000000
0
LINE
8
DECOUPE
10
2265.800000
20
-73.700000
30
0.000000
11
2265.800000
21
-69.000000
31
0.000000
0
ARC
8
DECOUPE
10
2264.800000
20
-69.000000
30
0.000000
40
1.000000
50
0.000000
51
90.000000
0
LINE
8
DECOUPE
10
2264.800000
20
-68.000000
30
0.000000
11
2207.200000
21
-68.000000
31
0.000000
0
ARC
8
DECOUPE
10
2207.200000
20
-69.000000
30
0.000000
40
1.000000
50
90.000000
51
180.000000
0
LINE
8
DECOUPE
10
2206.200000
20
-69.000000
30
0.000000
11
2206.200000
21
-73.700000
31
0.000000
0
LINE
8
DECOUPE
10
2206.200000
20
-73.700000
30
0.000000
11
2205.900000
21
-74.000000
31
0.000000
0
LINE
8
DECOUPE
10
2205.900000
20
-74.000000
30
0.000000
11
2205.900000
21
-82.000000
31
0.000000
0
LINE
8
DECOUPE
10
2205.900000
20
-82.000000
30
0.000000
11
2206.200000
21
-82.300000
31
0.000000
0
LINE
8
DECOUPE
10
2206.200000
20
-82.300000
30
0.000000
11
2206.200000
21
-86.500000
31
0.000000
0
LINE
8
DECOUPE
10
2206.200000
20
-86.500000
30
0.000000
11
2207.700000
21
-88.000000
31
0.000000
0
LINE
8
DECOUPE
10
2207.700000
20
-88.000000
30
0.000000
11
2206.200000
21
-89.500000
31
0.000000
0
LINE
8
DECOUPE
10
2206.200000
20
-89.500000
30
0.000000
11
2204.700000
21
-88.000000
31
0.000000
0
LINE
8
DECOUPE
10
2204.700000
20
-88.000000
30
0.000000
11
2199.300000
21
-88.000000
31
0.000000
0
LINE
8
DECOUPE
10
2199.300000
20
-88.000000
30
0.000000
11
2197.800000
21
-89.500000
31
0.000000
0
LINE
8
DECOUPE
10
2197.800000
20
-89.500000
30
0.000000
11
2196.300000
21
-88.000000
31
0.000000
0
LINE
8
DECOUPE
10
2196.300000
20
-88.000000
30
0.000000
11
2197.800000
21
-86.500000
31
0.000000
0
LINE
8
DECOUPE
10
2197.800000
20
-86.500000
30
0.000000
11
2197.800000
21
-82.300000
31
0.000000
0
LINE
8
DECOUPE
10
2197.800000
20
-82.300000
30
0.000000
11
2198.100000
21
-82.000000
31
0.000000
0
LINE
8
DECOUPE
10
2198.100000
20
-82.000000
30
0.000000
11
2198.100000
21
-74.000000
31
0.000000
0
LINE
8
DECOUPE
10
2198.100000
20
-74.000000
30
0.000000
11
2197.800000
21
-73.700000
31
0.000000
0
LINE
8
DECOUPE
10
2197.800000
20
-73.700000
30
0.000000
11
2197.800000
21
-69.000000
31
0.000000
0
ARC
8
DECOUPE
10
2196.800000
20
-69.000000
30
0.000000
40
1.000000
50
0.000000
51
90.000000
0
LINE
8
DECOUPE
10
2196.800000
20
-68.000000
30
0.000000
11
1987.000000
21
-68.000000
31
0.000000
0
ARC
8
DECOUPE
10
1987.000000
20
-74.000000
30
0.000000
40
6.000000
50
90.000000
51
180.000000
0
LINE
8
DECOUPE
10
2216.200000
20
-82.000000
30
0.000000
11
2216.200000
21
-104.000000
31
0.000000
0
ARC
8
DECOUPE
10
2222.200000
20
-104.000000
30
0.000000
40
6.000000
50
180.000000
51
270.000000
0
LINE
8
DECOUPE
10
2222.200000
20
-110.000000
30
0.000000
11
2249.800000
21
-110.000000
31
0.000000
0
ARC
8
DECOUPE
10
2249.800000
20
-104.000000
30
0.000000
40
6.000000
50
270.000000
51
0.000000
0
LINE
8
DECOUPE
10
2255.800000
20
-104.000000
30
0.000000
11
2255.800000
21
-82.000000
31
0.000000
0
ARC
8
DECOUPE
10
2249.800000
20
-82.000000
30
0.000000
40
6.000000
50
0.000000
51
90.000000
0
LINE
8
DECOUPE
10
2249.800000
20
-76.000000
30
0.000000
11
2222.200000
21
-76.000000
31
0.000000
0
ARC
8
DECOUPE
10
2222.200000
20
-82.000000
30
0.000000
40
6.000000
50
90.000000
51
180.000000
0
LINE
8
DECOUPE
10
2284.200000
20
-82.000000
30
0.000000
11
2284.200000
21
-104.000000
31
0.000000
0
ARC
8
DECOUPE
10
2290.200000
20
-104.000000
30
0.000000
40
6.000000
50
180.000000
51
270.000000
0
LINE
8
DECOUPE
10
2290.200000
20
-110.000000
30
0.000000
11
2435.000000
21
-110.000000
31
0.000000
0
ARC
8
DECOUPE
10
2435.000000
20
-104.000000
30
0.000000
40
6.000000
50
270.000000
51
0.000000
0
LINE
8
DECOUPE
10
2441.000000
20
-104.000000
30
0.000000
11
2441.000000
21
-82.000000
31
0.000000
0
ARC
8
DECOUPE
10
2435.000000
20
-82.000000
30
0.000000
40
6.000000
50
0.000000
51
90.000000
0
LINE
8
DECOUPE
10
2435.000000
20
-76.000000
30
0.000000
11
2290.200000
21
-76.000000
31
0.000000
0
ARC
8
DECOUPE
10
2290.200000
20
-82.000000
30
0.000000
40
6.000000
50
90.000000
51
180.000000
0
LINE
8
DECOUPE
10
2031.000000
20
-82.000000
30
0.000000
11
2031.000000
21
-104.000000
31
0.000000
0
ARC
8
DECOUPE
10
2037.000000
20
-104.000000
30
0.000000
40
6.000000
50
180.000000
51
270.000000
0
LINE
8
DECOUPE
10
2037.000000
20
-110.000000
30
0.000000
11
2181.800000
21
-110.000000
31
0.000000
0
ARC
8
DECOUPE
10
2181.800000
20
-104.000000
30
0.000000
40
6.000000
50
270.000000
51
0.000000
0
LINE
8
DECOUPE
10
2187.800000
20
-104.000000
30
0.000000
11
2187.800000
21
-82.000000
31
0.000000
0
ARC
8
DECOUPE
10
2181.800000
20
-82.000000
30
0.000000
40
6.000000
50
0.000000
51
90.000000
0
LINE
8
DECOUPE
10
2181.800000
20
-76.000000
30
0.000000
11
2037.000000
21
-76.000000
31
0.000000
0
ARC
8
DECOUPE
10
2037.000000
20
-82.000000
30
0.000000
40
6.000000
50
90.000000
51
180.000000
0
TEXT
8
TEXTE
10
1981.000000
20
-138.000000
30
0.000000
40
6.000000
1
pied 4/4
0
TEXT
8
TEXTE
10
0.000000
20
20.000000
30
0.000000
40
4.000000
1
calques : DECOUPE = couper ; GRAVURE = marquer sans couper ; TEXTE = ni couper ni marquer
0
TEXT
8
TEXTE
10
0.000000
20
29.000000
30
0.000000
40
5.000000
1
rangement en etageres de 3000 mm au plus, pas une imbrication : le decoupeur imbrique sur son format
0
TEXT
8
TEXTE
10
0.000000
20
39.000000
30
0.000000
40
5.000000
1
fentes et encoches taillees pour une tole reelle de 8,00 mm : mesurer la tole livree, regler EP_TOLE_REELLE et regenerer les DXF avant decoupe
0
TEXT
8
TEXTE
10
0.000000
20
49.000000
30
0.000000
40
5.000000
1
brut : tole 8 mm, cert. 3.1, Re >= 430
0
TEXT
8
TEXTE
10
0.000000
20
59.000000
30
0.000000
40
8.000000
1
TOLE 8 mm  42CrMo4 +A  -  8 pieces  -  ind. A du 02/10/2026
0
TEXT
8
TEXTE
10
0.000000
20
72.000000
30
0.000000
40
14.000000
1
NE PAS DECOUPER AVANT CONFIRMATION DE LA LARGEUR D'ETUVE
0
ENDSEC
0
EOF
