0
SECTION
2
HEADER
9
$ACADVER
1
AC1009
9
$INSUNITS
70
4
9
$MEASUREMENT
70
1
0
ENDSEC
0
SECTION
2
TABLES
0
TABLE
2
LAYER
70
3
0
LAYER
2
0
70
0
62
7
6
CONTINUOUS
0
LAYER
2
DECOUPE
70
0
62
7
6
CONTINUOUS
0
LAYER
2
TEXTE
70
0
62
3
6
CONTINUOUS
0
ENDTAB
0
ENDSEC
0
SECTION
2
ENTITIES
0
LINE
8
DECOUPE
10
0.000000
20
-6.000000
30
0.000000
11
0.000000
21
-94.000000
31
0.000000
0
ARC
8
DECOUPE
10
6.000000
20
-94.000000
30
0.000000
40
6.000000
50
180.000000
51
270.000000
0
LINE
8
DECOUPE
10
6.000000
20
-100.000000
30
0.000000
11
52.000000
21
-100.000000
31
0.000000
0
ARC
8
DECOUPE
10
52.000000
20
-94.000000
30
0.000000
40
6.000000
50
270.000000
51
0.000000
0
LINE
8
DECOUPE
10
58.000000
20
-94.000000
30
0.000000
11
58.000000
21
-6.000000
31
0.000000
0
ARC
8
DECOUPE
10
52.000000
20
-6.000000
30
0.000000
40
6.000000
50
0.000000
51
90.000000
0
LINE
8
DECOUPE
10
52.000000
20
0.000000
30
0.000000
11
6.000000
21
0.000000
31
0.000000
0
ARC
8
DECOUPE
10
6.000000
20
-6.000000
30
0.000000
40
6.000000
50
90.000000
51
180.000000
0
TEXT
8
TEXTE
10
0.000000
20
-112.000000
30
0.000000
40
6.000000
1
patin_charge 1/1
0
LINE
8
DECOUPE
10
83.000000
20
-83.000000
30
0.000000
11
83.000000
21
-97.000000
31
0.000000
0
ARC
8
DECOUPE
10
86.000000
20
-97.000000
30
0.000000
40
3.000000
50
180.000000
51
270.000000
0
LINE
8
DECOUPE
10
86.000000
20
-100.000000
30
0.000000
11
170.000000
21
-100.000000
31
0.000000
0
ARC
8
DECOUPE
10
170.000000
20
-97.000000
30
0.000000
40
3.000000
50
270.000000
51
0.000000
0
LINE
8
DECOUPE
10
173.000000
20
-97.000000
30
0.000000
11
173.000000
21
-83.000000
31
0.000000
0
ARC
8
DECOUPE
10
170.000000
20
-83.000000
30
0.000000
40
3.000000
50
0.000000
51
90.000000
0
LINE
8
DECOUPE
10
170.000000
20
-80.000000
30
0.000000
11
86.000000
21
-80.000000
31
0.000000
0
ARC
8
DECOUPE
10
86.000000
20
-83.000000
30
0.000000
40
3.000000
50
90.000000
51
180.000000
0
TEXT
8
TEXTE
10
83.000000
20
-112.000000
30
0.000000
40
6.000000
1
patin_appui 1/4
0
LINE
8
DECOUPE
10
198.000000
20
-83.000000
30
0.000000
11
198.000000
21
-97.000000
31
0.000000
0
ARC
8
DECOUPE
10
201.000000
20
-97.000000
30
0.000000
40
3.000000
50
180.000000
51
270.000000
0
LINE
8
DECOUPE
10
201.000000
20
-100.000000
30
0.000000
11
285.000000
21
-100.000000
31
0.000000
0
ARC
8
DECOUPE
10
285.000000
20
-97.000000
30
0.000000
40
3.000000
50
270.000000
51
0.000000
0
LINE
8
DECOUPE
10
288.000000
20
-97.000000
30
0.000000
11
288.000000
21
-83.000000
31
0.000000
0
ARC
8
DECOUPE
10
285.000000
20
-83.000000
30
0.000000
40
3.000000
50
0.000000
51
90.000000
0
LINE
8
DECOUPE
10
285.000000
20
-80.000000
30
0.000000
11
201.000000
21
-80.000000
31
0.000000
0
ARC
8
DECOUPE
10
201.000000
20
-83.000000
30
0.000000
40
3.000000
50
90.000000
51
180.000000
0
TEXT
8
TEXTE
10
198.000000
20
-112.000000
30
0.000000
40
6.000000
1
patin_appui 2/4
0
LINE
8
DECOUPE
10
313.000000
20
-83.000000
30
0.000000
11
313.000000
21
-97.000000
31
0.000000
0
ARC
8
DECOUPE
10
316.000000
20
-97.000000
30
0.000000
40
3.000000
50
180.000000
51
270.000000
0
LINE
8
DECOUPE
10
316.000000
20
-100.000000
30
0.000000
11
400.000000
21
-100.000000
31
0.000000
0
ARC
8
DECOUPE
10
400.000000
20
-97.000000
30
0.000000
40
3.000000
50
270.000000
51
0.000000
0
LINE
8
DECOUPE
10
403.000000
20
-97.000000
30
0.000000
11
403.000000
21
-83.000000
31
0.000000
0
ARC
8
DECOUPE
10
400.000000
20
-83.000000
30
0.000000
40
3.000000
50
0.000000
51
90.000000
0
LINE
8
DECOUPE
10
400.000000
20
-80.000000
30
0.000000
11
316.000000
21
-80.000000
31
0.000000
0
ARC
8
DECOUPE
10
316.000000
20
-83.000000
30
0.000000
40
3.000000
50
90.000000
51
180.000000
0
TEXT
8
TEXTE
10
313.000000
20
-112.000000
30
0.000000
40
6.000000
1
patin_appui 3/4
0
LINE
8
DECOUPE
10
428.000000
20
-83.000000
30
0.000000
11
428.000000
21
-97.000000
31
0.000000
0
ARC
8
DECOUPE
10
431.000000
20
-97.000000
30
0.000000
40
3.000000
50
180.000000
51
270.000000
0
LINE
8
DECOUPE
10
431.000000
20
-100.000000
30
0.000000
11
515.000000
21
-100.000000
31
0.000000
0
ARC
8
DECOUPE
10
515.000000
20
-97.000000
30
0.000000
40
3.000000
50
270.000000
51
0.000000
0
LINE
8
DECOUPE
10
518.000000
20
-97.000000
30
0.000000
11
518.000000
21
-83.000000
31
0.000000
0
ARC
8
DECOUPE
10
515.000000
20
-83.000000
30
0.000000
40
3.000000
50
0.000000
51
90.000000
0
LINE
8
DECOUPE
10
515.000000
20
-80.000000
30
0.000000
11
431.000000
21
-80.000000
31
0.000000
0
ARC
8
DECOUPE
10
431.000000
20
-83.000000
30
0.000000
40
3.000000
50
90.000000
51
180.000000
0
TEXT
8
TEXTE
10
428.000000
20
-112.000000
30
0.000000
40
6.000000
1
patin_appui 4/4
0
TEXT
8
TEXTE
10
0.000000
20
20.000000
30
0.000000
40
4.000000
1
calques : DECOUPE = couper ; GRAVURE = marquer sans couper ; TEXTE = ni couper ni marquer
0
TEXT
8
TEXTE
10
0.000000
20
29.000000
30
0.000000
40
5.000000
1
rangement en etageres de 3000 mm au plus, pas une imbrication : le decoupeur imbrique sur son format
0
TEXT
8
TEXTE
10
0.000000
20
39.000000
30
0.000000
40
5.000000
1
brut : tole 10 mm
0
TEXT
8
TEXTE
10
0.000000
20
49.000000
30
0.000000
40
8.000000
1
TOLE 10 mm  S355JR  -  5 pieces  -  ind. B du 05/10/2026
0
ENDSEC
0
EOF
