0
SECTION
2
HEADER
9
$ACADVER
1
AC1009
9
$INSUNITS
70
4
9
$MEASUREMENT
70
1
0
ENDSEC
0
SECTION
2
TABLES
0
TABLE
2
LAYER
70
4
0
LAYER
2
0
70
0
62
7
6
CONTINUOUS
0
LAYER
2
DECOUPE
70
0
62
7
6
CONTINUOUS
0
LAYER
2
GRAVURE
70
0
62
1
6
CONTINUOUS
0
LAYER
2
TEXTE
70
0
62
3
6
CONTINUOUS
0
ENDTAB
0
ENDSEC
0
SECTION
2
ENTITIES
0
LINE
8
DECOUPE
10
0.000000
20
-7.380180
30
0.000000
11
0.000000
21
-432.619820
31
0.000000
0
ARC
8
DECOUPE
10
1.000000
20
-432.619820
30
0.000000
40
1.000000
50
180.000000
51
308.000000
0
LINE
8
DECOUPE
10
1.615661
20
-433.407830
30
0.000000
11
18.296507
21
-420.375326
31
0.000000
0
LINE
8
DECOUPE
10
18.296507
20
-420.375326
30
0.000000
11
18.555031
21
-418.269817
31
0.000000
0
LINE
8
DECOUPE
10
18.555031
20
-418.269817
30
0.000000
11
20.660539
21
-418.528341
31
0.000000
0
LINE
8
DECOUPE
10
20.660539
20
-418.528341
30
0.000000
11
20.402015
21
-420.633850
31
0.000000
0
LINE
8
DECOUPE
10
20.402015
20
-420.633850
30
0.000000
11
23.726587
21
-424.889108
31
0.000000
0
LINE
8
DECOUPE
10
23.726587
20
-424.889108
30
0.000000
11
25.832095
21
-425.147632
31
0.000000
0
LINE
8
DECOUPE
10
25.832095
20
-425.147632
30
0.000000
11
25.573572
21
-427.253140
31
0.000000
0
LINE
8
DECOUPE
10
25.573572
20
-427.253140
30
0.000000
11
23.468063
21
-426.994616
31
0.000000
0
LINE
8
DECOUPE
10
23.468063
20
-426.994616
30
0.000000
11
9.110480
21
-438.211989
31
0.000000
0
ARC
8
DECOUPE
10
9.726142
20
-439.000000
30
0.000000
40
1.000000
50
128.000000
51
270.000000
0
LINE
8
DECOUPE
10
9.726142
20
-440.000000
30
0.000000
11
224.800000
21
-440.000000
31
0.000000
0
ARC
8
DECOUPE
10
224.800000
20
-439.000000
30
0.000000
40
1.000000
50
270.000000
51
0.000000
0
LINE
8
DECOUPE
10
225.800000
20
-439.000000
30
0.000000
11
225.800000
21
-433.500000
31
0.000000
0
LINE
8
DECOUPE
10
225.800000
20
-433.500000
30
0.000000
11
224.300000
21
-432.000000
31
0.000000
0
LINE
8
DECOUPE
10
224.300000
20
-432.000000
30
0.000000
11
225.800000
21
-430.500000
31
0.000000
0
LINE
8
DECOUPE
10
225.800000
20
-430.500000
30
0.000000
11
227.300000
21
-432.000000
31
0.000000
0
LINE
8
DECOUPE
10
227.300000
20
-432.000000
30
0.000000
11
232.700000
21
-432.000000
31
0.000000
0
LINE
8
DECOUPE
10
232.700000
20
-432.000000
30
0.000000
11
234.200000
21
-430.500000
31
0.000000
0
LINE
8
DECOUPE
10
234.200000
20
-430.500000
30
0.000000
11
235.700000
21
-432.000000
31
0.000000
0
LINE
8
DECOUPE
10
235.700000
20
-432.000000
30
0.000000
11
234.200000
21
-433.500000
31
0.000000
0
LINE
8
DECOUPE
10
234.200000
20
-433.500000
30
0.000000
11
234.200000
21
-439.000000
31
0.000000
0
ARC
8
DECOUPE
10
235.200000
20
-439.000000
30
0.000000
40
1.000000
50
180.000000
51
270.000000
0
LINE
8
DECOUPE
10
235.200000
20
-440.000000
30
0.000000
11
724.800000
21
-440.000000
31
0.000000
0
ARC
8
DECOUPE
10
724.800000
20
-439.000000
30
0.000000
40
1.000000
50
270.000000
51
0.000000
0
LINE
8
DECOUPE
10
725.800000
20
-439.000000
30
0.000000
11
725.800000
21
-433.500000
31
0.000000
0
LINE
8
DECOUPE
10
725.800000
20
-433.500000
30
0.000000
11
724.300000
21
-432.000000
31
0.000000
0
LINE
8
DECOUPE
10
724.300000
20
-432.000000
30
0.000000
11
725.800000
21
-430.500000
31
0.000000
0
LINE
8
DECOUPE
10
725.800000
20
-430.500000
30
0.000000
11
727.300000
21
-432.000000
31
0.000000
0
LINE
8
DECOUPE
10
727.300000
20
-432.000000
30
0.000000
11
732.700000
21
-432.000000
31
0.000000
0
LINE
8
DECOUPE
10
732.700000
20
-432.000000
30
0.000000
11
734.200000
21
-430.500000
31
0.000000
0
LINE
8
DECOUPE
10
734.200000
20
-430.500000
30
0.000000
11
735.700000
21
-432.000000
31
0.000000
0
LINE
8
DECOUPE
10
735.700000
20
-432.000000
30
0.000000
11
734.200000
21
-433.500000
31
0.000000
0
LINE
8
DECOUPE
10
734.200000
20
-433.500000
30
0.000000
11
734.200000
21
-439.000000
31
0.000000
0
ARC
8
DECOUPE
10
735.200000
20
-439.000000
30
0.000000
40
1.000000
50
180.000000
51
270.000000
0
LINE
8
DECOUPE
10
735.200000
20
-440.000000
30
0.000000
11
950.273858
21
-440.000000
31
0.000000
0
ARC
8
DECOUPE
10
950.273858
20
-439.000000
30
0.000000
40
1.000000
50
270.000000
51
52.000000
0
LINE
8
DECOUPE
10
950.889520
20
-438.211989
30
0.000000
11
936.531937
21
-426.994616
31
0.000000
0
LINE
8
DECOUPE
10
936.531937
20
-426.994616
30
0.000000
11
934.426428
21
-427.253140
31
0.000000
0
LINE
8
DECOUPE
10
934.426428
20
-427.253140
30
0.000000
11
934.167905
21
-425.147632
31
0.000000
0
LINE
8
DECOUPE
10
934.167905
20
-425.147632
30
0.000000
11
936.273413
21
-424.889108
31
0.000000
0
LINE
8
DECOUPE
10
936.273413
20
-424.889108
30
0.000000
11
939.597985
21
-420.633850
31
0.000000
0
LINE
8
DECOUPE
10
939.597985
20
-420.633850
30
0.000000
11
939.339461
21
-418.528341
31
0.000000
0
LINE
8
DECOUPE
10
939.339461
20
-418.528341
30
0.000000
11
941.444969
21
-418.269817
31
0.000000
0
LINE
8
DECOUPE
10
941.444969
20
-418.269817
30
0.000000
11
941.703493
21
-420.375326
31
0.000000
0
LINE
8
DECOUPE
10
941.703493
20
-420.375326
30
0.000000
11
958.384339
21
-433.407830
31
0.000000
0
ARC
8
DECOUPE
10
959.000000
20
-432.619820
30
0.000000
40
1.000000
50
232.000000
51
0.000000
0
LINE
8
DECOUPE
10
960.000000
20
-432.619820
30
0.000000
11
960.000000
21
-7.380180
31
0.000000
0
ARC
8
DECOUPE
10
959.000000
20
-7.380180
30
0.000000
40
1.000000
50
0.000000
51
128.000000
0
LINE
8
DECOUPE
10
958.384339
20
-6.592170
30
0.000000
11
941.703493
21
-19.624674
31
0.000000
0
LINE
8
DECOUPE
10
941.703493
20
-19.624674
30
0.000000
11
941.444969
21
-21.730183
31
0.000000
0
LINE
8
DECOUPE
10
941.444969
20
-21.730183
30
0.000000
11
939.339461
21
-21.471659
31
0.000000
0
LINE
8
DECOUPE
10
939.339461
20
-21.471659
30
0.000000
11
939.597985
21
-19.366150
31
0.000000
0
LINE
8
DECOUPE
10
939.597985
20
-19.366150
30
0.000000
11
936.273413
21
-15.110892
31
0.000000
0
LINE
8
DECOUPE
10
936.273413
20
-15.110892
30
0.000000
11
934.167905
21
-14.852368
31
0.000000
0
LINE
8
DECOUPE
10
934.167905
20
-14.852368
30
0.000000
11
934.426428
21
-12.746860
31
0.000000
0
LINE
8
DECOUPE
10
934.426428
20
-12.746860
30
0.000000
11
936.531937
21
-13.005384
31
0.000000
0
LINE
8
DECOUPE
10
936.531937
20
-13.005384
30
0.000000
11
950.889520
21
-1.788011
31
0.000000
0
ARC
8
DECOUPE
10
950.273858
20
-1.000000
30
0.000000
40
1.000000
50
308.000000
51
90.000000
0
LINE
8
DECOUPE
10
950.273858
20
0.000000
30
0.000000
11
9.726142
21
0.000000
31
0.000000
0
ARC
8
DECOUPE
10
9.726142
20
-1.000000
30
0.000000
40
1.000000
50
90.000000
51
232.000000
0
LINE
8
DECOUPE
10
9.110480
20
-1.788011
30
0.000000
11
23.468063
21
-13.005384
31
0.000000
0
LINE
8
DECOUPE
10
23.468063
20
-13.005384
30
0.000000
11
25.573572
21
-12.746860
31
0.000000
0
LINE
8
DECOUPE
10
25.573572
20
-12.746860
30
0.000000
11
25.832095
21
-14.852368
31
0.000000
0
LINE
8
DECOUPE
10
25.832095
20
-14.852368
30
0.000000
11
23.726587
21
-15.110892
31
0.000000
0
LINE
8
DECOUPE
10
23.726587
20
-15.110892
30
0.000000
11
20.402015
21
-19.366150
31
0.000000
0
LINE
8
DECOUPE
10
20.402015
20
-19.366150
30
0.000000
11
20.660539
21
-21.471659
31
0.000000
0
LINE
8
DECOUPE
10
20.660539
20
-21.471659
30
0.000000
11
18.555031
21
-21.730183
31
0.000000
0
LINE
8
DECOUPE
10
18.555031
20
-21.730183
30
0.000000
11
18.296507
21
-19.624674
31
0.000000
0
LINE
8
DECOUPE
10
18.296507
20
-19.624674
30
0.000000
11
1.615661
21
-6.592170
31
0.000000
0
ARC
8
DECOUPE
10
1.000000
20
-7.380180
30
0.000000
40
1.000000
50
52.000000
51
180.000000
0
LINE
8
DECOUPE
10
45.000000
20
-84.306798
30
0.000000
11
45.000000
21
-378.000000
31
0.000000
0
ARC
8
DECOUPE
10
67.000000
20
-378.000000
30
0.000000
40
22.000000
50
180.000000
51
270.000000
0
LINE
8
DECOUPE
10
67.000000
20
-400.000000
30
0.000000
11
71.717122
21
-400.000000
31
0.000000
0
ARC
8
DECOUPE
10
71.717122
20
-390.000000
30
0.000000
40
10.000000
50
270.000000
51
282.006227
0
ARC
8
DECOUPE
10
105.000000
20
-546.500000
30
0.000000
40
150.000000
50
77.993773
51
102.006227
0
ARC
8
DECOUPE
10
138.282878
20
-390.000000
30
0.000000
40
10.000000
50
257.993773
51
270.000000
0
LINE
8
DECOUPE
10
138.282878
20
-400.000000
30
0.000000
11
821.717122
21
-400.000000
31
0.000000
0
ARC
8
DECOUPE
10
821.717122
20
-390.000000
30
0.000000
40
10.000000
50
270.000000
51
282.006227
0
ARC
8
DECOUPE
10
855.000000
20
-546.500000
30
0.000000
40
150.000000
50
77.993773
51
102.006227
0
ARC
8
DECOUPE
10
888.282878
20
-390.000000
30
0.000000
40
10.000000
50
257.993773
51
270.000000
0
LINE
8
DECOUPE
10
888.282878
20
-400.000000
30
0.000000
11
893.000000
21
-400.000000
31
0.000000
0
ARC
8
DECOUPE
10
893.000000
20
-378.000000
30
0.000000
40
22.000000
50
270.000000
51
0.000000
0
LINE
8
DECOUPE
10
915.000000
20
-378.000000
30
0.000000
11
915.000000
21
-84.306798
31
0.000000
0
ARC
8
DECOUPE
10
895.000000
20
-84.306798
30
0.000000
40
20.000000
50
360.000000
51
107.969140
0
LINE
8
DECOUPE
10
888.829906
20
-65.282342
30
0.000000
11
562.287383
21
-171.188025
31
0.000000
0
ARC
8
DECOUPE
10
570.000000
20
-194.968596
30
0.000000
40
25.000000
50
107.969140
51
180.000000
0
LINE
8
DECOUPE
10
545.000000
20
-194.968596
30
0.000000
11
545.000000
21
-209.000000
31
0.000000
0
ARC
8
DECOUPE
10
530.000000
20
-209.000000
30
0.000000
40
15.000000
50
270.000000
51
0.000000
0
LINE
8
DECOUPE
10
530.000000
20
-224.000000
30
0.000000
11
430.000000
21
-224.000000
31
0.000000
0
ARC
8
DECOUPE
10
430.000000
20
-209.000000
30
0.000000
40
15.000000
50
180.000000
51
270.000000
0
LINE
8
DECOUPE
10
415.000000
20
-209.000000
30
0.000000
11
415.000000
21
-194.968596
31
0.000000
0
ARC
8
DECOUPE
10
390.000000
20
-194.968596
30
0.000000
40
25.000000
50
0.000000
51
72.030860
0
LINE
8
DECOUPE
10
397.712617
20
-171.188025
30
0.000000
11
71.170094
21
-65.282342
31
0.000000
0
ARC
8
DECOUPE
10
65.000000
20
-84.306798
30
0.000000
40
20.000000
50
72.030860
51
180.000000
0
ARC
8
DECOUPE
10
365.022566
20
-70.598253
30
0.000000
40
40.598253
50
0.000000
51
180.000000
0
ARC
8
DECOUPE
10
365.022566
20
-70.598253
30
0.000000
40
40.598253
50
180.000000
51
0.000000
0
ARC
8
DECOUPE
10
287.112152
20
-58.279963
30
0.000000
40
28.279963
50
0.000000
51
180.000000
0
ARC
8
DECOUPE
10
287.112152
20
-58.279963
30
0.000000
40
28.279963
50
180.000000
51
0.000000
0
ARC
8
DECOUPE
10
230.249104
20
-49.289438
30
0.000000
40
19.289438
50
0.000000
51
180.000000
0
ARC
8
DECOUPE
10
230.249104
20
-49.289438
30
0.000000
40
19.289438
50
180.000000
51
0.000000
0
ARC
8
DECOUPE
10
188.747511
20
-42.727687
30
0.000000
40
12.727687
50
0.000000
51
180.000000
0
ARC
8
DECOUPE
10
188.747511
20
-42.727687
30
0.000000
40
12.727687
50
180.000000
51
0.000000
0
ARC
8
DECOUPE
10
594.977434
20
-70.598253
30
0.000000
40
40.598253
50
0.000000
51
180.000000
0
ARC
8
DECOUPE
10
594.977434
20
-70.598253
30
0.000000
40
40.598253
50
180.000000
51
0.000000
0
ARC
8
DECOUPE
10
672.887848
20
-58.279963
30
0.000000
40
28.279963
50
0.000000
51
180.000000
0
ARC
8
DECOUPE
10
672.887848
20
-58.279963
30
0.000000
40
28.279963
50
180.000000
51
0.000000
0
ARC
8
DECOUPE
10
729.750896
20
-49.289438
30
0.000000
40
19.289438
50
0.000000
51
180.000000
0
ARC
8
DECOUPE
10
729.750896
20
-49.289438
30
0.000000
40
19.289438
50
180.000000
51
0.000000
0
ARC
8
DECOUPE
10
771.252489
20
-42.727687
30
0.000000
40
12.727687
50
0.000000
51
180.000000
0
ARC
8
DECOUPE
10
771.252489
20
-42.727687
30
0.000000
40
12.727687
50
180.000000
51
0.000000
0
ARC
8
DECOUPE
10
195.000000
20
-420.000000
30
0.000000
40
10.000000
50
0.000000
51
180.000000
0
ARC
8
DECOUPE
10
195.000000
20
-420.000000
30
0.000000
40
10.000000
50
180.000000
51
0.000000
0
ARC
8
DECOUPE
10
290.000000
20
-420.000000
30
0.000000
40
10.000000
50
0.000000
51
180.000000
0
ARC
8
DECOUPE
10
290.000000
20
-420.000000
30
0.000000
40
10.000000
50
180.000000
51
0.000000
0
ARC
8
DECOUPE
10
385.000000
20
-420.000000
30
0.000000
40
10.000000
50
0.000000
51
180.000000
0
ARC
8
DECOUPE
10
385.000000
20
-420.000000
30
0.000000
40
10.000000
50
180.000000
51
0.000000
0
ARC
8
DECOUPE
10
480.000000
20
-420.000000
30
0.000000
40
10.000000
50
0.000000
51
180.000000
0
ARC
8
DECOUPE
10
480.000000
20
-420.000000
30
0.000000
40
10.000000
50
180.000000
51
0.000000
0
ARC
8
DECOUPE
10
575.000000
20
-420.000000
30
0.000000
40
10.000000
50
0.000000
51
180.000000
0
ARC
8
DECOUPE
10
575.000000
20
-420.000000
30
0.000000
40
10.000000
50
180.000000
51
0.000000
0
ARC
8
DECOUPE
10
670.000000
20
-420.000000
30
0.000000
40
10.000000
50
0.000000
51
180.000000
0
ARC
8
DECOUPE
10
670.000000
20
-420.000000
30
0.000000
40
10.000000
50
180.000000
51
0.000000
0
ARC
8
DECOUPE
10
765.000000
20
-420.000000
30
0.000000
40
10.000000
50
0.000000
51
180.000000
0
ARC
8
DECOUPE
10
765.000000
20
-420.000000
30
0.000000
40
10.000000
50
180.000000
51
0.000000
0
LINE
8
DECOUPE
10
429.000000
20
-193.200000
30
0.000000
11
429.000000
21
-178.400000
31
0.000000
0
ARC
8
DECOUPE
10
436.000000
20
-178.400000
30
0.000000
40
7.000000
50
0.000000
51
180.000000
0
LINE
8
DECOUPE
10
443.000000
20
-178.400000
30
0.000000
11
443.000000
21
-193.200000
31
0.000000
0
ARC
8
DECOUPE
10
436.000000
20
-193.200000
30
0.000000
40
7.000000
50
180.000000
51
0.000000
0
LINE
8
DECOUPE
10
517.000000
20
-193.200000
30
0.000000
11
517.000000
21
-178.400000
31
0.000000
0
ARC
8
DECOUPE
10
524.000000
20
-178.400000
30
0.000000
40
7.000000
50
0.000000
51
180.000000
0
LINE
8
DECOUPE
10
531.000000
20
-178.400000
30
0.000000
11
531.000000
21
-193.200000
31
0.000000
0
ARC
8
DECOUPE
10
524.000000
20
-193.200000
30
0.000000
40
7.000000
50
180.000000
51
0.000000
0
LINE
8
DECOUPE
10
458.000000
20
-118.288297
30
0.000000
11
458.000000
21
-179.573586
31
0.000000
0
ARC
8
DECOUPE
10
462.000000
20
-179.573586
30
0.000000
40
4.000000
50
180.000000
51
270.000000
0
LINE
8
DECOUPE
10
462.000000
20
-183.573586
30
0.000000
11
498.000000
21
-183.573586
31
0.000000
0
ARC
8
DECOUPE
10
498.000000
20
-179.573586
30
0.000000
40
4.000000
50
270.000000
51
0.000000
0
LINE
8
DECOUPE
10
502.000000
20
-179.573586
30
0.000000
11
502.000000
21
-118.288297
31
0.000000
0
ARC
8
DECOUPE
10
498.000000
20
-118.288297
30
0.000000
40
4.000000
50
0.000000
51
90.000000
0
LINE
8
DECOUPE
10
498.000000
20
-114.288297
30
0.000000
11
462.000000
21
-114.288297
31
0.000000
0
ARC
8
DECOUPE
10
462.000000
20
-118.288297
30
0.000000
40
4.000000
50
90.000000
51
180.000000
0
LINE
8
DECOUPE
10
454.000000
20
-60.088297
30
0.000000
11
454.000000
21
-76.488297
31
0.000000
0
ARC
8
DECOUPE
10
456.000000
20
-76.488297
30
0.000000
40
2.000000
50
180.000000
51
270.000000
0
LINE
8
DECOUPE
10
456.000000
20
-78.488297
30
0.000000
11
504.000000
21
-78.488297
31
0.000000
0
ARC
8
DECOUPE
10
504.000000
20
-76.488297
30
0.000000
40
2.000000
50
270.000000
51
0.000000
0
LINE
8
DECOUPE
10
506.000000
20
-76.488297
30
0.000000
11
506.000000
21
-60.088297
31
0.000000
0
ARC
8
DECOUPE
10
504.000000
20
-60.088297
30
0.000000
40
2.000000
50
0.000000
51
90.000000
0
LINE
8
DECOUPE
10
504.000000
20
-58.088297
30
0.000000
11
456.000000
21
-58.088297
31
0.000000
0
ARC
8
DECOUPE
10
456.000000
20
-60.088297
30
0.000000
40
2.000000
50
90.000000
51
180.000000
0
ARC
8
DECOUPE
10
22.500000
20
-390.000000
30
0.000000
40
5.500000
50
0.000000
51
180.000000
0
ARC
8
DECOUPE
10
22.500000
20
-390.000000
30
0.000000
40
5.500000
50
180.000000
51
0.000000
0
ARC
8
DECOUPE
10
22.500000
20
-50.000000
30
0.000000
40
5.500000
50
0.000000
51
180.000000
0
ARC
8
DECOUPE
10
22.500000
20
-50.000000
30
0.000000
40
5.500000
50
180.000000
51
0.000000
0
ARC
8
DECOUPE
10
230.000000
20
-98.397372
30
0.000000
40
5.500000
50
0.000000
51
180.000000
0
ARC
8
DECOUPE
10
230.000000
20
-98.397372
30
0.000000
40
5.500000
50
180.000000
51
0.000000
0
ARC
8
DECOUPE
10
937.500000
20
-390.000000
30
0.000000
40
5.500000
50
0.000000
51
180.000000
0
ARC
8
DECOUPE
10
937.500000
20
-390.000000
30
0.000000
40
5.500000
50
180.000000
51
0.000000
0
ARC
8
DECOUPE
10
937.500000
20
-50.000000
30
0.000000
40
5.500000
50
0.000000
51
180.000000
0
ARC
8
DECOUPE
10
937.500000
20
-50.000000
30
0.000000
40
5.500000
50
180.000000
51
0.000000
0
ARC
8
DECOUPE
10
730.000000
20
-98.397372
30
0.000000
40
5.500000
50
0.000000
51
180.000000
0
ARC
8
DECOUPE
10
730.000000
20
-98.397372
30
0.000000
40
5.500000
50
180.000000
51
0.000000
0
ARC
8
DECOUPE
10
428.000000
20
-137.288297
30
0.000000
40
5.500000
50
0.000000
51
180.000000
0
ARC
8
DECOUPE
10
428.000000
20
-137.288297
30
0.000000
40
5.500000
50
180.000000
51
0.000000
0
ARC
8
DECOUPE
10
532.000000
20
-137.288297
30
0.000000
40
5.500000
50
0.000000
51
180.000000
0
ARC
8
DECOUPE
10
532.000000
20
-137.288297
30
0.000000
40
5.500000
50
180.000000
51
0.000000
0
ARC
8
DECOUPE
10
480.000000
20
-29.044149
30
0.000000
40
5.500000
50
0.000000
51
180.000000
0
ARC
8
DECOUPE
10
480.000000
20
-29.044149
30
0.000000
40
5.500000
50
180.000000
51
0.000000
0
LINE
8
GRAVURE
10
533.500000
20
-174.900000
30
0.000000
11
541.500000
21
-174.900000
31
0.000000
0
LINE
8
GRAVURE
10
533.500000
20
-175.618282
30
0.000000
11
538.000000
21
-175.618282
31
0.000000
0
LINE
8
GRAVURE
10
533.500000
20
-176.352181
30
0.000000
11
541.500000
21
-176.352181
31
0.000000
0
LINE
8
GRAVURE
10
533.500000
20
-177.101913
30
0.000000
11
538.000000
21
-177.101913
31
0.000000
0
LINE
8
GRAVURE
10
533.500000
20
-177.867623
30
0.000000
11
541.500000
21
-177.867623
31
0.000000
0
LINE
8
GRAVURE
10
533.500000
20
-178.649373
30
0.000000
11
538.000000
21
-178.649373
31
0.000000
0
LINE
8
GRAVURE
10
533.500000
20
-179.447124
30
0.000000
11
541.500000
21
-179.447124
31
0.000000
0
LINE
8
GRAVURE
10
533.500000
20
-180.260719
30
0.000000
11
538.000000
21
-180.260719
31
0.000000
0
LINE
8
GRAVURE
10
533.500000
20
-181.089868
30
0.000000
11
541.500000
21
-181.089868
31
0.000000
0
LINE
8
GRAVURE
10
533.500000
20
-181.934125
30
0.000000
11
538.000000
21
-181.934125
31
0.000000
0
LINE
8
GRAVURE
10
533.500000
20
-182.792878
30
0.000000
11
541.500000
21
-182.792878
31
0.000000
0
LINE
8
GRAVURE
10
533.500000
20
-183.665331
30
0.000000
11
538.000000
21
-183.665331
31
0.000000
0
LINE
8
GRAVURE
10
533.500000
20
-184.550499
30
0.000000
11
541.500000
21
-184.550499
31
0.000000
0
TEXT
8
TEXTE
10
0.000000
20
-452.000000
30
0.000000
40
6.000000
1
flanc 1/2
0
LINE
8
DECOUPE
10
985.000000
20
-7.380180
30
0.000000
11
985.000000
21
-432.619820
31
0.000000
0
ARC
8
DECOUPE
10
986.000000
20
-432.619820
30
0.000000
40
1.000000
50
180.000000
51
308.000000
0
LINE
8
DECOUPE
10
986.615661
20
-433.407830
30
0.000000
11
1003.296507
21
-420.375326
31
0.000000
0
LINE
8
DECOUPE
10
1003.296507
20
-420.375326
30
0.000000
11
1003.555031
21
-418.269817
31
0.000000
0
LINE
8
DECOUPE
10
1003.555031
20
-418.269817
30
0.000000
11
1005.660539
21
-418.528341
31
0.000000
0
LINE
8
DECOUPE
10
1005.660539
20
-418.528341
30
0.000000
11
1005.402015
21
-420.633850
31
0.000000
0
LINE
8
DECOUPE
10
1005.402015
20
-420.633850
30
0.000000
11
1008.726587
21
-424.889108
31
0.000000
0
LINE
8
DECOUPE
10
1008.726587
20
-424.889108
30
0.000000
11
1010.832095
21
-425.147632
31
0.000000
0
LINE
8
DECOUPE
10
1010.832095
20
-425.147632
30
0.000000
11
1010.573572
21
-427.253140
31
0.000000
0
LINE
8
DECOUPE
10
1010.573572
20
-427.253140
30
0.000000
11
1008.468063
21
-426.994616
31
0.000000
0
LINE
8
DECOUPE
10
1008.468063
20
-426.994616
30
0.000000
11
994.110480
21
-438.211989
31
0.000000
0
ARC
8
DECOUPE
10
994.726142
20
-439.000000
30
0.000000
40
1.000000
50
128.000000
51
270.000000
0
LINE
8
DECOUPE
10
994.726142
20
-440.000000
30
0.000000
11
1209.800000
21
-440.000000
31
0.000000
0
ARC
8
DECOUPE
10
1209.800000
20
-439.000000
30
0.000000
40
1.000000
50
270.000000
51
0.000000
0
LINE
8
DECOUPE
10
1210.800000
20
-439.000000
30
0.000000
11
1210.800000
21
-433.500000
31
0.000000
0
LINE
8
DECOUPE
10
1210.800000
20
-433.500000
30
0.000000
11
1209.300000
21
-432.000000
31
0.000000
0
LINE
8
DECOUPE
10
1209.300000
20
-432.000000
30
0.000000
11
1210.800000
21
-430.500000
31
0.000000
0
LINE
8
DECOUPE
10
1210.800000
20
-430.500000
30
0.000000
11
1212.300000
21
-432.000000
31
0.000000
0
LINE
8
DECOUPE
10
1212.300000
20
-432.000000
30
0.000000
11
1217.700000
21
-432.000000
31
0.000000
0
LINE
8
DECOUPE
10
1217.700000
20
-432.000000
30
0.000000
11
1219.200000
21
-430.500000
31
0.000000
0
LINE
8
DECOUPE
10
1219.200000
20
-430.500000
30
0.000000
11
1220.700000
21
-432.000000
31
0.000000
0
LINE
8
DECOUPE
10
1220.700000
20
-432.000000
30
0.000000
11
1219.200000
21
-433.500000
31
0.000000
0
LINE
8
DECOUPE
10
1219.200000
20
-433.500000
30
0.000000
11
1219.200000
21
-439.000000
31
0.000000
0
ARC
8
DECOUPE
10
1220.200000
20
-439.000000
30
0.000000
40
1.000000
50
180.000000
51
270.000000
0
LINE
8
DECOUPE
10
1220.200000
20
-440.000000
30
0.000000
11
1709.800000
21
-440.000000
31
0.000000
0
ARC
8
DECOUPE
10
1709.800000
20
-439.000000
30
0.000000
40
1.000000
50
270.000000
51
0.000000
0
LINE
8
DECOUPE
10
1710.800000
20
-439.000000
30
0.000000
11
1710.800000
21
-433.500000
31
0.000000
0
LINE
8
DECOUPE
10
1710.800000
20
-433.500000
30
0.000000
11
1709.300000
21
-432.000000
31
0.000000
0
LINE
8
DECOUPE
10
1709.300000
20
-432.000000
30
0.000000
11
1710.800000
21
-430.500000
31
0.000000
0
LINE
8
DECOUPE
10
1710.800000
20
-430.500000
30
0.000000
11
1712.300000
21
-432.000000
31
0.000000
0
LINE
8
DECOUPE
10
1712.300000
20
-432.000000
30
0.000000
11
1717.700000
21
-432.000000
31
0.000000
0
LINE
8
DECOUPE
10
1717.700000
20
-432.000000
30
0.000000
11
1719.200000
21
-430.500000
31
0.000000
0
LINE
8
DECOUPE
10
1719.200000
20
-430.500000
30
0.000000
11
1720.700000
21
-432.000000
31
0.000000
0
LINE
8
DECOUPE
10
1720.700000
20
-432.000000
30
0.000000
11
1719.200000
21
-433.500000
31
0.000000
0
LINE
8
DECOUPE
10
1719.200000
20
-433.500000
30
0.000000
11
1719.200000
21
-439.000000
31
0.000000
0
ARC
8
DECOUPE
10
1720.200000
20
-439.000000
30
0.000000
40
1.000000
50
180.000000
51
270.000000
0
LINE
8
DECOUPE
10
1720.200000
20
-440.000000
30
0.000000
11
1935.273858
21
-440.000000
31
0.000000
0
ARC
8
DECOUPE
10
1935.273858
20
-439.000000
30
0.000000
40
1.000000
50
270.000000
51
52.000000
0
LINE
8
DECOUPE
10
1935.889520
20
-438.211989
30
0.000000
11
1921.531937
21
-426.994616
31
0.000000
0
LINE
8
DECOUPE
10
1921.531937
20
-426.994616
30
0.000000
11
1919.426428
21
-427.253140
31
0.000000
0
LINE
8
DECOUPE
10
1919.426428
20
-427.253140
30
0.000000
11
1919.167905
21
-425.147632
31
0.000000
0
LINE
8
DECOUPE
10
1919.167905
20
-425.147632
30
0.000000
11
1921.273413
21
-424.889108
31
0.000000
0
LINE
8
DECOUPE
10
1921.273413
20
-424.889108
30
0.000000
11
1924.597985
21
-420.633850
31
0.000000
0
LINE
8
DECOUPE
10
1924.597985
20
-420.633850
30
0.000000
11
1924.339461
21
-418.528341
31
0.000000
0
LINE
8
DECOUPE
10
1924.339461
20
-418.528341
30
0.000000
11
1926.444969
21
-418.269817
31
0.000000
0
LINE
8
DECOUPE
10
1926.444969
20
-418.269817
30
0.000000
11
1926.703493
21
-420.375326
31
0.000000
0
LINE
8
DECOUPE
10
1926.703493
20
-420.375326
30
0.000000
11
1943.384339
21
-433.407830
31
0.000000
0
ARC
8
DECOUPE
10
1944.000000
20
-432.619820
30
0.000000
40
1.000000
50
232.000000
51
0.000000
0
LINE
8
DECOUPE
10
1945.000000
20
-432.619820
30
0.000000
11
1945.000000
21
-7.380180
31
0.000000
0
ARC
8
DECOUPE
10
1944.000000
20
-7.380180
30
0.000000
40
1.000000
50
0.000000
51
128.000000
0
LINE
8
DECOUPE
10
1943.384339
20
-6.592170
30
0.000000
11
1926.703493
21
-19.624674
31
0.000000
0
LINE
8
DECOUPE
10
1926.703493
20
-19.624674
30
0.000000
11
1926.444969
21
-21.730183
31
0.000000
0
LINE
8
DECOUPE
10
1926.444969
20
-21.730183
30
0.000000
11
1924.339461
21
-21.471659
31
0.000000
0
LINE
8
DECOUPE
10
1924.339461
20
-21.471659
30
0.000000
11
1924.597985
21
-19.366150
31
0.000000
0
LINE
8
DECOUPE
10
1924.597985
20
-19.366150
30
0.000000
11
1921.273413
21
-15.110892
31
0.000000
0
LINE
8
DECOUPE
10
1921.273413
20
-15.110892
30
0.000000
11
1919.167905
21
-14.852368
31
0.000000
0
LINE
8
DECOUPE
10
1919.167905
20
-14.852368
30
0.000000
11
1919.426428
21
-12.746860
31
0.000000
0
LINE
8
DECOUPE
10
1919.426428
20
-12.746860
30
0.000000
11
1921.531937
21
-13.005384
31
0.000000
0
LINE
8
DECOUPE
10
1921.531937
20
-13.005384
30
0.000000
11
1935.889520
21
-1.788011
31
0.000000
0
ARC
8
DECOUPE
10
1935.273858
20
-1.000000
30
0.000000
40
1.000000
50
308.000000
51
90.000000
0
LINE
8
DECOUPE
10
1935.273858
20
0.000000
30
0.000000
11
994.726142
21
0.000000
31
0.000000
0
ARC
8
DECOUPE
10
994.726142
20
-1.000000
30
0.000000
40
1.000000
50
90.000000
51
232.000000
0
LINE
8
DECOUPE
10
994.110480
20
-1.788011
30
0.000000
11
1008.468063
21
-13.005384
31
0.000000
0
LINE
8
DECOUPE
10
1008.468063
20
-13.005384
30
0.000000
11
1010.573572
21
-12.746860
31
0.000000
0
LINE
8
DECOUPE
10
1010.573572
20
-12.746860
30
0.000000
11
1010.832095
21
-14.852368
31
0.000000
0
LINE
8
DECOUPE
10
1010.832095
20
-14.852368
30
0.000000
11
1008.726587
21
-15.110892
31
0.000000
0
LINE
8
DECOUPE
10
1008.726587
20
-15.110892
30
0.000000
11
1005.402015
21
-19.366150
31
0.000000
0
LINE
8
DECOUPE
10
1005.402015
20
-19.366150
30
0.000000
11
1005.660539
21
-21.471659
31
0.000000
0
LINE
8
DECOUPE
10
1005.660539
20
-21.471659
30
0.000000
11
1003.555031
21
-21.730183
31
0.000000
0
LINE
8
DECOUPE
10
1003.555031
20
-21.730183
30
0.000000
11
1003.296507
21
-19.624674
31
0.000000
0
LINE
8
DECOUPE
10
1003.296507
20
-19.624674
30
0.000000
11
986.615661
21
-6.592170
31
0.000000
0
ARC
8
DECOUPE
10
986.000000
20
-7.380180
30
0.000000
40
1.000000
50
52.000000
51
180.000000
0
LINE
8
DECOUPE
10
1030.000000
20
-84.306798
30
0.000000
11
1030.000000
21
-378.000000
31
0.000000
0
ARC
8
DECOUPE
10
1052.000000
20
-378.000000
30
0.000000
40
22.000000
50
180.000000
51
270.000000
0
LINE
8
DECOUPE
10
1052.000000
20
-400.000000
30
0.000000
11
1056.717122
21
-400.000000
31
0.000000
0
ARC
8
DECOUPE
10
1056.717122
20
-390.000000
30
0.000000
40
10.000000
50
270.000000
51
282.006227
0
ARC
8
DECOUPE
10
1090.000000
20
-546.500000
30
0.000000
40
150.000000
50
77.993773
51
102.006227
0
ARC
8
DECOUPE
10
1123.282878
20
-390.000000
30
0.000000
40
10.000000
50
257.993773
51
270.000000
0
LINE
8
DECOUPE
10
1123.282878
20
-400.000000
30
0.000000
11
1806.717122
21
-400.000000
31
0.000000
0
ARC
8
DECOUPE
10
1806.717122
20
-390.000000
30
0.000000
40
10.000000
50
270.000000
51
282.006227
0
ARC
8
DECOUPE
10
1840.000000
20
-546.500000
30
0.000000
40
150.000000
50
77.993773
51
102.006227
0
ARC
8
DECOUPE
10
1873.282878
20
-390.000000
30
0.000000
40
10.000000
50
257.993773
51
270.000000
0
LINE
8
DECOUPE
10
1873.282878
20
-400.000000
30
0.000000
11
1878.000000
21
-400.000000
31
0.000000
0
ARC
8
DECOUPE
10
1878.000000
20
-378.000000
30
0.000000
40
22.000000
50
270.000000
51
0.000000
0
LINE
8
DECOUPE
10
1900.000000
20
-378.000000
30
0.000000
11
1900.000000
21
-84.306798
31
0.000000
0
ARC
8
DECOUPE
10
1880.000000
20
-84.306798
30
0.000000
40
20.000000
50
360.000000
51
107.969140
0
LINE
8
DECOUPE
10
1873.829906
20
-65.282342
30
0.000000
11
1547.287383
21
-171.188025
31
0.000000
0
ARC
8
DECOUPE
10
1555.000000
20
-194.968596
30
0.000000
40
25.000000
50
107.969140
51
180.000000
0
LINE
8
DECOUPE
10
1530.000000
20
-194.968596
30
0.000000
11
1530.000000
21
-209.000000
31
0.000000
0
ARC
8
DECOUPE
10
1515.000000
20
-209.000000
30
0.000000
40
15.000000
50
270.000000
51
0.000000
0
LINE
8
DECOUPE
10
1515.000000
20
-224.000000
30
0.000000
11
1415.000000
21
-224.000000
31
0.000000
0
ARC
8
DECOUPE
10
1415.000000
20
-209.000000
30
0.000000
40
15.000000
50
180.000000
51
270.000000
0
LINE
8
DECOUPE
10
1400.000000
20
-209.000000
30
0.000000
11
1400.000000
21
-194.968596
31
0.000000
0
ARC
8
DECOUPE
10
1375.000000
20
-194.968596
30
0.000000
40
25.000000
50
0.000000
51
72.030860
0
LINE
8
DECOUPE
10
1382.712617
20
-171.188025
30
0.000000
11
1056.170094
21
-65.282342
31
0.000000
0
ARC
8
DECOUPE
10
1050.000000
20
-84.306798
30
0.000000
40
20.000000
50
72.030860
51
180.000000
0
ARC
8
DECOUPE
10
1350.022566
20
-70.598253
30
0.000000
40
40.598253
50
0.000000
51
180.000000
0
ARC
8
DECOUPE
10
1350.022566
20
-70.598253
30
0.000000
40
40.598253
50
180.000000
51
0.000000
0
ARC
8
DECOUPE
10
1272.112152
20
-58.279963
30
0.000000
40
28.279963
50
0.000000
51
180.000000
0
ARC
8
DECOUPE
10
1272.112152
20
-58.279963
30
0.000000
40
28.279963
50
180.000000
51
0.000000
0
ARC
8
DECOUPE
10
1215.249104
20
-49.289438
30
0.000000
40
19.289438
50
0.000000
51
180.000000
0
ARC
8
DECOUPE
10
1215.249104
20
-49.289438
30
0.000000
40
19.289438
50
180.000000
51
0.000000
0
ARC
8
DECOUPE
10
1173.747511
20
-42.727687
30
0.000000
40
12.727687
50
0.000000
51
180.000000
0
ARC
8
DECOUPE
10
1173.747511
20
-42.727687
30
0.000000
40
12.727687
50
180.000000
51
0.000000
0
ARC
8
DECOUPE
10
1579.977434
20
-70.598253
30
0.000000
40
40.598253
50
0.000000
51
180.000000
0
ARC
8
DECOUPE
10
1579.977434
20
-70.598253
30
0.000000
40
40.598253
50
180.000000
51
0.000000
0
ARC
8
DECOUPE
10
1657.887848
20
-58.279963
30
0.000000
40
28.279963
50
0.000000
51
180.000000
0
ARC
8
DECOUPE
10
1657.887848
20
-58.279963
30
0.000000
40
28.279963
50
180.000000
51
0.000000
0
ARC
8
DECOUPE
10
1714.750896
20
-49.289438
30
0.000000
40
19.289438
50
0.000000
51
180.000000
0
ARC
8
DECOUPE
10
1714.750896
20
-49.289438
30
0.000000
40
19.289438
50
180.000000
51
0.000000
0
ARC
8
DECOUPE
10
1756.252489
20
-42.727687
30
0.000000
40
12.727687
50
0.000000
51
180.000000
0
ARC
8
DECOUPE
10
1756.252489
20
-42.727687
30
0.000000
40
12.727687
50
180.000000
51
0.000000
0
ARC
8
DECOUPE
10
1180.000000
20
-420.000000
30
0.000000
40
10.000000
50
0.000000
51
180.000000
0
ARC
8
DECOUPE
10
1180.000000
20
-420.000000
30
0.000000
40
10.000000
50
180.000000
51
0.000000
0
ARC
8
DECOUPE
10
1275.000000
20
-420.000000
30
0.000000
40
10.000000
50
0.000000
51
180.000000
0
ARC
8
DECOUPE
10
1275.000000
20
-420.000000
30
0.000000
40
10.000000
50
180.000000
51
0.000000
0
ARC
8
DECOUPE
10
1370.000000
20
-420.000000
30
0.000000
40
10.000000
50
0.000000
51
180.000000
0
ARC
8
DECOUPE
10
1370.000000
20
-420.000000
30
0.000000
40
10.000000
50
180.000000
51
0.000000
0
ARC
8
DECOUPE
10
1465.000000
20
-420.000000
30
0.000000
40
10.000000
50
0.000000
51
180.000000
0
ARC
8
DECOUPE
10
1465.000000
20
-420.000000
30
0.000000
40
10.000000
50
180.000000
51
0.000000
0
ARC
8
DECOUPE
10
1560.000000
20
-420.000000
30
0.000000
40
10.000000
50
0.000000
51
180.000000
0
ARC
8
DECOUPE
10
1560.000000
20
-420.000000
30
0.000000
40
10.000000
50
180.000000
51
0.000000
0
ARC
8
DECOUPE
10
1655.000000
20
-420.000000
30
0.000000
40
10.000000
50
0.000000
51
180.000000
0
ARC
8
DECOUPE
10
1655.000000
20
-420.000000
30
0.000000
40
10.000000
50
180.000000
51
0.000000
0
ARC
8
DECOUPE
10
1750.000000
20
-420.000000
30
0.000000
40
10.000000
50
0.000000
51
180.000000
0
ARC
8
DECOUPE
10
1750.000000
20
-420.000000
30
0.000000
40
10.000000
50
180.000000
51
0.000000
0
LINE
8
DECOUPE
10
1414.000000
20
-193.200000
30
0.000000
11
1414.000000
21
-178.400000
31
0.000000
0
ARC
8
DECOUPE
10
1421.000000
20
-178.400000
30
0.000000
40
7.000000
50
0.000000
51
180.000000
0
LINE
8
DECOUPE
10
1428.000000
20
-178.400000
30
0.000000
11
1428.000000
21
-193.200000
31
0.000000
0
ARC
8
DECOUPE
10
1421.000000
20
-193.200000
30
0.000000
40
7.000000
50
180.000000
51
0.000000
0
LINE
8
DECOUPE
10
1502.000000
20
-193.200000
30
0.000000
11
1502.000000
21
-178.400000
31
0.000000
0
ARC
8
DECOUPE
10
1509.000000
20
-178.400000
30
0.000000
40
7.000000
50
0.000000
51
180.000000
0
LINE
8
DECOUPE
10
1516.000000
20
-178.400000
30
0.000000
11
1516.000000
21
-193.200000
31
0.000000
0
ARC
8
DECOUPE
10
1509.000000
20
-193.200000
30
0.000000
40
7.000000
50
180.000000
51
0.000000
0
LINE
8
DECOUPE
10
1443.000000
20
-118.288297
30
0.000000
11
1443.000000
21
-179.573586
31
0.000000
0
ARC
8
DECOUPE
10
1447.000000
20
-179.573586
30
0.000000
40
4.000000
50
180.000000
51
270.000000
0
LINE
8
DECOUPE
10
1447.000000
20
-183.573586
30
0.000000
11
1483.000000
21
-183.573586
31
0.000000
0
ARC
8
DECOUPE
10
1483.000000
20
-179.573586
30
0.000000
40
4.000000
50
270.000000
51
0.000000
0
LINE
8
DECOUPE
10
1487.000000
20
-179.573586
30
0.000000
11
1487.000000
21
-118.288297
31
0.000000
0
ARC
8
DECOUPE
10
1483.000000
20
-118.288297
30
0.000000
40
4.000000
50
0.000000
51
90.000000
0
LINE
8
DECOUPE
10
1483.000000
20
-114.288297
30
0.000000
11
1447.000000
21
-114.288297
31
0.000000
0
ARC
8
DECOUPE
10
1447.000000
20
-118.288297
30
0.000000
40
4.000000
50
90.000000
51
180.000000
0
LINE
8
DECOUPE
10
1439.000000
20
-60.088297
30
0.000000
11
1439.000000
21
-76.488297
31
0.000000
0
ARC
8
DECOUPE
10
1441.000000
20
-76.488297
30
0.000000
40
2.000000
50
180.000000
51
270.000000
0
LINE
8
DECOUPE
10
1441.000000
20
-78.488297
30
0.000000
11
1489.000000
21
-78.488297
31
0.000000
0
ARC
8
DECOUPE
10
1489.000000
20
-76.488297
30
0.000000
40
2.000000
50
270.000000
51
0.000000
0
LINE
8
DECOUPE
10
1491.000000
20
-76.488297
30
0.000000
11
1491.000000
21
-60.088297
31
0.000000
0
ARC
8
DECOUPE
10
1489.000000
20
-60.088297
30
0.000000
40
2.000000
50
0.000000
51
90.000000
0
LINE
8
DECOUPE
10
1489.000000
20
-58.088297
30
0.000000
11
1441.000000
21
-58.088297
31
0.000000
0
ARC
8
DECOUPE
10
1441.000000
20
-60.088297
30
0.000000
40
2.000000
50
90.000000
51
180.000000
0
ARC
8
DECOUPE
10
1007.500000
20
-390.000000
30
0.000000
40
5.500000
50
0.000000
51
180.000000
0
ARC
8
DECOUPE
10
1007.500000
20
-390.000000
30
0.000000
40
5.500000
50
180.000000
51
0.000000
0
ARC
8
DECOUPE
10
1007.500000
20
-50.000000
30
0.000000
40
5.500000
50
0.000000
51
180.000000
0
ARC
8
DECOUPE
10
1007.500000
20
-50.000000
30
0.000000
40
5.500000
50
180.000000
51
0.000000
0
ARC
8
DECOUPE
10
1215.000000
20
-98.397372
30
0.000000
40
5.500000
50
0.000000
51
180.000000
0
ARC
8
DECOUPE
10
1215.000000
20
-98.397372
30
0.000000
40
5.500000
50
180.000000
51
0.000000
0
ARC
8
DECOUPE
10
1922.500000
20
-390.000000
30
0.000000
40
5.500000
50
0.000000
51
180.000000
0
ARC
8
DECOUPE
10
1922.500000
20
-390.000000
30
0.000000
40
5.500000
50
180.000000
51
0.000000
0
ARC
8
DECOUPE
10
1922.500000
20
-50.000000
30
0.000000
40
5.500000
50
0.000000
51
180.000000
0
ARC
8
DECOUPE
10
1922.500000
20
-50.000000
30
0.000000
40
5.500000
50
180.000000
51
0.000000
0
ARC
8
DECOUPE
10
1715.000000
20
-98.397372
30
0.000000
40
5.500000
50
0.000000
51
180.000000
0
ARC
8
DECOUPE
10
1715.000000
20
-98.397372
30
0.000000
40
5.500000
50
180.000000
51
0.000000
0
ARC
8
DECOUPE
10
1413.000000
20
-137.288297
30
0.000000
40
5.500000
50
0.000000
51
180.000000
0
ARC
8
DECOUPE
10
1413.000000
20
-137.288297
30
0.000000
40
5.500000
50
180.000000
51
0.000000
0
ARC
8
DECOUPE
10
1517.000000
20
-137.288297
30
0.000000
40
5.500000
50
0.000000
51
180.000000
0
ARC
8
DECOUPE
10
1517.000000
20
-137.288297
30
0.000000
40
5.500000
50
180.000000
51
0.000000
0
ARC
8
DECOUPE
10
1465.000000
20
-29.044149
30
0.000000
40
5.500000
50
0.000000
51
180.000000
0
ARC
8
DECOUPE
10
1465.000000
20
-29.044149
30
0.000000
40
5.500000
50
180.000000
51
0.000000
0
LINE
8
GRAVURE
10
1518.500000
20
-174.900000
30
0.000000
11
1526.500000
21
-174.900000
31
0.000000
0
LINE
8
GRAVURE
10
1518.500000
20
-175.618282
30
0.000000
11
1523.000000
21
-175.618282
31
0.000000
0
LINE
8
GRAVURE
10
1518.500000
20
-176.352181
30
0.000000
11
1526.500000
21
-176.352181
31
0.000000
0
LINE
8
GRAVURE
10
1518.500000
20
-177.101913
30
0.000000
11
1523.000000
21
-177.101913
31
0.000000
0
LINE
8
GRAVURE
10
1518.500000
20
-177.867623
30
0.000000
11
1526.500000
21
-177.867623
31
0.000000
0
LINE
8
GRAVURE
10
1518.500000
20
-178.649373
30
0.000000
11
1523.000000
21
-178.649373
31
0.000000
0
LINE
8
GRAVURE
10
1518.500000
20
-179.447124
30
0.000000
11
1526.500000
21
-179.447124
31
0.000000
0
LINE
8
GRAVURE
10
1518.500000
20
-180.260719
30
0.000000
11
1523.000000
21
-180.260719
31
0.000000
0
LINE
8
GRAVURE
10
1518.500000
20
-181.089868
30
0.000000
11
1526.500000
21
-181.089868
31
0.000000
0
LINE
8
GRAVURE
10
1518.500000
20
-181.934125
30
0.000000
11
1523.000000
21
-181.934125
31
0.000000
0
LINE
8
GRAVURE
10
1518.500000
20
-182.792878
30
0.000000
11
1526.500000
21
-182.792878
31
0.000000
0
LINE
8
GRAVURE
10
1518.500000
20
-183.665331
30
0.000000
11
1523.000000
21
-183.665331
31
0.000000
0
LINE
8
GRAVURE
10
1518.500000
20
-184.550499
30
0.000000
11
1526.500000
21
-184.550499
31
0.000000
0
TEXT
8
TEXTE
10
985.000000
20
-452.000000
30
0.000000
40
6.000000
1
flanc 2/2
0
LINE
8
DECOUPE
10
1970.000000
20
-391.739744
30
0.000000
11
1970.000000
21
-418.805092
31
0.000000
0
ARC
8
DECOUPE
10
1978.000000
20
-418.805092
30
0.000000
40
8.000000
50
180.000000
51
257.905243
0
LINE
8
DECOUPE
10
1976.323767
20
-426.627511
30
0.000000
11
2037.485651
21
-439.733629
31
0.000000
0
ARC
8
DECOUPE
10
2040.000000
20
-428.000000
30
0.000000
40
12.000000
50
257.905243
51
282.094757
0
LINE
8
DECOUPE
10
2042.514349
20
-439.733629
30
0.000000
11
2103.676233
21
-426.627511
31
0.000000
0
ARC
8
DECOUPE
10
2102.000000
20
-418.805092
30
0.000000
40
8.000000
50
282.094757
51
0.000000
0
LINE
8
DECOUPE
10
2110.000000
20
-418.805092
30
0.000000
11
2110.000000
21
-391.739744
31
0.000000
0
ARC
8
DECOUPE
10
2102.000000
20
-391.739744
30
0.000000
40
8.000000
50
0.000000
51
77.905243
0
LINE
8
DECOUPE
10
2103.676233
20
-383.917325
30
0.000000
11
2042.514349
21
-370.811207
31
0.000000
0
ARC
8
DECOUPE
10
2040.000000
20
-382.544836
30
0.000000
40
12.000000
50
77.905243
51
102.094757
0
LINE
8
DECOUPE
10
2037.485651
20
-370.811207
30
0.000000
11
1976.323767
21
-383.917325
31
0.000000
0
ARC
8
DECOUPE
10
1978.000000
20
-391.739744
30
0.000000
40
8.000000
50
102.094757
51
180.000000
0
ARC
8
DECOUPE
10
2040.000000
20
-405.272418
30
0.000000
40
9.000000
50
0.000000
51
180.000000
0
ARC
8
DECOUPE
10
2040.000000
20
-405.272418
30
0.000000
40
9.000000
50
180.000000
51
0.000000
0
ARC
8
DECOUPE
10
1988.000000
20
-405.272418
30
0.000000
40
5.500000
50
0.000000
51
180.000000
0
ARC
8
DECOUPE
10
1988.000000
20
-405.272418
30
0.000000
40
5.500000
50
180.000000
51
0.000000
0
ARC
8
DECOUPE
10
2092.000000
20
-405.272418
30
0.000000
40
5.500000
50
0.000000
51
180.000000
0
ARC
8
DECOUPE
10
2092.000000
20
-405.272418
30
0.000000
40
5.500000
50
180.000000
51
0.000000
0
TEXT
8
TEXTE
10
1970.000000
20
-452.000000
30
0.000000
40
6.000000
1
support 1/2
0
LINE
8
DECOUPE
10
2135.000000
20
-391.739744
30
0.000000
11
2135.000000
21
-418.805092
31
0.000000
0
ARC
8
DECOUPE
10
2143.000000
20
-418.805092
30
0.000000
40
8.000000
50
180.000000
51
257.905243
0
LINE
8
DECOUPE
10
2141.323767
20
-426.627511
30
0.000000
11
2202.485651
21
-439.733629
31
0.000000
0
ARC
8
DECOUPE
10
2205.000000
20
-428.000000
30
0.000000
40
12.000000
50
257.905243
51
282.094757
0
LINE
8
DECOUPE
10
2207.514349
20
-439.733629
30
0.000000
11
2268.676233
21
-426.627511
31
0.000000
0
ARC
8
DECOUPE
10
2267.000000
20
-418.805092
30
0.000000
40
8.000000
50
282.094757
51
0.000000
0
LINE
8
DECOUPE
10
2275.000000
20
-418.805092
30
0.000000
11
2275.000000
21
-391.739744
31
0.000000
0
ARC
8
DECOUPE
10
2267.000000
20
-391.739744
30
0.000000
40
8.000000
50
0.000000
51
77.905243
0
LINE
8
DECOUPE
10
2268.676233
20
-383.917325
30
0.000000
11
2207.514349
21
-370.811207
31
0.000000
0
ARC
8
DECOUPE
10
2205.000000
20
-382.544836
30
0.000000
40
12.000000
50
77.905243
51
102.094757
0
LINE
8
DECOUPE
10
2202.485651
20
-370.811207
30
0.000000
11
2141.323767
21
-383.917325
31
0.000000
0
ARC
8
DECOUPE
10
2143.000000
20
-391.739744
30
0.000000
40
8.000000
50
102.094757
51
180.000000
0
ARC
8
DECOUPE
10
2205.000000
20
-405.272418
30
0.000000
40
9.000000
50
0.000000
51
180.000000
0
ARC
8
DECOUPE
10
2205.000000
20
-405.272418
30
0.000000
40
9.000000
50
180.000000
51
0.000000
0
ARC
8
DECOUPE
10
2153.000000
20
-405.272418
30
0.000000
40
5.500000
50
0.000000
51
180.000000
0
ARC
8
DECOUPE
10
2153.000000
20
-405.272418
30
0.000000
40
5.500000
50
180.000000
51
0.000000
0
ARC
8
DECOUPE
10
2257.000000
20
-405.272418
30
0.000000
40
5.500000
50
0.000000
51
180.000000
0
ARC
8
DECOUPE
10
2257.000000
20
-405.272418
30
0.000000
40
5.500000
50
180.000000
51
0.000000
0
TEXT
8
TEXTE
10
2135.000000
20
-452.000000
30
0.000000
40
6.000000
1
support 2/2
0
LINE
8
DECOUPE
10
2310.200000
20
-402.500000
30
0.000000
11
2310.200000
21
-438.000000
31
0.000000
0
ARC
8
DECOUPE
10
2312.200000
20
-438.000000
30
0.000000
40
2.000000
50
180.000000
51
270.000000
0
LINE
8
DECOUPE
10
2312.200000
20
-440.000000
30
0.000000
11
2367.800000
21
-440.000000
31
0.000000
0
ARC
8
DECOUPE
10
2367.800000
20
-438.000000
30
0.000000
40
2.000000
50
270.000000
51
0.000000
0
LINE
8
DECOUPE
10
2369.800000
20
-438.000000
30
0.000000
11
2369.800000
21
-402.500000
31
0.000000
0
LINE
8
DECOUPE
10
2369.800000
20
-402.500000
30
0.000000
11
2368.300000
21
-401.000000
31
0.000000
0
LINE
8
DECOUPE
10
2368.300000
20
-401.000000
30
0.000000
11
2369.800000
21
-399.500000
31
0.000000
0
LINE
8
DECOUPE
10
2369.800000
20
-399.500000
30
0.000000
11
2371.300000
21
-401.000000
31
0.000000
0
LINE
8
DECOUPE
10
2371.300000
20
-401.000000
30
0.000000
11
2378.000000
21
-401.000000
31
0.000000
0
ARC
8
DECOUPE
10
2378.000000
20
-399.000000
30
0.000000
40
2.000000
50
270.000000
51
0.000000
0
LINE
8
DECOUPE
10
2380.000000
20
-399.000000
30
0.000000
11
2380.000000
21
-383.000000
31
0.000000
0
ARC
8
DECOUPE
10
2378.000000
20
-383.000000
30
0.000000
40
2.000000
50
0.000000
51
90.000000
0
LINE
8
DECOUPE
10
2378.000000
20
-381.000000
30
0.000000
11
2371.300000
21
-381.000000
31
0.000000
0
LINE
8
DECOUPE
10
2371.300000
20
-381.000000
30
0.000000
11
2369.800000
21
-382.500000
31
0.000000
0
LINE
8
DECOUPE
10
2369.800000
20
-382.500000
30
0.000000
11
2368.300000
21
-381.000000
31
0.000000
0
LINE
8
DECOUPE
10
2368.300000
20
-381.000000
30
0.000000
11
2369.800000
21
-379.500000
31
0.000000
0
LINE
8
DECOUPE
10
2369.800000
20
-379.500000
30
0.000000
11
2369.800000
21
-377.000000
31
0.000000
0
ARC
8
DECOUPE
10
2367.800000
20
-377.000000
30
0.000000
40
2.000000
50
0.000000
51
90.000000
0
LINE
8
DECOUPE
10
2367.800000
20
-375.000000
30
0.000000
11
2312.200000
21
-375.000000
31
0.000000
0
ARC
8
DECOUPE
10
2312.200000
20
-377.000000
30
0.000000
40
2.000000
50
90.000000
51
180.000000
0
LINE
8
DECOUPE
10
2310.200000
20
-377.000000
30
0.000000
11
2310.200000
21
-379.500000
31
0.000000
0
LINE
8
DECOUPE
10
2310.200000
20
-379.500000
30
0.000000
11
2311.700000
21
-381.000000
31
0.000000
0
LINE
8
DECOUPE
10
2311.700000
20
-381.000000
30
0.000000
11
2310.200000
21
-382.500000
31
0.000000
0
LINE
8
DECOUPE
10
2310.200000
20
-382.500000
30
0.000000
11
2308.700000
21
-381.000000
31
0.000000
0
LINE
8
DECOUPE
10
2308.700000
20
-381.000000
30
0.000000
11
2302.000000
21
-381.000000
31
0.000000
0
ARC
8
DECOUPE
10
2302.000000
20
-383.000000
30
0.000000
40
2.000000
50
90.000000
51
180.000000
0
LINE
8
DECOUPE
10
2300.000000
20
-383.000000
30
0.000000
11
2300.000000
21
-399.000000
31
0.000000
0
ARC
8
DECOUPE
10
2302.000000
20
-399.000000
30
0.000000
40
2.000000
50
180.000000
51
270.000000
0
LINE
8
DECOUPE
10
2302.000000
20
-401.000000
30
0.000000
11
2308.700000
21
-401.000000
31
0.000000
0
LINE
8
DECOUPE
10
2308.700000
20
-401.000000
30
0.000000
11
2310.200000
21
-399.500000
31
0.000000
0
LINE
8
DECOUPE
10
2310.200000
20
-399.500000
30
0.000000
11
2311.700000
21
-401.000000
31
0.000000
0
LINE
8
DECOUPE
10
2311.700000
20
-401.000000
30
0.000000
11
2310.200000
21
-402.500000
31
0.000000
0
ARC
8
DECOUPE
10
2340.000000
20
-420.000000
30
0.000000
40
5.500000
50
0.000000
51
180.000000
0
ARC
8
DECOUPE
10
2340.000000
20
-420.000000
30
0.000000
40
5.500000
50
180.000000
51
0.000000
0
TEXT
8
TEXTE
10
2300.000000
20
-452.000000
30
0.000000
40
6.000000
1
traverse 1/6
0
LINE
8
DECOUPE
10
2415.200000
20
-402.500000
30
0.000000
11
2415.200000
21
-438.000000
31
0.000000
0
ARC
8
DECOUPE
10
2417.200000
20
-438.000000
30
0.000000
40
2.000000
50
180.000000
51
270.000000
0
LINE
8
DECOUPE
10
2417.200000
20
-440.000000
30
0.000000
11
2472.800000
21
-440.000000
31
0.000000
0
ARC
8
DECOUPE
10
2472.800000
20
-438.000000
30
0.000000
40
2.000000
50
270.000000
51
0.000000
0
LINE
8
DECOUPE
10
2474.800000
20
-438.000000
30
0.000000
11
2474.800000
21
-402.500000
31
0.000000
0
LINE
8
DECOUPE
10
2474.800000
20
-402.500000
30
0.000000
11
2473.300000
21
-401.000000
31
0.000000
0
LINE
8
DECOUPE
10
2473.300000
20
-401.000000
30
0.000000
11
2474.800000
21
-399.500000
31
0.000000
0
LINE
8
DECOUPE
10
2474.800000
20
-399.500000
30
0.000000
11
2476.300000
21
-401.000000
31
0.000000
0
LINE
8
DECOUPE
10
2476.300000
20
-401.000000
30
0.000000
11
2483.000000
21
-401.000000
31
0.000000
0
ARC
8
DECOUPE
10
2483.000000
20
-399.000000
30
0.000000
40
2.000000
50
270.000000
51
0.000000
0
LINE
8
DECOUPE
10
2485.000000
20
-399.000000
30
0.000000
11
2485.000000
21
-383.000000
31
0.000000
0
ARC
8
DECOUPE
10
2483.000000
20
-383.000000
30
0.000000
40
2.000000
50
0.000000
51
90.000000
0
LINE
8
DECOUPE
10
2483.000000
20
-381.000000
30
0.000000
11
2476.300000
21
-381.000000
31
0.000000
0
LINE
8
DECOUPE
10
2476.300000
20
-381.000000
30
0.000000
11
2474.800000
21
-382.500000
31
0.000000
0
LINE
8
DECOUPE
10
2474.800000
20
-382.500000
30
0.000000
11
2473.300000
21
-381.000000
31
0.000000
0
LINE
8
DECOUPE
10
2473.300000
20
-381.000000
30
0.000000
11
2474.800000
21
-379.500000
31
0.000000
0
LINE
8
DECOUPE
10
2474.800000
20
-379.500000
30
0.000000
11
2474.800000
21
-377.000000
31
0.000000
0
ARC
8
DECOUPE
10
2472.800000
20
-377.000000
30
0.000000
40
2.000000
50
0.000000
51
90.000000
0
LINE
8
DECOUPE
10
2472.800000
20
-375.000000
30
0.000000
11
2417.200000
21
-375.000000
31
0.000000
0
ARC
8
DECOUPE
10
2417.200000
20
-377.000000
30
0.000000
40
2.000000
50
90.000000
51
180.000000
0
LINE
8
DECOUPE
10
2415.200000
20
-377.000000
30
0.000000
11
2415.200000
21
-379.500000
31
0.000000
0
LINE
8
DECOUPE
10
2415.200000
20
-379.500000
30
0.000000
11
2416.700000
21
-381.000000
31
0.000000
0
LINE
8
DECOUPE
10
2416.700000
20
-381.000000
30
0.000000
11
2415.200000
21
-382.500000
31
0.000000
0
LINE
8
DECOUPE
10
2415.200000
20
-382.500000
30
0.000000
11
2413.700000
21
-381.000000
31
0.000000
0
LINE
8
DECOUPE
10
2413.700000
20
-381.000000
30
0.000000
11
2407.000000
21
-381.000000
31
0.000000
0
ARC
8
DECOUPE
10
2407.000000
20
-383.000000
30
0.000000
40
2.000000
50
90.000000
51
180.000000
0
LINE
8
DECOUPE
10
2405.000000
20
-383.000000
30
0.000000
11
2405.000000
21
-399.000000
31
0.000000
0
ARC
8
DECOUPE
10
2407.000000
20
-399.000000
30
0.000000
40
2.000000
50
180.000000
51
270.000000
0
LINE
8
DECOUPE
10
2407.000000
20
-401.000000
30
0.000000
11
2413.700000
21
-401.000000
31
0.000000
0
LINE
8
DECOUPE
10
2413.700000
20
-401.000000
30
0.000000
11
2415.200000
21
-399.500000
31
0.000000
0
LINE
8
DECOUPE
10
2415.200000
20
-399.500000
30
0.000000
11
2416.700000
21
-401.000000
31
0.000000
0
LINE
8
DECOUPE
10
2416.700000
20
-401.000000
30
0.000000
11
2415.200000
21
-402.500000
31
0.000000
0
ARC
8
DECOUPE
10
2445.000000
20
-420.000000
30
0.000000
40
5.500000
50
0.000000
51
180.000000
0
ARC
8
DECOUPE
10
2445.000000
20
-420.000000
30
0.000000
40
5.500000
50
180.000000
51
0.000000
0
TEXT
8
TEXTE
10
2405.000000
20
-452.000000
30
0.000000
40
6.000000
1
traverse 2/6
0
LINE
8
DECOUPE
10
2520.200000
20
-402.500000
30
0.000000
11
2520.200000
21
-438.000000
31
0.000000
0
ARC
8
DECOUPE
10
2522.200000
20
-438.000000
30
0.000000
40
2.000000
50
180.000000
51
270.000000
0
LINE
8
DECOUPE
10
2522.200000
20
-440.000000
30
0.000000
11
2577.800000
21
-440.000000
31
0.000000
0
ARC
8
DECOUPE
10
2577.800000
20
-438.000000
30
0.000000
40
2.000000
50
270.000000
51
0.000000
0
LINE
8
DECOUPE
10
2579.800000
20
-438.000000
30
0.000000
11
2579.800000
21
-402.500000
31
0.000000
0
LINE
8
DECOUPE
10
2579.800000
20
-402.500000
30
0.000000
11
2578.300000
21
-401.000000
31
0.000000
0
LINE
8
DECOUPE
10
2578.300000
20
-401.000000
30
0.000000
11
2579.800000
21
-399.500000
31
0.000000
0
LINE
8
DECOUPE
10
2579.800000
20
-399.500000
30
0.000000
11
2581.300000
21
-401.000000
31
0.000000
0
LINE
8
DECOUPE
10
2581.300000
20
-401.000000
30
0.000000
11
2588.000000
21
-401.000000
31
0.000000
0
ARC
8
DECOUPE
10
2588.000000
20
-399.000000
30
0.000000
40
2.000000
50
270.000000
51
0.000000
0
LINE
8
DECOUPE
10
2590.000000
20
-399.000000
30
0.000000
11
2590.000000
21
-383.000000
31
0.000000
0
ARC
8
DECOUPE
10
2588.000000
20
-383.000000
30
0.000000
40
2.000000
50
0.000000
51
90.000000
0
LINE
8
DECOUPE
10
2588.000000
20
-381.000000
30
0.000000
11
2581.300000
21
-381.000000
31
0.000000
0
LINE
8
DECOUPE
10
2581.300000
20
-381.000000
30
0.000000
11
2579.800000
21
-382.500000
31
0.000000
0
LINE
8
DECOUPE
10
2579.800000
20
-382.500000
30
0.000000
11
2578.300000
21
-381.000000
31
0.000000
0
LINE
8
DECOUPE
10
2578.300000
20
-381.000000
30
0.000000
11
2579.800000
21
-379.500000
31
0.000000
0
LINE
8
DECOUPE
10
2579.800000
20
-379.500000
30
0.000000
11
2579.800000
21
-377.000000
31
0.000000
0
ARC
8
DECOUPE
10
2577.800000
20
-377.000000
30
0.000000
40
2.000000
50
0.000000
51
90.000000
0
LINE
8
DECOUPE
10
2577.800000
20
-375.000000
30
0.000000
11
2522.200000
21
-375.000000
31
0.000000
0
ARC
8
DECOUPE
10
2522.200000
20
-377.000000
30
0.000000
40
2.000000
50
90.000000
51
180.000000
0
LINE
8
DECOUPE
10
2520.200000
20
-377.000000
30
0.000000
11
2520.200000
21
-379.500000
31
0.000000
0
LINE
8
DECOUPE
10
2520.200000
20
-379.500000
30
0.000000
11
2521.700000
21
-381.000000
31
0.000000
0
LINE
8
DECOUPE
10
2521.700000
20
-381.000000
30
0.000000
11
2520.200000
21
-382.500000
31
0.000000
0
LINE
8
DECOUPE
10
2520.200000
20
-382.500000
30
0.000000
11
2518.700000
21
-381.000000
31
0.000000
0
LINE
8
DECOUPE
10
2518.700000
20
-381.000000
30
0.000000
11
2512.000000
21
-381.000000
31
0.000000
0
ARC
8
DECOUPE
10
2512.000000
20
-383.000000
30
0.000000
40
2.000000
50
90.000000
51
180.000000
0
LINE
8
DECOUPE
10
2510.000000
20
-383.000000
30
0.000000
11
2510.000000
21
-399.000000
31
0.000000
0
ARC
8
DECOUPE
10
2512.000000
20
-399.000000
30
0.000000
40
2.000000
50
180.000000
51
270.000000
0
LINE
8
DECOUPE
10
2512.000000
20
-401.000000
30
0.000000
11
2518.700000
21
-401.000000
31
0.000000
0
LINE
8
DECOUPE
10
2518.700000
20
-401.000000
30
0.000000
11
2520.200000
21
-399.500000
31
0.000000
0
LINE
8
DECOUPE
10
2520.200000
20
-399.500000
30
0.000000
11
2521.700000
21
-401.000000
31
0.000000
0
LINE
8
DECOUPE
10
2521.700000
20
-401.000000
30
0.000000
11
2520.200000
21
-402.500000
31
0.000000
0
ARC
8
DECOUPE
10
2550.000000
20
-420.000000
30
0.000000
40
5.500000
50
0.000000
51
180.000000
0
ARC
8
DECOUPE
10
2550.000000
20
-420.000000
30
0.000000
40
5.500000
50
180.000000
51
0.000000
0
TEXT
8
TEXTE
10
2510.000000
20
-452.000000
30
0.000000
40
6.000000
1
traverse 3/6
0
LINE
8
DECOUPE
10
2625.200000
20
-402.500000
30
0.000000
11
2625.200000
21
-438.000000
31
0.000000
0
ARC
8
DECOUPE
10
2627.200000
20
-438.000000
30
0.000000
40
2.000000
50
180.000000
51
270.000000
0
LINE
8
DECOUPE
10
2627.200000
20
-440.000000
30
0.000000
11
2682.800000
21
-440.000000
31
0.000000
0
ARC
8
DECOUPE
10
2682.800000
20
-438.000000
30
0.000000
40
2.000000
50
270.000000
51
0.000000
0
LINE
8
DECOUPE
10
2684.800000
20
-438.000000
30
0.000000
11
2684.800000
21
-402.500000
31
0.000000
0
LINE
8
DECOUPE
10
2684.800000
20
-402.500000
30
0.000000
11
2683.300000
21
-401.000000
31
0.000000
0
LINE
8
DECOUPE
10
2683.300000
20
-401.000000
30
0.000000
11
2684.800000
21
-399.500000
31
0.000000
0
LINE
8
DECOUPE
10
2684.800000
20
-399.500000
30
0.000000
11
2686.300000
21
-401.000000
31
0.000000
0
LINE
8
DECOUPE
10
2686.300000
20
-401.000000
30
0.000000
11
2693.000000
21
-401.000000
31
0.000000
0
ARC
8
DECOUPE
10
2693.000000
20
-399.000000
30
0.000000
40
2.000000
50
270.000000
51
0.000000
0
LINE
8
DECOUPE
10
2695.000000
20
-399.000000
30
0.000000
11
2695.000000
21
-383.000000
31
0.000000
0
ARC
8
DECOUPE
10
2693.000000
20
-383.000000
30
0.000000
40
2.000000
50
0.000000
51
90.000000
0
LINE
8
DECOUPE
10
2693.000000
20
-381.000000
30
0.000000
11
2686.300000
21
-381.000000
31
0.000000
0
LINE
8
DECOUPE
10
2686.300000
20
-381.000000
30
0.000000
11
2684.800000
21
-382.500000
31
0.000000
0
LINE
8
DECOUPE
10
2684.800000
20
-382.500000
30
0.000000
11
2683.300000
21
-381.000000
31
0.000000
0
LINE
8
DECOUPE
10
2683.300000
20
-381.000000
30
0.000000
11
2684.800000
21
-379.500000
31
0.000000
0
LINE
8
DECOUPE
10
2684.800000
20
-379.500000
30
0.000000
11
2684.800000
21
-377.000000
31
0.000000
0
ARC
8
DECOUPE
10
2682.800000
20
-377.000000
30
0.000000
40
2.000000
50
0.000000
51
90.000000
0
LINE
8
DECOUPE
10
2682.800000
20
-375.000000
30
0.000000
11
2627.200000
21
-375.000000
31
0.000000
0
ARC
8
DECOUPE
10
2627.200000
20
-377.000000
30
0.000000
40
2.000000
50
90.000000
51
180.000000
0
LINE
8
DECOUPE
10
2625.200000
20
-377.000000
30
0.000000
11
2625.200000
21
-379.500000
31
0.000000
0
LINE
8
DECOUPE
10
2625.200000
20
-379.500000
30
0.000000
11
2626.700000
21
-381.000000
31
0.000000
0
LINE
8
DECOUPE
10
2626.700000
20
-381.000000
30
0.000000
11
2625.200000
21
-382.500000
31
0.000000
0
LINE
8
DECOUPE
10
2625.200000
20
-382.500000
30
0.000000
11
2623.700000
21
-381.000000
31
0.000000
0
LINE
8
DECOUPE
10
2623.700000
20
-381.000000
30
0.000000
11
2617.000000
21
-381.000000
31
0.000000
0
ARC
8
DECOUPE
10
2617.000000
20
-383.000000
30
0.000000
40
2.000000
50
90.000000
51
180.000000
0
LINE
8
DECOUPE
10
2615.000000
20
-383.000000
30
0.000000
11
2615.000000
21
-399.000000
31
0.000000
0
ARC
8
DECOUPE
10
2617.000000
20
-399.000000
30
0.000000
40
2.000000
50
180.000000
51
270.000000
0
LINE
8
DECOUPE
10
2617.000000
20
-401.000000
30
0.000000
11
2623.700000
21
-401.000000
31
0.000000
0
LINE
8
DECOUPE
10
2623.700000
20
-401.000000
30
0.000000
11
2625.200000
21
-399.500000
31
0.000000
0
LINE
8
DECOUPE
10
2625.200000
20
-399.500000
30
0.000000
11
2626.700000
21
-401.000000
31
0.000000
0
LINE
8
DECOUPE
10
2626.700000
20
-401.000000
30
0.000000
11
2625.200000
21
-402.500000
31
0.000000
0
ARC
8
DECOUPE
10
2655.000000
20
-420.000000
30
0.000000
40
5.500000
50
0.000000
51
180.000000
0
ARC
8
DECOUPE
10
2655.000000
20
-420.000000
30
0.000000
40
5.500000
50
180.000000
51
0.000000
0
TEXT
8
TEXTE
10
2615.000000
20
-452.000000
30
0.000000
40
6.000000
1
traverse 4/6
0
LINE
8
DECOUPE
10
2730.200000
20
-402.500000
30
0.000000
11
2730.200000
21
-438.000000
31
0.000000
0
ARC
8
DECOUPE
10
2732.200000
20
-438.000000
30
0.000000
40
2.000000
50
180.000000
51
270.000000
0
LINE
8
DECOUPE
10
2732.200000
20
-440.000000
30
0.000000
11
2787.800000
21
-440.000000
31
0.000000
0
ARC
8
DECOUPE
10
2787.800000
20
-438.000000
30
0.000000
40
2.000000
50
270.000000
51
0.000000
0
LINE
8
DECOUPE
10
2789.800000
20
-438.000000
30
0.000000
11
2789.800000
21
-402.500000
31
0.000000
0
LINE
8
DECOUPE
10
2789.800000
20
-402.500000
30
0.000000
11
2788.300000
21
-401.000000
31
0.000000
0
LINE
8
DECOUPE
10
2788.300000
20
-401.000000
30
0.000000
11
2789.800000
21
-399.500000
31
0.000000
0
LINE
8
DECOUPE
10
2789.800000
20
-399.500000
30
0.000000
11
2791.300000
21
-401.000000
31
0.000000
0
LINE
8
DECOUPE
10
2791.300000
20
-401.000000
30
0.000000
11
2798.000000
21
-401.000000
31
0.000000
0
ARC
8
DECOUPE
10
2798.000000
20
-399.000000
30
0.000000
40
2.000000
50
270.000000
51
0.000000
0
LINE
8
DECOUPE
10
2800.000000
20
-399.000000
30
0.000000
11
2800.000000
21
-383.000000
31
0.000000
0
ARC
8
DECOUPE
10
2798.000000
20
-383.000000
30
0.000000
40
2.000000
50
0.000000
51
90.000000
0
LINE
8
DECOUPE
10
2798.000000
20
-381.000000
30
0.000000
11
2791.300000
21
-381.000000
31
0.000000
0
LINE
8
DECOUPE
10
2791.300000
20
-381.000000
30
0.000000
11
2789.800000
21
-382.500000
31
0.000000
0
LINE
8
DECOUPE
10
2789.800000
20
-382.500000
30
0.000000
11
2788.300000
21
-381.000000
31
0.000000
0
LINE
8
DECOUPE
10
2788.300000
20
-381.000000
30
0.000000
11
2789.800000
21
-379.500000
31
0.000000
0
LINE
8
DECOUPE
10
2789.800000
20
-379.500000
30
0.000000
11
2789.800000
21
-377.000000
31
0.000000
0
ARC
8
DECOUPE
10
2787.800000
20
-377.000000
30
0.000000
40
2.000000
50
0.000000
51
90.000000
0
LINE
8
DECOUPE
10
2787.800000
20
-375.000000
30
0.000000
11
2732.200000
21
-375.000000
31
0.000000
0
ARC
8
DECOUPE
10
2732.200000
20
-377.000000
30
0.000000
40
2.000000
50
90.000000
51
180.000000
0
LINE
8
DECOUPE
10
2730.200000
20
-377.000000
30
0.000000
11
2730.200000
21
-379.500000
31
0.000000
0
LINE
8
DECOUPE
10
2730.200000
20
-379.500000
30
0.000000
11
2731.700000
21
-381.000000
31
0.000000
0
LINE
8
DECOUPE
10
2731.700000
20
-381.000000
30
0.000000
11
2730.200000
21
-382.500000
31
0.000000
0
LINE
8
DECOUPE
10
2730.200000
20
-382.500000
30
0.000000
11
2728.700000
21
-381.000000
31
0.000000
0
LINE
8
DECOUPE
10
2728.700000
20
-381.000000
30
0.000000
11
2722.000000
21
-381.000000
31
0.000000
0
ARC
8
DECOUPE
10
2722.000000
20
-383.000000
30
0.000000
40
2.000000
50
90.000000
51
180.000000
0
LINE
8
DECOUPE
10
2720.000000
20
-383.000000
30
0.000000
11
2720.000000
21
-399.000000
31
0.000000
0
ARC
8
DECOUPE
10
2722.000000
20
-399.000000
30
0.000000
40
2.000000
50
180.000000
51
270.000000
0
LINE
8
DECOUPE
10
2722.000000
20
-401.000000
30
0.000000
11
2728.700000
21
-401.000000
31
0.000000
0
LINE
8
DECOUPE
10
2728.700000
20
-401.000000
30
0.000000
11
2730.200000
21
-399.500000
31
0.000000
0
LINE
8
DECOUPE
10
2730.200000
20
-399.500000
30
0.000000
11
2731.700000
21
-401.000000
31
0.000000
0
LINE
8
DECOUPE
10
2731.700000
20
-401.000000
30
0.000000
11
2730.200000
21
-402.500000
31
0.000000
0
ARC
8
DECOUPE
10
2760.000000
20
-420.000000
30
0.000000
40
5.500000
50
0.000000
51
180.000000
0
ARC
8
DECOUPE
10
2760.000000
20
-420.000000
30
0.000000
40
5.500000
50
180.000000
51
0.000000
0
TEXT
8
TEXTE
10
2720.000000
20
-452.000000
30
0.000000
40
6.000000
1
traverse 5/6
0
LINE
8
DECOUPE
10
2835.200000
20
-402.500000
30
0.000000
11
2835.200000
21
-438.000000
31
0.000000
0
ARC
8
DECOUPE
10
2837.200000
20
-438.000000
30
0.000000
40
2.000000
50
180.000000
51
270.000000
0
LINE
8
DECOUPE
10
2837.200000
20
-440.000000
30
0.000000
11
2892.800000
21
-440.000000
31
0.000000
0
ARC
8
DECOUPE
10
2892.800000
20
-438.000000
30
0.000000
40
2.000000
50
270.000000
51
0.000000
0
LINE
8
DECOUPE
10
2894.800000
20
-438.000000
30
0.000000
11
2894.800000
21
-402.500000
31
0.000000
0
LINE
8
DECOUPE
10
2894.800000
20
-402.500000
30
0.000000
11
2893.300000
21
-401.000000
31
0.000000
0
LINE
8
DECOUPE
10
2893.300000
20
-401.000000
30
0.000000
11
2894.800000
21
-399.500000
31
0.000000
0
LINE
8
DECOUPE
10
2894.800000
20
-399.500000
30
0.000000
11
2896.300000
21
-401.000000
31
0.000000
0
LINE
8
DECOUPE
10
2896.300000
20
-401.000000
30
0.000000
11
2903.000000
21
-401.000000
31
0.000000
0
ARC
8
DECOUPE
10
2903.000000
20
-399.000000
30
0.000000
40
2.000000
50
270.000000
51
0.000000
0
LINE
8
DECOUPE
10
2905.000000
20
-399.000000
30
0.000000
11
2905.000000
21
-383.000000
31
0.000000
0
ARC
8
DECOUPE
10
2903.000000
20
-383.000000
30
0.000000
40
2.000000
50
0.000000
51
90.000000
0
LINE
8
DECOUPE
10
2903.000000
20
-381.000000
30
0.000000
11
2896.300000
21
-381.000000
31
0.000000
0
LINE
8
DECOUPE
10
2896.300000
20
-381.000000
30
0.000000
11
2894.800000
21
-382.500000
31
0.000000
0
LINE
8
DECOUPE
10
2894.800000
20
-382.500000
30
0.000000
11
2893.300000
21
-381.000000
31
0.000000
0
LINE
8
DECOUPE
10
2893.300000
20
-381.000000
30
0.000000
11
2894.800000
21
-379.500000
31
0.000000
0
LINE
8
DECOUPE
10
2894.800000
20
-379.500000
30
0.000000
11
2894.800000
21
-377.000000
31
0.000000
0
ARC
8
DECOUPE
10
2892.800000
20
-377.000000
30
0.000000
40
2.000000
50
0.000000
51
90.000000
0
LINE
8
DECOUPE
10
2892.800000
20
-375.000000
30
0.000000
11
2837.200000
21
-375.000000
31
0.000000
0
ARC
8
DECOUPE
10
2837.200000
20
-377.000000
30
0.000000
40
2.000000
50
90.000000
51
180.000000
0
LINE
8
DECOUPE
10
2835.200000
20
-377.000000
30
0.000000
11
2835.200000
21
-379.500000
31
0.000000
0
LINE
8
DECOUPE
10
2835.200000
20
-379.500000
30
0.000000
11
2836.700000
21
-381.000000
31
0.000000
0
LINE
8
DECOUPE
10
2836.700000
20
-381.000000
30
0.000000
11
2835.200000
21
-382.500000
31
0.000000
0
LINE
8
DECOUPE
10
2835.200000
20
-382.500000
30
0.000000
11
2833.700000
21
-381.000000
31
0.000000
0
LINE
8
DECOUPE
10
2833.700000
20
-381.000000
30
0.000000
11
2827.000000
21
-381.000000
31
0.000000
0
ARC
8
DECOUPE
10
2827.000000
20
-383.000000
30
0.000000
40
2.000000
50
90.000000
51
180.000000
0
LINE
8
DECOUPE
10
2825.000000
20
-383.000000
30
0.000000
11
2825.000000
21
-399.000000
31
0.000000
0
ARC
8
DECOUPE
10
2827.000000
20
-399.000000
30
0.000000
40
2.000000
50
180.000000
51
270.000000
0
LINE
8
DECOUPE
10
2827.000000
20
-401.000000
30
0.000000
11
2833.700000
21
-401.000000
31
0.000000
0
LINE
8
DECOUPE
10
2833.700000
20
-401.000000
30
0.000000
11
2835.200000
21
-399.500000
31
0.000000
0
LINE
8
DECOUPE
10
2835.200000
20
-399.500000
30
0.000000
11
2836.700000
21
-401.000000
31
0.000000
0
LINE
8
DECOUPE
10
2836.700000
20
-401.000000
30
0.000000
11
2835.200000
21
-402.500000
31
0.000000
0
ARC
8
DECOUPE
10
2865.000000
20
-420.000000
30
0.000000
40
5.500000
50
0.000000
51
180.000000
0
ARC
8
DECOUPE
10
2865.000000
20
-420.000000
30
0.000000
40
5.500000
50
180.000000
51
0.000000
0
TEXT
8
TEXTE
10
2825.000000
20
-452.000000
30
0.000000
40
6.000000
1
traverse 6/6
0
LINE
8
DECOUPE
10
0.000000
20
-484.000000
30
0.000000
11
0.000000
21
-534.000000
31
0.000000
0
ARC
8
DECOUPE
10
4.000000
20
-534.000000
30
0.000000
40
4.000000
50
180.000000
51
270.000000
0
LINE
8
DECOUPE
10
4.000000
20
-538.000000
30
0.000000
11
96.000000
21
-538.000000
31
0.000000
0
ARC
8
DECOUPE
10
96.000000
20
-534.000000
30
0.000000
40
4.000000
50
270.000000
51
0.000000
0
LINE
8
DECOUPE
10
100.000000
20
-534.000000
30
0.000000
11
100.000000
21
-484.000000
31
0.000000
0
ARC
8
DECOUPE
10
96.000000
20
-484.000000
30
0.000000
40
4.000000
50
0.000000
51
90.000000
0
LINE
8
DECOUPE
10
96.000000
20
-480.000000
30
0.000000
11
4.000000
21
-480.000000
31
0.000000
0
ARC
8
DECOUPE
10
4.000000
20
-484.000000
30
0.000000
40
4.000000
50
90.000000
51
180.000000
0
ARC
8
DECOUPE
10
50.000000
20
-509.000000
30
0.000000
40
12.700000
50
0.000000
51
180.000000
0
ARC
8
DECOUPE
10
50.000000
20
-509.000000
30
0.000000
40
12.700000
50
180.000000
51
0.000000
0
ARC
8
DECOUPE
10
15.000000
20
-509.000000
30
0.000000
40
4.150000
50
0.000000
51
180.000000
0
ARC
8
DECOUPE
10
15.000000
20
-509.000000
30
0.000000
40
4.150000
50
180.000000
51
0.000000
0
ARC
8
DECOUPE
10
85.000000
20
-509.000000
30
0.000000
40
4.150000
50
0.000000
51
180.000000
0
ARC
8
DECOUPE
10
85.000000
20
-509.000000
30
0.000000
40
4.150000
50
180.000000
51
0.000000
0
TEXT
8
TEXTE
10
0.000000
20
-550.000000
30
0.000000
40
6.000000
1
poussoir 1/3
0
LINE
8
DECOUPE
10
125.000000
20
-484.000000
30
0.000000
11
125.000000
21
-534.000000
31
0.000000
0
ARC
8
DECOUPE
10
129.000000
20
-534.000000
30
0.000000
40
4.000000
50
180.000000
51
270.000000
0
LINE
8
DECOUPE
10
129.000000
20
-538.000000
30
0.000000
11
221.000000
21
-538.000000
31
0.000000
0
ARC
8
DECOUPE
10
221.000000
20
-534.000000
30
0.000000
40
4.000000
50
270.000000
51
0.000000
0
LINE
8
DECOUPE
10
225.000000
20
-534.000000
30
0.000000
11
225.000000
21
-484.000000
31
0.000000
0
ARC
8
DECOUPE
10
221.000000
20
-484.000000
30
0.000000
40
4.000000
50
0.000000
51
90.000000
0
LINE
8
DECOUPE
10
221.000000
20
-480.000000
30
0.000000
11
129.000000
21
-480.000000
31
0.000000
0
ARC
8
DECOUPE
10
129.000000
20
-484.000000
30
0.000000
40
4.000000
50
90.000000
51
180.000000
0
ARC
8
DECOUPE
10
175.000000
20
-509.000000
30
0.000000
40
12.700000
50
0.000000
51
180.000000
0
ARC
8
DECOUPE
10
175.000000
20
-509.000000
30
0.000000
40
12.700000
50
180.000000
51
0.000000
0
ARC
8
DECOUPE
10
140.000000
20
-509.000000
30
0.000000
40
4.150000
50
0.000000
51
180.000000
0
ARC
8
DECOUPE
10
140.000000
20
-509.000000
30
0.000000
40
4.150000
50
180.000000
51
0.000000
0
ARC
8
DECOUPE
10
210.000000
20
-509.000000
30
0.000000
40
4.150000
50
0.000000
51
180.000000
0
ARC
8
DECOUPE
10
210.000000
20
-509.000000
30
0.000000
40
4.150000
50
180.000000
51
0.000000
0
TEXT
8
TEXTE
10
125.000000
20
-550.000000
30
0.000000
40
6.000000
1
poussoir 2/3
0
LINE
8
DECOUPE
10
250.000000
20
-484.000000
30
0.000000
11
250.000000
21
-534.000000
31
0.000000
0
ARC
8
DECOUPE
10
254.000000
20
-534.000000
30
0.000000
40
4.000000
50
180.000000
51
270.000000
0
LINE
8
DECOUPE
10
254.000000
20
-538.000000
30
0.000000
11
346.000000
21
-538.000000
31
0.000000
0
ARC
8
DECOUPE
10
346.000000
20
-534.000000
30
0.000000
40
4.000000
50
270.000000
51
0.000000
0
LINE
8
DECOUPE
10
350.000000
20
-534.000000
30
0.000000
11
350.000000
21
-484.000000
31
0.000000
0
ARC
8
DECOUPE
10
346.000000
20
-484.000000
30
0.000000
40
4.000000
50
0.000000
51
90.000000
0
LINE
8
DECOUPE
10
346.000000
20
-480.000000
30
0.000000
11
254.000000
21
-480.000000
31
0.000000
0
ARC
8
DECOUPE
10
254.000000
20
-484.000000
30
0.000000
40
4.000000
50
90.000000
51
180.000000
0
ARC
8
DECOUPE
10
300.000000
20
-509.000000
30
0.000000
40
12.700000
50
0.000000
51
180.000000
0
ARC
8
DECOUPE
10
300.000000
20
-509.000000
30
0.000000
40
12.700000
50
180.000000
51
0.000000
0
ARC
8
DECOUPE
10
265.000000
20
-509.000000
30
0.000000
40
4.150000
50
0.000000
51
180.000000
0
ARC
8
DECOUPE
10
265.000000
20
-509.000000
30
0.000000
40
4.150000
50
180.000000
51
0.000000
0
ARC
8
DECOUPE
10
335.000000
20
-509.000000
30
0.000000
40
4.150000
50
0.000000
51
180.000000
0
ARC
8
DECOUPE
10
335.000000
20
-509.000000
30
0.000000
40
4.150000
50
180.000000
51
0.000000
0
TEXT
8
TEXTE
10
250.000000
20
-550.000000
30
0.000000
40
6.000000
1
poussoir 3/3
0
TEXT
8
TEXTE
10
0.000000
20
20.000000
30
0.000000
40
4.000000
1
calques : DECOUPE = couper ; GRAVURE = marquer sans couper ; TEXTE = ni couper ni marquer
0
TEXT
8
TEXTE
10
0.000000
20
29.000000
30
0.000000
40
5.000000
1
rangement en etageres de 3000 mm au plus, pas une imbrication : le decoupeur imbrique sur son format
0
TEXT
8
TEXTE
10
0.000000
20
39.000000
30
0.000000
40
5.000000
1
fentes et encoches taillees pour une tole reelle de 8,00 mm : mesurer la tole livree, regler EP_TOLE_REELLE et regenerer les DXF avant decoupe
0
TEXT
8
TEXTE
10
0.000000
20
49.000000
30
0.000000
40
5.000000
1
brut : tole 8 mm, cert. 3.1, Re >= 430
0
TEXT
8
TEXTE
10
0.000000
20
59.000000
30
0.000000
40
8.000000
1
TOLE 8 mm  42CrMo4 +A  -  13 pieces  -  ind. B du 05/10/2026
0
ENDSEC
0
EOF
