0
SECTION
2
HEADER
9
$ACADVER
1
AC1009
9
$INSUNITS
70
4
9
$MEASUREMENT
70
1
0
ENDSEC
0
SECTION
2
TABLES
0
TABLE
2
LAYER
70
3
0
LAYER
2
0
70
0
62
7
6
CONTINUOUS
0
LAYER
2
DECOUPE
70
0
62
7
6
CONTINUOUS
0
LAYER
2
TEXTE
70
0
62
3
6
CONTINUOUS
0
ENDTAB
0
ENDSEC
0
SECTION
2
ENTITIES
0
LINE
8
DECOUPE
10
-29.800000
20
362.234044
30
0.000000
11
-29.800000
21
326.734044
31
0.000000
0
ARC
8
DECOUPE
10
-27.800000
20
326.734044
30
0.000000
40
2.000000
50
180.000000
51
270.000000
0
LINE
8
DECOUPE
10
-27.800000
20
324.734044
30
0.000000
11
27.800000
21
324.734044
31
0.000000
0
ARC
8
DECOUPE
10
27.800000
20
326.734044
30
0.000000
40
2.000000
50
270.000000
51
0.000000
0
LINE
8
DECOUPE
10
29.800000
20
326.734044
30
0.000000
11
29.800000
21
362.234044
31
0.000000
0
LINE
8
DECOUPE
10
29.800000
20
362.234044
30
0.000000
11
28.300000
21
363.734044
31
0.000000
0
LINE
8
DECOUPE
10
28.300000
20
363.734044
30
0.000000
11
29.800000
21
365.234044
31
0.000000
0
LINE
8
DECOUPE
10
29.800000
20
365.234044
30
0.000000
11
31.300000
21
363.734044
31
0.000000
0
LINE
8
DECOUPE
10
31.300000
20
363.734044
30
0.000000
11
38.000000
21
363.734044
31
0.000000
0
ARC
8
DECOUPE
10
38.000000
20
365.734044
30
0.000000
40
2.000000
50
270.000000
51
0.000000
0
LINE
8
DECOUPE
10
40.000000
20
365.734044
30
0.000000
11
40.000000
21
381.734044
31
0.000000
0
ARC
8
DECOUPE
10
38.000000
20
381.734044
30
0.000000
40
2.000000
50
0.000000
51
90.000000
0
LINE
8
DECOUPE
10
38.000000
20
383.734044
30
0.000000
11
31.300000
21
383.734044
31
0.000000
0
LINE
8
DECOUPE
10
31.300000
20
383.734044
30
0.000000
11
29.800000
21
382.234044
31
0.000000
0
LINE
8
DECOUPE
10
29.800000
20
382.234044
30
0.000000
11
28.300000
21
383.734044
31
0.000000
0
LINE
8
DECOUPE
10
28.300000
20
383.734044
30
0.000000
11
29.800000
21
385.234044
31
0.000000
0
LINE
8
DECOUPE
10
29.800000
20
385.234044
30
0.000000
11
29.800000
21
387.734044
31
0.000000
0
ARC
8
DECOUPE
10
27.800000
20
387.734044
30
0.000000
40
2.000000
50
0.000000
51
90.000000
0
LINE
8
DECOUPE
10
27.800000
20
389.734044
30
0.000000
11
-27.800000
21
389.734044
31
0.000000
0
ARC
8
DECOUPE
10
-27.800000
20
387.734044
30
0.000000
40
2.000000
50
90.000000
51
180.000000
0
LINE
8
DECOUPE
10
-29.800000
20
387.734044
30
0.000000
11
-29.800000
21
385.234044
31
0.000000
0
LINE
8
DECOUPE
10
-29.800000
20
385.234044
30
0.000000
11
-28.300000
21
383.734044
31
0.000000
0
LINE
8
DECOUPE
10
-28.300000
20
383.734044
30
0.000000
11
-29.800000
21
382.234044
31
0.000000
0
LINE
8
DECOUPE
10
-29.800000
20
382.234044
30
0.000000
11
-31.300000
21
383.734044
31
0.000000
0
LINE
8
DECOUPE
10
-31.300000
20
383.734044
30
0.000000
11
-38.000000
21
383.734044
31
0.000000
0
ARC
8
DECOUPE
10
-38.000000
20
381.734044
30
0.000000
40
2.000000
50
90.000000
51
180.000000
0
LINE
8
DECOUPE
10
-40.000000
20
381.734044
30
0.000000
11
-40.000000
21
365.734044
31
0.000000
0
ARC
8
DECOUPE
10
-38.000000
20
365.734044
30
0.000000
40
2.000000
50
180.000000
51
270.000000
0
LINE
8
DECOUPE
10
-38.000000
20
363.734044
30
0.000000
11
-31.300000
21
363.734044
31
0.000000
0
LINE
8
DECOUPE
10
-31.300000
20
363.734044
30
0.000000
11
-29.800000
21
365.234044
31
0.000000
0
LINE
8
DECOUPE
10
-29.800000
20
365.234044
30
0.000000
11
-28.300000
21
363.734044
31
0.000000
0
LINE
8
DECOUPE
10
-28.300000
20
363.734044
30
0.000000
11
-29.800000
21
362.234044
31
0.000000
0
ARC
8
DECOUPE
10
-17.000000
20
344.734044
30
0.000000
40
5.500000
50
0.000000
51
180.000000
0
ARC
8
DECOUPE
10
-17.000000
20
344.734044
30
0.000000
40
5.500000
50
180.000000
51
0.000000
0
ARC
8
DECOUPE
10
17.000000
20
344.734044
30
0.000000
40
5.500000
50
0.000000
51
180.000000
0
ARC
8
DECOUPE
10
17.000000
20
344.734044
30
0.000000
40
5.500000
50
180.000000
51
0.000000
0
TEXT
8
TEXTE
10
-40.000000
20
310.734044
30
0.000000
40
8.000000
1
TRAVERSE  ep8  S355JR  x6
0
TEXT
8
TEXTE
10
-40.000000
20
298.734044
30
0.000000
40
5.000000
1
brut : tole 8 mm, cert. 2.2
0
TEXT
8
TEXTE
10
-40.000000
20
289.734044
30
0.000000
40
5.000000
1
ind. B du 05/10/2026  -  tole S355JR reelle prise a 8,00 mm (fentes ou serrages qui recoivent cette piece)
0
TEXT
8
TEXTE
10
-40.000000
20
280.734044
30
0.000000
40
5.000000
1
PROFIL BRUT : chant du bas +1, a fraiser en paquet a 64 de haut (fini)
0
TEXT
8
TEXTE
10
-40.000000
20
271.734044
30
0.000000
40
4.000000
1
calques : DECOUPE = couper ; GRAVURE = marquer sans couper ; TEXTE = ni couper ni marquer
0
ENDSEC
0
EOF
