0
SECTION
2
HEADER
9
$ACADVER
1
AC1009
9
$INSUNITS
70
4
9
$MEASUREMENT
70
1
0
ENDSEC
0
SECTION
2
TABLES
0
TABLE
2
LAYER
70
3
0
LAYER
2
0
70
0
62
7
6
CONTINUOUS
0
LAYER
2
DECOUPE
70
0
62
7
6
CONTINUOUS
0
LAYER
2
TEXTE
70
0
62
3
6
CONTINUOUS
0
ENDTAB
0
ENDSEC
0
SECTION
2
ENTITIES
0
LINE
8
DECOUPE
10
-29.800000
20
360.211703
30
0.000000
11
-29.800000
21
324.711703
31
0.000000
0
ARC
8
DECOUPE
10
-27.800000
20
324.711703
30
0.000000
40
2.000000
50
180.000000
51
270.000000
0
LINE
8
DECOUPE
10
-27.800000
20
322.711703
30
0.000000
11
27.800000
21
322.711703
31
0.000000
0
ARC
8
DECOUPE
10
27.800000
20
324.711703
30
0.000000
40
2.000000
50
270.000000
51
0.000000
0
LINE
8
DECOUPE
10
29.800000
20
324.711703
30
0.000000
11
29.800000
21
360.211703
31
0.000000
0
LINE
8
DECOUPE
10
29.800000
20
360.211703
30
0.000000
11
28.300000
21
361.711703
31
0.000000
0
LINE
8
DECOUPE
10
28.300000
20
361.711703
30
0.000000
11
29.800000
21
363.211703
31
0.000000
0
LINE
8
DECOUPE
10
29.800000
20
363.211703
30
0.000000
11
31.300000
21
361.711703
31
0.000000
0
LINE
8
DECOUPE
10
31.300000
20
361.711703
30
0.000000
11
38.000000
21
361.711703
31
0.000000
0
ARC
8
DECOUPE
10
38.000000
20
363.711703
30
0.000000
40
2.000000
50
270.000000
51
0.000000
0
LINE
8
DECOUPE
10
40.000000
20
363.711703
30
0.000000
11
40.000000
21
379.711703
31
0.000000
0
ARC
8
DECOUPE
10
38.000000
20
379.711703
30
0.000000
40
2.000000
50
0.000000
51
90.000000
0
LINE
8
DECOUPE
10
38.000000
20
381.711703
30
0.000000
11
31.300000
21
381.711703
31
0.000000
0
LINE
8
DECOUPE
10
31.300000
20
381.711703
30
0.000000
11
29.800000
21
380.211703
31
0.000000
0
LINE
8
DECOUPE
10
29.800000
20
380.211703
30
0.000000
11
28.300000
21
381.711703
31
0.000000
0
LINE
8
DECOUPE
10
28.300000
20
381.711703
30
0.000000
11
29.800000
21
383.211703
31
0.000000
0
LINE
8
DECOUPE
10
29.800000
20
383.211703
30
0.000000
11
29.800000
21
385.711703
31
0.000000
0
ARC
8
DECOUPE
10
27.800000
20
385.711703
30
0.000000
40
2.000000
50
0.000000
51
90.000000
0
LINE
8
DECOUPE
10
27.800000
20
387.711703
30
0.000000
11
-27.800000
21
387.711703
31
0.000000
0
ARC
8
DECOUPE
10
-27.800000
20
385.711703
30
0.000000
40
2.000000
50
90.000000
51
180.000000
0
LINE
8
DECOUPE
10
-29.800000
20
385.711703
30
0.000000
11
-29.800000
21
383.211703
31
0.000000
0
LINE
8
DECOUPE
10
-29.800000
20
383.211703
30
0.000000
11
-28.300000
21
381.711703
31
0.000000
0
LINE
8
DECOUPE
10
-28.300000
20
381.711703
30
0.000000
11
-29.800000
21
380.211703
31
0.000000
0
LINE
8
DECOUPE
10
-29.800000
20
380.211703
30
0.000000
11
-31.300000
21
381.711703
31
0.000000
0
LINE
8
DECOUPE
10
-31.300000
20
381.711703
30
0.000000
11
-38.000000
21
381.711703
31
0.000000
0
ARC
8
DECOUPE
10
-38.000000
20
379.711703
30
0.000000
40
2.000000
50
90.000000
51
180.000000
0
LINE
8
DECOUPE
10
-40.000000
20
379.711703
30
0.000000
11
-40.000000
21
363.711703
31
0.000000
0
ARC
8
DECOUPE
10
-38.000000
20
363.711703
30
0.000000
40
2.000000
50
180.000000
51
270.000000
0
LINE
8
DECOUPE
10
-38.000000
20
361.711703
30
0.000000
11
-31.300000
21
361.711703
31
0.000000
0
LINE
8
DECOUPE
10
-31.300000
20
361.711703
30
0.000000
11
-29.800000
21
363.211703
31
0.000000
0
LINE
8
DECOUPE
10
-29.800000
20
363.211703
30
0.000000
11
-28.300000
21
361.711703
31
0.000000
0
LINE
8
DECOUPE
10
-28.300000
20
361.711703
30
0.000000
11
-29.800000
21
360.211703
31
0.000000
0
ARC
8
DECOUPE
10
0.000000
20
342.711703
30
0.000000
40
5.500000
50
0.000000
51
180.000000
0
ARC
8
DECOUPE
10
0.000000
20
342.711703
30
0.000000
40
5.500000
50
180.000000
51
0.000000
0
TEXT
8
TEXTE
10
-40.000000
20
308.711703
30
0.000000
40
8.000000
1
TRAVERSE  ep8  S355JR  x6
0
TEXT
8
TEXTE
10
-40.000000
20
296.711703
30
0.000000
40
5.000000
1
brut : tole 8 mm, cert. 2.2
0
TEXT
8
TEXTE
10
-40.000000
20
287.711703
30
0.000000
40
5.000000
1
ind. B du 05/10/2026  -  tole S355JR reelle prise a 8,00 mm (fentes ou serrages qui recoivent cette piece)
0
TEXT
8
TEXTE
10
-40.000000
20
278.711703
30
0.000000
40
5.000000
1
PROFIL BRUT : chant du bas +1, a fraiser en paquet a 64 de haut (fini)
0
TEXT
8
TEXTE
10
-40.000000
20
269.711703
30
0.000000
40
4.000000
1
calques : DECOUPE = couper ; GRAVURE = marquer sans couper ; TEXTE = ni couper ni marquer
0
ENDSEC
0
EOF
